<?xml version="1.0" encoding="UTF-8"?>
<svg id="ICONS" xmlns="http://www.w3.org/2000/svg" viewBox="0 0 100 100">
  <defs>
    <style>
      .cls-1 {
        fill: #e32d73;
        fill-rule: evenodd;
      }

      .cls-1, .cls-2 {
        stroke-width: 0px;
      }

      .cls-2 {
        fill: #273a7c;
      }
    </style>
  </defs>
  <g>
    <path class="cls-1" d="m84,39.61c1.02.44,2.62,1.17,3.8,1.03.13.05.3.02.34-.16.44-1.85.68-3.77.83-5.66.11-1.32.27-3.01-.8-4.01-1.49-1.38-2.49,3.43-2.57,4.56-.14-.04-.29-.08-.46-.12-.06-.06-.16-.08-.23-.05-.42-.09-.87-.16-1.32-.19,0-.02,0-.04-.01-.07-.04-.23-.36-.15-.36.05-1.4,0-2.59.49-2.1,2.25.36,1.29,1.78,1.9,2.89,2.38Zm2.59-6.74c.15-.51.36-.99.65-1.44-.03,1.13-.08,2.37-.02,3.6-.1-.66-.2-1.32-.31-1.99-.03-.21-.31-.17-.37,0,.02-.06.03-.12.05-.17Zm-.05.19s0,.05,0,.08c.17,1.16.33,2.32.46,3.49.05.4.07.81.11,1.23-.04-.2-.07-.4-.1-.6-.1-.77-.19-1.54-.32-2.3-.04-.23-.38-.14-.35.09.03.21.06.42.08.64-.09-.16-.38-.14-.37.08.09,1.24.04,2.86.71,3.95.07.11.29.09.28-.07-.01-.14-.05-.27-.07-.4.04.09.07.18.11.27.05.11.2.07.23-.03.02.13.04.26.07.38.04.17.26.12.28-.03.1-.76.02-1.55-.09-2.33.05.18.09.37.15.55.05.15.28.14.28-.03.04-1.04-.17-2.12-.26-3.16-.1-1.18-.13-2.36-.15-3.54,0-.07-.03-.11-.07-.14.52-.23.94,1.09.99,1.46.27,2.41-.26,5.14-.81,7.5-.6-.17-1.19-.33-1.79-.49.01-.01.03-.03.03-.05.14-.58,0-1.21-.03-1.8-.04-.67-.03-1.34.03-2.01.01-.02.02-.05.03-.08.06-.04.11-.1.11-.19.03-.83.23-1.65.46-2.45Zm-.99,2.78c-.07.65-.08,1.29-.06,1.94.02.59,0,1.24.23,1.79-.17-.05-.33-.09-.5-.14.08-.52,0-1.09,0-1.61,0-.68,0-1.36-.01-2.03.11.02.22.03.34.05Zm-.76-.13c0,.7-.03,1.4-.03,2.11,0,.28-.02.56-.01.85-.05-.39-.15-.78-.18-1.16-.04-.59-.02-1.17.03-1.75,0-.03,0-.06-.02-.08.07.01.14.02.21.04Zm-.52-.09s-.04.05-.05.09c-.09.6-.13,1.19-.12,1.8,0,.04,0,.08,0,.12-.05-.17-.09-.33-.12-.49-.1-.53-.19-1.06-.29-1.59.19.02.38.05.57.08Zm-1.04-.12s.04,0,.05,0c.08.58.15,1.16.24,1.74.08.54.15,1.24.43,1.75-.1-.04-.2-.07-.3-.12.04-.03.07-.07.07-.13.03-.46-.24-.96-.37-1.39-.18-.59-.34-1.18-.5-1.78,0-.03-.02-.05-.03-.07.16,0,.3,0,.41,0Zm-.78.03s-.03.09-.02.15c.14.6.28,1.2.44,1.79.1.39.2.89.44,1.24-.23-.12-.45-.25-.67-.4.04-.02.08-.05.09-.1.13-.38-.08-.87-.15-1.25-.09-.47-.2-.94-.32-1.41.06-.01.12-.02.18-.03Zm-.6.18c.08.41.16.82.24,1.23.07.35.09.84.28,1.17-.04-.03-.09-.06-.13-.1-.53-.43-.82-1.21-.7-1.88.04-.2.16-.33.32-.42Z"/>
    <path class="cls-1" d="m87.99,32.84c-.02,1.27-.09,2.68.14,3.94.02.11.19.11.21,0,.26-1.25-.01-2.66,0-3.94,0-.23-.35-.23-.35,0Z"/>
  </g>
  <path class="cls-1" d="m18.11,65.08c0-.09.02-.19.03-.28.03-.03.04-.07.03-.12,0-.02-.01-.04-.02-.05.13-1.42.14-3.13-.78-4.26-.89-1.1-1.91-1.12-3.03-.33-1.08.76-1.02,2.47-1,3.77-1.14-1.32-4.63-3.48-5.58-1.51-.64,1.31.93,2.83,1.7,3.67,1.86,2.04,4.35,3.43,6.64,4.92.14.09.29.04.38-.05,0,.07,0,.14,0,.21,0,.19.29.22.36.05.77-1.74,1.07-4.13,1.27-6.01Zm-8.49-2.63c.18.29.36.61.53.92-.15,0-.32.14-.23.3.48.91.94,1.82,1.46,2.71.23.39.45.81.7,1.21-.69-.51-1.35-1.06-1.95-1.65,0-.02.01-.05,0-.08-.27-.86-.84-1.57-1.29-2.35-.12-.22-.38-.1-.44.09-.18-.51-.09-.87.16-1.09.32.62.66,1.22.98,1.84.29.56.48,1.19.82,1.72.12.19.37.04.36-.14-.02-.68-.45-1.37-.77-1.96-.3-.56-.63-1.11-.93-1.67.17-.04.37-.05.58-.04-.04.05-.04.13,0,.2Zm7.53,4.47c-.32-.7-.76-1.37-1.1-2.04-.5-.96-.97-1.93-1.38-2.93-.12-.29-.56-.11-.45.17.44,1.12.95,2.21,1.51,3.27.02.04.05.09.07.13-.59-.68-1.23-1.28-1.92-1.71,0,0-.01,0-.02,0,.01-.36.02-.71.05-1.07.07-.87.44-3.82,2.35-2.69,1.13.67,1.43,2.12,1.43,3.42-.2-.37-.41-.73-.6-1.08-.41-.76-.85-1.48-1.38-2.16-.15-.2-.46.02-.31.23.05.07.09.15.14.22-.03.05-.04.11-.02.19.28.73.61,1.44.93,2.16.27.61.46,1.31.84,1.86.09.13.27.03.27-.1,0-.16-.03-.33-.07-.49.05.08.09.15.14.22,0,0,0,0,0,0-.05.42-.13.85-.22,1.28-.25-.5-.53-.98-.78-1.47-.43-.84-.84-1.69-1.19-2.56-.1-.24-.47-.1-.37.15.38.98.8,1.94,1.26,2.87.28.57.56,1.18.92,1.71-.03.14-.07.27-.1.41Zm-.28,1.16c-.19.81-.35,1.61-.38,2.39-.01,0-.02-.02-.03-.03-1.04-.68-2.17-1.35-3.27-2.09-.18-.39-.4-.76-.64-1.12.26.31.53.6.82.86.15.13.3-.07.22-.21-.57-1.04-1.33-2-1.96-3.01,0,0-.01-.02-.02-.03,1.18,1.63,2.43,3.22,3.74,4.73.2.23.58-.04.38-.28-.33-.42-.67-.83-1.01-1.25-.09-.12-.19-.24-.28-.35.52.5,1.04.98,1.52,1.45.22.22.51-.15.3-.37-1.56-1.57-2.99-3.58-4.81-4.86-.02-.01-.04-.01-.06-.01-.31-.34-.63-.66-.96-.98-.02-.02-.05-.02-.07,0-.14-.21-.28-.42-.42-.63.29.05.59.13.89.26.78.33,1.44.76,1.98,1.37-.06-.04-.12-.1-.18-.14-.16-.12-.4.08-.27.25,1.15,1.52,2.55,2.83,3.68,4.38.17.24.53-.03.36-.26-.82-1.18-1.72-2.49-2.79-3.53.1,0,.19-.06.2-.19,0-.06,0-.12,0-.18.26.38.57.73.9,1.06-.02.06-.01.13.04.2.69.86,1.36,1.74,2.09,2.57Z"/>
  <path class="cls-1" d="m66.25,86.18s-.08.08-.12.12c-.17.19.05.48.26.41.29,1.03.65,2.07,1.08,3.06-.03.09-.08.19-.1.28-.04.17.18.22.28.13,0,0,0,0,0,0,.05.1.1.21.15.31-.09.18-.19.37-.27.55-.04.1.08.23.17.14.1-.09.2-.2.3-.3.12.24.25.48.39.71-.03.02-.06.03-.09.05-.25.14-.03.5.22.43.05-.02.09-.03.14-.05.14.13.38.03.41-.15,2.49-.89,4.94-2.53,6.97-4.13,1.11-.88,3.44-2.91,2.9-4.6-.93-2.89-5.89-.44-7.1,1.24,0-.17-.02-.34-.05-.52.09-.12.03-.25-.06-.32-.56-2.64-3.08-5.74-5.4-3.35-1.24,1.28-.64,3.65-.29,5.15.06.27.13.55.21.83Zm1.96,3.58s-.04-.08-.06-.13c.47-.59.87-1.27,1.33-1.85.11-.14.23-.27.35-.41-.59.77-1.15,1.57-1.62,2.38Zm3.92-4.95c.84-1.12,1.98-1.76,3.31-2.14.46-.13.95-.19,1.43-.17-.62.29-1.19.67-1.84.92-.06.02-.1.06-.12.11-1.42,1.61-2.88,3.21-4.32,4.82.86-1.23,1.61-2.56,2.36-3.79.1-.17-.18-.35-.29-.19-.19.28-.39.56-.58.84,0-.12-.14-.22-.26-.18,0-.01,0-.03,0-.04,0-.04.01-.09.02-.13.09.05.21.05.29-.05Zm-3.19,5.82c.32-.19.63-.4.92-.62.05.03.11.04.17,0,1.84-1.31,3.19-3.33,4.83-4.89.22-.21-.14-.5-.36-.3-.08.07-.16.15-.24.23.32-.42.64-.83.96-1.21.72-.28,1.56-.64,2.03-1.28,0,0,0-.01,0-.02.07,0,.15.01.22.02,1.6.26.74,1.95.2,2.76-1.2,1.81-3.07,3.06-5.04,4.12.47-.43.93-.89,1.37-1.37.05.02.1.03.15,0,.99-.6,1.86-1.42,2.76-2.15.2-.16-.03-.49-.23-.33-.51.4-1.04.79-1.55,1.19.95-1.11,1.85-2.25,2.75-3.34.17-.2-.14-.47-.32-.27-2.34,2.67-4.6,5.27-7.36,7.48-.46.23-.91.45-1.34.68-.1-.23-.2-.46-.3-.69.05-.04.09-.09.14-.13,0,.09.12.16.22.11Zm2.39-6.21c.01.17.01.34,0,.51-1.12,1.11-2.64,2.48-3.48,3.99-.07-.18-.15-.36-.22-.54.56-.35,1.07-1.06,1.47-1.46.77-.8,1.51-1.64,2.23-2.49Zm-.31-1.54c-1,1.02-2.04,2-3.03,3.03-.19.2-.63.58-.6.9.03.3.35.19.48.04.02-.02.02-.04.03-.07,0,0,.01,0,.02-.01.11-.08.2-.2.29-.3.35-.39.7-.77,1.06-1.15.63-.67,1.26-1.34,1.88-2.02.04.16.08.32.11.48-.76.86-1.54,1.7-2.34,2.53-.4.42-1.07.9-1.53,1.41-.17-.48-.34-.95-.48-1.44.52-.47,1-.98,1.46-1.5,0,0,0,0,.01,0,0,0,0,0,0,0,.44-.49.87-.99,1.33-1.47.17-.18-.12-.42-.29-.25-.76.74-1.47,1.53-2.23,2.27-.16.12-.31.25-.46.38h0c1.37-1.19,2.24-3.17,3.1-4.71.02-.04.02-.08.01-.12.52.54.92,1.25,1.18,1.99Zm-2.93-2.74c-.69.85-1.51,1.93-1.86,3.04,0,0,0-.01,0-.02-.21-1.85.98-4.27,3.08-2.76.14.1.27.22.4.35-.08-.02-.18,0-.23.09-.52.87-1.05,1.74-1.61,2.59-.4.61-.87,1.18-1.25,1.8-.11-.45-.21-.9-.28-1.36.32-.39.52-.85.75-1.31.38-.76.79-1.5,1.29-2.18.14-.19-.13-.42-.28-.24Z"/>
  <g>
    <path class="cls-2" d="m18.74,46.14c.18-.24.14-.52.12-.78-.03-.37-.06-.74-.11-1.1-.05-.34,0-.63.21-.9.1-.13.18-.29.24-.38-.59-1.49-1-2.97-1.29-4.52-.23-.25-.46-.55-.73-.79-.29-.25-.49-.54-.67-.87-.55-1.02-1.11-2.03-1.63-3.06-.29-.57-.53-1.16-.77-1.75-.2-.49-.47-.91-.94-1.19-.16-.1-.3-.25-.42-.4-.23-.29-.45-.59-.67-.88-.19-.25-.39-.49-.68-.67-.24-.15-.42-.41-.61-.63-.97-1.11-1.94-2.23-2.91-3.35-.18-.2-.37-.4-.56-.59-.26-.26-.53-.49-.91-.61-.32-.1-.64-.26-.84-.52-.01-.36.2-.55.4-.72.84-.66,1.72-1.25,2.83-1.37.39-.04.7-.2,1.01-.41.9-.61,1.8-1.21,2.71-1.81.18-.12.37-.25.56-.36,2.02-1.2,4.03-2.39,6.05-3.58.21-.12.41-.26.62-.39-.55-1.42-1.35-2.68-1.74-4.08.15-.44.49-.66.83-.85.78-.46,1.64-.67,2.54-.76.29-.03.59-.03.89-.02.78.02,1.14.32,1.22,1.09.08.66.1,1.32.15,1.98.03.49.05.98.08,1.47.01.14.06.28.1.44.71.08,1.4.05,2.08.01,1.61-.09,3.21-.08,4.82,0,.64.03,1.29.03,1.93.06.54.02,1.09.04,1.63.11.63.09,1.23-.03,1.83-.2.31-.09.62-.17.93-.25,1.52-.37,2.96-.95,4.33-1.71,1.29-.72,2.68-.96,4.15-.82.36.04.67.15.93.41.09.09.18.17.29.23,1.38.84,2.24,2.12,3.05,3.45.91,1.5,1.63,3.08,2.08,4.78.17.66.46,1.29.66,1.95.33,1.11.46,2.26.4,3.42,0,.17,0,.35-.04.51-.38,1.36-.83,2.67-1.98,3.62-.69.57-1.42.87-2.32.61-.23-.07-.48-.11-.73-.17-.18-.33-.4-.63-.53-.97-.28-.73-.29-1.49-.05-2.24.02-.07.05-.14.08-.21.77-2.02.66-4.11.32-6.17-.22-1.35-.71-2.65-1.51-3.81-.79-1.13-2.16-1.51-3.4-.89-.94.47-1.68,1.12-1.99,2.16-.21.73-.41,1.46-.64,2.19-.14.44-.27.89-.46,1.32-.34.77-.92,1.33-1.71,1.66-.34.14-.68.28-1.04.43.05.63.1,1.24.15,1.85.03.32.06.64.07.95.02,1.4.24,2.78.39,4.17.05.49.12.97.15,1.46.02.4-.04.78-.29,1.12-.07.1-.12.21-.19.33.31,1.04.51,2.1.61,3.17.01.14.05.29.11.43.2.43.29.88.28,1.37.43.25.5.71.69,1.1.17.34.35.64.73.82.18.56.37,1.14.56,1.73.69,2.13,1.56,4.18,2.46,6.23.96,2.18,1.84,4.4,2.74,6.6.08.2.12.41.18.62-.24.08-.43.14-.65.21.1.1.16.16.24.25-.08.08-.15.18-.24.25-1.25,1.05-2.63,1.93-4.05,2.72-.9.5-1.88.87-2.85,1.21-1.19.42-2.39.81-3.63,1.05-.24.05-.48.11-.71.19-1.54.51-3.15.62-4.73.88-.97.16-1.95.3-2.94.39-.39.04-.79-.04-1.18-.11-.9-.17-1.79-.37-2.68-.57-.21-.05-.41-.17-.62-.24-.12-.04-.26-.05-.44-.08-.08-.52-.2-1.07-.25-1.63-.21-2.18-.67-4.31-1.02-6.47-.34-2.08-.7-4.16-1.03-6.24-.05-.31-.04-.64-.05-.95h-.01Zm.6-34.71c0,.09.01.18.03.31.28-.16.42-.34.43-.61.06-.09.1-.17-.07-.26-.17.15-.31.33-.39.56Zm2.82,26.3c.08.03.2.12.24.09.14-.11.26-.25.39-.38-.02-.02-.04-.05-.06-.07-.19.13-.39.25-.58.38.08-.18.16-.36.25-.54-.03-.02-.06-.04-.08-.06-.24.21-.47.42-.72.63.24.18.39-.05.57-.06Zm21.99,17.23c-.04.15-.08.3-.14.51.27-.05.47-.09.71-.13-.06-.13-.09-.22-.14-.3-.05-.08-.12-.15-.18-.22-.11.07-.19.12-.27.17-.02-.24.29-.5-.04-.72-.09.04-.17.08-.26.12.05-.18.11-.37.17-.59-.3-.22,0-.79-.57-.89.15-.3.12-.59-.1-.82-.08-.08-.17-.07-.16-.24.04-.47-.08-.69-.41-.99,0-.1.04-.21,0-.29-.19-.52-.4-1.03-.6-1.54-.12.01-.19.02-.26.03h.01c.03-.27.12-.57-.08-.81-.17-.21-.23-.46-.3-.71-.05-.19-.14-.36-.37-.38.08-.47.02-.91-.37-1.34-.75,1.52-1.51,3-2.15,4.53.12.24.1.53.35.71.05-.06.08-.1.1-.14.6-1.15,1.2-2.3,1.81-3.44.07-.12.18-.22.27-.33,0,.39-.23.69-.4,1.01-.49.96-.99,1.92-1.51,2.86-.17.3-.21.58-.09.91.34.94.66,1.9,1,2.84.05.13.17.23.26.34.02.67.44,2,.8,2.49.12-.13.24-.24.33-.37.06-.1.06-.24.12-.34.33-.51.66-1.03,1.01-1.53.06-.09.17-.15.26-.23h-.01c-.05.19-.1.38-.15.58-.27.29-.27.28-.33.63.2-.18.34-.36.34-.62.16-.2.32-.4.48-.61.19-.24.37-.49.56-.73-.07.48-.42.82-.61,1.23-.05.1-.15.2-.03.32.26-.06.4-.26.54-.47.12-.18.27-.33.4-.5ZM11.33,25.95c-.03-.06-.07-.12-.11-.21-.34.14-.69.22-.99.62.21-.01.33,0,.42-.04.24-.12.46-.26.69-.4-.08.36-.52.4-.68.72.18.24.35.51.67.61.03.07.05.14.13.33.21-.33.56-.39.6-.87-.3.23-.52.39-.74.56-.02-.32.32-.42.43-.67-.07-.2-.13-.4-.2-.59-.09-.03-.16-.06-.23-.08Zm23.92,5.14c-.11.2-.18.39.05.6.24-.39.44-.75.67-1.1.13-.2.2-.45.47-.54-.06.15-.1.32-.18.46-.27.48-.55.96-.83,1.44-.12.21-.25.42-.09.71.09-.08.18-.15.27-.21-.05.18-.1.36-.16.58.18.04.33.13.44.1.38-.1.75-.23.95-.59,0-.23,0-.45,0-.67,0-.21-.03-.41-.05-.71-.18.15-.29.23-.4.32.05-.11.08-.23.15-.33.25-.34.29-.71.17-1.12-.1.02-.19.04-.28.05.07-.15.15-.3.2-.45.05-.15.07-.31.1-.46-.16.05-.24.14-.3.23-.23.37-.44.75-.68,1.11-.14.22-.33.41-.5.61.23-.71.68-1.29,1.04-1.93.13-.23.26-.47.35-.72.04-.11-.02-.26-.04-.41-.09.04-.15.05-.17.08-.42.69-.84,1.38-1.24,2.08-.16.29-.18.6.06.88Zm.44,10.91c-.02.34,0,.66.27.91-.02.34.1.62.32.87h-.01c.07.27.13.56.23.84.53,1.42,1.06,2.84,1.6,4.25.13.34.26.67.43,1.08.76-1.54,1.48-3,2.23-4.5-.09-.18-.15-.42-.3-.54-.2-.16-.08-.37-.16-.53-.09-.2-.17-.41-.25-.61-.1-.24-.2-.47-.33-.77-.19.26-.32.44-.46.63h0c.07-.23.13-.46.23-.68.17-.38.12-.7-.23-.96h.02c0-.11,0-.23-.03-.35-.08-.4-.4-.71-.44-1.12,0-.05-.03-.1-.06-.13-.07-.06-.16-.11-.23-.17h.01c0-.4-.05-.8-.29-1.13-.37-.08-.44.16-.54.39-.36.83-.71,1.65-1.09,2.47-.12.26-.32.48-.49.71.09-.25.16-.51.27-.75.32-.71.66-1.41.99-2.12.05-.1.06-.21.12-.39-.53.24-.87.51-1.02.99-.03.11-.13.19-.19.29-.01-.11-.02-.22-.04-.4-.29.26-.53.46-.75.66-.19,0-.4-.2-.53.1.2.08.36.2.41.42.05.21.12.42.34.54Zm.57-14.87c.14-.51.22-1.01-.06-1.58-.4.66-.65,1.32-1.07,1.89-.02-.13-.02-.25.03-.35.25-.51.52-1,.77-1.51.12-.24.22-.49.28-.75.03-.12-.04-.26-.09-.52-.13.2-.19.3-.24.4-.35.7-.7,1.41-1.03,2.12-.07.15-.09.33-.08.49.03.51.08,1.03.15,1.54.02.16.11.31.17.47-.01.17-.2.35-.02.52.04,0,.08,0,.08-.01.43-.71.85-1.41,1.28-2.12.02-.04.07-.08.07-.13,0-.16,0-.31,0-.47-.1,0-.17.01-.25.02Zm.46,8.97c-.1.19-.17.41-.3.57-.58.73-1.18,1.45-1.77,2.17-.07.08-.21.14-.12.33.22-.11.45-.19.65-.33.19-.13.38-.19.59-.26.52-.2,1.07-.37,1.52-.82-.1-.55-.21-1.12-.32-1.68-.12.01-.19.02-.26.03.17-.36.22-.73.1-1.11-.04-.13-.13-.19-.28-.16.05-.21.12-.42.15-.63.02-.16.02-.35-.22-.45-.17.13-.38.26-.55.43-.4.41-.87.7-1.39.93-.44.19-.8.45-1.04.87-.03.05-.12.07-.18.1h.01c.02-.12.03-.25.06-.47-.7.41-1.41.54-2.05.82-.4.18-.81.28-1.21.43-.58.22-1.18.36-1.77.52-.93.26-1.87.48-2.83.59-.47.05-.93.13-1.39.23-1.14.23-2.28.43-3.45.4-.1,0-.22-.03-.29.01-.4.21-.82.13-1.24.13-.11,0-.22.03-.38.05.39,1.08.75,2.11,1.11,3.11-.07.13-.13.23-.2.35.39.12.73.11,1.08.07,1.42-.18,2.85-.34,4.27-.53.86-.11,1.71-.27,2.56-.41.31-.05.61-.21.93-.02.07.04.2,0,.29-.02.39-.14.81-.25,1.17-.46.37-.22.75-.37,1.15-.5.5-.16.97-.36,1.39-.67,0,.02-.02.05-.02.07,0,.02.02.05.03.05.6-.07,1.15-.27,1.55-.73.75-.84,1.47-1.71,2.21-2.56.14-.16.3-.31.45-.47Zm-27.3-11.93c-.23.18-.46.35-.72.56.47.42.82.95,1.36,1.29.43-.28.91-.44,1.17-.86-.07-.21-.11-.41-.2-.58-.19-.38-.21-.86-.61-1.13.02-.54-.43-.87-.59-1.37-.22.1-.42.15-.57.27-.45.38-.98.54-1.53.7-.2.06-.41.12-.68.2.49.48.92.94,1.45,1.28.32-.12.61-.24.91-.35Zm24.61-2.92c.07-.23.12-.47.22-.69.31-.66.64-1.32.97-1.98.19-.38.21-.77.11-1.24-.08.1-.14.15-.17.21-.43,1.01-.85,2.03-1.27,3.04-.05.11-.08.23-.1.35-.03.19.11.25.26.28-.24.82-.18,1.95.17,2.82.09-.15.17-.26.23-.38.33-.73.65-1.48,1-2.21.21-.45.44-.88.2-1.39-.05-.1.01-.24,0-.36-.04-.33-.09-.66-.16-1.16-.16.32-.25.49-.33.66-.27.55-.52,1.11-.8,1.65-.07.14-.21.26-.31.38Zm-.74-4.58c-.01.12-.02.24-.04.36-.01.12-.06.25.14.29.29-.59.59-1.18.88-1.77.01-.03-.02-.08-.05-.18-.12.1-.25.16-.32.27-.14.23-.24.48-.37.72-.07.12-.17.22-.26.33.08-.29.16-.59.25-.92-2.6.6-5.09,1.41-7.58,2.2-.03.1-.07.18-.06.24.16.67.28,1.34.49,2,.32,1,.71,1.99.69,3.06,0,.17.07.33.12.5.16.59.29,1.19.49,1.77.2.59.21,1.19.28,1.79.05.51.18,1.01.29,1.51.05.24.14.47.22.7.12.37.27.74.37,1.11.31,1.14.48,2.3.6,3.47.04.37.12.72.34,1.04.53.18,1.05.25,1.59.02.18-.08.39-.08.58-.13.45-.13.9-.27,1.34-.41.31-.1.56-.29.79-.53.32-.34.61-.71.77-1.1-.08-.35-.18-.66-.22-.97-.11-.87-.17-1.75-.3-2.63-.13-.89-.12-1.79-.34-2.69-.22-.89-.18-1.84-.28-2.77-.06-.63-.13-1.27-.23-1.89-.17-1.01-.37-2.02-.56-3.03-.14-.77-.27-1.54-.4-2.31-.03-.16-.03-.32-.04-.47.23-.09.38-.05.51.1.1.11.2.21.3.31Zm.77,43.28c-.07.07-.14.13-.19.2-.02.03,0,.08,0,.17.19.04.34-.02.49-.21-.11-.06-.21-.11-.31-.16.41-.35.93-.43,1.42-.58,1.27-.4,2.55-.76,3.82-1.15.37-.11.73-.27,1.12-.42-.02-.19-.02-.33-.06-.47-.2-.63-.4-1.26-.62-1.89-.31-.88-.63-1.75-.93-2.64-.31-.9-.6-1.82-.91-2.72-.66-1.9-1.31-3.8-2.14-5.64-.09-.2-.13-.42-.19-.63-.23-.75-.47-1.49-.69-2.21-1.09-.21-2.1-.27-3.11.12-.98.38-2.06,1.08-2.55,1.72.09.34.17.7.27,1.06.56,2.03,1.01,4.09,1.62,6.11.62,2.04,1.2,4.09,1.79,6.14.2.71.4,1.42.59,2.13.07.26.13.52.2.78.05.2.2.26.39.25Zm-11.74-23.47c.78.34,1.53.33,2.25.44.34.05.63-.07.93-.18.11-.04.24-.03.37-.05.53-.1,1.07-.19,1.59-.32.62-.16,1.21-.39,1.78-.74-.14-.49-.28-.95-.4-1.42-.54-2.09-.82-4.23-1.36-6.32-.36-1.37-.62-2.77-.96-4.15-.47-1.89-.99-3.76-1.22-5.69-2.64.7-5.26,1.39-7.93,2.09.06.27.1.48.16.69.05.17.15.32.16.49.04.68.36,1.27.6,1.88.23.57.47,1.13.67,1.71.31.9.6,1.82.89,2.73.11.35.23.7.33,1.05.07.24.16.48.14.72-.04.37.09.67.24.98.81,1.72,1.32,3.54,1.85,5.35.07.24.11.48-.09.75Zm.48,8.2c.12.6.23,1.2.36,1.8.24,1.15.5,2.3.74,3.45.13.62.16,1.27.34,1.88.49,1.7.75,3.45,1.06,5.19.12.68.22,1.36.34,2.03.12.63.26,1.25.4,1.87.04.16.11.31.17.49.21-.06.37-.11.53-.16.31-.08.61-.2.92-.24,1.55-.19,3.09-.42,4.61-.74.24-.05.49-.07.69-.25-.17-.74-.33-1.48-.53-2.21-.52-1.94-1.07-3.88-1.6-5.82-.68-2.48-1.35-4.97-2.03-7.46-.09-.32-.23-.64-.12-1.04.1.1.17.18.29.31-.03-.17-.06-.28-.08-.39-1.74-.23-3.9.07-5.4.75-.27.12-.54.24-.71.51Zm-12.64-23.16c.18.3.32.53.44.77,1.31,2.53,2.46,5.13,3.44,7.81.07.18.15.36.24.54,1.03,2.01,1.84,4.13,2.98,6.08.05.08.07.19.12.27.05.08.11.16.18.22.54.44,1.15.66,1.85.59.75-.07,1.86-.56,2.52-1.09-.13-.4-.25-.79-.37-1.19-.39-1.31-.77-2.63-1.18-3.94-.22-.73-.55-1.43-.72-2.16-.22-.99-.58-1.92-.9-2.87-.15-.45-.49-.87-.37-1.39,0-.04-.03-.09-.05-.13-.13-.29-.27-.57-.38-.87-.48-1.26-.96-2.51-1.44-3.79-.12,0-.24.01-.36.03-.61.08-1.2.26-1.8.38-.97.2-1.95.32-2.92.49-.41.07-.83.09-1.28.26Zm15.07,39.87c0-.33.02-.55,0-.77-.19-1.58-.4-3.16-.73-4.72-.23-1.08-.38-2.17-.81-3.2-.07-.18-.09-.38-.11-.57-.13-.9-.26-1.79-.4-2.69-.05-.31-.06-.65-.18-.93-.24-.58-.3-1.19-.4-1.79-.1-.6-.19-1.2-.28-1.82-.93-.48-1.85-.84-2.89-.64-.02.1-.05.15-.04.19.12.87.23,1.75.36,2.62.12.82.26,1.64.39,2.47.2,1.31.32,2.63.6,3.92.5,2.3.74,4.64,1.18,6.95.03.16.09.32.15.49,1.05.16,2.07.32,3.18.48Zm-.08-43.83c.4-.15.78-.32,1.17-.45.42-.14.85-.25,1.28-.38,1.51-.45,3.01-.96,4.58-1.17.07,0,.16-.02.21-.06.36-.32.83-.42,1.25-.61.08-.04.14-.12.29-.23-.21,0-.32-.02-.43-.02-.44,0-.89.02-1.33-.02-.61-.05-1.22-.16-1.84-.22-.24-.02-.5-.03-.74.02-.61.13-1.22.12-1.83.11-1.36-.03-2.72-.05-4.07-.07-1.08,1.25-2.39,1.25-3.84.72-2.85,1.74-5.73,3.51-8.61,5.27-.02.01-.03.04-.03.06,0,.02.02.03.04.07.62-.1,1.25-.2,1.89-.3.93-.15,1.85-.31,2.78-.42.52-.06,1.02-.17,1.51-.34,1.92-.64,3.85-1.26,5.85-1.61.63-.11,1.26-.23,1.87-.34Zm9.75-2.53c-.08.07-.16.1-.18.16-.39.79-.77,1.58-1.18,2.36-.14.27-.21.54-.13.84.05.19.02.39.07.58.04.18.14.35.23.57.02.18-.22.43.06.69.53-1.19,1.04-2.34,1.55-3.47-.06-.32-.12-.61-.18-.9-.35-.19.06-.57-.24-.84Zm.88,6.23c-.11.2-.19.32-.24.44-.3.67-.54,1.37-.92,1.99-.37.62-.22,1.17-.03,1.85.09-.2.14-.31.19-.42.31-.69.6-1.39.95-2.07.19-.37.26-.73.18-1.13-.04-.19-.07-.38-.12-.68Zm.11,1.95c-.48.88-.82,1.82-1.22,2.74-.07.17-.14.4.07.56.42-.83.83-1.66,1.24-2.48.04-.09.09-.18.09-.28,0-.18.05-.39-.18-.54Zm10.6-9.39s-.05-.02-.08-.02c-.09.17-.19.33-.26.5-.08.17-.14.35-.22.54.2.16.37.29.54.42.3-.56.38-.83.43-1.4-.25.17-.16.57-.48.71.03-.27.05-.5.07-.74Zm3.3,3c-.29.7-.59,1.39-.88,2.09-.02.04.03.11.05.19.58-.74.95-1.68.83-2.28Zm-9.74-1.01c-.41.64-.73,1.32-1.02,2.02.44-.62.84-1.26,1.02-2.02Zm5.15-1.56s.09.04.14.07c.26-.57.59-1.12.58-1.8-.24.58-.48,1.16-.72,1.73Zm-23.08,29.82c.57-.31.85-.58,1.17-1.09-.22.13-.38.18-.5.29-.22.2-.52.35-.67.8Zm15.3-25.52c.44-.57.71-1.2.66-1.55-.38.56-.56.96-.66,1.55Zm4.42-5.39c.1-.2.16-.38.27-.54.11-.16.26-.29.5-.55-.27.11-.43.17-.57.24-.15.07-.28.17-.44.26.08.2.15.38.24.58Zm-13.05,29.51c.36-.28.71-.55,1.11-.86-.64-.04-.92.36-1.11.86Zm4.51-1.97q.57.08.89-.19c.11-.09.12-.19.01-.31-.28.16-.57.31-.91.5Zm6.37,17.67s.04.07.06.11c.21-.06.42-.11.63-.18.1-.04.14-.12,0-.25-.22.1-.46.22-.7.33Zm5.48-46.39c.07-.08.15-.17.28-.31h-.69c.15.11.27.2.41.31Zm-4.71,1.38q.27-.24.25-.6c-.11.27-.18.43-.25.6Zm2.27,43.17q.33-.07.45-.33c-.19.14-.32.24-.45.33Zm-20.32-14.2s0,.02,0,.03h.58s0-.02,0-.03h-.57Zm24.73-29.58c-.05-.13-.09-.27-.29-.22-.03.25.08.3.29.22Zm-26.01-1.99c-.25,0-.31.16-.3.36.1-.12.2-.24.3-.36Zm7.99,25.63c-.21,0-.33.09-.43.23.21.08.33,0,.43-.23Z"/>
    <path class="cls-2" d="m18.75,46.13c-.17-.2-.13-.44-.1-.74.15.28.11.52.09.75h.01Z"/>
    <path class="cls-2" d="m19.34,11.43c.08-.23.22-.41.39-.56.16.09.12.18.07.26-.15.1-.31.2-.46.3Z"/>
    <path class="cls-2" d="m35.24,36.69c-.06.13-.09.28-.18.38-.68.84-1.39,1.65-2.21,2.36.05-.13.08-.28.17-.38.67-.76,1.35-1.52,2.04-2.27.04-.05.12-.06.19-.1Z"/>
    <path class="cls-2" d="m31.05,38.88c.44-.54.88-1.08,1.33-1.63.02.02.05.04.07.07-.36.61-.81,1.15-1.34,1.62-.02-.02-.04-.04-.06-.05Z"/>
    <path class="cls-2" d="m33.3,36.1c-.13.51-.49.86-.85,1.22-.02-.02-.05-.04-.07-.07.26-.42.5-.86.93-1.14h-.01Z"/>
    <path class="cls-2" d="m33.71,37.46c-.19.22-.38.43-.62.72q.14-.4.62-.72Z"/>
    <path class="cls-2" d="m31.11,38.94c-.2.26-.41.53-.61.79q.1-.42.55-.84s.04.04.06.05Z"/>
    <path class="cls-2" d="m36.35,35.21c-.18.33-.31.71-.68.9.12-.38.31-.71.68-.9Z"/>
    <path class="cls-2" d="m29.5,39.45c.14-.16.27-.31.42-.48.11.17-.05.23-.1.31-.06.1-.14.19-.22.28-.03-.04-.07-.07-.1-.11Z"/>
    <path class="cls-2" d="m28.71,39.21c.05-.3.28-.48.5-.7-.09.4-.1.4-.51.69h.01Z"/>
    <path class="cls-2" d="m29.52,38.22c.06-.24.23-.41.44-.52-.07.24-.22.41-.44.52Z"/>
    <path class="cls-2" d="m35.69,36.1c-.04.29-.18.5-.46.61.04-.29.2-.49.46-.61Z"/>
    <path class="cls-2" d="m28.69,39.19c-.02.23-.16.37-.47.59.17-.34.26-.51.48-.58h-.01Z"/>
    <path class="cls-2" d="m34.09,36.81c.09-.1.18-.21.27-.31.11.13-.02.17-.05.24-.03.06-.1.1-.14.14-.02-.02-.05-.05-.07-.07Z"/>
    <path class="cls-2" d="m31.28,37.42c.08-.1.16-.2.25-.32.1.24-.15.24-.25.32Z"/>
    <path class="cls-2" d="m30.37,38.46c.05-.07.09-.14.15-.21.04-.05.1-.09.16-.14.11.12-.01.17-.06.24-.05.07-.12.11-.18.17-.02-.02-.04-.04-.07-.07Z"/>
    <path class="cls-2" d="m39.77,43.92c-.13.62-1.38,3.36-1.77,3.95.08-.72.83-2.42,1.77-3.95Z"/>
    <path class="cls-2" d="m39.23,41.98c-.05.14-.09.28-.15.41-.53,1.18-1.06,2.36-1.59,3.54-.03.06-.07.12-.15.27,0-.18-.02-.28,0-.36.41-1.34,1.03-2.58,1.79-3.75.02-.04.07-.06.11-.09h-.02Z"/>
    <path class="cls-2" d="m38.49,40.22c-.05.19-.07.39-.14.56-.4.95-.8,1.9-1.21,2.84-.04.1-.12.19-.25.26.01-.09,0-.19.04-.27.48-1.1.97-2.2,1.47-3.3.02-.04.07-.06.11-.09h-.01Z"/>
    <path class="cls-2" d="m36.57,43.03c0-.07-.02-.15,0-.22.35-.96.8-1.87,1.41-2.71-.04.11-.08.21-.13.32-.34.73-.67,1.47-1.01,2.2-.07.15-.18.27-.28.41,0,0,.01.01.01.01Z"/>
    <path class="cls-2" d="m39.24,43.62c-.02.12-.02.24-.06.35-.34.76-.68,1.51-1.03,2.26-.04.09-.1.16-.21.32,0-.18-.03-.28,0-.35.37-.82.75-1.63,1.14-2.45.03-.06.1-.09.16-.13,0,0,0,0,0,0Z"/>
    <path class="cls-2" d="m37.32,44.21c.02-.12,0-.25.05-.35.41-.83.83-1.66,1.35-2.44-.05.14-.1.28-.16.42-.33.68-.65,1.37-.99,2.04-.06.12-.17.22-.26.32h.01Z"/>
    <path class="cls-2" d="m39.78,45.9s.05.1.04.13c-.41.88-.87,1.74-1.41,2.68.19-.82.89-2.22,1.37-2.81Z"/>
    <path class="cls-2" d="m36.28,43.78c.01-.28.08-.54.29-.74h-.01c.05.29-.08.53-.29.73h.01Z"/>
    <path class="cls-2" d="m37.3,44.2c.05.23-.06.4-.24.62.02-.28.06-.47.25-.61h-.01Z"/>
    <path class="cls-2" d="m41.91,49.06c-.02.12-.02.25-.07.35-.46,1-.93,2-1.4,2.99-.06.12-.14.23-.29.3.03-.11.05-.23.09-.33.48-1.02.96-2.04,1.44-3.05.05-.1.16-.17.24-.25h-.01Z"/>
    <path class="cls-2" d="m39.71,52.14c.13-1.01,1.06-2.99,1.69-3.71.01.02.04.05.03.06-.55,1.17-1.1,2.33-1.72,3.65Z"/>
    <path class="cls-2" d="m42.07,52c0,.07,0,.15-.03.21-.44.86-.88,1.73-1.34,2.58-.06.12-.19.21-.28.32.06-.18.1-.37.19-.54.35-.69.7-1.38,1.07-2.06.1-.18.26-.34.39-.51Z"/>
    <path class="cls-2" d="m41.14,52.71c.04-.5.25-.88.6-1.31-.02.18-.01.25-.04.31-.18.34-.37.67-.55,1.01Z"/>
    <path class="cls-2" d="m42.52,51.24c-.07.31-.18.6-.46.79.05-.33.25-.56.46-.79Z"/>
    <path class="cls-2" d="m42.8,54.07c-.09.53-.39.95-.71,1.35l-.05-.04c.16-.49.38-.95.77-1.3h0Z"/>
    <path class="cls-2" d="m42.09,55.43c-.11.45-.38.82-.67,1.27.14-.62.2-.76.62-1.31l.05.04Z"/>
    <path class="cls-2" d="m42.32,53.27q-.15.61-.69,1.24c.16-.5.39-.81.69-1.24Z"/>
    <path class="cls-2" d="m42.96,55.11c-.03-.29.18-.46.36-.63-.06.25-.11.5-.38.62h.01Z"/>
    <path class="cls-2" d="m42.81,54.08c-.03-.29.2-.46.35-.66,0,.27-.1.51-.35.65h0Z"/>
    <path class="cls-2" d="m34.65,22.12c-.05-.25.08-.43.29-.75-.03.39-.08.6-.3.74h.01Z"/>
    <path class="cls-2" d="m34.63,22.11c.05.25-.08.44-.23.62-.03-.25.02-.46.24-.61h-.01Z"/>
    <path class="cls-2" d="m34.2,18.15c0,.23-.08.44-.29.7.03-.33.08-.55.3-.68h-.01Z"/>
    <path class="cls-2" d="m34.21,18.16c.04-.2.09-.4.13-.6.09.24.01.43-.14.59h.01Z"/>
    <path class="cls-2" d="m9.19,23.15c-.21.1-.41.2-.62.3-.02-.03-.04-.07-.05-.1.19-.11.39-.21.58-.32.03.04.07.08.1.12Z"/>
    <path class="cls-2" d="m36.28,27.11c-.02.1,0,.2-.05.28-.29.57-.59,1.13-.9,1.69-.06.1-.16.17-.25.26.03-.14.04-.29.11-.41.29-.55.58-1.1.89-1.65.04-.07.14-.12.21-.18Z"/>
    <path class="cls-2" d="m35.67,42.01c.09-.5.27-.96.61-1.35-.07.51-.24.97-.61,1.35Z"/>
  </g>
  <g>
    <path class="cls-2" d="m39.28,94.61c-.59.41-1.27.38-1.93.39-.75.01-1.46-.23-2.18-.41-.35-.09-.7-.16-1.05-.25-.14-.04-.28-.09-.38-.18-.27-.24-.51-.5-.77-.76-.03-.03-.07-.07-.08-.12-.08-.42-.25-.83-.17-1.27.08-.44.24-.84.6-1.12.46-.35.92-.69,1.4-1,.35-.22.63-.47.86-.83.28-.44.66-.82.99-1.23.22-.28.43-.57.69-.9-.28-.1-.51-.15-.69-.27-.2-.13-.35-.32-.5-.46-.51-.04-.99-.04-1.46-.12-.82-.13-1.58-.42-2.27-.88-.43-.28-.83-.4-1.35-.24-.79.25-1.57.17-2.27-.24-.7.24-1.39.31-2.12.16-.17.91-.66,1.62-1.23,2.27-.03.04-.06.08-.09.11-.44.61-.47.79.09,1.28.74.64.59,1.94.17,2.52-.19.26-.41.46-.76.47-.13,0-.28.06-.4.13-.78.47-1.61.42-2.44.19-.79-.23-1.51-.62-2.13-1.17-.33-.29-.6-.62-.76-1.03-.12-.3-.3-.53-.54-.75-.21-.19-.41-.41-.59-.63-.42-.51-.67-1.1-.75-1.76-.08-.69-.16-1.38-.25-2.07-.06-.45-.13-.9-.21-1.35-.05-.29-.11-.56.02-.85.03-.08.03-.19.01-.28-.22-.9.06-1.71.43-2.5.2-.43.47-.84.76-1.22.61-.8,1.26-1.57,2.08-2.18.58-.43,1.1-.92,1.45-1.57.18-.33.45-.62.69-.92.25-.31.57-.52.96-.6.34-.07.67-.04.92.26.31-.27.44-.57.46-.91.04-.64.36-1.14.83-1.55.62-.55,1.3-.98,2.18-.98.44,0,.86.07,1.25.27.15.07.3.14.45.21.27-.23.36-.54.48-.82.28-.65.69-1.21,1.18-1.71.67-.67,1.46-.99,2.41-.78.07.01.14,0,.25,0,.09-.12.19-.25.28-.38.25-.38.48-.77.74-1.15,1.06-1.54,2.57-2.27,4.4-2.35,1.42-.06,2.82.1,4.19.51.11.03.23.07.35.09,1,.19,1.84.68,2.54,1.41.22.23.44.44.66.67.6.62,1.24,1.2,1.98,1.66.49.3.92.69,1.28,1.15.34.44.63.9.73,1.5.16.03.33.04.47.1.15.06.32.15.4.27.13.2.31.29.5.38,1.57.72,2.59,1.93,3.2,3.52.28.74.46,1.51.58,2.3.03.19.07.38.1.58.45.24.88.49,1.33.72.79.4,1.3,1.07,1.65,1.84.32.69.53,1.43.51,2.22,0,.55.13,1.09.2,1.64.12.98.22,1.97-.09,2.93-.53,1.64-1.33,3.13-2.65,4.3-.4.35-.84.64-1.36.79-1.18.34-2.31.79-3.41,1.34-.77.39-1.61.62-2.46.8-.85.18-1.67.13-2.48-.13-.11-.04-.23-.06-.39-.1-.14.1-.29.2-.45.31-.78.56-1.63.91-2.61.87-.31-.01-.62.05-.93.04-.77-.04-1.53-.07-2.29-.17-.43-.06-.85-.09-1.28,0-.18-.17-.39-.15-.61-.11-.27.05-.53.12-.79.19.27.05.52.03.78,0,.21-.03.42-.06.63-.09Zm2.29-.27c-.21-.12-.43-.11-.66-.01h.67c.29.21.6.1.91.08-.31-.02-.61-.04-.92-.07Zm4.6-9.93s.02.1.05.13c.71.62,1.24,1.37,1.69,2.18,0,.09-.02.18-.03.36-.25-.36-.43-.66-.64-.94-.06-.08-.12-.23-.3-.11.07.15.14.3.23.44.3.52.38,1.08.3,1.67-.02.19-.07.38-.09.57-.1.74-.17,1.48.32,2.12.18-.38-.02-.78-.01-1.24.34.49.35.49.37.84.04.8-.03,1.58-.4,2.31-.04.07-.03.16-.05.24.55-.48.66-1.13.77-1.78.12-.68.09-1.35,0-2.15.49,1.01.36,2.68-.26,3.97,1.07.22,2.1.14,3.08-.32,1.28-.61,2.58-1.16,3.93-1.59.29-.09.56-.26.83-.42.61-.36,1.01-.95,1.49-1.45,1.14-1.21,1.51-2.69,1.42-4.32-.05-.86-.12-1.72-.19-2.58-.04-.45-.07-.91-.13-1.36-.07-.6-.35-1.1-.78-1.5-.67-.62-1.4-1.17-2.23-1.56-.32-.15-.67-.28-1.02-.35-1.02-.19-2.05-.22-3.07.01-.63.15-1.26.29-1.88.49-.91.29-1.81.62-2.54,1.28-.02.02-.08,0-.12-.01-.01-.02-.03-.05-.03-.06.23-.46.55-.84.98-1.13.68-.46,1.39-.85,2.18-1.08,1.39-.41,2.79-.42,4.21-.21.23.03.46.14.71.02.07-.45-.25-.83-.23-1.33.14.16.23.27.41.48-.07-.22-.09-.33-.14-.43-.27-.59-.55-1.17-.83-1.76-.58-1.19-1.47-2.07-2.68-2.59-1.12-.47-2.27-.72-3.51-.52-1.07.17-2.05.48-2.82,1.28-.53.55-1.07,1.1-1.58,1.67-.7.77-1.22,1.66-1.61,2.63-.2.51-.34,1.05-.52,1.57-.04.11-.13.21-.23.37-.12-.34-.21-.61-.31-.89.37-1.04.84-2.04,1.34-3.03.33-.65.76-1.22,1.24-1.76,1.14-1.29,2.62-1.99,4.24-2.44.34-.09.71-.11,1.07-.13.31-.02.61,0,.94,0-.17-.54-.26-.72-.59-1.1-.42-.5-.9-.93-1.43-1.31-.84-.6-1.66-1.23-2.32-2.04-.17-.22-.41-.33-.67-.4-1.36-.37-2.71-.31-4.02.21-1,.39-1.88.98-2.62,1.74-.5.52-.94,1.09-1.4,1.64-.06.07-.1.21-.29.17.06-.14.11-.27.17-.4.08-.15.17-.29.26-.43.08-.12.16-.24.25-.36s.17-.23.26-.34c.11-.13.21-.26.33-.38.1-.11.2-.21.3-.31.12-.12.25-.23.38-.34.11-.09.22-.18.34-.27.11-.09.23-.17.35-.25.14-.09.28-.19.42-.27.12-.07.25-.14.38-.21s.26-.13.39-.19c.15-.07.31-.13.47-.19.13-.05.27-.1.41-.14.16-.05.32-.09.49-.12.14-.03.29-.04.43-.06.14-.02.29-.04.43-.05.17,0,.34,0,.5,0,.11,0,.25.09.41-.07-1.47-.53-2.91-.84-4.42-.63-.66.09-1.34.17-1.92.56-.4.27-.78.56-1.16.85-.33.25-.54.59-.73.96-.34.66-.68,1.33-1.11,1.93-.63.88-1.34,1.7-2.01,2.54-.19.24-.42.47-.58.73-.14.22-.27.46-.32.72-.21,1.06-.42,2.12-.58,3.18-.21,1.33.01,2.63.46,3.89.16.45.34.9.5,1.35,0,.02-.04.06-.06.1-.1-.06-.19-.13-.28-.19-.05.09-.08.15-.12.21,0,.01-.04.01-.06.02-.68-.94-1.26-1.93-1.49-3.08-.22-1.12-.44-2.25-.03-3.39.03.53.05,1.06.08,1.6.08-.67.23-1.33.42-1.97.16-.53.3-1.06.42-1.6.29-1.35.83-2.55,1.9-3.47.15-.12.29-.26.42-.39.35-.35.58-.73.72-1.17-.97.18-1.71.72-2.3,1.48-.23.3-.44.63-.62.97-.41.77-.87,1.5-1.48,2.12-.37.38-.57.81-.69,1.31-.16.64-.16,1.28-.05,1.93.06.35.14.7.22,1.06-.08.06-.15.11-.23.16-.01.14.13.31-.05.45-.35-.31-.39-.73-.55-1.1-.61-1.46-.26-2.77.65-3.98.13-.17.26-.33.42-.53-.6-.35-1.21-.2-1.79-.21-.36-.01-.63.21-.9.41-.57.43-1.06.9-1.23,1.63-.07.28-.2.54-.34.79-.22.38-.24.78-.13,1.18.06.23.15.46.27.67.3.58.5,1.19.6,1.84.06.35.13.72.3,1.03.74,1.35,1.52,2.67,2.27,4.01.32.59.8,1.01,1.32,1.4.32.25.67.35,1.08.22.52-.16,1.04-.12,1.57-.01.18.04.36.05.6.07-.1-.61-.44-1.11-.38-1.74.22.36.2.77.49,1.09-.32-2.34-.32-2.36.05-3.26-.05.31-.09.5-.1.68-.02.3-.11.62.11.9,0,.21.02.43.03.64.02,0,.05,0,.07,0l-.11-.62c.03-1.61.42-3.14,1.08-4.6.02.1.02.19-.01.27-.37,1.05-.57,2.13-.71,3.22-.13,1.04.13,1.99.52,2.93,0,.01.04.01.09.03,0-.57-.05-1.13.09-1.82.05.21.08.28.08.34.03.72.04,1.43.09,2.15.01.2.12.41.24.58.11.16.3.22.53.11-.22-.85-.59-1.67-.38-2.63.24,1.54.44,2.19.88,2.69-.29-1-.42-1.94-.38-2.9.05-1.2.29-2.18.73-2.82-.04.15-.07.24-.09.33-.32,1.17-.4,2.36-.32,3.57.04.6.17,1.19.37,1.75.03.09.09.24.3.12-.03-.12-.07-.25-.09-.38-.06-.4-.13-.8-.16-1.21-.03-.37.07-.71.39-.99.02.28.03.54.06.79.06.65.2,1.28.55,1.85.32.52.73.94,1.32,1.12.36-.15.51-.39.43-.75h-.01c.08.06.17.1.27.15.11-.09.23-.18.33-.28.05-.05.08-.11.13-.19-.3-.75-.69-1.49-.53-2.46.28,1.35.44,1.78.83,2.19-.21-.98-.35-1.93-.34-2.89,0-.97.07-1.94.43-2.86.04.24.05.48.01.71-.15.93-.18,1.86-.1,2.8.05.59.19,1.18.3,1.77.01.06.09.11.14.17-.15-1.16-.38-2.28.18-3.44.13.16.24.28.32.38-.13,1.33,0,2.07.41,2.52.54-.16,1.06-.36,1.6-.47.52-.11,1.06-.14,1.59-.21-.06-.04-.13-.09-.21-.15.34-.17.64.03.98,0,.23-.74.66-1.36,1.22-1.89.62-.59,1.28-1.05,1.97-1.3-.15.14-.22.22-.3.29-.28.22-.58.43-.86.66-.73.6-1.36,1.28-1.75,2.16-.04.09-.09.17.09.25.45-.97,1.16-1.74,2.05-2.32.88-.58,1.81-1.07,2.93-1.19-.05.18-.09.31-.13.45-.14.05-.27.09-.41.15-.55.23-1.11.45-1.66.69-.21.09-.45.18-.54.43-.08.04-.18.06-.24.11-.07.06-.21.1-.13.3.14-.16.25-.29.37-.42.15-.02.31-.04.5-.07-.41.38-.81.71-1.17,1.08-.36.37-.71.76-.78,1.36.2.12.39.24.59.36Zm-23.71-.12c.68.11.99.29,1.28.81.22.4.39.82.6,1.23.06.12.06.29.24.32.71-.68,1.12-1.45,1.26-2.38-.34-.44-.75-.89-.47-1.64.1.17.17.26.22.36.12.21.23.42.35.62.18.3.44.51.81.53.26.02.52.06.78.07.1,0,.21-.07.37-.13-1.87-2.11-3.29-4.4-3.81-7.16.18.31.33.63.47.96.24.55.47,1.1.72,1.65.05.11.13.2.19.3-.19-.74-.4-1.45-.67-2.13-.19-.49-.42-.97-.69-1.42-.35-.58-.51-1.18-.44-1.85.02-.16,0-.33,0-.5-.08-.02-.15-.06-.21-.06-.09,0-.2.01-.28.05-.31.15-.58.34-.77.63-.12.18-.22.37-.36.54-.44.52-.5,1.11-.41,1.76.25,1.78,1.1,3.3,2.06,4.81,0,.09-.01.23-.02.36-.59.07-1.02-.26-1.49-.44-.07.04-.14.08-.23.13-.8-.86-1.14-1.89-1.39-2.95.1-.08.15-.12.21-.16-.1-.37-.19-.74-.2-1.23.35.29.22.72.5.94-.1-.65-.2-1.29-.3-1.92-.66.27-1.26.78-1.57,1.31-.13.22-.31.42-.46.63-.09.13-.2.27-.26.42-.31.83-.61,1.66-.91,2.5-.03.09-.03.19-.05.28-.24,1.21,0,2.38.22,3.56.11.59.25,1.17.34,1.76.08.57.28,1.06.75,1.42.35.27.6.62.78,1.02.12.26.24.52.37.77.24.46.53.85,1.12.88.16,0,.31.11.47.18.86.34,1.71.41,2.59.06.18-.07.4-.06.66-.1.73-.55.45-1.26.24-1.96-.71-.34-.94-.97-1.08-1.64-.08-.4-.11-.81-.17-1.21-.12-.68-.36-1.29-.99-1.68-.1-.06-.19-.15-.36-.29Zm24.99,6.64c-.02-.09-.03-.14-.05-.18-.34-.61-.44-1.26-.27-1.95.08-.3.1-.61.16-.92.07-.37.01-.71-.17-1.04-.37-.66-.84-1.22-1.41-1.71-.9-.77-1.94-1.01-3.09-.78-.33.07-.65.21-.98.21-.39,0-.68.17-.99.35-.9.52-1.69,1.18-2.37,1.96-.2.23-.4.48-.55.75-.59,1.03-1.9,2.22-2.99,2.71-.19.09-.4.21-.51.37-.36.52-.61,1.09-.73,1.71-.03.13.02.28.03.41.1.07.17.14.26.17.91.37,1.84.69,2.81.88,1.17.24,2.33.26,3.5,0,.44-.1.9-.11,1.36-.13.29-.02.57.02.83.18.13.08.31.13.47.13,1.15,0,2.24-.23,3.26-.76.7-.36,1.14-.93,1.29-1.72.04-.21.1-.42.17-.65Zm-10.96,3.33c-.33-.08-.67-.16-1-.26-.33-.09-.65-.21-.98-.31.58.47,1.22.72,1.98.57Zm-10.88-8.4c.31-.33.51-.69.4-1.16-.13.39-.27.78-.4,1.16Zm-1.01,1.32q.39-.21.6-.73c-.21.27-.47.41-.6.73Zm18.41-3.26c.47.02.79.09,1.11-.03-.32-.02-.63-.18-1.11.03Zm-20.63-3.59c.09.36.2.54.44.77-.06-.34-.19-.5-.44-.77Z"/>
    <path class="cls-2" d="m39.99,70.4c.38-.28.75-.56,1.15-.85.08.21-.06.26-.13.32-.92.79-1.68,1.71-2.3,2.74-.43.72-.85,1.44-1.26,2.17-.08.14-.16.3-.18.46-.13.96-.44,1.86-.74,2.77-.33,1-.65,2-.95,2.94-.09-.35-.11-.36,0-.77.17-.65.38-1.29.57-1.93.3-.99.61-1.97.89-2.96.15-.55.22-1.13.34-1.69.21-.93.65-1.75,1.22-2.5,1.63-2.13,3.79-3.34,6.44-3.67.45-.06.91-.05,1.35.1.13.05.26.11.39.19.05.03.09.1.15.18-.24-.01-.45-.04-.66-.03-.19,0-.38.06-.57.09-1.11.17-2.22.39-3.29.74-.85.28-1.61.74-2.27,1.35-.07.06-.12.15-.17.22,0,.01,0,.04.03.11Z"/>
    <path class="cls-2" d="m42.79,79.21c.04-.36.17-.69.33-1.01.41-.85.99-1.58,1.6-2.29.27-.32.64-.58,1.02-.78,1.93-1,3.96-1.24,6.07-.7.25.07.51.14.73.32-.06.03-.1.06-.12.05-1.76-.4-3.47-.3-5.11.52-.36.18-.72.38-1.07.59-.86.5-1.57,1.17-2.09,2.04-.15.25-.31.48-.46.73-.19.33-.45.55-.89.53Z"/>
    <path class="cls-2" d="m57.65,80.31c-.11-.11-.21-.22-.32-.33-1.1-1.18-2.47-1.79-4.07-1.88-.72-.04-1.44-.04-2.15.08-.34.06-.7.08-1.09.12.15-.29.39-.31.59-.35,1.57-.36,3.14-.34,4.66.24.96.37,1.73,1.01,2.35,1.83.05.07.07.16.1.24-.03.02-.05.04-.08.05Z"/>
    <path class="cls-2" d="m31.97,76.32c-.23-.14-.19-.37-.2-.58-.07-1.12.11-2.2.45-3.26.29-.89.7-1.73,1.19-2.53.11-.19.22-.4.53-.56-.38.81-.72,1.51-1.03,2.22-.33.75-.54,1.54-.67,2.34-.12.78-.18,1.57-.27,2.36Z"/>
    <path class="cls-2" d="m39.75,69.25c-.12.13-.24.26-.37.38-.99.95-1.69,2.08-2.11,3.38-.22.71-.4,1.43-.59,2.15-.07.25-.13.5-.29.74-.01-.15-.06-.31-.03-.45.27-1.85.79-3.61,2.04-5.06.34-.4.75-.74,1.13-1.1.04-.04.11-.06.17-.08.02.02.03.04.05.05Z"/>
    <path class="cls-2" d="m44.68,71.08c-.92.8-1.79,1.65-2.45,2.69-.65,1.03-1.25,2.09-1.87,3.13.1-1.7,2.63-5.11,4.32-5.82Z"/>
    <path class="cls-2" d="m56.39,85.82c-.15.63-.51.96-.69,1.39.08.02.13.03.17.04,0,.04,0,.1-.01.13-.33.48-.72.88-1.33,1.02-.2.05-.39.18-.58.26-.42.17-.84.3-1.3.14.04-.19.18-.18.28-.19.69-.08,1.28-.39,1.77-.86.41-.39.78-.83,1.16-1.26.15-.17.28-.36.53-.67Z"/>
    <path class="cls-2" d="m47.89,86.72c-.22-.98-.79-1.72-1.58-2.3-.03-.02-.09,0-.14-.01-.08-.11-.16-.22-.28-.38.13,0,.23-.04.29-.01.67.37,1.33.74,1.83,1.33.05.07.09.15.07.27-.12-.09-.24-.18-.44-.33.04.17.06.26.09.35.09.24.2.48.29.73.05.14.03.29-.13.36Z"/>
    <path class="cls-2" d="m44.69,75.39c.58-.71,1.34-1.16,2.17-1.47.84-.31,1.71-.56,2.63-.53-.84.24-1.68.46-2.51.72-.84.27-1.55.81-2.29,1.27Z"/>
    <path class="cls-2" d="m48.64,92.7c0-.13,0-.24.02-.35.13-.63.27-1.26.39-1.89.06-.34.07-.7.11-1.06.14-.03.15.1.19.2.02.07.03.14.03.21.03.82-.1,1.62-.31,2.4-.06.2-.12.42-.42.48Z"/>
    <path class="cls-2" d="m53.32,79.13c.85-.14,1.6.13,2.3.57.55.34.8.66,1.03,1.31-.49-.62-.98-1.04-1.58-1.28-.57-.23-1.17-.4-1.75-.6Z"/>
    <path class="cls-2" d="m27.23,75.79c-.59-1-.51-2.68.2-3.89-.13.72-.29,1.34-.33,1.97-.03.61.07,1.23.13,1.92Z"/>
    <path class="cls-2" d="m56.04,79.28c-2.14-.66-2.16-.66-3.77-.69.22-.2.47-.24.72-.21,1.01.08,1.98.29,2.89.77.06.03.11.09.16.14Z"/>
    <path class="cls-2" d="m46.03,80.43c-.29.28-.52.47-.72.69-.22.25-.43.51-.61.79-.17.25-.29.53-.49.92-.12-.52.1-.81.26-1.1.37-.65.85-1.06,1.56-1.3Z"/>
    <path class="cls-2" d="m30.15,83.11c-.67-.53-1.29-1.93-1.34-2.99.19.48.36.97.57,1.45.22.49.48.96.77,1.54Z"/>
    <path class="cls-2" d="m43.02,71.53c-.77.78-1.39,1.67-1.94,2.68.06-.78.93-2,1.94-2.68Z"/>
    <path class="cls-2" d="m30.72,82.96c-.61-.24-1.09-1.11-1.23-2.08.25.2.3.45.41.66.14.25.27.51.41.76.13.23.27.45.41.67Z"/>
    <path class="cls-2" d="m47.35,77.88c.61-.67,1.43-.98,2.3-1.19-.05.04-.08.1-.14.13-.72.36-1.44.71-2.16,1.07Z"/>
    <path class="cls-2" d="m26.92,71.72c-.08.5-.17.88-.2,1.26-.03.38,0,.76,0,1.16-.27-.32-.28-.33-.3-.73-.03-.65.09-1.11.5-1.7Z"/>
    <path class="cls-2" d="m58.33,84.61c.15,1.09-.06,2.06-.67,2.83.37-1.02.63-1.9.67-2.83Z"/>
    <path class="cls-2" d="m31.18,69.27c-.02.09-.02.19-.06.27-.29.6-.6,1.19-.9,1.79-.03.06-.08.11-.14.19-.02-.1-.05-.18-.03-.23.24-.7.55-1.37,1.02-1.95.03-.03.08-.04.13-.05h-.01Z"/>
    <path class="cls-2" d="m44.95,80.64c-.42.56-.77,1.01-1.14,1.5.01-.37.18-.63.36-.87.18-.24.37-.48.78-.63Z"/>
    <path class="cls-2" d="m50,90.26c.14.64-.05,1.11-.28,1.58-.19-.03-.15-.13-.12-.21.12-.43.25-.85.4-1.37Z"/>
    <path class="cls-2" d="m30.31,81.6c.41.37.55.58.7,1.13-.46-.41-.57-.59-.7-1.13Z"/>
    <path class="cls-2" d="m38.11,85.55c-.31-.21-.39-.53-.32-.9.1.3.2.61.31.91h.01Z"/>
    <path class="cls-2" d="m50.59,91.1c.04.32-.09.52-.3.71.03-.37.02-.37.3-.71Z"/>
    <path class="cls-2" d="m37.82,70.17c-.2.22-.33.36-.48.54q.05-.31.48-.54Z"/>
    <path class="cls-2" d="m31.19,69.28c0-.22.17-.3.29-.47.09.17-.03.23-.09.31-.05.07-.14.1-.21.15h.01Z"/>
    <path class="cls-2" d="m26.73,83.52c-.37-.19-.56-.55-.78-.88-1.05-1.55-1.8-3.08-1.94-3.98.29.33.39.66.56.95.19.33.37.67.56,1,.18.31.37.62.56.92.2.33.41.64.61.97.19.3.36.61.54.92-.04.03-.08.07-.12.1Z"/>
    <path class="cls-2" d="m18.97,84.11c.19-.25.41-.25.62-.27,1.45-.09,3.15.99,3.73,2.35,0,.01-.02.04-.04.07-.55-.64-1.09-1.27-1.86-1.65-.76-.37-1.59-.42-2.45-.51Z"/>
    <path class="cls-2" d="m23.84,79.9c.33.54.65,1.09.97,1.62-.1.14-.18.06-.24,0-.47-.42-.78-.94-.73-1.63Z"/>
    <path class="cls-2" d="m19.68,84.66c.79-.2,1.41.17,2,.62-.36-.01-.66-.21-.98-.31-.34-.11-.68-.21-1.02-.32Z"/>
    <path class="cls-2" d="m19.52,85.21c.55-.18,1.05-.08,1.48.34-.49-.11-.99-.22-1.48-.34Z"/>
    <path class="cls-2" d="m23.13,90.91c.36-.05.72-.09,1.18-.15-.41.38-.77.41-1.18.15Z"/>
    <path class="cls-2" d="m22.97,90.56c.46-.19.76-.31,1.06-.44.13.12.05.21-.05.28-.26.18-.53.28-1.02.16Z"/>
    <path class="cls-2" d="m45.66,87.29c-.4-.82-1.03-1.38-1.86-1.74-.88-.39-1.77-.41-2.66-.05-.44.18-.84.45-1.26.69-.14.08-.24.21-.45.26.82-1.24,2.37-1.83,3.8-1.48,1.28.31,2.34,1.3,2.42,2.32Z"/>
    <path class="cls-2" d="m44.71,93.36c1.17-1.13,1.64-2.7,1.24-3.82.14-.16.28-.07.33.06.08.19.15.41.15.62,0,.79-.15,1.57-.51,2.28-.17.33-.4.6-.73.76-.1.05-.22.05-.48.1Z"/>
    <path class="cls-2" d="m44.14,92.68c.79-.61,1.1-1.4,1.18-2.34.05.07.13.14.14.21.14.85-.14,1.55-.76,2.12-.13.12-.31.23-.56.01Z"/>
    <path class="cls-2" d="m38.58,91.7c-.32.43-.77.51-1.24.51-.59.01-1.18-.02-1.62-.52.95.31,1.9.32,2.86,0Z"/>
    <path class="cls-2" d="m35.17,91.84c.33.18.65.38,1,.53.31.14.65.25,1.02.38-.45.19-.49.19-.89.05-.5-.17-.92-.43-1.12-.97Z"/>
    <path class="cls-2" d="m34.1,91.81c.36.29.64.57.97.78.31.2.67.34,1.12.56-.67.08-1.09-.18-1.5-.46-.29-.2-.53-.45-.6-.88Z"/>
    <path class="cls-2" d="m44.15,91.33c-.11.36-.32.5-.54.62-.19.11-.38.16-.6.05.35-.21.69-.41,1.13-.68Z"/>
    <path class="cls-2" d="m37.35,91.31c.19-.18.3-.28.52-.48-.11.34-.2.44-.52.48Z"/>
  </g>
  <g>
    <path class="cls-2" d="m70.26,5c.26.13.23.32.19.49-.12.44-.24.89-.38,1.33-.24.74-.52,1.48-.76,2.22-.08.26-.11.54-.17.8-.06.29-.11.59-.21.87-.2.56-.43,1.12-.63,1.68-.36,1.02-.72,2.04-1.05,3.07-.13.41-.17.85-.24,1.28-.01.1.03.2.07.42.75-1.53,1.45-2.95,2.13-4.38.29-.6.5-1.23.64-1.89.12-.55.35-1.1.62-1.6.5-.94.92-1.91,1.29-2.9.1-.28.23-.55.37-.81.03-.06.18-.07.29-.11.08.36,0,.65-.09.93-.25.77-.44,1.55-.78,2.28-.19.41-.31.87-.45,1.31-.52,1.65-1.05,3.29-1.54,4.94-.22.73-.36,1.47-.52,2.21-.03.15-.02.31-.03.54.14-.07.23-.08.28-.14.24-.28.48-.56.71-.85.07-.09.13-.19.17-.3.18-.52.35-1.05.53-1.57.14-.41.28-.83.46-1.23.72-1.64,1.36-3.32,2.01-4.99.31-.79.69-1.56,1.04-2.33.04-.08.1-.15.21-.3.03.18.09.29.07.38-.08.36-.18.71-.29,1.06-.49,1.48-1,2.96-1.5,4.45-.45,1.33-.89,2.66-1.33,3.99-.2.59-.3,1.21-.3,1.83,0,.17-.02.36.15.49.06-.03.11-.05.13-.08.51-1.13,1-2.27,1.52-3.4,1.14-2.47,2.17-4.98,3.09-7.54.05-.15.11-.31.2-.44.05-.07.18-.1.34-.18,0,.19.03.3,0,.4-.24,1.03-.47,2.06-.74,3.09-.43,1.62-.85,3.25-1.34,4.86-.31,1.03-.73,2.03-1.09,3.05-.16.43-.31.87-.46,1.3-.23.65-.46,1.3-.71,1.94-.18.47-.37.94-.57,1.4-.25.58-.61,1.08-1.03,1.55-.66.72-1.42,1.32-2.33,1.68-.53.21-.9.56-1.15,1.04-.48.94-.94,1.9-1.4,2.85-.06.12-.1.26-.14.39-.22.73-.42,1.46-.65,2.18-.44,1.38-.87,2.77-1.35,4.13-.74,2.11-1.39,4.24-1.95,6.4-.1.4-.25.79-.38,1.18-.14.41-.3.82-.31,1.27,0,.14-.05.27-.08.4-.28,1.07-.55,2.14-.83,3.21-.2.76-.39,1.51-.74,2.22-.12.25-.19.52-.26.78-.26.91-.53,1.81-.78,2.72-.05.17-.08.37-.04.54.09.31.03.59-.07.87-.47,1.27-.94,2.55-1.41,3.82-.09.23-.17.46-.41.61-.14.08-.21.29-.31.45-.22.35-.44.7-.67,1.05-.4.62-1.01.93-1.68,1.14-.27.09-.54.02-.82-.02-.77-.12-1.35-.54-1.82-1.15-.66-.86-.79-1.81-.63-2.87.19-1.32.69-2.52,1.29-3.69.85-1.66,1.64-3.35,2.24-5.12.04-.11.06-.23.13-.32.77-1.04,1.22-2.26,1.83-3.39.22-.42.37-.89.74-1.23.11-.1.14-.29.2-.43.27-.66.53-1.32.8-1.98.19-.47.41-.93.59-1.4.68-1.71,1.41-3.4,2.24-5.04.17-.33.31-.67.43-1.02.56-1.61,1.26-3.16,1.99-4.7.34-.73.63-1.48.94-2.22.19-.45.37-.89.57-1.33.14-.32.2-.65.18-1.01-.05-.62-.02-1.24-.08-1.86-.05-.48-.11-.97-.28-1.42-.71-1.87-.47-3.66.32-5.43.35-.78.7-1.55,1.02-2.34.24-.6.48-1.2.67-1.81.52-1.68,1.27-3.26,2.05-4.82.42-.84.8-1.71,1.44-2.43.15-.17.21-.41.33-.6.09-.15.2-.29.3-.44Zm-1.74,4.39c.17-.21.26-.45.26-.73-.16.21-.31.42-.32.7-.16.19-.25.41-.22.66-.08.14-.17.26-.23.41-.26.64-.52,1.28-.78,1.92-.69,1.71-1.4,3.41-2.08,5.12-.24.62-.52,1.25-.61,1.9-.14,1-.13,2.02.17,3.01.15.51.29,1.02.45,1.52.14.42.19.85.15,1.29-.07.71-.21,1.41-.57,2.05-.11.2-.18.42-.26.64-.39,1.01-.79,2.01-1.18,3.02-.12.3-.22.6-.32.91-.1.28-.18.57-.29.85-.34.93-.67,1.86-1.05,2.78-.66,1.6-1.34,3.18-2.02,4.77-.11.25-.23.5-.38.74-.35.57-.6,1.19-.86,1.8-.43.99-.86,1.99-1.31,2.97-.22.48-.52.92-.75,1.4-.86,1.83-1.61,3.71-2.47,5.55-.79,1.68-1.4,3.45-2.08,5.19-.1.26-.15.56-.32.76-.25.3-.28.62-.27.96.01.34.07.68.12,1.02.1.67.48,1.18.95,1.64.29.28.6.33.94.17.2-.1.39-.24.57-.38.2-.15.37-.37.59-.47.35-.15.54-.42.7-.73.38-.74.74-1.48,1.1-2.23.09-.18.15-.39.2-.59.33-1.3.78-2.55,1.27-3.79.1-.26.18-.52.25-.79.11-.42.2-.85.32-1.27.46-1.57.93-3.13,1.4-4.7.05-.15.1-.31.12-.47.05-.7.27-1.35.48-2.01.34-1.05.7-2.1,1.04-3.15.11-.35.21-.71.3-1.06.14-.56.23-1.13.41-1.67.32-.98.7-1.95,1.04-2.93.44-1.28.87-2.57,1.27-3.87.44-1.43.77-2.89,1.54-4.2.07-.12.11-.25.15-.39.37-1.09,1.08-1.91,2.02-2.54.4-.27.81-.53,1.22-.79.26-.16.46-.38.62-.64.46-.74.94-1.48,1.4-2.22.15-.23.28-.48.38-.73.92-2.24,1.67-4.53,2.35-6.85.03-.1.11-.21-.05-.35-.22.36-.37.72-.48,1.12-.36,1.34-.98,2.58-1.68,3.77-.18.32-.4.61-.7.79-.31-.03-.53-.12-.68-.35.02-.25.03-.5.05-.75.01-.23.03-.46.04-.69.01-.24.16-.47.08-.82-.18.3-.29.53-.43.72-.27.37-.55.73-.87,1.07-.22.23-.35.2-.73-.03-.09-.66-.03-1.31.13-1.97.05-.22.07-.45.11-.67q.25-.44.22-.86c-.12.31-.37.52-.23.86-.31.48-.63.95-.93,1.44-.06.09-.07.21-.08.32-.03.3-.26.42-.47.55-.22.12-.46.22-.66.06-.28-.85-.1-1.64.1-2.42.06-.22.14-.44.2-.66.08-.29.14-.58.21-.87.13-.56.24-1.12.4-1.67.2-.66.44-1.31.66-1.96.06-.17.07-.35.1-.53.22-.15.25-.39.28-.63Zm2.6,12.71c-.09.15-.19.3-.28.45-.09.16-.17.33-.26.49.37-.2.55-.52.54-.94Zm-1.86-14.32c-.19.15-.31.3-.25.52.08-.17.17-.35.25-.52Z"/>
    <path class="cls-2" d="m65.52,22.53c.5.24.44.8.8,1.27-.22-.05-.31-.07-.43-.09,0,0-.03.02-.02.04q.02.34-.18.67c-.73-1.08-1.11-2.85-.8-3.82.14.4-.04.83.16,1.23.04-.23.08-.42.12-.61.02,0,.05,0,.07,0,.1.44.19.88.29,1.32Z"/>
    <path class="cls-2" d="m52.06,57.89c-.16,2.79.19,2.63.46,3.89-.21.06-.31-.08-.36-.23-.13-.41-.28-.83-.36-1.26-.13-.71-.08-1.42.12-2.11.02-.08.07-.15.14-.29Z"/>
    <path class="cls-2" d="m52.88,61.26c-.34-.09-.42-.35-.49-.57-.11-.38-.22-.78-.05-1.34.2.71.36,1.27.54,1.91Z"/>
    <path class="cls-2" d="m58.19,50.36c-.19.56-.37,1.12-.58,1.74-.09-.44.11-1.13.58-1.74Z"/>
  </g>
  <g>
    <path class="cls-2" d="m84.75,69.95c-.22.83-.21,1.58-.11,2.34.19,1.43.55,2.82,1.07,4.17.13.34.16.71.27,1.06.16.49-.05.88-.36,1.19-.32.33-.7.61-1.19.69-.46.07-.92.19-1.38.18-1.17-.02-2.34.05-3.51-.1-.61-.08-1.2-.19-1.79-.38-1.48-.49-2.98-.95-4.33-1.76-.37-.23-.75-.46-1.09-.74-.58-.48-1.14-.99-1.7-1.5-.27-.25-.52-.52-.62-.81-.09-.29.15-.42.1-.68-.15-.7.11-1.3.66-1.76.47-.39.95-.77,1.44-1.12,1.18-.84,2.26-1.77,3.07-2.99.15-.22.3-.44.44-.63-.32-.69-.62-1.33-.92-1.96-.64-1.33-.89-2.73-.75-4.2.04-.39.1-.77.17-1.16.18-1.11.37-2.21.57-3.32.07-.38.16-.76.25-1.14.1-.48.17-.95,0-1.44-.08-.24-.06-.53-.05-.79.04-.78.1-1.56.16-2.35q.8-1.24,2.31-1.65c.07-.11.15-.24.21-.37.59-1.2,1.42-2.21,2.34-3.17.46-.48.97-.89,1.54-1.24.31-.19.62-.39.92-.6.56-.37,1.21-.55,1.86-.63.77-.1,1.56-.15,2.33-.12.47.02.95.2,1.4.38,1.12.44,2.17,1,3.11,1.75.28.23.54.5.76.79.64.84,1.17,1.76,1.53,2.74.63,1.7.8,3.47.39,5.26-.05.21-.1.43-.16.66.12.11.26.21.37.33.11.13.2.28.27.43.1.25.16.5-.05.75-.11.14-.18.36-.17.55.02.43-.2.73-.43,1.05-.52.73-1.02,1.49-1.53,2.23-.76,1.1-1.19,2.35-1.7,3.56-.2.47-.36.96-.71,1.36-.09.11-.16.25-.2.39-.18.63-.57,1.13-.93,1.65-.36.52-.74,1.02-1.2,1.47-.76.74-1.58,1.38-2.67,1.62Zm-2.52-11.14c.78.36,1.63.51,2.46.71,1.69.41,3.39.74,5.13.73.12,0,.24.04.36.06-.49.19-1.01.11-1.51.09-1.51-.06-3-.35-4.49-.6-.22-.04-.43-.09-.64-.16-.76-.25-1.53-.49-2.29-.77-1.94-.72-3.7-1.74-5.27-3.1-.09-.07-.15-.2-.32-.13-.03.05-.07.11-.09.18-.27,1.21-.51,2.43-.62,3.68-.09.98,0,1.95.06,2.92.02.23.07.42.38.5,0-.44-.03-.84,0-1.25.02-.41.05-.83.12-1.24.06-.4.11-.82.35-1.18,0,.26-.03.5-.07.75-.16.94-.21,1.89-.11,2.84.04.34.17.58.59.68-.02-.19-.03-.33-.04-.48-.02-.49-.05-.97-.06-1.46,0-.09.06-.18.15-.41.14.97.08,1.81.3,2.65.22.12.46.24.68.38.31.19.59.42.91.6,2.64,1.42,5.46,1.89,8.43,1.63.36-.03.73-.08,1.09-.12.26-.03.44-.15.6-.37.48-.68.9-1.39,1.21-2.17.42-1.04.85-2.07,1.27-3.12.04-.09-.01-.22-.02-.34.19-.18.38-.35.57-.53.02.02.05.05.1.1.23-.41.44-.82.68-1.21.23-.39.48-.77.75-1.2-.56.01-1.04,0-1.52.04-.21.01-.46.04-.62.16-.2.14-.4.16-.62.14-.51-.05-1.02-.1-1.52-.19-.39-.07-.76-.21-1.12-.58.87.05,1.65.08,2.42.14,1.04.09,2.05-.07,3.03-.37.81-.25.96-.73.55-1.52-.37.14-.13.53-.37.82-.17.05-.42.15-.68.2-.43.08-.87.14-1.3.2-1.62.2-3.21-.05-4.79-.4-1.17-.26-2.3-.64-3.43-1.01-1.43-.46-2.78-1.05-4.01-1.91-.62-.43-1.21-.9-1.79-1.38-.46-.38-.63-.7-.77-1.25.2.11.35.19.53.29.06-.21.1-.38.14-.54.03-.15.18-.29.04-.48-.66.18-1.15.51-1.27,1.17.55.98,1.33,1.64,2.2,2.2.78.5,1.56,1.01,2.36,1.48.63.37,1.23.8,1.99.89.12.01.23.09.34.13.88.3,1.75.59,2.63.9.15.05.29.13.44.19-.54.05-1.02-.12-1.51-.26-.35-.1-.7-.3-1.05-.29-.6,0-1.08-.25-1.58-.49-.17-.09-.34-.19-.53-.25-.71-.22-1.34-.58-1.95-.99-.44-.3-.86-.64-1.4-.78-.18-.05-.34-.19-.48-.32-.36-.33-.71-.67-1.06-1-.1-.09-.2-.19-.35-.33.02,1.05.04,2.01.06,3.04.04.04.11.15.21.21.82.53,1.61,1.11,2.46,1.57,1.03.56,2.06,1.11,3.17,1.51.22.08.49.13.55.42l-.63-.31c.17.18.37.3.62.3Zm-2.96-11.18c.12-.04.23-.08.44-.16-.2.27-.34.47-.47.67-.12.18-.22.38-.33.57-.12.22-.21.44-.34.65-.11.18-.08.46-.36.54.02-.13.03-.25.06-.47-.4.66-.59,1.28-.75,1.91.07.08.1.14.16.19.82.61,1.67,1.19,2.58,1.66,1.3.67,2.65,1.24,4.02,1.76,2.06.78,4.2,1.06,6.38,1.12.39.01.78-.04,1.17-.07.19-.02.37-.08.55-.12.08-.16.16-.29.21-.42.73-2.16.89-4.34.26-6.55-.22-.76-.58-1.44-1.06-2.07-.62-.8-1.41-1.41-2.18-2.04-.75-.61-1.61-.89-2.53-1.05-.36-.06-.74-.1-1.09-.05-.7.09-1.39.25-2.08.4-.21.05-.42.14-.61.23-1.1.56-2.09,1.26-2.98,2.11-.39.37-.77.75-1.03,1.23-.42.43-.49.54-.58.93.29-.31.43-.63.57-.95Zm3.83,21.81c0-.14.01-.25.02-.36.45-.29.9-.57,1.34-.85l.06.06c-.19.2-.37.39-.6.63.11-.02.16-.01.2-.03.23-.13.47-.26.69-.41.2-.13.44-.25.58-.44.19-.26.51.03.69-.23.09-.13.25-.21.38-.32-.22.56-.75.85-1.1,1.3.79-.36,1.34-1.03,2.01-1.54.19-.14.34-.34.39-.64-.17.02-.32.04-.46.07-.52.11-1.04.27-1.57.32-1.27.13-2.54.08-3.79-.2-.93-.21-1.84-.48-2.67-.97-.8-.47-1.58-.96-2.38-1.44-.03-.02-.09,0-.13,0-.03.06-.1.14-.22.23-.12-.34-.19-.72-.68-.83.03.18.05.34.08.5.03.17.14.33,0,.63-.15-.46-.26-.8-.36-1.15-.08-.27-.19-.49-.53-.6-.08.7.24,1.27.47,1.84.6,1.52,1.72,2.64,2.97,3.64-.23.31-.52.33-.84.18-.43-.19-.82-.44-1.15-.77-.09-.1-.21-.17-.32-.26q-.57.93-1.53,1.7c-.19.15-.36.32-.53.5-.87.9-1.83,1.68-2.86,2.39-.2.14-.37.31-.53.49-.14.16-.13.36-.01.54.02.04.08.05.11.07.08-.05.15-.09.23-.14.17.12.32.23.48.35.12-.31.22-.58.32-.85.11-.31.44-.37.63-.59.02-.02.03-.04.05-.06.45-.41.9-.82,1.35-1.23.25-.23.55-.35.95-.34-.12.13-.2.24-.3.34-.32.3-.66.58-.98.88-.71.65-1.25,1.42-1.6,2.33.43.64,1.06,1.07,1.48,1.71l-1.36-.68c.02.16.09.27.18.34.46.36.92.73,1.4,1.06.48.33.96.68,1.52.86.83.28,1.66.57,2.5.82,1.94.57,3.91.84,5.93.6.54-.06,1.06-.18,1.52-.44.28-.44.31-.87.06-1.32-.1-.19-.15-.41-.2-.63-.22-.88-.45-1.75-.65-2.63-.21-.9-.41-1.81-.37-2.75.01-.34.03-.67.05-1.07-1.36.2-2.65.08-3.92-.43.51-.34.72-.39,1.26-.29.57.11,1.15.19,1.74.1Zm-2.12-10.98l.05-.1c-.47-.24-.95-.48-1.42-.71-.48-.23-.96-.45-1.44-.68-.01.02-.02.05-.03.07l2.84,1.42Zm-3.5,20.15c.23.13.45.34.91.22-.41-.1-.66-.16-.91-.22Zm4.17-24.42s0-.02,0-.04l-.5-.25s0,.02-.01.03l.51.26Z"/>
    <path class="cls-2" d="m89.04,47.37c.07.14.15.28.24.45q.05-.96.35-1.42c.19-.05.4-.1.61-.16.12.09.24.18.31.23-.13.02-.31,0-.44.08-.19.11-.19.34-.15.53.04.21.11.43.21.62.19.34.41.66.62.99.16.24.32.47.51.75-.26.03-.44.07-.62.07-.12,0-.26,0-.35-.07-.73-.57-1.29-.81-1.29-2.07Zm.66-.74q-.21.38-.05.87c.02-.33.03-.59.05-.87Z"/>
    <path class="cls-2" d="m78.83,51.89c-.08-1,.24-1.75.65-2.48-.02.12-.02.23-.05.35-.03.14-.07.28-.12.42-.1.27-.17.54-.09.85.05.19-.02.43-.07.64-.02.07-.14.11-.32.23Z"/>
    <path class="cls-2" d="m79.14,49.16c-.27.64-.54,1.28-.82,1.91,0,.01-.04.01-.11.03-.09-.84.56-1.34.93-1.95Z"/>
    <path class="cls-2" d="m79.58,51.08c.18.29-.03.54-.05.8-.22-.3.03-.54.05-.8Z"/>
    <path class="cls-2" d="m80.12,52.11c-.18-.27-.11-.46-.03-.68q.14.21.03.68Z"/>
    <path class="cls-2" d="m78.92,69.79c.11.21.03.39-.04.56-.18.43-.36.86-.57,1.27-.5,1.01-1.02,2-1.52,3.01-.37.75-.57,1.55-.59,2.44.2.09.38.2.59.26,1.32.35,2.64.69,3.97,1.01.23.06.48.06.73.06,1.02-.02,2.05,0,3.05-.27.1-.03.23.02.35.04-.03.24-.2.23-.32.26-1.2.28-2.41.38-3.63.26-1.52-.14-2.97-.56-4.4-1.05-.7-.24-1.37-.52-1.95-.98-.25-.19-.5-.38-.67-.76.38.11.59.35.85.48.25.13.49.3.78.38.02-.41,0-.77.05-1.13.09-.72.44-1.34.84-1.93.69-1.03,1.39-2.06,2.08-3.1.16-.24.26-.51.4-.79Zm-2.42,4.6s-.02,0-.03,0l-.25.5s.02,0,.03.01l.26-.52Z"/>
    <path class="cls-2" d="m83.08,75.76c0,.48,0,.97.01,1.44-.16.12-.28-.02-.46-.05-.08-.19-.19-.41-.26-.64-.27-.92-.46-1.84-.43-2.81.01-.34-.06-.68-.09-1.02-.07-.68-.01-1.35.3-1.99,0,.24,0,.47,0,.71-.02,1.18.21,2.33.55,3.45.01.04.06.08.08.12,0,.3-.02.61.29.78Z"/>
    <path class="cls-2" d="m77.13,71.8c-.1.49-.47.76-.66,1.14-.2.39-.43.76-.64,1.14-.19-.07-.13-.19-.09-.29.23-.63.7-1.3,1.39-1.98Z"/>
    <path class="cls-2" d="m78.7,72.05c.06-.76.26-1.28.78-2.08,0,.44-.14.75-.27,1.06-.14.32-.24.67-.51,1.02Z"/>
    <path class="cls-2" d="m79.95,70.04c.08.31.01.51-.18.75-.09-.3-.02-.51.18-.75Z"/>
    <path class="cls-2" d="m82.66,68.7c.12-.06.25-.12.37-.17.04-.02.09,0,.13,0-.03.05-.06.13-.11.16-.12.05-.24.08-.37.12-.01-.03-.02-.06-.03-.09Z"/>
  </g>
  <g>
    <path class="cls-2" d="m56.71,71.77c-.02-.21-.07-.41-.06-.62.01-.23.01-.5.13-.66.4-.57.59-1.24.91-1.85.33-.63.62-1.28.91-1.94.13-.29.19-.61.28-.91.07-.22.12-.45.22-.65.59-1.14,1.15-2.31,1.81-3.41.37-.6.8-1.17,1.18-1.77.71-1.16,1.42-2.31,2.01-3.54.22-.46.51-.88.75-1.32.26-.48.51-.98.76-1.47.21-.41.41-.83.63-1.23.82-1.49,1.66-2.97,2.48-4.47.15-.28.26-.59.38-.88.17-.43.31-.87.51-1.28.2-.42.2-.83.07-1.27-.18-.59-.37-1.19-.5-1.79-.15-.65-.21-1.32.12-1.95.06-.12.07-.27.09-.4.09-.71.34-1.38.61-2.04.35-.83.66-1.67,1.03-2.49.7-1.55,1.43-3.08,2.15-4.62.06-.12.13-.24.2-.36.44-.73.91-1.43,1.15-2.27.05-.2.18-.37.28-.55,1.19-2,2.33-4.02,3.63-5.95.35-.51.72-1,1.02-1.55.18-.33.5-.61.8-.85.87-.7,1.85-1.21,2.87-1.62.55-.22,1.13-.2,1.7-.08.19.04.37.17.54.29.16.12.22.34.48.35.07,0,.17.16.19.26.04.25.08.5.07.75-.03.76-.24,1.5-.43,2.23-.03.11-.07.26-.15.3-.26.13-.32.38-.43.6-.39.78-.74,1.58-1.34,2.25-.11.12-.16.28-.24.42-.84,1.48-1.7,2.95-2.51,4.45-.54.99-1.01,2.01-1.49,3.03-.79,1.69-1.57,3.38-2.36,5.07-.16.33-.36.64-.55.96-.85,1.45-1.7,2.89-2.4,4.43-.53,1.15-1.09,2.28-1.82,3.32-.37.53-.61,1.13-.86,1.72-.68,1.64-1.36,3.27-2.09,4.89-.33.73-.75,1.42-1.13,2.13-.17.32-.35.65-.5.98-.6,1.39-1.2,2.79-1.79,4.19-.26.61-.52,1.23-.73,1.86-.63,1.85-1.43,3.64-2.19,5.44-.49,1.19-1,2.37-1.48,3.56-.12.29-.26.54-.49.74-.43.38-.86.76-1.31,1.12-.53.42-1.15.56-1.82.44-.28-.05-.47-.18-.62-.47-.26-.49-.56-.95-.65-1.51Zm13.55-27.57c.23.56.08,1.09-.1,1.61-.04.11-.07.22-.11.33-.54,1.29-1.02,2.6-1.78,3.8-.77,1.2-1.42,2.47-2.12,3.72-.22.4-.48.78-.54,1.26-.02.15-.13.29-.21.43-.19.32-.39.63-.58.94-1.07,1.82-2.17,3.63-3.07,5.55-.82,1.75-1.74,3.45-2.65,5.16-.56,1.06-1.04,2.15-1.51,3.25-.26.61-.25,1.2-.08,1.81.22.78,1.01,1.15,1.73.78.64-.33,1.18-.79,1.62-1.37.14-.18.24-.39.33-.6.26-.59.5-1.19.76-1.78.31-.72.67-1.42.91-2.16.38-1.21.85-2.38,1.35-3.55.1-.23.21-.47.26-.71.2-.88.54-1.71.92-2.53.34-.73.7-1.45,1.01-2.19.71-1.7,1.47-3.37,2.28-5.03.68-1.38,1.44-2.73,1.99-4.17.12-.32.3-.62.46-.93.32-.58.66-1.16.98-1.74.52-.95,1.06-1.89,1.54-2.85.93-1.88,1.82-3.77,2.73-5.65.58-1.18,1.18-2.34,1.76-3.52.08-.16.2-.36.16-.5-.07-.24.03-.4.13-.58.46-.8.83-1.64,1.23-2.47.94-2,1.95-3.97,3.06-5.88.7-1.22,1.39-2.44,1.94-3.74.18-.42.35-.86.45-1.3.16-.65-.06-.96-.71-1.07-.15-.03-.32,0-.48.04-.35.1-.7.22-1.05.33-.81.25-1.49.7-2.04,1.35-1.05,1.23-1.99,2.54-2.85,3.9-.68,1.07-1.35,2.15-1.93,3.27-1.17,2.25-2.32,4.5-3.33,6.82-.82,1.88-1.67,3.74-2.52,5.6-.18.41-.27.82-.26,1.27.02.84.16,1.65.44,2.43.07.21.19.41.14.64-.1,0-.16.01-.26.02Zm15.08-23.06c-.09.18-.18.35-.25.53-.01.03.04.1.09.21.16-.26.26-.47.16-.74Z"/>
    <path class="cls-2" d="m72.2,43.67c-.12.23-.25.37-.5.36-.25-.08-.39-.3-.5-.52-.41-.84-.61-1.73-.41-2.66.12-.53.26-1.06.44-1.76.04.27.06.38.07.49.04.75.05,1.51.12,2.26.07.69.27,1.34.78,1.84Z"/>
    <path class="cls-2" d="m58.96,71.59c.04.12.09.24.16.43-.48-.12-.82-.29-1.04-.67h.02c-.07-.51-.11-1.03.23-1.49.23.06.13.24.15.35.09.49.14,1,.5,1.39h-.02Z"/>
    <path class="cls-2" d="m71.59,41.14c.29.65.42,1.38.93,1.93-.19.15-.29,0-.36-.09-.43-.53-.63-1.15-.57-1.84Z"/>
    <path class="cls-2" d="m71.15,44.14c-.56-.64-.78-1.44-.83-2.29.12.39.22.78.36,1.16.14.38.31.75.47,1.13Z"/>
    <path class="cls-2" d="m58.08,71.35c.12.41.25.82.37,1.24-.11.07-.14-.04-.18-.1-.23-.37-.36-.78-.46-1.27.13.07.21.11.28.15h-.02Z"/>
    <path class="cls-2" d="m58.98,71.61l-.12-.65c.35.17.4.5.62.67-.08.19-.19.15-.29.1-.08-.04-.15-.09-.23-.14h.02Z"/>
    <path class="cls-2" d="m72.03,41.55c.41.22.5.55.72.76-.07.16-.17.12-.24.07-.24-.18-.36-.43-.49-.82Z"/>
  </g>
</svg>