<?xml version="1.0" encoding="UTF-8"?>
<svg id="ICONS" xmlns="http://www.w3.org/2000/svg" viewBox="0 0 100 100">
  <defs>
    <style>
      .cls-1 {
        fill: #273a7c;
      }

      .cls-1, .cls-2 {
        stroke-width: 0px;
      }

      .cls-2 {
        fill: #e32d73;
      }
    </style>
  </defs>
  <path class="cls-1" d="m15.59,52.03c-.13,2.42-.34,4.83-.5,7.24-.14,2.22-.3,4.45-.46,6.67-.32,4.38-.71,8.76-.9,13.15-.09,2.23-.14,4.45-.21,6.68-.04,1.3-.22,2.6-.23,3.91s.04,2.9.91,3.97c.26.32.59.53.98.61.8.15,1.62.2,2.44.25,1.32.08,2.64.13,3.95.18,1.79.06,3.58.1,5.37.14,2.15.04,4.29.07,6.44.1,2.39.03,4.78.05,7.17.06,2.51.01,5.02.02,7.53.02s5.09,0,7.63-.02,4.9-.03,7.36-.05c2.24-.02,4.47-.05,6.71-.09,1.93-.03,3.87-.07,5.8-.12,1.5-.04,3.01-.09,4.51-.16.96-.04,1.93-.09,2.89-.19.32-.03.65-.06.97-.14.98-.24,1.78-1.11,2.17-2.01.6-1.36.59-2.92.52-4.37-.07-1.33-.21-2.65-.24-3.99-.08-4.52-.23-9.03-.38-13.55s-.29-9.03-.37-13.55c-.02-1.15-.03-2.3-.07-3.45-.02-.57-.11-1.14-.18-1.7-.03-.25-.1-.48-.17-.72-.04-.13-.08-.27-.13-.4-.03-.1-.11-.22-.11-.32,0-.24-.26-.24-.43-.17-.21.09-.42.33-.42.57,0,.11-.07.24-.1.35-.04.15-.07.3-.11.45-.08.34-.17.68-.2,1.03-.07.64-.14,1.28-.15,1.93-.02,1.18,0,2.36.02,3.54.04,2.26.09,4.51.15,6.77.12,4.43.28,8.87.41,13.3.06,2.24.12,4.47.16,6.71.02,1.35.15,2.68.23,4.02.04.72.06,1.44.01,2.16-.01.16-.02.31-.04.47.02-.19,0,.02-.02.09-.01.08-.03.17-.05.25-.03.14-.07.27-.1.41,0,.03-.02.06-.03.1-.03.14.09-.2.03-.08-.03.07-.06.14-.09.21-.02.05-.08.11-.09.16.01-.11.15-.22.03-.06s0,0,.07-.08c-.2.22.18-.13.05-.03-.21.17.18-.08.02,0-.12.05.27-.09.22-.08-.08,0-.16.04-.23.06-.15.03-.53.06-.12.02-.16.02-.32.04-.49.05-.44.04-.88.07-1.32.1-1.29.08-2.57.13-3.86.17-1.76.06-3.51.1-5.27.14-2.1.04-4.2.07-6.3.1-2.34.03-4.69.05-7.03.07-2.49.02-4.99.03-7.48.03s-5.02,0-7.53,0-4.86-.02-7.3-.04c-2.26-.02-4.51-.04-6.77-.07-1.95-.03-3.9-.06-5.85-.11-1.55-.04-3.11-.08-4.66-.15-1.04-.04-2.08-.09-3.11-.19-.17-.02-.34-.03-.5-.05-.07,0-.14-.02-.21-.03-.03,0-.06,0-.08-.01-.15-.02.25.05.11.02-.08-.02-.17-.03-.25-.06-.02,0-.05-.02-.07-.03-.09-.03-.04-.03.02.01-.04-.04-.09-.07-.13-.11-.1-.08-.17-.18-.25-.28-.11-.13.02.06-.04-.06-.03-.06-.06-.11-.09-.17-.06-.13-.11-.26-.16-.4-.05-.15-.09-.29-.12-.44-.02-.07-.03-.14-.05-.22.03.15-.01-.08-.02-.12-.1-.71-.11-1.43-.09-2.14.04-1.25.21-2.5.23-3.75.06-4.45.23-8.9.34-13.36.11-4.21.22-8.42.18-12.63-.02-2.21-.17-4.41-.29-6.61,0-.14-.21.01-.21.1h0Z"/>
  <path class="cls-1" d="m15.7,56.56c.09-1.57.15-3.15.45-4.7.1-.53.27-1.04.45-1.42.05-.1.1-.21.16-.31.02-.03.03-.06.05-.08-.05.07-.06.09-.03.05.04-.05.08-.11.11-.17-.06.09-.06.1-.02.04,0-.04.21-.18-.02.03.04-.04.07-.08.11-.12.07-.07.33-.3.04-.06l-.4.19c.26-.07.45-.2.64-.39.02-.02.12-.09.13-.12-.02.08-.22.17-.05.05.05-.04.1-.07.16-.11.18-.13-.02,0-.04.02.06-.05.31-.18.28-.16.08-.05.05.02-.12.07.11-.03.22-.12.33-.17.06-.03.12-.05.18-.07.18-.08-.22.07,0,0,.13-.04.27-.08.4-.12.3-.08.6-.13.91-.18.08-.01.17-.02.25-.04.12-.02-.2.02,0,0,.04,0,.08,0,.12-.01.18-.02.37-.04.55-.06.41-.04.82-.07,1.23-.1,1.05-.07,2.1-.13,3.15-.19,6.58-.36,13.17-.44,19.76-.45,6.61-.02,13.22-.02,19.83.02,3.24.02,6.48,0,9.72.11,1.42.05,2.85.05,4.27.12.71.04,1.42.09,2.12.18.56.07,1.15.15,1.68.34.65.23,1.14.74,1.43,1.34.37.78.49,1.52.55,2.33.07.92.03,1.84.06,2.76.03.79.12,1.58.3,2.36.07.29.13.64.14.94,0,.2.33,0,.33-.16-.03-.8.32-1.59.5-2.38.22-.98.37-1.98.37-3,0-1.68-.11-3.76-1.36-5.04-.73-.74-1.71-.91-2.69-1.07-1.45-.23-2.91-.29-4.37-.32-3.16-.08-6.33-.13-9.49-.16-6.79-.06-13.58-.05-20.37-.05s-13.45.05-20.17.36c-1.34.06-2.67.14-4.01.19-.85.03-1.7.06-2.55.15-1.43.15-2.89.42-3.98,1.43-.09.08-.17.17-.25.25-.07.07-.13.15-.19.23,0,0,.19-.22.09-.11-.21.24-.38.48-.39.81l.1-.38c-.11.2-.19.42-.27.64-.01.04-.07.2,0,.03-.03.08-.05.15-.08.23-.03.1-.06.19-.09.29-.14.51-.18.98-.23,1.55-.15,1.54-.04,3.12.12,4.65.01.1.14-.01.15-.07h0Z"/>
  <path class="cls-1" d="m52.26,55.19c-3.26-.19-6.55.93-9.17,2.85s-4.38,4.38-5.54,7.24-1.64,6.07-1.09,9.17,2.12,6.11,4.42,8.29c1.22,1.15,2.66,2.1,4.2,2.78s3.27,1.09,5.01,1.24c3.56.3,7.16-.51,10.22-2.35,1.62-.98,3-2.27,4.17-3.76.6-.76,1.14-1.56,1.6-2.41.19-.36.38-.73.55-1.1.08-.18.16-.37.24-.56.04-.09.07-.18.11-.26.02-.05.04-.1.06-.15.03-.09.06-.17.1-.26-.05.13-.05.15-.02.05.59-1.55.97-3.17,1.06-4.83.08-1.5,0-3.07-.33-4.49-.67-2.84-2.2-5.53-4.36-7.5-2.36-2.16-5.32-3.5-8.48-3.95-.43-.06-.87-.1-1.3-.13-.22-.01-.43-.01-.66.01-.25.03-.52.11-.77.11-.13,0-.3.28-.13.28.19,0,.42.08.61.12.22.05.44.07.66.09.43.04.86.09,1.29.15.82.12,1.63.3,2.42.54,1.45.44,2.84,1.1,4.09,1.96,2.33,1.62,4.13,4.1,4.99,6.81.43,1.36.65,2.78.7,4.21.01.37.01.75,0,1.12,0,.18-.02.36-.04.54-.01.1-.02.2-.03.3,0,.02-.02.12,0,.02,0,.06-.02.12-.02.18-.11.77-.28,1.53-.49,2.28-.1.37-.22.74-.35,1.11-.02.05-.13.34-.04.11-.03.09-.07.18-.1.27-.07.19-.15.38-.23.56-.16.38-.35.75-.54,1.11-.09.18-.19.35-.29.52-.04.07-.25.41-.05.09-.06.09-.12.19-.17.28-.46.73-.94,1.46-1.47,2.14-.13.17-.26.33-.4.49-.03.04-.06.07-.09.11.24-.29.14-.17.09-.1-.09.1-.17.2-.26.29-.27.29-.56.58-.86.84-.08.07-.35.29-.01.02-.08.06-.15.12-.22.19-.16.13-.32.25-.48.37-.33.24-.67.45-1.02.68.34-.22.01,0-.07.04s-.15.08-.22.12c-.19.1-.38.2-.57.29-.37.18-.74.34-1.12.49-.04.02-.08.03-.12.05-.21.08.19-.07.05-.02-.09.03-.18.06-.27.1-.2.07-.41.13-.61.19-.38.11-.77.21-1.16.29s-.81.15-1.21.21c-.06,0-.22.04.02,0-.04,0-.09.01-.13.02-.1.01-.19.02-.29.03-.21.02-.41.04-.62.05-.82.05-1.65.04-2.48-.03-.41-.03-.82-.08-1.23-.14-.09-.01-.17-.03-.26-.04.21.04-.13-.02-.17-.03-.1-.02-.19-.04-.29-.06-.06-.01-.6-.12-.35-.07-1.59-.32-3.16-.85-4.6-1.61-.74-.39-1.3-.75-1.97-1.26-.63-.49-1.22-1.03-1.75-1.63-1-1.14-1.73-2.49-2.25-3.9-1-2.71-1.17-5.7-.59-8.53s2-5.48,4.03-7.54c2.16-2.19,4.97-3.63,8.01-4.14.84-.14,1.69-.24,2.54-.29.11,0,.3-.25.13-.26Z"/>
  <path class="cls-1" d="m14.61,89.4c1.07.34,2.16.33,3.28.34s2.32.02,3.48.02c2.27.01,4.55,0,6.83,0h13.73c9.11,0,18.23,0,27.34,0,5.11,0,10.22.04,15.33-.02.39,0,.77-.34.93-.68.13-.27.12-.69-.27-.69-4.55-.05-9.11-.02-13.66-.02h-13.66c-9.13,0-18.27,0-27.4,0h-7.66c-1.31,0-2.61.01-3.92.02s-2.69.01-4.02.34c-.18.04-.71.58-.34.69h0Z"/>
  <path class="cls-1" d="m52.01,85.91c3.26.19,6.55-.93,9.17-2.85,2.49-1.83,4.38-4.39,5.54-7.24s1.64-6.07,1.09-9.17-2.12-6.11-4.43-8.29c-1.22-1.15-2.66-2.1-4.2-2.78s-3.27-1.09-5.01-1.24c-3.56-.29-7.16.51-10.22,2.35-1.62.98-3,2.27-4.17,3.76-.6.76-1.14,1.56-1.6,2.41-.19.36-.38.73-.55,1.1-.08.18-.16.37-.24.56-.04.09-.07.18-.11.26-.02.05-.04.1-.06.15-.03.09-.06.17-.1.26.05-.13.05-.15.02-.05-.59,1.55-.97,3.17-1.06,4.83-.08,1.5,0,3.07.33,4.49.67,2.84,2.2,5.53,4.36,7.5,2.36,2.16,5.32,3.5,8.48,3.95.43.06.87.1,1.3.13.22.01.43.01.66-.01.25-.03.52-.11.77-.11.13,0,.3-.28.13-.28-.19,0-.42-.08-.61-.12-.22-.05-.44-.07-.66-.09-.43-.04-.86-.09-1.29-.15-.82-.12-1.63-.3-2.42-.54-1.45-.44-2.84-1.1-4.09-1.96-2.33-1.62-4.13-4.1-4.99-6.81-.43-1.36-.65-2.78-.7-4.21-.01-.37-.01-.75,0-1.12,0-.18.02-.36.04-.54.01-.1.02-.2.03-.3,0-.02.02-.12,0-.02,0-.06.02-.12.02-.18.11-.77.28-1.53.49-2.28.1-.37.22-.74.35-1.11.02-.05.13-.34.04-.11.03-.09.07-.18.1-.27.07-.19.15-.38.23-.56.16-.38.35-.75.54-1.11.09-.18.19-.35.29-.52.04-.07.25-.41.05-.09.06-.09.12-.19.17-.28.46-.73.94-1.46,1.47-2.14.13-.17.26-.33.4-.49.03-.04.06-.07.09-.11-.24.29-.14.17-.09.1.09-.1.17-.2.26-.29.27-.29.56-.58.86-.84.08-.07.35-.29.01-.02.08-.06.15-.12.22-.19.16-.13.32-.25.48-.37.33-.24.67-.45,1.02-.68-.34.22-.01,0,.07-.04s.15-.08.22-.12c.19-.1.38-.2.57-.29.37-.18.74-.34,1.12-.49.04-.02.08-.03.12-.05.21-.08-.19.07-.05.02.09-.03.18-.06.27-.1.2-.07.41-.13.61-.19.38-.11.77-.21,1.16-.29s.81-.15,1.21-.21c.06,0,.22-.04-.02,0,.04,0,.09-.01.13-.02.1-.01.19-.02.29-.03.21-.02.41-.04.62-.05.82-.05,1.65-.04,2.48.03.41.03.82.08,1.23.14.09.01.17.03.26.04-.21-.04.13.02.17.03.1.02.19.04.29.06.06.01.6.12.35.07,1.59.32,3.16.85,4.6,1.61.74.39,1.3.75,1.97,1.26.63.49,1.22,1.03,1.75,1.63,1,1.14,1.73,2.49,2.25,3.9,1,2.71,1.17,5.7.59,8.53s-2,5.48-4.03,7.54c-2.16,2.19-4.97,3.63-8.01,4.14-.84.14-1.69.24-2.54.29-.11,0-.3.25-.13.26Z"/>
  <path class="cls-1" d="m15.39,60.3s.04.03.06.05c.05.04.05.08.02-.02.03.07.07.11.14.14-.08-.02-.05-.04.01,0,.02.01.05.03.07.05.14.09.3.16.46.18.24.03.48.04.71.04.63.01,1.27-.02,1.9-.04,1.75-.05,3.5-.11,5.26-.17,4.2-.15,8.41-.3,12.62-.4.96-.02,1.91-.04,2.87-.06s2.24.17,3-.6c.2-.2.29-.37.17-.67s-.4-.32-.67-.36c-.42-.06-.87-.02-1.3-.01-.94.01-1.88.03-2.82.05-4.22.09-8.43.24-12.65.39-1.78.06-3.57.13-5.35.2-.67.03-1.33.03-2,.08-.14,0-.27.02-.41.03-.09,0-.17.02-.26.03.23-.03.1-.01.05,0-.07,0-.13.02-.2.02-.06,0-.12.01-.17.02-.07,0-.15.01-.22.03l-.18.07c.13-.05.16-.06.09-.03-.15.05-.31.1-.46.17-.04.02-.08.03-.11.05h-.02c.13-.04.11-.04-.04.02l-.13.08c.1-.05.12-.07.07-.04-.06.01-.13.06-.19.09-.15.07-.53.45-.31.63h0Z"/>
  <path class="cls-1" d="m62.43,59.33c-.02.43.27.52.62.65.3.11.67.15.94.21.73.16,1.52.11,2.27.12,1.48.02,2.95.05,4.43.07,2.91.05,5.81.1,8.72.09.79,0,1.58-.01,2.37-.03.38,0,.76-.01,1.14-.02.5-.01,1.09.05,1.53-.2.35-.2.65-.45.83-.83.12-.26.19-.6-.02-.83-.27-.3-.81-.18-1.17-.17s-.76.02-1.14.02c-.7.01-1.41.02-2.11.02-1.48,0-2.95-.02-4.43-.03-3.02-.03-6.04-.1-9.06-.14-.44,0-.87-.01-1.31,0-.46,0-.9.04-1.36.11-.24.04-.48.06-.72.11-.22.05-.42.12-.64.18-.26.07-.48.18-.67.37-.08.08-.21.18-.22.3h0Z"/>
  <path class="cls-1" d="m62.8,47.42c-.41,1.94-.36,3.92-.37,5.89,0,1,.02,2,.03,3,0,.5,0,1,.01,1.5,0,.25,0,.49,0,.74s-.07.64.17.79c.35.23.82-.06,1.01-.38.13-.2.23-.37.25-.61.01-.13,0-.26,0-.4,0-.26,0-.53,0-.79,0-.5,0-.99-.02-1.49-.02-.99-.04-1.99-.08-2.98s-.11-1.91-.2-2.86c-.04-.45-.08-.9-.16-1.35-.08-.42-.21-.81-.35-1.21-.05-.15-.28.06-.29.14h0Z"/>
  <path class="cls-2" d="m52.02,81.84c2.39.19,4.83-.67,6.75-2.07s3.25-3.25,4.12-5.36,1.26-4.45.87-6.73-1.55-4.59-3.26-6.26c-.88-.86-1.93-1.57-3.05-2.08-1.18-.53-2.42-.83-3.71-.94-2.69-.22-5.38.41-7.69,1.8-1.23.74-2.28,1.74-3.17,2.87-.45.57-.86,1.17-1.2,1.81-.14.27-.28.55-.4.84-.06.14-.12.27-.17.41-.03.07-.05.14-.08.21-.02.06-.04.12-.06.17-.13.35.05-.14-.02.06-.43,1.17-.71,2.36-.75,3.61-.04,1.11.01,2.25.28,3.33.52,2.07,1.67,4.04,3.26,5.46,1.77,1.59,3.95,2.58,6.31,2.91.32.04.64.07.96.09.35.01.69-.07,1.04-.14.07-.01.27-.23.13-.27-.29-.08-.57-.17-.87-.2s-.61-.06-.92-.1c-.59-.08-1.18-.21-1.76-.38-1.07-.32-2.09-.79-3.01-1.42-1.71-1.18-3-2.99-3.63-4.96-.32-.99-.46-2.04-.5-3.08,0-.28,0-.55,0-.83,0-.06,0-.12,0-.18,0-.01,0-.12,0-.02,0-.06.02-.13.02-.19,0-.03,0-.06.01-.09,0,.01-.01.08,0,0,.01-.08.02-.16.03-.24.09-.56.22-1.11.37-1.66.08-.28.17-.56.26-.84.06-.16-.05.14,0-.02.03-.07.05-.14.08-.21.06-.14.11-.28.17-.41.12-.28.26-.55.4-.82.07-.13.14-.25.21-.38.1-.18-.12.19-.01.02.05-.08.09-.15.14-.23.33-.53.68-1.05,1.06-1.55.09-.12.19-.24.28-.36.04-.05.22-.27.07-.09s.05-.06.09-.09c.2-.22.4-.42.62-.62.06-.05.11-.1.17-.15.06-.06-.25.2-.06.05.13-.1.25-.2.38-.3.23-.17.48-.32.72-.48.11-.07-.14.08-.13.08.04-.02.07-.04.11-.06.06-.03.11-.06.17-.09.14-.08.28-.15.43-.22.26-.13.52-.24.79-.35.04-.02.29-.11.11-.04s.04-.01.08-.03c.15-.05.31-.1.46-.15.28-.08.56-.15.84-.21s.59-.11.89-.16c.03,0,.07-.02.1-.01,0,0-.19.02-.09.01.08,0,.15-.02.23-.03.15-.02.3-.03.45-.04.6-.04,1.19-.03,1.79.01.3.02.61.06.91.1.06,0,.13.02.19.03.12.02-.14-.03-.02,0,.03,0,.06.01.1.02.2.04.4.08.6.12-.17-.03.02,0,.08.02s.13.03.19.04c.16.03.32.07.48.11.29.07.57.16.85.25.57.19,1.12.41,1.65.67s.96.52,1.43.86.92.73,1.31,1.16c.74.82,1.28,1.78,1.68,2.81.74,1.95.89,4.12.51,6.16s-1.4,3.99-2.87,5.5c-1.57,1.61-3.62,2.67-5.83,3.04-.62.1-1.24.19-1.87.24-.1,0-.3.25-.13.26Z"/>
  <path class="cls-1" d="m29.92,56.89c.24-.86.34-1.73.4-2.62.04-.63.07-1.27.01-1.9-.07-.68-.23-1.57-1-1.77s-1.66-.19-2.48-.21c-.55-.01-1.13-.06-1.68,0-.31.04-.62.1-.94.11-.28,0-.56,0-.84.01-.92.02-1.84.05-2.77.05-.29,0-.61.32-.61.61-.01,1.47-.17,2.97-.03,4.44.06.67.22,1.49.98,1.66.83.18,1.71.16,2.55.17,1.14.01,2.28-.01,3.42-.04.54-.01,1.08-.03,1.63-.04.23,0,.46-.01.69-.04s.39-.15.58-.26c.08-.05.17-.19.1-.28-.11-.15-.18-.21-.32-.23-.16-.02-.32-.02-.49-.02-.45.01-.9.02-1.35.04-1.11.03-2.21.06-3.32.06-.9,0-1.81.01-2.71-.1-.17-.02-.43-.05-.56-.17-.22-.2-.32-.52-.37-.85-.1-.63-.08-1.29-.07-1.93.02-.93.05-1.86.07-2.79l-.61.61c.76,0,1.51-.01,2.27-.02.52,0,1.07-.05,1.58,0,.27.03.53.1.81.11s.54,0,.82,0c.89.01,1.79.02,2.67.15.02,0,.12.02.05,0s.04,0,.06.01c.06.01.11.02.17.04.04.01.08.03.11.04.05.02.06.04,0,0,.03.02.06.05.09.08.05.05.09.1.13.16.01.01-.02-.05.01.02.02.04.04.09.06.13.03.08.06.16.08.24.01.05.03.1.04.15,0,.02.03.14.02.09.26,1.46,0,2.98.45,4.41.05.15.25-.06.27-.13h0Z"/>
  <path class="cls-1" d="m78.37,56.74c.13-.59.25-1.2.28-1.81.03-.54.05-1.07.06-1.61.02-.82,0-1.65-.08-2.47-.03-.31-.03-.99-.41-1.13-.2-.07-.48-.05-.69-.06-1-.03-2-.04-3-.05-.67,0-1.34-.03-2,.06-.63.09-1.27.05-1.9.05-1.01,0-2.03,0-3.04,0-.28,0-.62.32-.61.61.09,1.85.08,3.71.24,5.56.02.25,0,.9.29,1.02.17.07.42.04.6.05,2.3.1,4.6.13,6.91.17.62.01,1.23.02,1.85.03.24,0,.48,0,.72-.01.22-.02.41-.1.66-.23.08-.04.25-.2.15-.31-.13-.14-.22-.22-.36-.23-.19-.02-.37-.03-.55-.04-.51,0-1.02-.01-1.54-.02-1.27-.02-2.54-.04-3.81-.07-1.08-.02-2.15-.05-3.23-.09-.27,0-.54-.02-.81-.04-.02,0-.06-.02-.08,0,.11-.04.09.03.06,0,.05.02.07.05.07.06,0-.04-.04-.11-.05-.16-.01-.05,0,.03-.01-.06,0-.05-.01-.11-.02-.16-.09-.76-.1-1.53-.13-2.29-.05-1.19-.09-2.38-.13-3.58l-.61.61c.83,0,1.66.01,2.49.02.6,0,1.21.01,1.81.02.31,0,.61.07.92.11s.64.03.95.03c1.07,0,2.13.02,3.2.05.29,0,.58.01.87.03.03,0,.07.01.09,0-.04,0-.1-.03-.13-.04,0,0-.03-.1-.01-.02,0,.03.02.06.03.1.02.08.06.23.06.26.12.72.14,1.61.19,2.39.08,1.13.1,2.27.42,3.37.04.14.25-.06.27-.13h0Z"/>
  <path class="cls-1" d="m27.75,55.57c.11-.23.22-.49.28-.74.06-.23.07-.49.1-.72.04-.36.07-.71.05-1.07-.03-.42-.12-.97-.58-1.12-.42-.14-.92-.12-1.35-.13-.31,0-.63-.03-.94,0-.18.02-.35.09-.54.11-.14.02-.3,0-.45.01-.52.01-1.04.03-1.55.04-.29,0-.61.32-.61.61,0,.78-.09,1.58-.02,2.36.03.38.11.88.53,1.01.39.13.86.1,1.26.11.6.01,1.2,0,1.8-.01.31,0,.63-.02.94-.02.27,0,.57.02.82-.11.16-.08.53-.44.31-.63-.15-.14-.41-.09-.59-.09-.25,0-.5.01-.74.02-.57.01-1.15.03-1.72.03-.46,0-.92,0-1.38-.06-.07,0-.02,0-.12-.03-.08-.02-.06-.02-.1-.06-.09-.09-.13-.27-.16-.43-.11-.81,0-1.67.01-2.48l-.61.61c.4,0,.81,0,1.21,0,.26,0,.56-.04.82.01.15.03.27.1.43.11s.31,0,.46,0c.48,0,.96.03,1.44.08.08,0-.08-.02.01,0,.03,0,.06.02.09.02.02,0,.04.01.06.02.02,0,.04.03-.03-.02.02.02.04.03.06.05.03.03.07.09.03.02.02.04.04.08.06.12s.03.09.04.13c0,.03.04.17.03.12.05.33.07.67.09,1.01.04.44.06.89.34,1.24.07.09.21-.06.24-.12h0Z"/>
  <path class="cls-1" d="m71.82,47.06c.25-.76.28-1.59.3-2.38s.03-1.52.04-2.28l-.63.63c1.15-.08,2.31-.02,3.46.02,1.32.05,2.63.1,3.95.2.46.03.93.06,1.39.13l-.21-.21c0,.44-.03.83-.12,1.26s-.14.88-.15,1.34c0,.39-.03.79-.01,1.19.01.21.05.4.16.58.07.1.12.12.22.18.09.05.12.09.19.17s.21-.06.24-.12c.11-.25.29-.45.4-.7.1-.24.16-.46.17-.72.02-.41,0-.82-.01-1.22s-.05-.76-.15-1.15c-.11-.4-.13-.77-.13-1.19,0-.13-.09-.19-.21-.21-.99-.14-2.01-.17-3.01-.22-1.36-.07-2.71-.12-4.07-.15-.56-.01-1.13-.02-1.69-.03-.32,0-.61.33-.63.63-.06.74,0,1.51.04,2.24.04.69.08,1.43.3,2.1.03.1.16-.04.17-.08h0Z"/>
  <path class="cls-1" d="m77.78,42.66c-.2.41-.2.9-.26,1.35s-.08.88-.11,1.31c-.03.46-.06.93-.08,1.39,0,.16-.07,1,.35.76.14-.08.26-.29.3-.45.06-.21.04-.43.04-.64.01-.45.03-.89.06-1.34s.05-.88.03-1.33c-.01-.34.03-.86-.2-1.13-.04-.05-.13.03-.14.07h0Z"/>
  <path class="cls-1" d="m78.99,42.8c-.21.74-.16,1.51-.18,2.27-.01.36-.07.72-.1,1.09-.02.31-.08.75.09,1.02.11.17.36-.17.37-.27.02-.18-.03-.36-.04-.54s0-.36.01-.54c.02-.33.04-.65.03-.98-.02-.7-.06-1.4-.05-2.1,0-.09-.12.01-.13.05h0Z"/>
  <path class="cls-1" d="m17.63,43.3c.16.06.25.11.39.12.2.02.4.03.6.03.55,0,1.11-.01,1.66-.02,1.51-.03,3.03-.08,4.54-.12,2.7-.08,5.4-.17,8.1-.21.3,0,.59-.08.75.17.29.45.25,1.31.02,1.74-.03.06.05-.08,0,.02-.05.08.05-.03,0,0-.06.03.08-.06.08-.05.05-.03.03-.01.03,0,0,0-.08,0-.12,0-.15,0-.3,0-.45,0-.47,0-.94.02-1.41.03-3.04.07-6.08.17-9.13.25-1.26.03-2.53.07-3.79.1-.2,0-.39,0-.59.01-.07,0-.15,0-.22,0-.03,0-.06,0-.08,0-.08,0,0,.04-.06,0,.04.02-.05-.05-.06-.07-.02-.03-.04-.07-.06-.12-.06-.14-.1-.29-.12-.43-.06-.34-.05-.69-.05-1.03,0-.11,0-.23.03-.34,0-.04.02-.08.03-.11,0,0,.05-.02.01-.02.09,0,.22-.21.1-.2-.24.01-.41.11-.55.34-.21.32-.31.71-.33,1.09-.02.46.03,1.57.67,1.62.37.03.76,0,1.13-.02.61-.01,1.22-.03,1.83-.04,3.25-.08,6.51-.18,9.76-.27,1-.03,2-.06,3-.06.68,0,1.06-.58,1.19-1.19.13-.58.18-1.55-.33-1.98-.27-.23-.72-.15-1.04-.15-.51,0-1.03.02-1.54.03-1.55.04-3.1.08-4.65.12-1.67.05-3.34.09-5.02.14-1.19.03-2.48.02-3.6.14-.18.02-.31.07-.52.13-.1.03-.38.3-.18.37Z"/>
  <path class="cls-1" d="m19.47,45.75c.13-.2.15-.24.06-.12-.03.04-.05.08-.06.12-.02.05-.03.1-.05.16-.03.13-.05.25-.06.38-.02.22-.04.44-.04.67s0,.43.01.64c0,.12.02.26.11.35.06.06.15.09.23.1l-.07-.03s.05.03.09.06c.05.04.11-.03.14-.07.03-.03.05-.06.07-.1-.02.02-.03.02,0,0,.04-.05.08-.1.12-.16.07-.12.13-.24.15-.38.03-.23.01-.46,0-.69-.03-.39-.05-.82-.21-1.18-.04-.1-.16-.08-.24-.05-.11.05-.2.16-.23.27h0Z"/>
  <path class="cls-1" d="m31.26,45.21c-.33.31-.37.78-.4,1.21-.01.19,0,.39,0,.58,0,.11,0,.22.03.33.03.13.08.2.2.27.07.04.2,0,.27-.03.1-.05.21-.13.27-.23-.21.2-.23.23-.08.09.04-.04.07-.08.1-.12.06-.08.11-.19.14-.29.03-.11.02-.23,0-.34-.02-.21-.04-.43-.08-.64-.04-.19-.05-.32-.1-.51-.02-.07-.02-.16-.05-.22s-.09-.11-.14-.14c-.05-.03-.12.03-.15.06h0Z"/>
  <path class="cls-1" d="m29.1,42.78c-.14-.42-.27-.84-.4-1.26-.02-.05-.07-.07-.12-.08-.67-.06-1.35-.05-2.03-.04-1.09.03-2.18.05-3.27.08-.26,0-.51.02-.77.03-.2,0-.42.18-.49.36-.14.36-.3.68-.36,1.06-.01.07.04.1.1.07.44-.25.71-.65.9-1.12l-.49.36c1.8-.05,3.61-.07,5.41-.21.27-.02.55-.06.82-.09l-.18-.07c.23.36.47.71.77,1.01.05.05.14-.06.12-.11h0Z"/>
  <path class="cls-1" d="m18.18,42.99c-.1.21-.09.45-.11.68s-.01.47-.02.7,0,.46,0,.69-.01.46.02.68c.01.03.03.05.06.06h.03c.1.05.21-.05.27-.12.16-.21.1-.5.09-.75s-.01-.47-.03-.71-.04-.46-.06-.69c-.01-.12-.03-.24-.04-.35-.01-.1-.02-.19-.09-.26-.04-.05-.13.04-.15.07h0Z"/>
  <path class="cls-1" d="m19.26,42.87c-.21.45-.21.99-.21,1.48,0,.24.01.48.02.71s-.02.5.04.74c.03.12.2.09.27.05.12-.06.25-.18.27-.31-.23.28-.28.35-.13.21.04-.04.08-.09.1-.14.03-.06.04-.13.05-.2.01-.13,0-.27,0-.4,0-.27-.02-.53-.03-.8s-.02-.53-.06-.78c-.03-.2-.08-.45-.21-.61-.03-.04-.09.03-.1.05h0Z"/>
  <path class="cls-1" d="m20.75,42.93c-.04.1-.05.21-.05.31,0,.11-.02.22-.03.33-.02.22-.03.43-.03.65,0,.24.02.48.02.72,0,.25,0,.51,0,.76,0,.12.13.13.22.09.11-.05.21-.17.21-.29.03-.5-.03-1-.04-1.5,0-.22.02-.44-.01-.66-.02-.14-.06-.43-.22-.46-.03,0-.06.02-.08.05h0Z"/>
  <path class="cls-1" d="m33.22,42.66c-.1.2-.1.42-.11.64s-.01.43-.01.65c0,.44-.02.88,0,1.32,0,.03.02.07.05.08h.03c.07.03.14-.03.18-.08.14-.18.08-.47.08-.68v-.7c0-.23,0-.46-.01-.69,0-.18.03-.45-.11-.59-.03-.03-.08.02-.09.05h0Z"/>
  <path class="cls-1" d="m31.93,42.58c-.15.49-.12,1.02-.15,1.53-.01.25-.02.51-.02.76,0,.12,0,.25,0,.37,0,.11,0,.18.1.24.06.03.14-.04.17-.08-.07.06-.08.07-.03.03.02-.02.04-.05.05-.07.04-.06.06-.12.07-.18.01-.12,0-.25,0-.37,0-.26,0-.52,0-.78s-.01-.52-.02-.78,0-.48-.1-.71c-.01-.04-.06.01-.07.03h0Z"/>
  <path class="cls-1" d="m81.75,50c.1.02.15.15.2.22.07.11.14.22.2.34.16.34.24.71.31,1.08.07.41.11.82.12,1.23,0,.19,0,.37-.02.56,0,.09-.02.16,0,.25.02.05.06.1.06.15.01.09.12,0,.14-.03.11-.19.21-.32.23-.54.02-.2.02-.41.02-.62-.01-.45-.07-.89-.16-1.33-.08-.38-.19-.76-.39-1.1-.15-.26-.33-.39-.64-.36-.06,0-.16.13-.07.14h0Z"/>
  <path class="cls-1" d="m82.49,55.36c-.03.36-.1.72-.13,1.08s-.03.77-.03,1.15c0,.69.01,1.38.03,2.08.03,1.41.11,2.81.16,4.22s.03,2.83.04,4.24c0,.69,0,1.38.03,2.07s.1,1.42.12,2.12c.03.78.03,1.56.04,2.34,0,.37,0,.74.04,1.11s.13.7.2,1.05c.02.09.16-.05.16-.1.04-.36.11-.73.14-1.09s.02-.76.02-1.14c0-.68,0-1.36-.02-2.04-.03-1.41-.08-2.81-.09-4.22s0-2.76-.02-4.14-.12-2.8-.19-4.2c-.04-.78-.09-1.56-.12-2.35-.02-.37-.02-.74-.06-1.11-.02-.2-.04-.39-.06-.59s-.07-.37-.1-.57c-.01-.11-.16.01-.16.08h0Z"/>
  <path class="cls-1" d="m16.98,80.21c-.11.44-.14.9-.16,1.36s-.05.92-.06,1.38c-.02.91-.05,1.82-.08,2.73s-.07,1.82-.1,2.72c-.02.45-.03.91-.04,1.36,0,.21-.01.42-.02.63,0,.23-.05.4.16.53.14.08.36-.12.43-.21.25-.37.17-.87.18-1.3s.02-.9.03-1.35c.02-.9.05-1.81.07-2.71s.03-1.8.03-2.7c0-.44-.03-.89-.06-1.33-.03-.39-.05-.81-.21-1.18-.04-.09-.17.04-.18.09h0Z"/>
  <path class="cls-1" d="m17.12,76.92c-.02.09-.06.17-.07.27-.01.08-.02.16-.03.25-.02.16-.03.33-.04.49s0,.32,0,.47c0,.13.04.29.13.39.04.04.1-.03.12-.06.15-.3.14-.65.12-.98,0-.15-.02-.3-.04-.45,0-.07-.02-.15-.03-.22s-.05-.13-.07-.2c-.01-.05-.08.02-.08.04h0Z"/>
  <path class="cls-1" d="m16.94,62.91c.13-.9.27-1.78.3-2.7s.07-1.78.1-2.67.07-1.77.1-2.66c.03-.78.08-1.57.05-2.35,0-.29-.02-.59.04-.88s.26-.42.43-.66c.05-.07.11-.22,0-.26-.3-.12-.62.21-.78.42-.17.24-.28.52-.32.82s-.04.61-.03.92c.01.39,0,.78-.01,1.17-.06,1.91-.15,3.82-.19,5.74,0,.53-.02,1.07,0,1.6s.13,1.04.22,1.56c0,.06.09,0,.1-.04h0Z"/>
  <path class="cls-1" d="m82.8,86.47c.11.7.06,1.46.03,2.17s-.11,1.47-.11,2.2c0,.18.19.18.31.12.16-.07.3-.24.31-.42.02-.72.03-1.45-.02-2.17s-.14-1.33-.43-1.96c-.02-.04-.1.02-.09.05h0Z"/>
  <path class="cls-2" d="m46.17,61.03c-.92.52-1.59,1.67-1.47,2.73.03.26.07.52.19.75.19.35.38.7.61,1.03.44.62.87,1.27,1.38,1.83.69.75,1.38,1.49,2.06,2.25.34.38.7.75,1.1,1.08.37.31.8.62,1.29.69.2.03.4.01.6-.03.12-.03.24-.08.36-.13l.15-.09c-.12.07-.15.09-.09.06.05-.02.09-.05.14-.08.23-.14.44-.31.65-.48.62-.52,1.18-1.12,1.71-1.73,1.25-1.45,2.43-2.99,3.38-4.66.36-.63.75-1.34.86-2.07.08-.51-.09-.94-.4-1.35-.2-.26-.44-.49-.71-.67-.34-.24-.68-.21-1.08-.2-.11,0-.26.14-.22.26.08.26.12.51.31.72s.41.37.6.57c.18.19.33.4.42.64.05.13.04.16.05.31,0,.12.02-.09,0,.04-.01.06-.02.12-.04.18-.01.05-.03.11-.05.16-.01.04-.09.26-.03.11-.12.3-.25.58-.4.87-.08.15-.16.29-.24.44-.03.05-.05.09-.08.14,0,.01-.1.17-.03.05-.06.09-.11.19-.17.28-.22.36-.46.71-.7,1.06-.49.71-1.02,1.4-1.57,2.07-.04.05-.08.09-.11.14-.01.01-.14.16-.04.05-.06.07-.12.14-.19.22-.13.15-.27.3-.41.45-.25.27-.5.54-.77.79-.11.11-.23.22-.35.32-.02.02-.04.04-.06.05-.11.1.13-.1.02-.02-.06.05-.11.09-.17.14-.04.03-.09.06-.13.09-.03.02-.05.03-.08.05-.1.07.15-.07.05-.03-.04.02-.08.04-.11.06-.02,0-.04.01-.05.02-.11.06.18-.06.04-.02h-.04c.08,0,.09,0,.03,0,0,0-.08,0-.08,0,.12,0-.08-.02-.12-.04-.17-.07-.35-.15-.51-.25-.07-.04-.28-.19-.4-.29-.2-.16-.38-.33-.56-.51-.58-.58-1.09-1.23-1.68-1.79-.53-.5-1.05-1.02-1.62-1.47-.6-.48-1.16-1.01-1.72-1.53-.2-.19-.52-.44-.6-.72s-.01-.6.07-.87c.19-.59.6-1.13,1.04-1.56.03-.03.03-.11-.03-.08h0Z"/>
  <path class="cls-2" d="m52.96,59.15c-.11.47-.13.98-.18,1.47-.05.51-.1,1.02-.15,1.53-.11.97-.2,1.94-.3,2.91s-.21,1.93-.32,2.89c-.06.49-.14.99-.23,1.48s-.23.97-.28,1.47c-.01.11.07.25.18.28h.04c.22.08.45-.07.6-.21.44-.43.32-.92.32-1.47,0-.5,0-.99.03-1.48.05-1.01.19-2.02.29-3.02s.2-2.01.23-3.02c.01-.5.02-1.01,0-1.51-.01-.45,0-.94-.13-1.37-.02-.06-.1.03-.11.05h0Z"/>
  <path class="cls-2" d="m42.74,65.17c.23.3.45.61.7.89.27.3.56.58.84.88.52.54,1.02,1.09,1.54,1.63s1.02,1.09,1.57,1.58,1.19.98,1.79,1.47c.31.25.62.5.94.74.28.21.58.47.91.59.22.08.56.1.71.31.12.16.1.41.09.6-.07,1.07-.66,2.11-1.12,3.05-.31.64-.59,1.28-.92,1.91-.42.82-.96,1.6-1.28,2.46-.06.17.07.3.23.28.2-.02.38-.2.47-.37.37-.72.66-1.48,1.03-2.19.32-.62.6-1.25.9-1.87.49-1.02,1.05-2.06,1.27-3.19.05-.24.08-.5.07-.74-.01-.27,0-.55-.05-.81-.12-.69-.93-1.06-1.44-1.44-.66-.5-1.3-1.01-1.97-1.5-.63-.46-1.25-.93-1.87-1.41-.69-.54-1.38-1.09-2.08-1.62-.35-.26-.69-.52-1.06-.74-.39-.23-.79-.41-1.22-.57-.03-.01-.09.04-.06.07h0Z"/>
  <path class="cls-2" d="m50.06,81.49c.33-.64.53-1.34.76-2.02s.44-1.35.67-2.03.47-1.3.69-1.96c.14-.43.27-.84.44-1.24.04-.1.09-.2.14-.29.02-.05.05-.09.07-.14.01-.02.08-.14.03-.05.05-.09.11-.17.17-.25.07-.1.02-.03,0,0,.05-.05.09-.1.14-.15.02-.02.13-.1.02-.02.03-.02.06-.05.1-.07.13-.09.04-.03.18-.1.16-.08.39-.13.6-.16.68-.07,1.38-.05,2.07-.08s1.4-.07,2.1-.12c.79-.06,1.58-.14,2.37-.25.35-.05.71-.1,1.07-.12.41-.03.84.04,1.23-.1.22-.08.75-.51.47-.78-.16-.15-.28-.18-.5-.19-.16,0-.33,0-.49,0-.37.01-.75.06-1.12.11-.73.1-1.46.19-2.2.25s-1.5.1-2.25.13-1.49.02-2.23.08c-1.16.1-2.07.76-2.65,1.76-.25.43-.41.9-.56,1.37-.19.61-.38,1.21-.56,1.83-.21.77-.41,1.54-.6,2.31s-.39,1.56-.33,2.32c0,.1.14,0,.16-.04h0Z"/>
  <path class="cls-2" d="m47.79,67.56c-1.18-1-3.03-2.44-2.82-4.19,0-.02,0-.04.01-.05.12-.26.05-.37-.09-.39,0-.01,0-.02,0-.03-.12-.43-.71.15-.8.29-.09.15-.17.31-.26.47-.06.05-.11.11-.13.14-.19.33-.47.7-.52,1.08-.03.03-.06.08-.06.13-.15.12-.24.31-.08.36.04.02.07.03.09.04,0,.04.03.08.06.11.14.13.28.24.42.34.28.23.56.46.84.7.16.14.38.03.53-.15.24.31.5.6.77.87.59.6,1.26,1.14,1.9,1.68.34.29,1.05,1.26,1.56,1.03,1.3-.58-.98-2.05-1.43-2.43Z"/>
  <path class="cls-2" d="m50.12,79.83c.16-.37.29-.75.35-1.14.01-.08-.08-.03-.1,0-.46.55-.79,1.19-1.09,1.84-.16.17-.29.37-.42.58-.05.09-.17.33,0,.38.26.06.52.07.79.08.2,0,.4-.2.45-.38.06-.24.13-.47.17-.72.03-.21-.02-.43-.02-.64,0-.09-.09-.03-.14.02Z"/>
  <path class="cls-2" d="m62.69,66.99c-.22-.72-.47-1.35-.88-1.98-.44-.68-1.27-1.49-1.29-2.34-.01-.42-.4-.34-.74-.1-.02-.11-.06-.22-.11-.33-.18-.38-.68.08-.79.29-.42.83-.83,1.63-1.43,2.36-.11.13-.13.25-.12.35-1.11,1.41-2.11,2.92-3.34,4.21-.33.34-.89.84-1.34,1.39-.24.14-.48.27-.74.37-.11-.02-.21-.03-.23-.06-.15-.15-.4.1-.47.23l-.03.06c-.06.11-.05.23.06.3.1.06.2.11.3.15.02.02.04.03.07.04.06.02.12.04.18.06.06.02.12.01.18,0-.09.29-.11.58,0,.85.05.14.17.16.29.15.08.25.53.18.78-.06,1.09-1.05,2.95-.86,4.35-.89,1.64-.04,3.29-.32,4.94-.12.3.04.59-.29.72-.52.68-1.28.03-3.11-.36-4.39Z"/>
  <path class="cls-2" d="m55.09,79.11c.11.08.28.07.46.03.31-.08.61-.25.88-.41.55-.33,1.19-.77,1.42-1.39.09-.25.11-.65-.2-.76-.16-.06-.36,0-.5.02-.16.02-.33.06-.49.06-.29,0-.59-.03-.85-.16-.19-.1-.21-.25-.2-.45,0-.16.04-.34,0-.5-.03-.13-.1-.2-.17-.3s-.11-.21-.22-.28c-.15-.1-.33-.13-.51-.15,0,0-.02.02-.01.02.26.05.77.17.63.54-.11.29-.24.55-.27.86-.02.21-.03.44.1.62.14.19.39.26.61.32.14.03.27.07.41.07.13,0,.24,0,.37.04.11.03.2.08.26.13.03.02.05.06.08.08.03.02.03.07,0-.02,0,.02.02.04.02.06,0,.06-.01-.1,0,0,0-.1.01-.09,0-.04-.02.07.04-.14.01-.04-.04.12.04-.05,0,0-.01.01-.03.04-.04.05-.06.1.09-.09.01-.01-.09.09-.17.17-.26.25-.1.1.07-.05,0,0-.03.02-.06.05-.09.07-.06.05-.12.1-.18.14-.26.19-.52.37-.77.57-.15.11-.2.17-.32.29-.04.04-.08.08-.11.13,0,0-.07.12-.03.07.02-.04-.01.02-.02.02,0,.01-.02.04,0,.06h0Z"/>
  <path class="cls-2" d="m42.99,69.26c-.25,1.4-.12,2.88.2,4.25s.94,2.7,1.81,3.8c.24.3.51.59.79.85.31.29.63.52,1.08.4.07-.02.13-.09.14-.16.03-.38-.21-.6-.47-.83s-.49-.47-.7-.73c-.43-.52-.8-1.09-1.1-1.69-.6-1.21-.95-2.53-1.23-3.84-.15-.69-.27-1.4-.45-2.08,0-.04-.07.01-.07.03h0Z"/>
  <path class="cls-2" d="m44.79,72.47c-.08.41-.02.89.1,1.29.06.2.13.4.23.58.05.1.1.2.18.28s.19.1.29.14c.04.02.11-.05.11-.09-.02-.11,0-.22-.04-.33s-.09-.19-.14-.29c-.09-.18-.18-.36-.25-.54s-.14-.36-.2-.55-.1-.37-.18-.54c-.02-.05-.09.02-.1.05h0Z"/>
  <path class="cls-2" d="m46.04,75.52s0,.02,0,.04c0,0,0,.04,0,.02l.03-.06s-.04.06-.04.1c0,.02,0,.04.01.06,0,.03.01.07.03.1.03.07.06.14.11.2.02.03.04.05.06.07.02.03.04.04.07.06.04.02.06.03.1.03.02,0,.03,0,.05,0,.03,0,.07,0,.1,0,.04,0,.08-.04.08-.08,0-.03,0-.07,0-.1,0-.04,0-.09,0-.13-.03-.07-.08-.13-.13-.19-.04-.05-.09-.09-.14-.13-.03-.02-.06-.04-.09-.06-.01,0-.02-.02-.04-.02-.03-.01-.07,0-.1.01h.06s-.02-.02-.02-.02c-.01,0-.02,0-.03-.01-.05-.02-.13.06-.12.11h0Z"/>
  <path class="cls-2" d="m49.55,62.05s.08,0,.12,0c.05,0,.08,0,.12,0,.02,0,.04,0,.06,0,.12-.01,0,0,.08,0,.07,0,.14-.01.21-.03.03,0,.05-.01.08-.01.01,0,.08-.01.03,0,.04,0,.08,0,.12-.01.04,0,.05,0,.02,0,.02,0,.04,0,.05,0,.07,0,.14-.01.21-.03.08-.03.1-.04.06-.02h.03c.07-.01.13-.05.19-.09l-.13.06c.07-.03.15-.04.22-.06s.14-.03.21-.05c.06-.02.14-.1.1-.16-.03-.04-.08-.07-.13-.09l.04.04c-.03-.05-.09-.1-.15-.13-.01,0-.03-.01-.04-.02.02,0,.02,0-.01-.02,0,0-.02-.02-.03-.02-.03-.01-.07-.02-.11-.03-.17-.03-.35,0-.51.05-.18.05-.35.12-.51.23-.07.05-.15.1-.21.17-.05.05-.09.11-.14.16-.03.03-.06.13.02.11h0Z"/>
  <path class="cls-1" d="m72.22,50.11c-.17-.03-.3-.12-.48-.08s-.37.13-.52.23c-.32.23-.61.59-.74.96-.28.77.03,1.63.71,2.09.33.23.72.28,1.11.23.19-.02.37-.11.56-.15.17-.04.34-.1.5-.17.69-.31,1.23-.89,1.47-1.62.12-.37.11-.77-.1-1.1-.1-.17-.2-.3-.38-.4-.23-.13-.46-.07-.69.02-.04.02-.12.1-.1.16.06.12.14.25.26.32.13.07.27.12.4.2.21.13.28.38.26.62-.05.55-.45,1.07-.92,1.33-.18.1-.48.23-.69.18-.1-.03-.21-.08-.32-.12-.15-.06-.23-.11-.35-.18s-.18-.1-.28-.17c-.13-.09-.24-.21-.34-.33-.18-.22-.29-.52-.32-.75,0-.04-.02-.1-.02-.18,0-.04,0-.07,0-.11,0-.1-.03.12.01-.11,0,.06,0-.02,0-.03.01-.04.02-.08.03-.12-.01.03.04-.07.03-.05.02-.02.07-.07.09-.09.06-.04.11-.08.17-.11.17-.09.36-.21.55-.25.05,0,.2-.17.09-.19h0Z"/>
  <path class="cls-1" d="m78.16,56.23c-.11-.22-.16-.45-.21-.68.02-.04.04-.08.05-.11.15-.74,0-1.5-.06-2.26-.06-.82-.08-1.64-.14-2.45-.01-.16-.09-.22-.24-.24-.33-.04-.82-.07-1.22.06-.02-.01-.03-.03-.05-.03-.25-.08-.47-.15-.7-.27-.44-.23-1.13.56-.97.97.13.36-.28.94-.5,1.19-.43.49-1.07.66-1.7.64-1.34-.04-1.93-1.3-1.38-2.41.26-.47-.38-.33-.57-.1,0,0,0,0,0,0,0-.09,0-.18-.01-.27-.02-.16-.21-.08-.28,0,0,0,0,0,0,0,0-.01,0-.02,0-.03-.28-.41-1.39-.36-1.81-.12-.08.05-.15.1-.21.15-.14-.07-.29-.07-.47.05-.12.08-.25.31-.21.44h0s.02.32.03.35c.02.09.07.17.12.26,0,0-.01.02-.01.03-.16.52-.11,1.19.22,1.64-.1.11-.18.22-.19.29-.15.99-.03,1.96.21,2.92.04.15.24.18.37.14.66-.21,1.38-.06,2.06-.04.91.03,1.83,0,2.73.09.93.1,2.57.55,3.47-.05.01.08.06.15.18.16.37.05.75.06,1.12.12.17.03.46-.26.37-.43Z"/>
  <path class="cls-1" d="m27.19,52.83c-.68-.48-1.84-.25-2.61-.42-.4-.09-.9-.09-1.26.12-.06-.08-.16-.11-.26-.08l-.1.03c-.07.02-.16.09-.21.17-.43.55-.26,1.62-.1,2.24.26,1,1.5.89,2.28.84.99-.06,1.87.18,2.59-.66.45-.53.21-1.85-.32-2.23Z"/>
  <path class="cls-1" d="m31.33,46.26c-.03-.29.05-.58-.19-.8-.16-.14-.38.02-.51.18,0,0,0,0,0-.01-.04-.09-.12-.08-.19-.04-.02-.08-.08-.14-.18-.18-.53-.2-1.08-.13-1.63-.06-.88.12-1.74.21-2.63.24-1.02.03-2.05-.04-3.07-.02-.72.02-1.55-.07-2.22.22-.03.01-.06.04-.09.06-.08-.18-.3-.14-.51-.01-.04.01-.08.04-.11.07-.15.12-.29.27-.32.42-.07.32-.07.55-.02.88.03.25.2.32.44.28.56-.1,1.12-.16,1.68-.21.04.01.08.03.13.03,1.05.13,2.18-.02,3.23-.08.06,0,.22-.01.45-.02.61.03,1.23.03,1.79-.08,1.08-.05,2.24-.11,2.74-.17.03.12.07.23.13.36.03.07.12-.01.14-.05.02-.05.04-.09.07-.14.25.24.89-.35.91-.69,0-.06,0-.12-.02-.18Z"/>
  <path class="cls-1" d="m27.48,41.86c0-.07-.04-.11-.11-.11-.21,0-.42-.02-.64-.02-.15,0-.31.17-.31.32,0,.24-.07.87.21.96.02,0,.05,0,.07-.02.12.07.34-.02.51-.18.08.21.44-.11.4-.29-.05-.22-.11-.43-.12-.66Z"/>
  <path class="cls-1" d="m78.82,42.93s-.05-.03-.08,0c-.07-.44-.83.09-.89.39-.2,1.1-.2,2.22-.15,3.33,0,.09.04.2.14.22.22.06.45.09.68.11.33.02.66-.37.67-.67.04-1.13.03-2.31-.39-3.37Z"/>
  <path class="cls-1" d="m19.49,71.63c.22-1.02.3-2.06.4-3.1s.22-2.03.28-3.04.13-1.99.17-2.99c.02-.48.02-.96.05-1.44.02-.33.24-1.24-.2-1.36-.19-.05-.42.06-.54.2-.25.28-.34.54-.37.92-.02.23-.03.47-.05.7-.03.48-.03.96-.05,1.44-.04,1-.07,2.01-.1,3.01s-.02,1.97,0,2.96c.03.93.04,1.87.28,2.77.02.06.11-.03.12-.06h0Z"/>
  <path class="cls-1" d="m21.49,66.01c.21-.49.4-.98.5-1.5.1-.56.13-1.12.14-1.69s0-1.11-.03-1.66c-.01-.28-.02-.56-.03-.84,0-.25.02-.55-.07-.78-.15-.39-.71.15-.76.37-.09.47.04,1.03.07,1.51.04.55.07,1.09.08,1.64s.02,1.04,0,1.56c0,.47.04.96-.03,1.42-.01.09.1.03.12-.02h0Z"/>
  <path class="cls-1" d="m23.03,68.89c.13-1.46.24-2.92.38-4.38.06-.62.11-1.24.21-1.86s.21-1.18.27-1.78c.03-.33.19-1.46-.3-1.52-.33-.04-.62.36-.64.66-.01.25.07.53.09.79.07,1.16-.22,2.3-.23,3.45-.02,1.56-.04,3.13.11,4.69,0,.08.11,0,.11-.05h0Z"/>
  <path class="cls-1" d="m24.57,64.18c.11-.35.27-.68.37-1.04s.13-.72.16-1.08.05-.72.06-1.07c.01-.34.08-.7.03-1.04-.02-.2-.19-.25-.37-.18-.2.07-.4.27-.45.48-.07.34-.05.71-.05,1.06s0,.69,0,1.04c0,.33,0,.67.04.99.04.28.11.59.09.87,0,.06.09,0,.1-.04h0Z"/>
  <path class="cls-1" d="m26.46,61.74c.06-.13.14-.24.21-.37.07-.14.12-.3.16-.45.09-.3.11-.62.11-.93,0-.04,0-.09,0-.13,0-.04-.02-.06-.04-.09,0,0,.03.04,0-.02-.04-.06-.09-.12-.17-.12-.22-.02-.36.27-.42.44.02-.06-.03.08-.02.07,0,.03,0,.07-.01.1s0,.07,0,.1c0,.08,0,.15,0,.23,0,.14,0,.28.01.42s.04.28.06.42c.02.11.07.23.05.35,0,.06.06.02.08,0h0Z"/>
  <path class="cls-1" d="m17.76,66.09c.19-.52.36-1.04.42-1.6s.1-1.07.13-1.61.06-1.08.08-1.62c.01-.27.02-.54.04-.81.01-.24.1-.55,0-.77-.15-.32-.62.06-.7.26-.1.27-.09.51-.09.8,0,.27,0,.53-.01.8-.01.53-.02,1.07-.03,1.6s-.03,1.05-.05,1.58c-.02.48.04.95.11,1.42.01.07.1,0,.11-.04h0Z"/>
  <path class="cls-1" d="m28.48,69.45c.23-.79.37-1.56.4-2.38s-.02-1.58-.03-2.37.03-1.58.08-2.37c.03-.43.06-.85.09-1.28.03-.4.12-.93-.01-1.32-.14-.41-.75.16-.79.38.35-.38.45-.52.29-.4-.07.05-.13.11-.19.19-.07.1-.1.19-.12.31-.03.21,0,.45,0,.66,0,.44.03.88.01,1.32-.02.82-.06,1.65-.03,2.47s.1,1.59.14,2.38.15,1.63.04,2.42c-.01.08.09.02.11-.03h0Z"/>
  <path class="cls-1" d="m30.11,66.45c.22-1.24.46-2.47.59-3.73.06-.63.11-1.27.09-1.9-.01-.28-.02-.57-.07-.85-.02-.14-.05-.3-.17-.39-.09-.07-.21-.09-.31-.15-.08-.04-.19.08-.2.15-.04.15-.12.29-.16.44s-.02.29,0,.44c.04.28.08.56.09.84.04.6.05,1.2.04,1.8-.02,1.13-.1,2.26.01,3.39,0,.06.09,0,.1-.04h0Z"/>
  <path class="cls-1" d="m31.78,62.97c.03-.32.13-.63.18-.95s.09-.61.12-.91.04-.61.06-.91c0-.14.03-.32-.02-.46s-.14-.15-.24-.21c-.06-.03-.15.05-.17.09-.1.15-.2.27-.25.45-.04.15-.03.32-.04.48,0,.29-.01.59,0,.88,0,.28.03.56.06.83s.12.52.15.79c.01.11.16-.02.17-.08h0Z"/>
  <path class="cls-1" d="m33.57,67.63c.37-1.41.45-2.88.48-4.34.02-.71.03-1.42.07-2.13.02-.35.05-.71.09-1.06.02-.15.06-.33.04-.49s-.11-.21-.2-.32c-.04-.06-.14.03-.16.06-.11.15-.23.29-.31.47s-.08.36-.1.54c-.04.33-.07.67-.09,1.01-.04.72-.04,1.44-.04,2.17,0,1.38.07,2.77.09,4.15,0,.08.11,0,.12-.05h0Z"/>
  <path class="cls-1" d="m35.28,63.73c.21-.78.39-1.57.54-2.37.07-.38.14-.77.18-1.16.02-.2.04-.39.04-.59,0-.17.02-.36-.1-.49-.16-.17-.44.12-.5.25.21-.22.24-.27.1-.15-.04.04-.08.09-.1.15-.05.1-.08.19-.09.3-.03.21-.03.42-.03.63-.02.38-.03.77-.05,1.15-.03.77-.09,1.54-.07,2.32,0,.06.08,0,.09-.03h0Z"/>
  <path class="cls-1" d="m37.03,61.83c.09-.19.18-.38.25-.57s.1-.4.13-.6.04-.39,0-.59c-.02-.09-.04-.18-.07-.27-.02-.07-.05-.17-.12-.22-.05-.04-.13.03-.14.07-.07.18-.08.4-.11.59s-.03.4-.04.61c-.01.18-.03.37-.03.55,0,.16.02.31,0,.47,0,.08.12,0,.13-.03h0Z"/>
  <path class="cls-1" d="m28.75,76.92c-.26,1.66-.31,3.34-.41,5.02s-.16,3.34-.22,5c-.01.39-.03.78-.04,1.17,0,.31-.12.96.33,1.01.37.05.66-.46.72-.77.09-.42.03-.91.02-1.33-.02-1.61-.02-3.22-.02-4.84,0-.89-.02-1.79-.06-2.68s-.08-1.75-.24-2.62c0-.05-.09.02-.09.04h0Z"/>
  <path class="cls-1" d="m31.19,79.85c-.1,1.6-.24,3.2-.32,4.8-.04.77-.08,1.54-.1,2.3,0,.38-.02.77-.03,1.15,0,.21,0,.42,0,.63,0,.23.01.36.22.47.19.11.5-.16.59-.29.14-.22.2-.41.2-.67,0-.19,0-.38,0-.57,0-.38-.02-.75-.03-1.13-.02-.75-.07-1.5-.1-2.26-.08-1.5-.21-2.99-.32-4.49,0-.07-.11,0-.11.05h0Z"/>
  <path class="cls-1" d="m33.12,85.55c-.03.24-.08.48-.1.73-.02.28-.04.55-.05.83-.03.5-.04,1-.15,1.48-.02.07-.02.19.05.25l.02.02c.16.12.38,0,.5-.12.25-.25.27-.61.25-.95-.01-.26-.04-.52-.09-.77s-.11-.49-.17-.73-.15-.5-.2-.76c0-.04-.06,0-.06.02h0Z"/>
  <path class="cls-1" d="m26.42,75.14c0,.24-.07.5-.09.74s-.03.48-.04.72c-.02.48-.03.95-.05,1.43-.03.93-.07,1.87-.12,2.8-.09,1.89-.23,3.78-.35,5.68-.03.51-.05,1.02-.1,1.52-.03.24-.07.48-.1.72-.01.12-.02.26.02.37.05.13.15.11.22.2s.21-.04.25-.09c.05-.07.13-.12.19-.19.09-.11.15-.24.2-.37.08-.23.11-.48.13-.72.03-.43,0-.87.02-1.31.03-.94.08-1.89.12-2.83.08-1.89.17-3.79.14-5.68,0-.51-.02-1.02-.05-1.53-.02-.26-.04-.51-.07-.77-.01-.13-.03-.25-.05-.37-.02-.14-.09-.27-.1-.4-.01-.12-.18.01-.19.09h0Z"/>
  <path class="cls-1" d="m24.39,78.48c-.11,2.03-.13,4.07-.18,6.11-.02.81,0,1.62,0,2.43,0,.39-.02.78-.07,1.16-.03.18-.06.36-.1.53s-.15.42.01.56c.12.1.31.04.43-.05.63-.49.5-1.59.47-2.3-.03-.82-.07-1.64-.1-2.47-.07-2-.25-4-.37-6,0-.05-.07,0-.08.04h0Z"/>
  <path class="cls-1" d="m22.93,84.01c-.18.9-.25,1.83-.31,2.75-.03.46-.05.92-.07,1.38-.02.42-.07.9.05,1.3.06.19.32.11.43.04.18-.11.32-.29.33-.5-.24.4-.27.5-.11.29.04-.06.08-.13.1-.2.03-.12.01-.25,0-.37-.02-.21-.05-.42-.07-.63-.05-.47-.06-.94-.07-1.41-.02-.89.03-1.83-.18-2.71-.01-.05-.09.02-.09.05h0Z"/>
  <path class="cls-1" d="m21.48,77.3c-.09.93-.17,1.85-.23,2.78-.06.88-.12,1.76-.17,2.64-.1,1.62-.01,3.24-.13,4.85-.03.38-.07.77-.13,1.15-.04.22-.23.74.08.85s.6-.45.66-.68c.09-.36.1-.75.13-1.11.1-1.56-.03-3.14-.01-4.7,0-.95.01-1.91.02-2.86,0-.49,0-.98,0-1.47s-.06-1-.11-1.5c0-.06-.09,0-.09.04h0Z"/>
  <path class="cls-1" d="m19.94,78.28c-.14.97-.18,1.97-.24,2.95s-.13,2-.2,3c-.11,1.71-.12,3.43-.35,5.13-.04.27.1.46.39.39s.58-.36.65-.65c.18-.78.12-1.62.08-2.41-.05-.88-.05-1.76-.05-2.65,0-.96,0-1.93-.01-2.89s-.02-1.95-.18-2.89c0-.05-.08,0-.08.03h0Z"/>
  <path class="cls-1" d="m18.3,82.65c-.21,1.08-.32,2.13-.36,3.22-.02.53-.02,1.06-.04,1.59,0,.26-.02.53-.03.79s-.06.56-.03.83c.01.08.04.19.14.21.04,0,.08.02.11.03.11.04.24-.04.31-.12.22-.24.34-.44.36-.77.02-.29,0-.58,0-.87-.01-.56-.04-1.12-.08-1.68s-.08-1.07-.13-1.61-.13-1.1-.16-1.66c0-.05-.08,0-.09.03h0Z"/>
  <path class="cls-1" d="m34.63,80.56c-.21.72-.23,1.47-.26,2.22s-.06,1.48-.09,2.22-.06,1.44-.08,2.16c-.01.37-.02.74-.03,1.1,0,.32-.08.72.23.91.13.08.37-.12.43-.21.22-.35.22-.67.22-1.08,0-.36,0-.72,0-1.09,0-.72-.01-1.44-.02-2.17s-.01-1.41-.02-2.11.01-1.4-.24-2.03c-.03-.07-.12.03-.13.06h0Z"/>
  <path class="cls-1" d="m36.08,84.38c-.16.76-.11,1.57-.13,2.34,0,.39-.02.78-.06,1.17-.02.18-.04.35-.07.53-.03.18-.09.37-.02.55.09.24.43-.01.51-.13.22-.33.24-.74.25-1.13s0-.79-.04-1.19c-.06-.73-.13-1.5-.31-2.21-.02-.07-.12.03-.13.06h0Z"/>
  <path class="cls-1" d="m37.7,86.84c-.02.1-.07.19-.09.29-.02.08-.03.16-.04.24-.03.18-.04.36-.05.54,0,.16,0,.33.01.5,0,.08.02.16.04.24.04.11.1.14.21.15l-.09-.06s.04.06.08.08c.07.02.15-.04.19-.09-.07.08.01-.02.02-.03.03-.04.04-.08.06-.12l-.08.14c.1-.11.17-.21.2-.35.02-.09.03-.18.02-.27,0-.17-.03-.34-.06-.51-.03-.15-.06-.29-.1-.44-.02-.06-.04-.13-.06-.19-.03-.07-.08-.13-.1-.19-.03-.09-.16.04-.17.08h0Z"/>
  <path class="cls-1" d="m39.91,84.48c-.02.21-.08.42-.1.63-.01.17-.01.35-.01.52,0,.38,0,.75,0,1.13s0,.75-.02,1.13c0,.17-.01.34-.02.52s-.05.39.03.55c.13.25.49-.05.56-.21.14-.33.08-.72.06-1.07-.02-.37-.06-.74-.09-1.11s-.07-.71-.11-1.07c-.02-.18-.03-.35-.05-.53s-.1-.35-.11-.53c0-.07-.11,0-.11.05h0Z"/>
  <path class="cls-1" d="m41.43,87.33c.02.08-.03.15-.03.23,0,.03,0,.05,0,.08.02-.02.01,0-.02.05,0,.03,0,.06,0,.08,0,.03,0,.05,0,.08,0,.03,0,.04,0,.02,0,.02,0,.03,0,.05,0,.07-.01.15-.02.23,0,.03,0,.06-.01.09,0,.02,0,.02,0-.01,0,.03,0,.07-.01.1,0,.06,0,.12,0,.17,0,.06,0,.14.02.2.03.09.09.13.18.15l-.08-.03s.04.03.06.04c.09.05.21-.07.26-.13.01-.01.02-.03.03-.04.02-.03.02-.03,0-.01l-.11.11c.05-.04.1-.09.14-.14.02-.03.04-.06.05-.09.03-.08.04-.1.02-.05.03-.09.06-.18.06-.28,0-.12,0-.24,0-.36s-.03-.25-.09-.37c0-.02-.02-.04-.03-.06l-.04-.03s.02,0,0-.02c0-.01-.02-.02-.02-.03-.03-.05-.09-.08-.15-.09l.04.02s-.03-.04-.04-.06c-.05-.09-.18.05-.16.12h0Z"/>
  <path class="cls-1" d="m43.79,87.77s0,.03,0,.05l.05-.1s-.06.09-.07.14c0,.02,0,.05,0,.07,0,.04,0,.02.02-.05-.04,0-.04.19-.04.23v-.07c0,.07-.01.13-.01.2,0,.05,0,.09,0,.14,0,.04,0,.08,0,.13,0,.03,0,.06.01.09.01.07.05.11.11.14l-.09-.09s.03.06.05.08c.06.07.19.04.26,0,.11-.05.21-.15.26-.26l-.18.21.07-.06s.08-.09.11-.15c.02-.04.03-.08.05-.13l-.08.16s.05-.07.07-.11c.03-.05.04-.11.04-.17,0-.03,0-.06,0-.09,0-.06-.02-.14-.04-.21-.01-.05-.02-.1-.05-.14-.01-.02-.02-.04-.03-.06-.03-.05-.05-.09-.11-.11l.04.03s-.03-.03-.04-.04c-.05-.04-.09-.04-.15-.03l.12.02s-.02-.02-.04-.02c-.12-.08-.3.07-.32.19h0Z"/>
  <path class="cls-1" d="m68.01,61.65c.03-.07.09-.12.13-.19.03-.05.06-.11.09-.16.06-.13.11-.26.15-.4.07-.24.08-.5.1-.74s.04-.48.02-.71c0-.12-.01-.24-.07-.34-.03-.06-.06-.09-.11-.13-.04-.03-.07-.04-.12-.06s-.12.03-.14.07c-.17.24-.28.47-.3.77-.02.24-.01.47-.02.71,0,.22-.03.45-.02.67,0,.1.02.21.04.31,0,.04.02.07.04.1.01.03.07.1.07.13.01.09.13,0,.15-.04h0Z"/>
  <path class="cls-1" d="m69.27,64.45c.13-.96.26-1.92.36-2.88.05-.47.1-.94.13-1.41.02-.39.17-.96-.13-1.27-.15-.15-.4.11-.46.23-.23.45-.18.94-.2,1.43-.02.45-.03.91-.04,1.37-.02.88.02,1.74.24,2.59.01.05.1-.02.1-.05h0Z"/>
  <path class="cls-1" d="m66.45,60.92s.03-.03.05-.06c0,0,0,0,0,0,.01-.02.03-.03.04-.05.03-.05.06-.1.08-.15.05-.11.11-.23.13-.35.01-.07.03-.14.03-.2,0-.05,0-.11-.02-.16,0-.02,0-.03,0-.05,0-.02-.02-.04-.04-.05.01.02.02.02,0,0-.01-.03-.03-.05-.07-.07.03.04.03.04.02.01,0-.02-.02-.03-.03-.04-.03-.02-.05-.03-.08-.03l.05.02s-.03-.04-.06-.05c-.04-.02-.09.03-.12.06-.03.03-.04.07-.06.11l.05-.07c-.06.07-.1.14-.13.23l.05-.1s-.06.08-.07.13c0,.02-.01.03-.02.05.05-.09.05-.09,0,0-.03.06-.03.11-.04.18-.02.12-.03.23,0,.35.02.06.03.13.05.19,0,.03.01.08.04.1.01.01.05.04.02.01,0,.01.02.02.03.03,0-.01,0,0,0,.01,0,.07.09,0,.1-.03h0Z"/>
  <path class="cls-1" d="m70.81,67.27c.48-1.34.67-2.73.82-4.14.07-.71.14-1.43.2-2.14.03-.35.05-.7.06-1.05.01-.32.09-.75-.04-1.05-.1-.22-.37-.19-.55-.11-.26.12-.46.36-.54.63-.1.33-.06.71-.04,1.05s.02.66.04.99c.04.67.07,1.34.07,2.01,0,1.28-.06,2.56-.12,3.84,0,.07.09-.01.1-.04h0Z"/>
  <path class="cls-1" d="m73.01,64.81c.17-.48.33-.96.4-1.48.07-.48.11-.95.14-1.43s.06-.98.06-1.47c0-.24.03-.51-.01-.74-.02-.12-.06-.23-.18-.29-.07-.03-.15-.03-.22-.06-.06-.03-.15.04-.18.09-.17.23-.36.41-.38.72-.02.21,0,.43.02.65.02.48.08.95.12,1.43s.06.91.06,1.36c0,.43.05.85.02,1.27,0,.1.14-.02.15-.06h0Z"/>
  <path class="cls-1" d="m75.09,69.52c.09-.9.2-1.79.27-2.69s.1-1.78.13-2.66c.04-1.32.4-2.61.47-3.93.02-.43.12-1.45-.49-1.51-.3-.03-.4.31-.47.54-.08.29.02.62.03.92.06,1.29-.26,2.56-.29,3.84-.03.9,0,1.82.03,2.73s.1,1.88.2,2.82c0,.08.12-.01.13-.06h0Z"/>
  <path class="cls-1" d="m77.07,72.72c.24-1.8.23-3.64.29-5.45s.13-3.67.16-5.51c0-.51.02-1.01.02-1.52,0-.25,0-.49,0-.74s-.02-.44-.27-.54c-.12-.05-.27.08-.33.16-.13.17-.25.37-.27.59-.02.24,0,.49,0,.73,0,.45,0,.9,0,1.35,0,.89.01,1.79.02,2.68.02,1.76.02,3.52.08,5.28.04.99.04,2,.19,2.99,0,.05.08,0,.09-.03h0Z"/>
  <path class="cls-1" d="m78.7,64.64c.21-1,.32-2.01.43-3.03.05-.5.1-1.01.11-1.52,0-.26,0-.52,0-.78-.01-.24-.04-.37-.27-.46-.08-.03-.2.05-.24.12-.15.23-.23.42-.23.7,0,.22.02.45.02.67.01.49.05.98.07,1.48.04.95.01,1.9.03,2.85,0,.05.07,0,.08-.03h0Z"/>
  <path class="cls-1" d="m80.8,70.89c.04-.52.14-1.03.17-1.55s.07-1,.1-1.5c.05-.97.11-1.95.16-2.92s.08-1.94.1-2.91c.01-.49.01-.98.01-1.47,0-.24.01-.49,0-.74s-.12-.3-.3-.44c-.08-.06-.18.04-.22.11-.13.24-.27.43-.28.72,0,.24,0,.49,0,.73,0,.49,0,.98,0,1.47,0,.96-.01,1.91-.03,2.87s-.02,1.9-.01,2.85c0,.48.02.96.04,1.44s.11.93.15,1.39c0,.07.1,0,.1-.05h0Z"/>
  <path class="cls-1" d="m61.6,87.29c-.07.3-.09.62-.06.93.01.14.02.28.03.42,0,.07.02.13.07.18.04.04.07.08.13.05.07-.03.09-.12.13-.18.04-.07.06-.16.06-.24,0-.14-.02-.28-.03-.42-.03-.28-.09-.55-.17-.82-.02-.08-.14.03-.15.07h0Z"/>
  <path class="cls-1" d="m63.08,85.2c.06.63,0,1.31-.08,1.94-.03.31-.05.63-.08.95-.02.3-.07.62-.04.91,0,.06.03.15.1.16.04,0,.06.03.1.04.1.04.22-.06.27-.13-.03.04-.12.14-.04.05.03-.03.05-.06.07-.09.07-.09.13-.18.16-.29.04-.17.03-.35.04-.52.02-.37.04-.74.04-1.11,0-.34-.02-.7-.1-1.04s-.19-.63-.36-.93c-.03-.05-.1.02-.1.06h0Z"/>
  <path class="cls-1" d="m65.08,82.56c-.1.53-.1,1.09-.13,1.63s-.07,1.12-.09,1.68-.04,1.11-.04,1.66c0,.28-.01.55,0,.83,0,.21.03.39.25.47.06.02.13-.04.16-.08.17-.22.24-.43.24-.71s0-.55,0-.82c0-.54-.02-1.08-.04-1.62s-.06-1.06-.09-1.59c-.03-.5-.02-1.01-.13-1.5-.01-.05-.1.02-.1.05h0Z"/>
  <path class="cls-1" d="m66.91,85.01c-.1.68-.06,1.37-.07,2.05,0,.34,0,.68,0,1.03,0,.18-.01.35,0,.53,0,.11.03.24.15.27.04,0,.07-.02.09-.05.22-.26.14-.62.13-.93s-.03-.64-.06-.96c-.05-.65-.06-1.32-.17-1.96,0-.04-.06,0-.06.02h0Z"/>
  <path class="cls-1" d="m68.98,78.3c-.12,1.84,0,3.69-.03,5.53-.01.92-.05,1.85-.12,2.77-.03.45-.07.89-.13,1.34-.03.2-.06.41-.09.61s-.02.33.17.45c.04.02.1-.02.12-.05.33-.33.38-.72.43-1.17s.09-.9.11-1.35c.05-.91.02-1.83-.02-2.74-.09-1.82-.21-3.64-.34-5.45,0-.07-.1,0-.1.05h0Z"/>
  <path class="cls-1" d="m70.61,80.85c-.06,1.39-.08,2.78-.14,4.17-.03.68-.06,1.37-.09,2.05-.02.35-.04.7-.06,1.05-.02.29-.1.7.1.94.15.17.44-.12.5-.24.15-.31.12-.65.1-.98s-.04-.66-.06-.99c-.04-.67-.06-1.34-.09-2.01-.06-1.34-.08-2.69-.14-4.03,0-.08-.12,0-.12.06h0Z"/>
  <path class="cls-1" d="m72.26,77.93c.12.89.19,1.78.17,2.68-.01.95-.09,1.89-.13,2.84s.01,1.91.03,2.87c0,.53,0,1.05-.02,1.58,0,.26-.02.53-.03.79,0,.21-.06.5.14.63.09.06.22-.02.28-.1.28-.44.16-1.02.13-1.52s-.05-1.02-.07-1.53c-.04-.97-.11-1.92-.09-2.89s.06-1.87.05-2.8c-.01-.87-.05-1.78-.37-2.59-.02-.04-.08.02-.08.05h0Z"/>
  <path class="cls-1" d="m73.97,80.3c-.11,1.48-.11,2.97-.12,4.45,0,.72-.02,1.43-.03,2.15,0,.37-.01.74-.03,1.11-.01.26-.12.82.11,1,.16.12.36-.08.44-.21.18-.31.12-.7.1-1.05s-.03-.72-.05-1.08c-.03-.72-.06-1.43-.09-2.15-.06-1.43-.1-2.86-.22-4.29,0-.08-.12,0-.12.06h0Z"/>
  <path class="cls-1" d="m75.7,82.76c.13,1.04.14,2.09.1,3.14-.02.54-.05,1.08-.07,1.62-.01.26-.02.53-.03.79,0,.24-.03.44.12.63.13.15.39-.11.44-.21.21-.45.13-1.02.11-1.51-.02-.53-.05-1.06-.09-1.58-.08-.99-.2-1.98-.44-2.94-.02-.06-.13.03-.12.07h0Z"/>
  <path class="cls-1" d="m77.51,76.4c-.06,2.12-.11,4.25-.17,6.37-.03,1.06-.06,2.12-.08,3.18-.01.53-.03,1.07-.05,1.6-.01.25-.01.49-.02.74s0,.43.24.54c.1.04.23-.07.29-.14.18-.25.24-.46.23-.76,0-.24,0-.48-.02-.73-.02-.52-.04-1.03-.05-1.55-.02-1.04-.05-2.07-.08-3.11-.06-2.07-.11-4.14-.17-6.21,0-.08-.13,0-.13.06h0Z"/>
  <path class="cls-1" d="m79.15,74.03c-.12,1.99-.13,3.98-.17,5.97s-.07,3.97-.09,5.95c0,.54-.03,1.09-.04,1.63,0,.28,0,.56,0,.83,0,.23-.02.48.22.6.1.05.26-.08.31-.15.28-.41.21-.9.21-1.37s-.02-.96-.03-1.44c-.03-.98-.03-1.97-.04-2.96-.03-1.95-.07-3.9-.11-5.85-.02-1.09-.04-2.18-.12-3.27,0-.08-.12,0-.12.06h0Z"/>
  <path class="cls-1" d="m80.71,76.02c-.11,1.13-.09,2.28-.11,3.42s-.03,2.21-.04,3.31,0,2.19-.02,3.29c-.01.56-.02,1.11-.02,1.67,0,.28,0,.56-.01.83,0,.2-.05.5.19.56.12.03.22-.06.3-.15.19-.22.19-.46.19-.73s-.01-.55-.02-.82c-.01-.55-.02-1.09-.04-1.64-.04-1.08-.05-2.16-.09-3.24s-.07-2.16-.1-3.25-.02-2.21-.14-3.3c0-.05-.08,0-.08.04h0Z"/>
  <path class="cls-1" d="m81.98,81.84c-.09,1.28-.1,2.57-.11,3.85,0,.62,0,1.24-.01,1.87,0,.33,0,.66-.02.98-.01.26-.08.61.08.83.11.15.38-.11.42-.2.11-.27.09-.56.07-.85-.02-.32-.04-.63-.05-.95-.02-.63-.05-1.25-.08-1.87-.06-1.23-.11-2.47-.2-3.7,0-.06-.08,0-.09.04h0Z"/>
</svg>