<?xml version="1.0" encoding="UTF-8"?>
<svg id="ICONS" xmlns="http://www.w3.org/2000/svg" viewBox="0 0 100 100">
  <defs>
    <style>
      .cls-1 {
        fill: #273a7c;
      }

      .cls-1, .cls-2 {
        fill-rule: evenodd;
        stroke-width: 0px;
      }

      .cls-2 {
        fill: #e32d73;
      }
    </style>
  </defs>
  <path class="cls-1" d="m61.62,76.84c1.45-.68,2.81-1.49,4.04-2.49.23-.19-.06-.53-.31-.4-.05.03-.1.05-.15.08,7.58-7.52,9.11-20.97,1.12-28.75-7.73-7.52-21.75-9.21-29.98-2.15-.06,0-.13,0-.2.03-9.5,4.32-9.17,19.21-4.32,26.83,6.05,9.52,20.19,12.65,29.8,6.85Zm-28.38-29.91c.09.14.29.23.43.07,8.74-9.75,22.27-9.53,32.07-1.13,8.56,7.34,5.56,21.67-1.98,28.45-.42.38-.86.73-1.31,1.06-7.14,3.16-14.21,3.7-21.87.13-11.4-5.32-11.98-18.51-7.34-28.58Zm-.45-.02c-4.84,8.91-4.3,19.72,3.39,26.58-1.37-1.15-2.6-2.47-3.64-3.92-4.31-6.07-4.56-16.61.25-22.66Z"/>
  <path class="cls-2" d="m40.11,51c-.53.66-.74,1.45-.75,2.28-1.02,6.55,5.67,11.99,9.84,16.32.07.13.16.25.23.37,0,0-.01.01-.02.02-.37.41.24,1.03.61.61.08-.09.16-.19.25-.28.02-.02.03-.03.04-.05,4.04-4.54,11.06-12.89,8.68-19.27-1.54-4.14-7.72-.4-9.03,2.6-.02-.04-.05-.08-.08-.12.02-.05.04-.11.06-.17.08-.21-.16-.32-.32-.25-2.04-2.92-7.02-5.15-9.51-2.08Zm9.54,3.75c.06.13.17.17.29.17-.81,3.21-1.85,6.29-2.99,9.4-.08.21.24.33.35.15.64-1.05,1.12-2.17,1.51-3.32-.41,1.4-.79,2.8-1.08,4.21-.04.19.24.34.34.14,1.73-3.79,2.52-7.99,4.02-11.88.15-.39-.47-.55-.62-.17-.74,1.89-1.46,3.85-2.1,5.82.41-1.54.71-3.12,1.05-4.65,0-.01,0-.02,0-.03.13-.09.17-.21.15-.32.16-.21.38-.5.73-.94.46-.58.97-1.12,1.47-1.65,1.23-1.31,4.37-3.24,5.7.32.58,1.54-.13,3.5-.63,4.97-.55,1.61-1.31,3.19-2.2,4.73.56-1.85,1.17-3.68,1.83-5.5.12-.33-.41-.47-.53-.15-.86,2.37-1.76,4.74-2.26,7.21-.42.65-.86,1.29-1.32,1.92,1.31-2.93,2.04-6.19,2.85-9.23.1-.39-.5-.55-.6-.17-.99,3.68-2.36,7.23-3.38,10.89-.71.9-1.43,1.76-2.16,2.59-.08-.09-.15-.17-.23-.26-1.2-1.97-2.74-3.77-4.26-5.58.26-.43.48-.88.69-1.35-.14.49-.27.98-.38,1.47-.06.24.28.4.41.17,1.52-2.83,2.22-6.11,3.23-9.18.04.08.09.15.12.22Zm-5.07-4.13c1.98.4,3.59,1.67,4.62,3.34-.64,1.62-1.3,3.27-1.9,4.93.4-1.62.69-3.28,1.1-4.78.09-.31-.38-.44-.48-.13-.93,2.93-1.96,5.92-2.79,8.9-.21-.25-.42-.51-.63-.76,1.73-2.74,2.18-6.39,2.66-9.54.06-.38-.51-.55-.58-.16-.59,3.17-1.6,6.17-2.42,9.27-.2-.26-.41-.52-.6-.78,1.4-2.66,1.71-6.03,2.58-8.84.12-.39-.48-.55-.61-.17-.89,2.7-1.75,5.46-2.55,8.2-.17-.25-.35-.49-.51-.74,1.23-2.26,1.66-5.11,2.34-7.56.1-.35-.43-.49-.54-.15-.73,2.28-1.84,4.72-2.15,7.13-.16-.27-.33-.53-.48-.81.58-.71.87-1.71,1.13-2.55.44-1.44.63-2.94.92-4.41.05-.24-.31-.34-.37-.1-.28,1.16-.61,2.31-.94,3.45-.28.97-.79,1.89-1.13,2.83-.09-.19-.18-.38-.26-.58.03-.01.07-.02.1-.06,1.13-1.47,1.41-3.73,1.65-5.52.05-.36-.49-.52-.55-.15-.16.91-.38,1.8-.65,2.69-.24.8-.61,1.6-.79,2.42-.08-.22-.16-.43-.22-.66.2-.48.28-1.03.42-1.52.24-.84.52-1.68.78-2.51.05-.14-.01-.25-.1-.32.77-.44,1.79-.58,2.93-.35Zm-4.31,2.98s-.02.05-.03.08c-.03-.96.28-1.73.81-2.27-.27.73-.54,1.45-.78,2.18Z"/>
  <path class="cls-2" d="m50.61,62.11c.21-.41.34-.86.54-1.28.08-.18-.18-.33-.26-.16-.2.42-.31.87-.5,1.3-.06.15.14.28.22.13Z"/>
  <path class="cls-2" d="m49.89,66.53c2.39-4.13,3.22-8.97,4.69-13.46.09-.26-.32-.37-.41-.11-1.6,4.46-2.92,9-4.62,13.43-.08.2.24.32.34.14Z"/>
  <path class="cls-2" d="m54.4,56.3c-1.1,4.06-2.81,7.89-4.02,11.91-.04.13.16.22.22.09,1.89-3.74,3.24-7.81,4.25-11.87.07-.3-.38-.42-.46-.13Z"/>
  <path class="cls-1" d="m59.16,75.38c3.88-2.01,8.39-5.17,9.1-9.85.03-.21-.28-.4-.38-.16-.92,2.13-1.78,3.94-3.41,5.63-1.59,1.65-3.52,2.93-5.41,4.19-.11.08-.01.24.11.18Z"/>
  <path class="cls-1" d="m32.1,54.52c1.41-4.28,3.43-7.72,7.31-10.22.16-.11.06-.41-.14-.33-3.87,1.54-7.23,6.35-7.54,10.5-.02.23.31.25.38.05Z"/>
  <path class="cls-1" d="m68.87,62.63c.38-.59.47-1.4.63-2.07.08-.31-.41-.45-.49-.13-.17.67-.48,1.43-.42,2.13.01.14.19.2.27.07Z"/>
  <path class="cls-1" d="m40.5,43.54c.5-.3,1.18-.51,1.58-.94.17-.18.04-.42-.18-.44-.64-.07-1.22.51-1.7.86-.3.22-.04.72.3.52Z"/>
  <path class="cls-1" d="m59.12,82.27c.54,1.18.91,2.59,1.68,3.64.16.21.46.09.42-.18-.23-1.31-1.05-2.56-1.78-3.65-.13-.2-.42-.03-.32.18Z"/>
  <path class="cls-1" d="m70.08,34.09c-6.14-4.98-14.04-7.3-21.87-7.18-10.51.15-17.95,5.84-24.82,13.19-.14.15-.12.32-.03.45-9.62,13.89-6.45,32.71,7.06,42.94,14.01,10.61,35.07,8.05,45.9-5.68,10.62-13.45,6.49-33.39-6.24-43.72Zm-50.79,18.95c-.21,1.94-.21,3.92-.04,5.9-.11.03-.21.05-.32.08-.06.02-.1.06-.13.1-.01-2.02.15-4.06.49-6.08Zm5.94,24.65c-4.29-5.21-6.34-11.64-6.43-18.26.04.07.11.13.21.13.1,0,.2-.01.3-.02.12,1.12.32,2.24.55,3.35.3,1.83.75,3.64,1.33,5.38-.2-.39-.41-.79-.61-1.19-.12-.23-.51-.07-.42.18.36.93.74,1.88,1.14,2.83-.23.16-.12.56.19.47,0,0,0,0,0,0,1.05,2.44,2.32,4.84,3.98,6.87-.13.04-.23.15-.24.27Zm6.69,5.88c-2.39-1.51-4.41-3.28-6.12-5.22.78.71,1.56,1.44,2.37,2.15.03.14.16.26.3.27,1.41,1.24,2.87,2.41,4.44,3.39-.33-.19-.66-.39-.98-.6Zm43.09-5.37c-9.62,12.17-27.1,13.68-40.24,6.99.3.07.49-.31.22-.51-.14-.1-.28-.21-.42-.31,1.06.61,2.16,1.16,3.28,1.63.04.21.26.31.43.17,10.88,4.38,24.14,2.28,32.85-5.55.2.16.41.3.65.4.15.06.35-.13.28-.28-.09-.23-.23-.44-.38-.64,1.55-1.48,2.97-3.12,4.17-4.98.71-1.11,1.3-2.29,1.78-3.51.19.04.39.07.58.06.15,0,.22-.18.12-.29-.13-.14-.29-.27-.46-.38,2.28-6.27,1.92-13.71,1.07-20.02-1.06-7.87-5.03-13.56-11.82-17.6-1.56-.93-3.23-1.74-4.97-2.42-.06-.16-.26-.25-.42-.16-12.84-4.84-29.33-2.66-35.67,10.82-.12.25.22.46.37.22.7-1.13,1.46-2.18,2.26-3.15.35.3.7.59,1.04.9.44.39.86.88,1.38,1.15.22.11.45-.11.33-.33-.27-.52-.76-.95-1.19-1.35-.36-.33-.74-.62-1.14-.88,2.53-2.94,5.45-5.11,8.65-6.58.56,1.39,1.04,3.18,2.18,4.18.07.06.18,0,.16-.1-.35-1.44-1.04-3-1.76-4.33,3.34-1.43,6.95-2.1,10.65-2.12-.07.7-.06,1.41-.06,2.11,0,.84-.06,1.71.2,2.52.05.16.28.16.33,0,.22-.71.2-1.44.2-2.18,0-.82.01-1.64-.07-2.45,3.85.06,7.8.83,11.65,2.21-.78,1.22-1.43,2.7-1.81,4.04-.05.18.18.31.31.18,1.05-1,1.56-2.63,2.16-3.99,1.27.48,2.52,1.02,3.76,1.63,2.22,1.09,4.13,2.48,5.76,4.08-.43.28-.79.7-1.17,1.05-.58.54-1.48,1.11-1.84,1.82-.06.11.01.28.15.27.75-.08,1.45-.85,1.97-1.33.45-.41,1-.84,1.33-1.36,2.1,2.18,3.69,4.74,4.86,7.52-.16-.31-.33-.61-.51-.92-.05-.08-.2-.03-.16.07.45,1.13.82,2.29,1.15,3.47-1.43.27-2.89.93-4.22,1.47-.24.1-.16.47.11.4,1.39-.35,3.01-.6,4.24-1.4.29,1.05.56,2.11.83,3.15.05.21.33.19.41.03.44,2.41.63,4.9.59,7.39-.72-.07-1.47.05-2.19.12-.68.07-1.35.17-1.98.44-.22.09-.11.49.12.46.71-.08,1.43-.17,2.14-.23.63-.05,1.29-.05,1.9-.24-.12,3.8-.78,7.59-1.89,11.08-.4-.19-.82-.35-1.2-.53-.9-.43-1.82-.83-2.73-1.22-.25-.11-.47.23-.22.38.86.5,1.7,1.03,2.58,1.48.41.21.86.46,1.33.65-1.19,3.44-3.07,6.28-5.43,8.57-.4-.48-.92-.9-1.36-1.31-.73-.66-1.53-1.24-2.36-1.76-.34-.22-.63.3-.31.53.82.6,1.58,1.29,2.32,1.98.38.35.73.75,1.13,1.09-5.45,4.94-13.19,7.12-20.86,7.01.08-1.37,0-2.79-.08-4.15-.02-.33-.49-.33-.51,0-.09,1.32-.39,2.87.11,4.15-3.82-.1-7.6-.77-11.05-1.94.22-.42.45-.85.64-1.29.22-.5.48-1.05.42-1.61-.02-.16-.2-.27-.33-.14-.34.35-.47.81-.66,1.26-.21.52-.43,1.05-.65,1.57-.62-.22-1.24-.46-1.84-.72-2.52-1.09-4.82-2.67-6.84-4.6.9-.83,1.85-1.72,2.42-2.76.11-.2-.13-.5-.34-.34-.95.73-1.77,1.69-2.6,2.6-2.6-2.61-4.73-5.81-6.29-9.31,0,0,0-.01,0-.02.44-.13.88-.25,1.31-.39.64-.2,1.29-.36,1.81-.8.13-.11.02-.32-.13-.32-.65,0-1.25.25-1.86.45-.44.14-.86.31-1.28.47-.92-3.52-1.56-6.9-1.83-10.34.21-.05.41-.1.62-.16.78-.21,1.64-.27,2.37-.6.14-.06.08-.26-.04-.3-.63-.24-1.3-.07-1.93.08-.36.08-.72.18-1.08.28-.05-.88-.08-1.76-.08-2.65.63-2.78,1.22-5.46,2.01-8.13h0c.05.09.16.13.25.09.33.12.65.23.98.35.67.25,1.32.55,2.05.58.24,0,.34-.35.13-.46-.63-.33-1.33-.53-1.99-.79-.26-.1-.54-.2-.81-.28,1.15-2.3,2.15-4.72,3.5-6.91.1-.17-.15-.31-.26-.15-1.58,2.15-2.73,4.41-3.64,6.9.47-1.55,1.01-3.1,1.68-4.66.09-.21-.17-.37-.31-.18-1.53,2.24-2.66,4.98-3.37,7.81-.12-.04-.27,0-.31.13-.23.86-.41,1.74-.55,2.63.53-4.34,2.04-8.45,4.74-11.84.21-.27-.17-.65-.38-.38-.82,1.04-1.52,2.14-2.13,3.28.49-1.1,1.02-2.19,1.61-3.24.09.01.2-.01.29-.1,6.91-6.81,13.06-11.92,23.06-12.86,7.69-.72,15.38,1.88,21.64,6.23,14.25,9.9,17.04,30.73,6.39,44.21Z"/>
  <path class="cls-1" d="m21.85,40.92c1.87-2.72,4.1-4.99,6.37-7.36.1-.1-.03-.28-.16-.2-2.79,1.77-4.75,4.66-6.39,7.46-.07.11.1.2.17.1Z"/>
  <path class="cls-1" d="m77.68,77.25c-1.99,3.15-4.26,5.88-7.3,8.04-.19.14-.03.42.19.32,3.37-1.58,5.85-4.89,7.5-8.14.13-.25-.23-.46-.38-.22Z"/>
  <path class="cls-1" d="m13.79,25.48c-.07-.29-.4-.26-.52-.06,0,0-.01,0-.02,0-1.23.23-.99,3.78-1.04,4.57-.21,3.3-.36,6.43-1.54,9.46-.55-4.59-.26-9.3-1.07-13.77-.04-.24-.35-.18-.42,0-.55,1.31-.41,11.18-1.26,12.81-.33-2.82.34-13.38-2.49-13.27-.22,0-.22.33,0,.34.05,0,.09.02.13.03-.69,4.26.04,8.54.25,12.83.2,3.92,2.74,6.66,3.02,10.63.17,2.32.22,4.68.21,7.04-.08-.16-.14-.33-.18-.5-.11-.46-.76-.25-.69.19.09.59.35,1.11.86,1.45,0,0,0,0,0,0,0,.28-.01.55-.02.83-.1-.06-.19-.13-.27-.2-.31-.27-.75.16-.45.45.2.21.44.39.71.53-.1,4.12-.36,8.26-.6,12.31-.32,5.31-.52,10.64-.13,15.95.15,2.03.2,6.11,2.58,6.91.16.05.35-.06.4-.23,1.61-6.2.99-14.45.16-20.74-.59-4.45-1.05-9.2-1.19-13.96.45-.03.93-.18,1.09-.61.04-.1-.04-.24-.15-.26-.32-.07-.64.07-.97.11,0-.29-.02-.58-.03-.87.2-.04.36-.12.46-.29.05-.1.04-.22-.04-.3-.12-.12-.27-.16-.43-.18,0-3.84.24-7.65.93-11.26.01-.08,0-.14-.03-.2,1.93-6.7,4.41-12.46,2.74-19.76Zm-2.59,52.85c.1,2.73-.15,5.45-.09,8.17.02.98.18,8.92-1.3,5.38-1.38-3.3-1.06-7.65-1.06-11.16,0-7.23.58-14.46.74-21.69.04,0,.08.02.12.02.34,6.47,1.34,12.99,1.58,19.27Zm1.85-40.82c-.73,3.09-2.39,5.82-2.89,8.98,0,.03.01.06.02.09-.28,1.58-.47,3.18-.57,4.79-.05-2.19-.25-4.36-.79-6.44-.74-2.83-2.25-5.18-2.39-8.36-.16-3.57-.6-7.08-.45-10.66,1.41,1.96.58,11.61,1.41,13.24.11.21.33.19.47.07,1.55-.42,1.32-8.36,1.36-9.25.04-.98.08-1.95.18-2.92.13,4.26-.45,8.93.72,13.05.03.12.11.18.19.2-.04.09-.07.18-.11.26-.12.24.12.5.37.37,1.92-1,1.96-4.73,2.15-6.57.17-1.64.24-3.3.34-4.95.05-.84-.03-2.08.3-2.98.54,3.61.53,7.55-.3,11.07Z"/>
  <path class="cls-1" d="m93.02,63.36c.1-.09.18-.19.26-.3.14-.22-.06-.46-.3-.45,0-.14-.01-.28-.02-.41.01-.04.04-.06.05-.1.02-.07-.02-.13-.06-.17-.09-1.92-.15-3.85-.17-5.78-.05-5.5.26-11.07.49-16.57.21-5-.53-10.07.04-15.04.04-.34-.53-.41-.59-.08-.02.09-.03.18-.04.28-.01-.22-.26-.45-.53-.33-1.79.83-2.25,2.73-2.73,4.51-1.15,4.3-2.09,8.9-3.01,13.26-.38,1.82-.73,3.56-.92,5.3-.16.08-.28.28-.16.45.03.05.06.1.1.15-.15,1.76-.13,3.53.22,5.39.6,3.24,3.65,5.03,5.21,7.79-.14.05-.25.19-.2.36.13.43.34.86.72,1.08-.02.11-.04.22-.06.34-.15-.02-.3-.06-.45-.1-.43-.14-.58.5-.18.66.16.07.34.11.52.15-1.5,8.76-4.99,17.98-2.95,26.8,1.06,4.58,4.87,2.3,5.21-1.24.82-8.67,0-17.28-.44-25.92Zm-2.37-4.05c-.81-.97-1.67-1.88-2.54-2.81-1.46-1.56-2.02-3.51-2.14-5.53.34.39.63.91,1.14,1.08.12.04.24-.09.2-.2-.15-.53-.6-.99-.98-1.37-.12-.12-.27-.1-.37-.02-.01-.52,0-1.04.02-1.55.04.06.08.11.12.17.23.37.42.84.79,1.08.09.06.24,0,.27-.11.16-.76-.56-1.6-1.09-2.23.08-.76.18-1.52.28-2.24.05-.38.13-.76.2-1.13.22.74.27,1.53.36,2.28,0,.06.1.11.14.04.46-1.04.19-2.02-.39-2.93.18-.95.38-1.89.61-2.82.08.39.2.76.43,1.04.1.12.3.05.34-.09.21-.72-.2-1.61-.42-2.3.17-.61.35-1.23.53-1.84.03.53.12,1.04.46,1.43.07.08.19.03.22-.06.3-.82,0-1.87-.22-2.68,0-.02-.02-.02-.03-.04.09-.28.17-.56.27-.84.15-.46.26-1.03.36-1.66.04.13.07.27.11.4.18.55.28,1.16.64,1.63.08.1.24.03.27-.07.36-1.01-.43-2.34-.84-3.33.08-.64.16-1.31.27-1.97.13.55.35,1.07.81,1.33.19.11.39-.07.35-.27-.07-.38-.28-.73-.42-1.09-.17-.43-.29-.88-.41-1.33,0-.04-.04-.05-.06-.08.41-1.89,1.11-3.56,2.56-4.19.09-.04.13-.1.16-.16-.43,2.65-.26,5.22-.08,7.91.25,3.96-.17,7.98-.28,11.94-.17,5.81-.1,11.52.11,17.26-.11.04-.21.07-.32.09,0-.11.01-.22.01-.34,0-.2-.14-.28-.29-.26-.2-.74-.53-1.4-1.15-2.13Zm2.34,23.12c0,1.87-.09,3.73-.21,5.6.5,2.83-.76,3.59-3.76,2.28-.37-1.53-.56-3.09-.56-4.66-.36-7.49,2.94-14.52,3.52-21.88.17-.01.33-.04.48-.09.1,2.5.22,5,.38,7.53.23,3.73.15,7.49.15,11.22Z"/>
  <path class="cls-1" d="m94.47,84.76c-.28,3.52-1.06,6.87-2.41,10.13-.04.1.12.16.17.07,1.77-3.16,2.91-6.54,2.76-10.2-.01-.33-.49-.33-.51,0Z"/>
  <path class="cls-1" d="m5.85,83.55c.14,1.74.19,3.49.94,5.09.1.21.39.05.36-.15-.28-1.64-.6-3.28-.8-4.94-.04-.31-.52-.32-.5,0Z"/>
  <path class="cls-1" d="m5,86.65c-.04,1.2.31,2.5,1.14,3.4.13.14.33-.01.3-.17-.2-1.12-.87-2.07-.97-3.22-.03-.3-.46-.31-.48,0Z"/>
  <path class="cls-1" d="m14.68,24.93c.48,1.53.68,3.05.95,4.62.02.11.22.12.23,0,.22-1.6-.27-3.23-.78-4.73-.09-.26-.49-.15-.4.11Z"/>
  <path class="cls-1" d="m87.67,29.1c.35-.62.47-1.4.71-2.08.32-.9.74-1.76,1.38-2.48.23-.26-.13-.64-.39-.39-1.14,1.13-2.18,3.19-2.07,4.84.01.19.27.28.37.1Z"/>
</svg>