<?xml version="1.0" encoding="UTF-8"?>
<svg id="ICONS" xmlns="http://www.w3.org/2000/svg" viewBox="0 0 100 100">
  <defs>
    <style>
      .cls-1, .cls-2 {
        fill-rule: evenodd;
      }

      .cls-1, .cls-2, .cls-3 {
        stroke-width: 0px;
      }

      .cls-1, .cls-3 {
        fill: #273a7c;
      }

      .cls-2 {
        fill: #e32d73;
      }
    </style>
  </defs>
  <g>
    <path class="cls-3" d="m67.5,68.97c-.38.04-.77.02-1.14.08s-.74.15-1.1.27c-.79.25-1.51.59-2.19,1.06-.76.53-1.4,1.19-1.98,1.91-.66.83-1.18,1.71-1.49,2.73-.52,1.7-.67,3.66.49,5.14.44.55,1.07.97,1.72,1.23.77.32,1.7.53,2.53.4.78-.12,1.56-.3,2.32-.51.17-.05.35-.1.52-.16.05-.02.1-.03.15-.05l.12-.04c.16-.06.16-.06,0,0,.03.02.22-.07.26-.08.38-.13.76-.28,1.13-.45,1.27-.59,2.42-1.46,3.33-2.53,1.39-1.64,2.36-4.07,1.65-6.21-.3-.9-.83-1.71-1.63-2.25-1.02-.69-2.28-1.2-3.54-1.02-.21.03-.39.08-.58.17-.03.01-.31.14-.18.09-.12.05-.24.08-.36.13-.08.03-.39.31-.18.37.17.05.29.1.44.2.2.12.47.14.7.17.38.05.77.08,1.15.13.56.08,1.25.27,1.73.61.94.66,1.46,1.64,1.52,2.69.02.28,0,.56-.02.84,0,.07-.02.14-.02.21.02-.15-.01.07-.02.11-.03.16-.06.32-.1.47-.04.14-.08.29-.12.43-.01.05-.1.28-.03.09-.03.08-.06.16-.09.23-.06.14-.12.28-.19.42-.03.06-.07.13-.1.19-.03.05-.1.2,0-.01-.02.04-.05.08-.07.12-.18.29-.38.56-.6.83-.02.03-.04.05-.06.08-.13.16,0-.04.03-.04-.02,0-.13.15-.15.17-.12.13-.24.26-.37.38-.06.06-.12.12-.19.17-.01.01-.12.09-.12.1,0,0,.21-.17.08-.07-.15.12-.3.24-.45.35-.14.1-.29.2-.44.29-.21.14.17-.09-.06.03-.08.04-.16.09-.24.13-.19.1-.39.2-.59.28-.1.04-.22.07-.31.12.01,0,.22-.08.07-.03-.05.02-.11.04-.16.05-.22.07-.44.14-.66.19-.11.03-.23.04-.34.06-.02,0-.1,0-.12.02.14-.02.16-.02.06,0-.03,0-.06,0-.09,0-.23.02-.47.04-.7.04-.05,0-.1,0-.15-.01-.23-.01.16.03-.02,0-.1-.02-.2-.04-.3-.05-.04,0-.08-.01-.12-.02.15.03.19.03.11.02-.21-.05-.42-.1-.63-.16-.3-.09-.65-.09-.96-.15l.29.05c-.65-.11-1.27-.32-1.83-.67l.23.15c-.41-.27-.76-.61-1.03-1.02l.15.24c-.23-.38-.38-.8-.46-1.24l.05.29c-.06-.36-.07-.71-.05-1.07,0-.1.02-.2.03-.3,0,.02-.05.31-.01.1,0-.04.01-.08.02-.12.04-.22.09-.45.14-.67.1-.38.21-.76.33-1.12.05-.15.09-.29.13-.44.02-.08.05-.16.07-.24.1-.3-.09.22,0-.03.06-.15.13-.29.2-.43.04-.07.09-.14.12-.22,0,.01-.16.26-.06.1.03-.05.06-.09.09-.14.09-.13.18-.27.27-.39.05-.07.11-.13.16-.2.06-.07.11-.06-.06.07.03-.03.06-.07.09-.1.12-.13.24-.25.36-.37.06-.06.13-.12.19-.18.02-.02.05-.04.07-.06.08-.07-.13.11,0,0,.29-.23.58-.45.88-.65.32-.21.71-.4,1.08-.58.44-.2.85-.42,1.31-.56.06-.02.21-.22.08-.21Z"/>
    <path class="cls-3" d="m60.93,74.58c.17-.21.34-.42.51-.63s.3-.49.46-.72c.13-.2.28-.39.42-.57.03-.03.13-.17.03-.04.06-.08.13-.15.19-.23,0,0,.16-.19.07-.09-.07.09.08-.09.1-.11.15-.17.32-.33.49-.49.01-.01.1-.1.11-.1-.06-.03-.12.14-.02.04.14-.15-.17.09.01,0,.06-.03.11-.06.17-.09.14-.07.28-.15.41-.23-.31.18.03,0,.1-.04.19-.1.39-.19.58-.26.04-.02.08-.03.12-.05-.37.17-.03.01.03-.01.13-.05.26-.1.38-.15.3-.12-.24.08.07-.02.1-.03.2-.06.3-.09.38-.11.76-.17,1.14-.25-.35.07.02,0,.1,0,.09,0,.17-.02.26-.02.22-.02.45-.03.67-.03.45,0,.89.03,1.33.08.08.01.19-.02-.01,0,.04,0,.1.02.13.03.11.02.22.05.33.08.2.06.4.12.6.2s.38.18.56.28c-.17-.1,0,0,.07.06.11.08.21.16.3.25.15.14.28.29.4.45.03.04.05.08.08.11-.12-.17-.02-.04,0,0,.07.12.13.24.19.37.09.21.17.44.22.67.03.13.05.25.08.38.01.05.02.18,0-.02,0,.08.02.15.03.23.02.23.03.46.01.69,0,.07-.01.13-.02.2-.01.16.05-.24,0,.01-.03.13-.05.26-.08.39-.05.23-.12.46-.2.69-.08.26.1-.22-.01.03-.02.05-.04.1-.06.15-.05.12-.11.24-.17.36-.02.03-.2.32-.19.34-.02-.04.14-.22.04-.07-.04.05-.07.11-.1.16-.06.09-.13.18-.19.27-.04.05-.08.1-.11.14-.06.08-.03.04.1-.12-.05.06-.11.13-.16.19-.11.13-.2.26-.3.39,0,0-.08.12-.1.13l.09-.1s-.08.08-.12.12c-.08.08-.16.16-.25.23,0,0-.22.19-.08.07.13-.1-.1.08-.12.1-.21.17-.43.33-.66.47.03-.02.17-.1,0,0-.06.04-.12.07-.19.1-.14.07-.28.15-.42.21-.23.11-.46.21-.7.31-.16.07-.05.02-.02,0-.07.02-.13.05-.2.07-.15.05-.29.1-.44.14-.24.07-.49.13-.73.18-.31.06-.66.08-.96.21s-.61.39-.79.67c-.16.25-.16.59.07.79.25.22.75.09,1.05.03.26-.05.52-.1.77-.17.58-.15,1.15-.36,1.69-.6s1.08-.56,1.6-.89c.21-.13.42-.28.63-.43.1-.08.2-.15.3-.24.11-.09.22-.18.32-.27l.06-.06c.1-.08.09-.08-.04.03.06-.08.18-.14.25-.2.17-.14.34-.28.49-.44.22-.25.44-.5.63-.77.33-.47.62-.97.85-1.5.47-1.06.77-2.22.75-3.39-.02-1.06-.47-2.15-1.25-2.88-.66-.61-1.52-.98-2.39-1.15-1.87-.36-3.83-.17-5.55.65-.48.23-.93.53-1.35.86-.23.18-.46.36-.66.57-.07.08-.14.15-.21.23-.12.13-.29.28-.37.44.02-.03.14-.15.02-.04-.04.04-.08.09-.12.13-.07.08-.15.16-.22.24-.2.23-.39.46-.56.7-.31.44-.54.93-.72,1.44-.08.23-.17.46-.16.71.01.19.02.35.09.53.03.07.12,0,.15-.04h0Z"/>
    <path class="cls-3" d="m73.35,44.47c-.35,1.04-.52,2.08-.55,3.18-.03.99-.04,1.99-.06,2.98-.04,2.04-.08,4.08-.14,6.12-.1,4.04-.23,8.08-.31,12.13-.02,1.08-.04,2.17-.05,3.25,0,.52-.05,1.06,0,1.57.01.14.03.31.08.44.04.1.11.19.17.28.11.19.21.38.32.56s.38-.02.43-.16c.08-.22.17-.45.25-.67.1-.28.25-.56.3-.85.09-.5.07-1.01.08-1.51.01-.97.03-1.94.04-2.91.04-1.98.09-3.96.14-5.95.11-4.11.24-8.22.32-12.33.02-1.12.05-2.24.04-3.36,0-.54,0-1.07-.09-1.61-.05-.27-.1-.53-.16-.8-.06-.23-.17-.43-.27-.64-.14-.28-.49.11-.55.26h0Z"/>
    <path class="cls-3" d="m73.61,45.93c.11-.25.19-.48.26-.74.06-.24.12-.48.23-.71.05-.1.1-.19.17-.28-.02.02.11-.14.08-.11-.03.04-.04.03.03,0-.14.09.11-.06.11-.06.12-.09-.07-.02.07-.05-.07.01-.04,0,.02,0-.03,0-.18-.03-.07,0,.14.03.26.07.41.07.03,0,.14.01.16,0,.07-.04-.15-.05,0,0,.16.05.32.08.48.1.18.02-.02-.01-.04-.01.08,0,.16.03.23.05.48.12.93.33,1.39.49,1,.33,1.94.81,2.95,1.11s2.07.38,3.13.19c.69-.13,1.35-.42,1.94-.81.83-.54,1.38-1.34,1.71-2.25-.89.33-1.79.66-2.68.98.19,2.26.33,4.53.45,6.79.02.33.04.65.06.98l.14-.57c.2-.34.05-.1,0-.03l-.05.06c-.09.12-.06.08.09-.11-.05.03-.09.1-.13.14-.12.11-.18.06.08-.06-.06.03-.13.09-.18.13-.22.17.28-.14.03-.02-.14.07-.27.13-.41.19-.25.11.26-.07,0,0-.05.01-.1.03-.15.04-.15.04-.3.08-.45.11-.05,0-.1.02-.15.03-.05,0-.3.07-.04,0-.13.03-.27.03-.4.03-.17,0-.34-.01-.51-.03-.04,0-.11,0-.15-.02.16.08.15.03.05,0-.11-.02-.22-.05-.33-.07-.41-.1-.81-.22-1.21-.34-.88-.28-1.75-.58-2.64-.78s-1.87-.34-2.79-.1c-.65.16-1.28.5-1.74.99-.29.31-.6.71-.7,1.14-.04.16-.04.34.01.5.02.08.11.18.13.22v-.18c-.03.1-.05.2-.06.3-.08.47.52.15.62-.08.05-.11.1-.21.16-.32l-.24.28s0-.02.03-.03c.07-.01.27-.15.28-.16-.4.24.26-.16.2-.11.06-.05.12-.1.19-.15.06-.04.37-.24.14-.11-.26.16.23-.12.34-.21-.32.25-.15.09-.02.03.24-.12-.26.07,0,0,.11-.03.22-.06.33-.08.24-.05-.22,0,.04,0,.09,0,.17-.01.26-.01.22,0,.43.01.65.03.09.01.19.02.28.04.2.03-.2-.04,0,0,.04,0,.08.01.11.02.23.05.47.1.7.16.87.23,1.71.53,2.57.8.77.24,1.61.48,2.42.45,1.46-.06,2.93-.57,3.94-1.66.41-.45.89-1.02.89-1.66,0-.14,0-.28,0-.42-.03-1.36-.04-2.71-.06-4.07-.02-1.14-.04-2.28-.04-3.42,0-.57-.54-.8-1.03-.67-.64.18-1.25.7-1.52,1.3-.02.04-.04.08-.06.12-.08.14-.04.08.11-.18-.02.04-.05.07-.07.1-.11.13-.05.07.17-.2-.03.03-.06.06-.09.09-.13.12-.06.06.2-.17-.07.05-.14.1-.21.15.4-.31.23-.13.08-.06-.06.03-.12.05-.18.08-.22.1.39-.13.04-.02-.08.03-.17.05-.26.07s-.17.04-.26.05c-.34.06.23-.02,0,0-.15.01-.3.02-.45.02-.33,0-.67-.03-1-.08l.29.05c-1.47-.27-2.76-1.11-4.22-1.39-.43-.08-.87-.12-1.32-.1-.25.01-.51.03-.75.08-.13.02-.25.07-.37.12-.07.03-.14.05-.21.08-.13.05-.02.01.04-.01-.3.1-.6.21-.86.4-.13.09-.24.21-.36.31-.08.07.05-.05.05-.05-.08.05-.15.12-.22.18-.33.28-.61.57-.79.98-.29.66-.5,1.47-.41,2.19.03.2.28.02.32-.08h0Z"/>
    <path class="cls-3" d="m74.85,42.92c-.23.65-.17,1.44-.2,2.11-.03.71-.03,1.43-.04,2.14s-.02,1.38-.02,2.08c0,.35,0,.7,0,1.05,0,.17-.01.34.01.51.03.19.08.25.18.4.12.18.43-.13.47-.23.08-.18.15-.33.18-.52.03-.17.02-.35.03-.52,0-.35,0-.7,0-1.05,0-.69-.04-1.39-.07-2.08s-.06-1.35-.11-2.02c-.02-.34-.05-.68-.07-1.02-.02-.3-.02-.67-.17-.94-.05-.1-.17.04-.19.09h0Z"/>
    <path class="cls-3" d="m75.89,42.93c-.17.71-.18,1.44-.22,2.17s-.08,1.47-.1,2.2-.05,1.42-.05,2.14c0,.56-.18,1.52.41,1.85.1.05.24-.07.29-.14.22-.33.33-.67.38-1.06.05-.37.01-.75,0-1.12-.01-.71-.05-1.41-.09-2.12s-.09-1.35-.15-2.03-.04-1.36-.25-2c-.04-.12-.21.05-.22.11h0Z"/>
    <path class="cls-3" d="m77.19,42.77c-.11.31-.11.66-.14.99-.04.37-.09.75-.13,1.12-.09.74-.21,1.49-.28,2.23s-.14,1.43-.14,2.14c0,.36.01.72.04,1.07.01.18.04.35.09.52.08.23.16.31.39.35l-.18-.07c.35.26.62-.04.79-.35.23-.42.18-.85.15-1.31-.05-.79-.07-1.58-.07-2.37s-.02-1.52-.04-2.28c-.01-.39-.05-.78-.08-1.16-.03-.28-.03-.74-.2-.98-.06-.08-.19.05-.21.1h0Z"/>
    <path class="cls-3" d="m78.5,43.18c-.17.48-.17,1.05-.2,1.56s-.06,1.05-.09,1.57-.05,1.04-.07,1.55c-.01.39-.04.95.24,1.26.06.07.18-.05.2-.1.23-.46.27-1,.29-1.51s.05-1.03.05-1.55,0-1.02,0-1.53c0-.42.01-.99-.21-1.36-.06-.1-.19.04-.21.1h0Z"/>
    <path class="cls-3" d="m79.86,43.96c-.21.71-.23,1.46-.26,2.2-.03.65-.16,1.39.19,1.98.06.1.21-.01.23-.09.14-.36.23-.74.26-1.12.03-.35,0-.71,0-1.07,0-.66.04-1.39-.2-2.02-.05-.12-.21.05-.22.11h0Z"/>
    <path class="cls-3" d="m81.18,44.47c-.14.19-.14.47-.15.7-.02.24-.03.48-.04.73,0,.22-.05.47-.02.69.02.21.13.38.22.56.05.09.16-.04.18-.09.08-.24.2-.48.23-.73s.02-.49.01-.74c0-.23,0-.45-.03-.67-.01-.11-.02-.22-.06-.32-.03-.08-.06-.2-.16-.22-.07-.02-.15.04-.19.09h0Z"/>
    <path class="cls-3" d="m82.66,44.15c-.28,1.26-.38,2.56-.52,3.85s-.22,2.54-.24,3.81c0,.37-.18,1.44.4,1.49.23.02.42-.24.51-.42.16-.33.2-.66.21-1.02.02-1.23.03-2.48,0-3.71-.04-1.35.01-2.73-.14-4.07-.02-.13-.19,0-.21.08h0Z"/>
    <path class="cls-3" d="m83.63,44.28c-.18.92-.28,1.85-.32,2.79-.02.45-.06.9-.04,1.35,0,.21,0,.44.09.64.06.15.17.28.28.41.07.09.21-.06.24-.12.24-.47.39-.89.41-1.42.02-.43-.02-.87-.05-1.31-.05-.83-.17-1.66-.36-2.46-.03-.13-.23.06-.25.12h0Z"/>
    <path class="cls-3" d="m62.45,72.17c-.22.51-.27,1.08-.37,1.62s-.2,1.1-.29,1.66c-.17,1.11-.26,2.25-.17,3.38.04.5.17,1.28.86,1.12.23-.05.37-.26.47-.43.19-.31.24-.66.24-1.01,0-.53-.07-1.08-.09-1.61s-.01-1.06-.02-1.58c0-.57-.03-1.14-.08-1.71-.04-.48,0-1.14-.29-1.54-.07-.09-.22.07-.25.12h0Z"/>
    <path class="cls-3" d="m63.87,70.34c-.13.3-.14.67-.16,1-.03.37-.06.74-.08,1.11-.04.73-.09,1.46-.15,2.19-.11,1.44-.21,2.88-.22,4.33,0,.39-.19,1.78.45,1.79.41.01.65-.43.76-.76.13-.37.12-.75.12-1.14,0-1.4.03-2.81-.02-4.21-.03-.76-.06-1.52-.11-2.28-.02-.38-.05-.75-.1-1.13-.04-.3-.04-.79-.24-1.02-.07-.08-.21.05-.24.12h0Z"/>
    <path class="cls-3" d="m64.89,69.88c-.11.73-.11,1.49-.13,2.23s-.04,1.48-.06,2.21c-.05,1.48-.07,2.96-.09,4.45,0,.35-.02.71.02,1.05.02.23.13.66.42.65.21,0,.38-.27.44-.46.07-.19.13-.37.16-.57.03-.22.03-.44.04-.66,0-1.42-.08-2.85-.17-4.27-.05-.79-.1-1.58-.16-2.37s-.06-1.61-.23-2.38c-.03-.12-.23.05-.24.11h0Z"/>
    <path class="cls-3" d="m66.05,69.92c.03.18,0,.4.01.59,0,.17.02.33.03.5,0,.4-.02.79-.06,1.18-.08.78-.2,1.56-.29,2.34-.1.86-.1,1.73-.09,2.6,0,.53,0,1.06,0,1.59,0,.38-.06,1.12.38,1.27.16.06.33-.09.41-.2.35-.46.36-1.06.34-1.62-.02-.52-.04-1.05-.06-1.57-.03-.88-.08-1.76-.05-2.64.03-.77.1-1.55.07-2.32-.01-.36-.04-.73-.11-1.09-.03-.16-.06-.31-.13-.46s-.17-.23-.25-.35c-.06-.1-.22.1-.2.17h0Z"/>
    <path class="cls-3" d="m67.34,69.57s.02-.05.04-.06l-.23-.04c-.25.9-.22,1.9-.27,2.83s-.11,1.92-.14,2.89-.06,1.87-.06,2.8v1.39c-.01.23,0,.45.03.67.04.24.17.34.39.42.15.06.33-.09.41-.2.17-.23.34-.46.38-.76.03-.23.05-.46.04-.69v-1.38c-.01-.93-.04-1.86-.07-2.79s-.08-1.8-.13-2.7c-.03-.45-.04-.9-.08-1.35s-.04-.87-.19-1.27c-.05-.12-.22,0-.26.06-.05.08-.07.15-.08.24,0,.15.2,0,.23-.06h0Z"/>
    <path class="cls-3" d="m68.39,68.78c-.05.46-.02.92-.04,1.38s-.06.95-.11,1.42c-.1.92-.24,1.84-.34,2.77s-.15,1.87-.16,2.81c0,.51-.01,1.03,0,1.54,0,.23.02.48.07.71.06.25.13.37.39.43.09.02.17-.05.23-.11.21-.25.32-.48.38-.8.04-.25.05-.51.05-.77,0-.51-.03-1.02-.04-1.52-.02-.93,0-1.87.03-2.8s.11-1.8.11-2.7c0-.45-.01-.9-.06-1.34-.04-.39-.08-.82-.27-1.17-.07-.13-.24.07-.25.15h0Z"/>
    <path class="cls-3" d="m69.25,69.53c-.15.85-.19,1.71-.24,2.58s-.09,1.75-.12,2.63-.07,1.76-.09,2.64c0,.42-.03.84-.01,1.26s.06.75.35,1.04c.08.08.22-.06.26-.13.23-.45.33-.88.36-1.39.03-.42.01-.84.02-1.26.01-.87,0-1.73,0-2.6s0-1.7-.03-2.56c-.02-.79-.03-1.59-.2-2.37-.04-.16-.3.07-.31.15h0Z"/>
    <path class="cls-3" d="m70.14,69.99c-.14.31-.12.71-.14,1.04-.02.39-.03.79-.05,1.18-.03.76-.03,1.53-.05,2.29s-.03,1.52-.03,2.28c0,.38-.02.77-.01,1.15,0,.32.04.61.25.86.06.07.18-.05.2-.1.36-.71.29-1.5.3-2.27s-.02-1.5-.04-2.25-.04-1.49-.08-2.23c-.02-.38-.04-.75-.06-1.13-.01-.27.02-.69-.14-.91-.04-.06-.14.04-.15.07h0Z"/>
    <path class="cls-3" d="m71.17,71.62c.06.09.03.24.03.35,0,.2.02.39.01.59,0,.51-.03,1.03-.06,1.54s-.11,1.07-.12,1.61c0,.31-.02.76.14,1.04.06.1.2-.01.22-.08.35-.93.35-1.98.39-2.96.02-.52.04-1.04-.02-1.55-.04-.3-.08-.62-.39-.74-.08-.03-.27.12-.21.21h0Z"/>
  </g>
  <g>
    <path class="cls-3" d="m26.45,46.71c-.38.15-.78.24-1.14.42s-.71.37-1.05.59c-.7.45-1.31.99-1.85,1.63-1.21,1.42-2.1,3.29-2.13,5.17-.02,1.48.32,3.2,1.62,4.1s2.83.96,4.27.65c.44-.1.89-.34,1.3-.53.24-.12.47-.27.71-.4.18-.1-.1.07-.1.07.02,0,.09-.05.12-.06.1-.05.2-.1.3-.15.67-.36,1.34-.78,1.94-1.25,1.12-.88,2.07-1.95,2.73-3.21.95-1.81,1.24-4.27.06-6.04-.52-.77-1.24-1.37-2.13-1.67-1.14-.38-2.51-.49-3.66-.03-.39.16-.7.43-1.05.67-.08.05-.25.34-.04.33.08,0,.18-.01.26,0,.09.02.17.06.26.07.23.03.48-.04.72-.07.2-.03.4-.07.59-.11.22-.03.34-.05.54-.07.68-.06,1.27-.04,1.9.23.51.21.92.51,1.3.95.18.21.28.39.41.66s.21.54.27.83c.02.07.03.14.04.21-.02-.1.01.08.01.11.02.15.04.3.05.45.02.31.02.63-.01.94,0,.04,0,.08-.01.11,0,.09.02-.14,0,0-.01.08-.02.15-.04.23-.03.17-.07.34-.12.51-.02.07-.04.14-.07.21-.01.04-.03.08-.04.12,0,.01-.06.17-.02.05s-.01.03-.02.05c-.02.04-.03.08-.05.12-.03.09-.07.17-.11.25-.07.15-.14.31-.22.46-.04.08-.08.15-.12.23-.02.05-.05.09-.08.14-.08.15.11-.18.01-.02-.2.31-.41.62-.65.91-.04.05-.13.13.07-.08-.03.03-.06.07-.09.1-.06.07-.12.14-.19.2-.14.14-.28.28-.42.41-.04.04-.09.07-.13.11,0,0,.22-.18.08-.07-.07.06-.15.12-.22.18-.17.13-.35.26-.53.37-.08.05-.43.23-.12.08-.1.05-.19.11-.29.16-.21.11-.43.19-.64.28-.2.08.19-.06.05-.02-.07.02-.14.05-.2.07-.09.03-.28.04-.35.1,0,0,.26-.03.1-.01-.11.01-.22.02-.33.04.21-.03.22-.03.03,0-.46.06.22-.02-.02,0-.05,0-.11.01-.16.02-.32.03-.62,0-.93.06-.11.02-.22.04-.33.06-.16.03.35-.04.12-.02-.06,0-.12.01-.18.02-.45.04-.91.03-1.36-.05l.29.05c-.45-.08-.88-.24-1.27-.48l.23.15c-.37-.24-.68-.56-.92-.94l.15.23c-.28-.45-.44-.94-.53-1.45l.05.29c-.11-.66-.09-1.33-.07-2,0-.3.01-.6.02-.9,0-.06,0-.12,0-.19,0-.05,0-.28,0-.11.01.16,0-.03.02-.09.02-.08.04-.17.06-.25.03-.13.07-.26.11-.39.02-.05.06-.13.06-.18,0,0-.08.19-.03.09.02-.04.03-.08.05-.12.1-.25.22-.54.38-.77-.09.12-.04.07.02-.02.04-.06.08-.13.13-.19.09-.13.18-.25.28-.37.02-.02.13-.17.08-.1s.12-.14.13-.15c.01-.01.2-.23.12-.14.05-.06.11-.12.17-.18.24-.25.5-.48.77-.69.34-.27.64-.55,1.01-.77.09-.05.16-.25,0-.18Z"/>
    <path class="cls-3" d="m21.65,53.49c.49-.93.77-1.94,1.27-2.86.03-.06.06-.11.1-.17.07-.13-.11.16.03-.04.06-.09.11-.17.17-.26.09-.14,0-.02-.02.01.03-.04.07-.07.1-.11.1-.1.2-.19.29-.28.15-.14-.36.31.02-.02.08-.07.15-.13.22-.2s.15-.13.22-.19c-.3.28-.03.03.05-.03.09-.07.18-.14.28-.2.16-.11.32-.23.48-.34.08-.06.17-.11.26-.17.04-.02.08-.05.12-.07.12-.08-.32.18-.07.04.35-.19.71-.37,1.09-.52.05-.02.11-.04.17-.06-.02,0-.3.1-.1.04.09-.03.18-.06.28-.09.22-.07.45-.14.68-.19.21-.05.41-.09.62-.13.06-.01.12-.02.18-.03.15-.02-.21.02-.06,0,.12-.01.24-.02.37-.03.21-.01.41-.01.62,0,.11,0,.21.02.32.03.08,0,.19-.02,0,0,.06,0,.15.03.21.05.18.05.36.11.53.18.11.05.21.1.32.16.04.02.14.1-.02-.01.06.04.12.08.18.13.17.13.32.27.46.43.07.08.14.17.21.26.03.04.06.08.08.12-.09-.13-.02-.02.02.05.21.38.41.77.52,1.19.02.07.05.32.03.13.01.11.03.22.04.33.02.24.03.47.02.71,0,.1,0,.2-.02.3,0,.05,0,.1-.01.15.02-.22,0-.05,0,0-.04.23-.09.46-.15.69-.03.09-.05.19-.08.28,0,.03-.1.23-.02.07.07-.14,0,0-.01.03-.09.21-.2.42-.29.63-.04.1-.07.19-.11.29,0,.01-.09.25-.03.09.05-.13-.01.02-.04.06-.14.22-.29.43-.45.64-.07.09-.13.18-.21.26.17-.18.03-.04-.01,0-.05.05-.1.1-.15.15-.08.08-.16.16-.24.23-.04.04-.08.08-.12.11-.03.03-.22.23-.04.04-.34.35-.81.62-1.22.88.19-.12-.12.07-.18.1-.11.06-.22.12-.33.17-.22.11-.46.2-.68.32-.36.19-.78.58-.88,1.01-.12.5.4.63.76.53.51-.14,1.02-.43,1.47-.7.48-.28.95-.59,1.39-.94.9-.73,1.68-1.57,2.36-2.51.33-.45.63-.88.84-1.39.19-.47.35-.96.45-1.46.2-1.04.21-2.03.01-3.06-.18-.94-.72-1.8-1.51-2.34s-1.78-.78-2.76-.75-1.91.24-2.81.56c-.96.34-1.84.76-2.64,1.4-.49.39-.9.82-1.29,1.3-.3.37-.59.78-.76,1.22-.06.15.01.02.02,0-.04.1-.12.2-.17.29s-.11.19-.16.29c-.1.2-.2.41-.28.62-.19.49-.29.98-.34,1.5-.04.45.02.83.31,1.18.05.05.13-.04.15-.07h0Z"/>
    <path class="cls-3" d="m48.31,40.75c-.38.15-.78.24-1.14.42s-.71.37-1.05.59c-.7.45-1.31.99-1.85,1.63-1.21,1.42-2.1,3.29-2.13,5.17-.02,1.48.32,3.2,1.62,4.1s2.83.96,4.27.65c.18-.04.36-.12.54-.19.04-.02.08-.03.12-.05h.03c-.27.07-.28.08-.04,0,.22-.08.44-.18.65-.28.24-.12.47-.27.71-.4.18-.1-.1.07-.1.07.02,0,.09-.05.12-.06.1-.05.2-.1.3-.15.67-.36,1.34-.78,1.94-1.25,1.12-.88,2.07-1.95,2.73-3.21.95-1.81,1.24-4.27.06-6.04-.52-.77-1.24-1.37-2.12-1.67-1.14-.38-2.51-.49-3.66-.03-.39.16-.7.43-1.05.67-.08.05-.25.34-.04.33.16,0,.27.02.42.06.22.06.48,0,.7-.03.18-.03.36-.06.54-.09.23-.04.35-.06.55-.08.05,0,.28-.03.42-.04.17,0,.33,0,.5,0,.3,0,.54.04.83.13.97.31,1.74.96,2.1,1.9.09.24.17.49.22.74,0,.03.01.07.02.11.02.08-.02-.11,0,.02,0,.06.02.11.03.17.02.14.04.29.04.43.02.28.01.55-.01.83,0,.07-.01.14-.02.21.02-.15,0,.06-.02.1-.02.15-.05.29-.08.44s-.08.28-.13.42c-.01.04-.12.31-.03.1-.03.08-.06.15-.09.23-.12.29-.26.57-.4.85-.04.07-.08.14-.11.2-.08.14.04-.07.04-.07,0,0-.06.1-.07.11-.09.14-.18.28-.28.41s-.19.26-.29.38c-.18.22.15-.16-.04.05-.06.07-.12.14-.19.2-.13.14-.26.26-.4.39-.03.03-.07.06-.11.09-.17.16.13-.1.04-.03-.08.06-.16.13-.25.2-.15.12-.31.23-.48.34-.09.06-.19.12-.28.18-.12.08.24-.14.05-.03-.05.03-.11.06-.16.09-.18.1-.36.18-.55.25-.05.02-.1.04-.14.06-.16.06-.03,0,.05-.02-.11.03-.21.07-.32.11-.09.03-.45.1-.11.05-.04,0-.07,0-.11.01-.91.11.53-.06-.39.05.37-.04.04,0-.05,0-.2.02-.39.03-.59.06h.59c-.4-.07-.71-.04-1.11.03-.05,0-.1.02-.15.02-.22.03.08,0,.12-.02-.08.04-.24.02-.33.03-.41.02-.81,0-1.21-.06l.29.05c-.45-.08-.88-.24-1.27-.48l.23.15c-.37-.24-.68-.56-.92-.94l.15.23c-.28-.45-.44-.94-.54-1.45l.05.29c-.11-.66-.09-1.33-.07-2,0-.3.01-.6.02-.9,0-.06,0-.12,0-.19,0-.05,0-.28,0-.11.01.16,0-.03.02-.09.02-.08.04-.17.06-.25.03-.13.07-.26.11-.39.02-.05.06-.13.06-.18,0,0-.08.19-.03.09.02-.04.03-.08.05-.12.1-.25.22-.54.38-.77-.09.12-.04.07.02-.02.04-.06.08-.13.13-.19.09-.13.18-.25.28-.37.02-.02.13-.17.08-.1s.12-.14.13-.15c.01-.01.2-.23.12-.14.05-.06.11-.12.17-.18.24-.25.5-.48.77-.69.34-.27.64-.55,1.01-.77.09-.05.16-.25,0-.18Z"/>
    <path class="cls-3" d="m43.5,47.54c.49-.92.77-1.94,1.27-2.86.03-.06.06-.11.1-.17.07-.13-.11.16.03-.04.06-.08.11-.17.17-.26.09-.14,0-.02-.02.01.03-.04.07-.07.1-.11.1-.1.2-.19.29-.28.15-.14-.36.31.02-.02.08-.07.15-.13.22-.2s.15-.13.22-.19c-.3.28-.03.03.05-.03.09-.07.18-.14.28-.2.16-.11.32-.23.48-.34.08-.06.17-.11.26-.17.04-.02.08-.05.12-.07.12-.08-.32.18-.07.04.35-.19.71-.37,1.09-.51.05-.02.11-.04.17-.06-.02,0-.3.1-.1.04.09-.03.18-.06.28-.09.22-.07.45-.14.68-.19.21-.05.41-.09.62-.13.06-.01.12-.02.18-.03.15-.02-.21.02-.06,0,.12-.01.24-.02.37-.03.21-.01.41-.01.62,0,.11,0,.21.02.32.03.08.01.2-.02,0,0,.06,0,.15.03.21.05.18.05.36.11.53.18.11.05.21.1.32.16.04.02.14.1-.02-.01.06.04.12.08.18.13.17.13.32.27.46.43.07.08.14.17.21.26.03.04.06.08.08.12-.09-.13-.02-.02.02.05.21.38.41.77.52,1.19.02.07.05.32.03.13.01.11.03.22.04.33.02.24.03.47.02.71,0,.1,0,.2-.02.3,0,.05,0,.1-.01.15.02-.22,0-.05,0,0-.04.23-.09.46-.15.69-.03.09-.05.19-.08.28,0,.03-.1.23-.02.07.07-.14,0,0-.01.03-.09.21-.2.42-.29.63-.04.1-.07.19-.11.29,0,.01-.09.25-.03.09.05-.13-.01.02-.04.06-.14.22-.29.43-.45.64-.07.09-.13.18-.21.26.17-.19.03-.04-.01,0-.05.05-.1.1-.15.15-.08.08-.16.16-.24.23-.04.04-.08.08-.12.11-.03.03-.22.23-.04.04-.34.35-.81.62-1.22.88.19-.12-.12.07-.18.1-.11.06-.22.12-.33.17-.22.11-.45.2-.67.32-.36.19-.78.58-.88,1.01-.12.5.4.63.76.53.51-.14,1.02-.43,1.47-.7.48-.28.95-.59,1.39-.94.9-.73,1.68-1.57,2.36-2.51.33-.45.63-.88.84-1.39.19-.47.35-.96.45-1.46.2-1.04.21-2.03.01-3.06-.18-.94-.72-1.8-1.51-2.34s-1.78-.78-2.76-.75-1.91.24-2.81.56c-.96.34-1.84.76-2.64,1.4-.49.39-.9.82-1.29,1.3-.3.37-.59.78-.76,1.22-.06.15.01.02.02,0-.04.1-.12.2-.17.29s-.11.19-.16.29c-.1.2-.2.41-.28.62-.19.49-.29.98-.34,1.5-.04.44.02.83.31,1.17.05.05.13-.04.15-.07h0Z"/>
    <path class="cls-3" d="m25.89,22.87c-.03.25-.08.5-.08.75,0,.27,0,.53.03.8.04.5.12.97.24,1.45.22.92.45,1.83.68,2.75.47,1.86.93,3.73,1.39,5.6.91,3.73,1.8,7.47,2.73,11.19.25.99.5,1.98.76,2.97.12.47.21.98.4,1.43.05.11.11.26.19.36.07.07.18.13.24.2.17.16.34.31.51.46.15.13.4-.11.42-.26.04-.22.07-.44.11-.66.04-.28.13-.57.12-.85-.03-.48-.18-.95-.3-1.41-.23-.88-.45-1.76-.67-2.64-.46-1.83-.91-3.65-1.35-5.48-.91-3.77-1.81-7.53-2.75-11.29-.26-1.04-.52-2.08-.81-3.11-.14-.49-.27-.97-.5-1.43-.11-.21-.22-.41-.34-.61-.13-.22-.3-.39-.49-.57-.2-.21-.5.21-.52.38h0Z"/>
    <path class="cls-3" d="m47.86,16.88c-.03.25-.08.5-.08.74,0,.27,0,.53.03.8.04.51.13,1,.25,1.5.22.92.45,1.83.68,2.74.47,1.86.93,3.72,1.38,5.58.91,3.72,1.79,7.44,2.72,11.15.25,1,.51,2,.77,3,.12.47.21.97.4,1.42.05.12.11.26.19.35.07.07.17.13.24.19.16.16.34.31.51.46.15.13.4-.11.42-.26.04-.22.07-.44.11-.66.04-.28.13-.57.12-.84-.02-.48-.18-.95-.3-1.41-.23-.87-.45-1.75-.67-2.63-.46-1.83-.91-3.67-1.36-5.51-.91-3.77-1.81-7.54-2.75-11.3-.26-1.02-.51-2.04-.79-3.05-.14-.51-.27-1-.51-1.47-.11-.21-.22-.41-.34-.61-.13-.22-.3-.39-.48-.57-.2-.21-.5.21-.52.38h0Z"/>
    <path class="cls-3" d="m27.78,29.41c.04.13.3.24.23.11.05.1.14.18.26.17.33-.02.64,0,.97-.07.35-.06.71-.12,1.06-.2.68-.17,1.36-.33,2.04-.5,1.43-.35,2.87-.68,4.31-1.01,2.82-.64,5.63-1.32,8.42-2.07.72-.2,1.44-.41,2.16-.62.36-.11.71-.22,1.06-.33.17-.05.34-.11.52-.16.48-.16.87-.41,1.24-.78.44-.44.94-1.37.21-1.78-.41-.24-.9-.01-1.31.11-.33.1-.66.2-.99.3-.68.2-1.36.4-2.04.6-1.47.44-2.95.87-4.42,1.3-3.09.9-6.15,1.86-9.23,2.79-.86.26-1.72.53-2.56.85-.41.16-.8.35-1.18.56-.07.04-.14.08-.2.14-.03.02-.25.22-.15.16s-.04,0-.05.01c-.07.04-.13.08-.19.14-.05.06-.18.19-.16.28h0Z"/>
    <path class="cls-3" d="m26.01,22.91c.04.13.3.25.23.11.05.1.14.18.26.17.33-.02.64,0,.97-.07.35-.06.71-.12,1.06-.2.68-.17,1.36-.33,2.04-.5,1.43-.35,2.87-.68,4.31-1.01,2.82-.64,5.63-1.32,8.42-2.07.72-.2,1.44-.41,2.16-.62.36-.11.71-.22,1.06-.33.17-.05.34-.11.52-.16.48-.16.87-.41,1.24-.78.44-.44.94-1.36.21-1.78-.41-.24-.9-.01-1.31.11-.33.1-.66.2-.99.3-.68.2-1.36.4-2.04.61-1.47.44-2.95.87-4.42,1.3-3.09.9-6.16,1.86-9.23,2.79-.86.26-1.72.53-2.56.85-.41.16-.8.35-1.18.56-.07.04-.14.08-.2.14-.03.02-.25.22-.15.16s-.04,0-.05.01c-.07.04-.13.08-.19.14-.05.06-.18.19-.16.28h0Z"/>
    <path class="cls-3" d="m26.17,24.24c-.2-.03.19.04.24.05s.12,0,.17,0l.27-.03c-.28-.04-.35-.02-.21.05.17.1.45.03.62,0,.37-.07.73-.16,1.1-.26.71-.19,1.42-.4,2.13-.61,1.43-.41,2.87-.8,4.3-1.21,2.84-.81,5.66-1.67,8.5-2.47.8-.22,1.6-.44,2.4-.68.49-.14.95-.32,1.41-.54.03-.01.19-.1.02-.03.13-.06.28-.09.41-.13.33-.1.6-.23.87-.44.33-.25.88-.9.5-1.34-.27-.31-.64-.24-1-.22-.41.02-.8-.01-1.2.08-.7.17-1.39.4-2.08.59-1.39.38-2.78.78-4.17,1.19-2.79.81-5.57,1.61-8.37,2.38-.78.22-1.56.44-2.33.66-.4.11-.81.22-1.21.34-.2.06-.41.12-.61.18-.5.15-.82.4-1.2.73l.58-.42c.28-.13-.27.11-.35.15-.07.03-.6.34-.35.2-.39.22-.82.59-.91,1.06-.08.38.06.66.46.72h0Z"/>
    <path class="cls-3" d="m27.69,29.45c.49-.01.95-.16,1.43-.26.06-.01.26-.04-.04,0,.11-.01.22-.03.33-.04.18-.03.37-.06.55-.1.39-.08.77-.17,1.16-.27,1.46-.37,2.91-.82,4.36-1.23,3.05-.86,6.14-1.55,9.18-2.42,1.55-.44,3.06-1.02,4.61-1.45.5-.14,1.04-.61,1.14-1.14.09-.46-.19-.82-.68-.68-1.38.38-2.72.91-4.1,1.27-1.5.39-3,.77-4.5,1.15-1.52.38-3.04.77-4.56,1.19s-2.99.86-4.49,1.26c-1.31.35-2.7.49-3.95,1.03-.37.16-.78.59-.86,1.01-.06.32.05.69.44.68h0Z"/>
    <path class="cls-3" d="m27.02,23.17c-.09.5,0,1.01.05,1.51.06.54.15,1.07.25,1.61s.2,1.02.35,1.52c.07.23.14.45.22.67s.14.47.33.63c.23.2.61-.21.61-.44,0-.46-.26-.93-.39-1.37-.14-.49-.28-.98-.4-1.48s-.23-.98-.36-1.46c-.12-.44-.18-.95-.46-1.32-.06-.08-.19.07-.2.12h0Z"/>
    <path class="cls-3" d="m27.69,23.52c-.02.33.07.64.14.97.09.43.15.87.25,1.3.12.54.23,1.08.38,1.62.09.32.18.64.27.96.05.18.09.35.19.51.08.15.2.22.32.34.08.07.22-.06.23-.14.03-.19.07-.37.07-.56,0-.18-.05-.35-.11-.52-.1-.33-.21-.66-.31-1-.16-.55-.29-1.11-.43-1.67-.1-.43-.21-.85-.33-1.27-.07-.23-.18-.7-.5-.69-.08,0-.16.08-.16.16h0Z"/>
    <path class="cls-3" d="m28.34,22.68c.05.48.23.96.35,1.43.14.52.27,1.05.39,1.58s.21,1.05.33,1.58c.06.24.1.5.18.74s.2.39.42.49c.07.03.14-.06.16-.11.18-.54.04-1.02-.08-1.55s-.24-1.07-.37-1.6-.25-1.01-.42-1.5c-.15-.43-.33-.95-.67-1.26-.1-.09-.3.1-.29.21h0Z"/>
    <path class="cls-3" d="m29.39,22.84c-.16.33.03.83.11,1.17.11.47.24.94.36,1.41s.25.96.37,1.44c.06.24.13.49.23.72.08.19.21.36.32.54.07.1.23-.1.23-.16,0-.49-.05-.94-.18-1.42s-.28-.97-.42-1.46c-.13-.45-.26-.9-.39-1.35-.06-.2-.13-.39-.19-.59-.05-.14-.11-.36-.27-.39-.07-.01-.13.04-.16.09h0Z"/>
    <path class="cls-3" d="m30.34,22.8c0,.13.1.28.16.4.09.18.16.36.23.55.17.51.28,1.04.38,1.56s.22,1.09.32,1.63c.07.39.16.82.45,1.11.08.08.2-.08.21-.15.06-.48,0-.93-.1-1.4-.11-.56-.22-1.13-.36-1.68-.13-.51-.27-1.02-.48-1.5-.11-.25-.3-.77-.65-.71-.07.01-.15.1-.15.18h0Z"/>
    <path class="cls-3" d="m31.06,22.75c-.12.38.04.88.13,1.25.11.44.23.88.35,1.31s.23.89.37,1.32c.07.21.11.44.22.64.09.16.22.31.33.45.06.08.18-.08.18-.13.01-.24.04-.49.02-.73-.02-.22-.1-.44-.16-.65-.12-.44-.26-.87-.4-1.3s-.27-.85-.41-1.27c-.07-.2-.15-.4-.23-.6-.06-.16-.11-.31-.28-.39-.05-.03-.11.05-.13.09h0Z"/>
    <path class="cls-3" d="m32.04,22.79c.01-.11.07-.22.09-.33l-.43.16c-.04.5.17,1.04.3,1.52s.26,1,.4,1.5.29.97.43,1.46c.06.22.12.45.23.66s.26.38.4.56c.07.1.22-.1.23-.16.01-.29.04-.59,0-.88-.03-.23-.09-.44-.16-.67-.14-.49-.28-.98-.43-1.46s-.31-.97-.46-1.45c-.14-.44-.22-1.01-.52-1.36-.14-.16-.51.2-.37.37.06.07.05.15.08.23.05.13.22-.07.23-.14h0Z"/>
    <path class="cls-3" d="m32.78,22.06c-.01.21.06.42.09.63.04.22.08.44.12.66.09.43.16.85.25,1.28s.16.86.29,1.27c.06.2.15.41.25.59.1.17.25.3.4.42.06.05.18-.06.17-.13-.02-.22-.02-.44-.07-.66s-.11-.44-.17-.65c-.12-.41-.23-.83-.32-1.25s-.18-.84-.28-1.26c-.05-.21-.11-.42-.18-.62-.06-.18-.11-.39-.25-.52-.12-.12-.3.12-.31.22h0Z"/>
    <path class="cls-3" d="m33.68,21.87s.02-.09.03-.14l-.29-.05c-.05.41.12.85.21,1.25.1.46.21.92.32,1.38.2.82.32,1.76.86,2.44.06.07.17-.07.17-.13.06-.92-.23-1.8-.45-2.68-.11-.44-.22-.87-.35-1.3-.06-.21-.12-.43-.18-.64-.06-.19-.09-.39-.23-.54-.2-.2-.52.37-.26.36h.03s-.05-.05-.07-.07c0,.07.01.12.04.19.03.08.15-.03.16-.08h0Z"/>
    <path class="cls-3" d="m34.12,21.57c.05.08.03.24.06.34.04.18.08.35.11.53.07.39.13.78.21,1.17.11.53.27,1.06.4,1.59.09.34.16.69.29,1.02s.23.54.46.8c.06.07.16-.07.16-.12.02-.2.06-.4.03-.59-.03-.18-.06-.36-.09-.54-.06-.33-.17-.66-.27-.99-.16-.54-.33-1.08-.46-1.63-.09-.39-.19-.78-.3-1.16-.07-.22-.14-.58-.4-.66-.11-.03-.28.14-.21.24h0Z"/>
    <path class="cls-3" d="m34.68,21.36c-.02.43.12.87.22,1.28s.2.87.3,1.31c.18.85.32,1.71.77,2.46.06.1.21-.04.21-.12-.03-.91-.24-1.77-.47-2.65-.11-.43-.22-.85-.34-1.28-.11-.38-.22-.85-.49-1.14-.07-.08-.19.08-.2.14h0Z"/>
    <path class="cls-3" d="m35.45,21.19c.2.9.33,1.81.52,2.72.09.43.19.86.3,1.29s.29.76.52,1.11c.05.08.21-.08.2-.14-.07-.43-.13-.84-.24-1.26s-.24-.87-.34-1.31c-.21-.87-.44-1.73-.71-2.58-.04-.13-.27.07-.25.18h0Z"/>
    <path class="cls-3" d="m36.14,20.74c.06.08.05.14.07.23.02.08.06.14.09.22.08.2.13.4.18.6.14.5.24,1.02.32,1.54s.17,1.07.26,1.6c.07.4.18.76.41,1.09.06.08.18-.08.18-.13.01-.48,0-.92-.08-1.4-.09-.55-.18-1.09-.29-1.63-.1-.5-.21-1.01-.39-1.5-.07-.18-.16-.36-.26-.52-.1-.15-.22-.18-.37-.25-.07-.03-.17.09-.13.15h0Z"/>
    <path class="cls-3" d="m36.81,20.53c-.01.48.16.99.26,1.46.11.52.21,1.04.32,1.56s.21,1.01.32,1.51.21.95.52,1.36c.07.1.22-.1.23-.16.03-.54-.08-1.02-.2-1.53s-.24-1.03-.35-1.55-.23-.98-.37-1.46c-.12-.43-.22-.98-.52-1.33-.07-.08-.19.08-.2.14h0Z"/>
    <path class="cls-3" d="m37.68,20.5c.03.1.04.26.05.38.03.19.06.38.09.57.06.41.1.83.18,1.24.11.54.22,1.07.35,1.61.14.59.25,1.19.69,1.65.08.09.21-.09.22-.16.08-.69-.1-1.29-.27-1.95-.14-.54-.27-1.09-.38-1.64-.08-.4-.17-.8-.27-1.2-.06-.26-.13-.65-.41-.74-.12-.04-.28.13-.25.25h0Z"/>
    <path class="cls-3" d="m39.02,20.5c.02-.08.05-.15.08-.22.15-.4-.39-.22-.46.06-.13.48-.05,1.05,0,1.55.06.56.14,1.12.25,1.67s.22,1.08.4,1.59c.08.24.17.48.31.69s.33.34.54.48c.09.06.22-.06.22-.16-.01-.26-.01-.52-.06-.78s-.13-.48-.2-.72c-.17-.52-.32-1.03-.44-1.56s-.22-1.04-.29-1.57c-.03-.24-.06-.48-.1-.73-.04-.23-.04-.5-.14-.7l-.46.39s.04.11.05.15c.07.15.28-.05.3-.14h0Z"/>
    <path class="cls-3" d="m39.82,20.3c.04-.11.13-.16-.02-.06h-.29c.03.05.02.17.03.24.02.12.05.23.07.35.04.2.07.41.11.61.08.42.14.85.21,1.27s.13.83.2,1.25c.04.19.08.4.16.58.09.19.26.3.41.44.09.08.22-.09.23-.16.02-.27.09-.52.05-.79-.03-.2-.07-.4-.11-.6-.1-.44-.18-.88-.26-1.32s-.15-.85-.26-1.27c-.06-.2-.12-.41-.2-.6-.05-.15-.11-.32-.25-.41-.11-.07-.29.09-.34.17-.11.16-.08.28.07.38.06.04.16-.03.18-.09h0Z"/>
    <path class="cls-3" d="m40.6,19.6c.04-.06.08-.15.13-.2l-.27-.1c-.19.49-.11,1.07-.04,1.58.07.54.18,1.08.3,1.62s.26,1.05.41,1.57c.08.27.14.55.27.8.11.22.27.4.43.58.08.1.23-.1.24-.17.02-.29.06-.59.02-.87-.04-.26-.11-.51-.19-.77-.15-.52-.29-1.04-.44-1.56s-.27-1.03-.36-1.55c-.05-.25-.08-.51-.12-.77-.04-.22-.05-.45-.18-.63-.11-.16-.4.16-.35.3.01.05.02.11,0,.17-.02.11.11.05.15,0h0Z"/>
    <path class="cls-3" d="m41.78,19.33c-.06-.03-.03-.05-.05.06,0,.07,0,.14,0,.21.02.18.06.36.08.54.04.36.09.72.13,1.08.07.63.25,1.27.39,1.89s.28,1.35.77,1.81c.07.07.21-.06.22-.13.12-.81-.12-1.56-.32-2.34-.16-.61-.32-1.23-.42-1.85-.07-.42-.16-.84-.3-1.24-.05-.14-.12-.27-.28-.29-.11-.01-.21.05-.26.15-.02.04-.03.1.02.12h0Z"/>
    <path class="cls-3" d="m42.73,18.92c-.05.43.11.9.16,1.33.07.5.14,1,.21,1.51s.14,1,.23,1.5c.07.43.21.88.5,1.23.09.1.24-.1.25-.18.08-1.01-.2-2.03-.36-3.03-.08-.47-.16-.94-.27-1.4-.09-.35-.17-.89-.46-1.14-.11-.09-.25.09-.26.19h0Z"/>
    <path class="cls-3" d="m43.38,18.29c-.1.5.04,1.02.13,1.51.1.58.18,1.16.29,1.73s.21,1.13.33,1.7c.05.26.12.51.23.76.1.23.26.42.4.64.05.08.18-.08.18-.13,0-.29.03-.57,0-.85s-.07-.57-.13-.85c-.12-.56-.24-1.12-.35-1.68-.11-.53-.24-1.06-.37-1.58-.11-.44-.19-1.05-.55-1.34-.06-.05-.15.04-.16.1h0Z"/>
    <path class="cls-3" d="m44.16,18.59c.06.06.07.23.1.31.05.19.1.39.14.59.13.55.21,1.11.32,1.66.11.58.2,1.17.31,1.75.06.35.18.77.43,1.04.09.09.22-.09.23-.16.05-.46.02-.91-.06-1.36-.11-.59-.22-1.19-.34-1.78-.11-.54-.24-1.07-.42-1.6-.08-.25-.21-.64-.51-.7-.09-.02-.31.14-.21.24h0Z"/>
    <path class="cls-3" d="m45.04,18.37c.08.85.3,1.7.46,2.54.08.43.16.85.25,1.28.08.38.18.85.45,1.14.1.11.26-.11.27-.19.05-.43-.05-.89-.15-1.3s-.19-.84-.28-1.25c-.18-.79-.33-1.66-.76-2.35-.07-.11-.24.04-.23.14h0Z"/>
    <path class="cls-3" d="m45.88,17.63c.03.45.17.88.22,1.32s.08.88.18,1.3c.14.58.29,1.16.42,1.74.07.3.13.61.24.9s.26.56.43.83c.06.09.2-.04.2-.12,0-.34,0-.67-.05-1s-.11-.63-.19-.94c-.15-.61-.32-1.21-.47-1.82-.11-.42-.15-.86-.24-1.28-.09-.39-.17-.89-.57-1.07-.06-.03-.15.07-.15.13h0Z"/>
    <path class="cls-3" d="m46.67,17.6c-.03.45.08.89.16,1.33.09.5.21,1,.31,1.49s.19,1,.32,1.49.29.91.52,1.35c.1.18.38-.08.37-.22-.04-.52-.1-1.01-.2-1.52s-.25-1.01-.37-1.51c-.12-.47-.22-.95-.36-1.41-.12-.41-.22-.86-.49-1.19-.09-.1-.24.1-.25.18h0Z"/>
    <path class="cls-3" d="m47.13,17.39c-.12,1.03.14,2.12.37,3.12.12.5.24,1.01.4,1.5.15.46.47.77.73,1.16.06.09.22-.09.22-.16,0-.55.07-1.08-.08-1.62-.13-.47-.29-.94-.45-1.41s-.32-.92-.46-1.39-.28-.93-.5-1.35c-.07-.13-.23.07-.24.14h0Z"/>
    <path class="cls-3" d="m22.71,51.05s0-.05.01-.06c.09-.22-.2-.15-.26,0-.12.26-.06.5-.02.77.11.68.26,1.36.41,2.04s.28,1.35.44,2.03c.08.34.17.67.25,1.01.08.32.15.71.43.91.2.14.48-.12.52-.31-.15.22-.18.28-.1.18.03-.03.06-.07.07-.11.04-.07.05-.15.06-.23.03-.2,0-.37-.04-.57-.07-.34-.17-.67-.26-1.01-.19-.71-.35-1.43-.55-2.14s-.35-1.36-.57-2.03c-.08-.25-.15-.62-.41-.69l-.21.29s.03.02.04.03c.06.05.17-.05.18-.11h0Z"/>
    <path class="cls-3" d="m23.09,48.95c.16,1.29.38,2.56.66,3.84s.61,2.5.97,3.74c.08.29.14.59.29.86.11.2.35.42.6.38.18-.03.26-.22.32-.38.14-.36.13-.67.05-1.05-.14-.61-.35-1.22-.56-1.8s-.42-1.18-.65-1.76c-.26-.66-.5-1.32-.76-1.98s-.54-1.29-.78-1.94c-.03-.07-.14.03-.14.08h0Z"/>
    <path class="cls-3" d="m24.27,47.58c-.08.43.02.88.1,1.3s.15.84.23,1.25c.17.87.36,1.73.55,2.59s.39,1.67.6,2.5c.1.41.2.83.32,1.23.11.38.22.92.64,1.05.23.07.5-.16.59-.36-.16.22-.18.25-.06.1.03-.05.06-.09.08-.15.05-.11.09-.23.11-.35.03-.23-.02-.51-.07-.74-.08-.41-.21-.82-.32-1.23-.24-.86-.48-1.72-.75-2.57s-.52-1.66-.8-2.48c-.14-.41-.28-.81-.43-1.21-.14-.35-.25-.84-.56-1.09-.08-.07-.21.06-.23.14h0Z"/>
    <path class="cls-3" d="m25.48,46.86c.12,1.5.39,3,.68,4.47s.58,2.93.96,4.37c.09.33.18.67.33.98.13.28.39.6.74.55.23-.04.36-.37.41-.57.1-.41.02-.84-.06-1.25-.15-.71-.4-1.41-.59-2.11s-.41-1.39-.62-2.08c-.46-1.51-.92-3.07-1.64-4.48-.05-.1-.2.04-.2.12h0Z"/>
    <path class="cls-3" d="m26.49,46.73c.12.35.11.77.12,1.13.01.42.13.84.21,1.25.19.91.41,1.81.63,2.72s.44,1.81.7,2.71c.12.42.2.87.4,1.27.09.18.22.4.45.41s.32-.09.42-.27l-.15.17c.42-.32.35-.85.26-1.31s-.25-.9-.39-1.34c-.26-.84-.53-1.68-.79-2.52s-.55-1.64-.82-2.47c-.12-.37-.25-.74-.33-1.12-.08-.33-.19-.62-.48-.83-.1-.08-.28.1-.24.21h0Z"/>
    <path class="cls-3" d="m27.58,45.89c.12.34.16.71.22,1.06s.13.7.22,1.05c.21.84.41,1.68.66,2.51s.51,1.67.76,2.5c.12.4.25.8.39,1.2s.29.77.64,1.02c.06.05.15-.04.17-.1.2-.91-.15-1.81-.43-2.67s-.56-1.68-.82-2.52-.52-1.65-.82-2.45c-.13-.35-.24-.7-.36-1.05-.1-.28-.24-.52-.5-.68-.05-.03-.13.06-.11.11h0Z"/>
    <path class="cls-3" d="m28.92,46.08c.21,1.48.45,2.97.77,4.43.15.69.32,1.37.54,2.04.11.34.22.68.34,1.02.1.28.24.6.55.69.07.02.14-.05.17-.1.32-.66,0-1.4-.23-2.04s-.45-1.34-.63-2.03c-.36-1.39-.66-2.85-1.29-4.14-.05-.11-.24.05-.23.14h0Z"/>
    <path class="cls-3" d="m29.83,46.61c.06.38.21.76.28,1.14.09.51.17,1.02.24,1.54.08.58.23,1.13.37,1.7.1.41.19.83.33,1.23.15.42.35.71.7.98.07.05.18-.05.19-.11.1-.49.13-.93.05-1.42-.07-.41-.21-.82-.33-1.22-.17-.57-.34-1.15-.49-1.73-.13-.49-.24-1-.44-1.47-.12-.28-.33-.84-.72-.81-.07,0-.19.09-.18.18h0Z"/>
    <path class="cls-3" d="m44.23,44.72c-.06.27-.02.55.01.83.06.5.11.99.15,1.49.09,1.1.28,2.17.56,3.24.11.4.19.84.38,1.21.13.25.44.58.73.33.67-.56.11-1.79-.09-2.45-.17-.58-.37-1.15-.48-1.74-.08-.42-.16-.83-.26-1.24-.12-.48-.23-.98-.44-1.43-.06-.12-.16-.28-.3-.33-.08-.03-.23,0-.25.1h0Z"/>
    <path class="cls-3" d="m44.78,43.21c-.02,1.44.27,2.9.52,4.32.12.69.25,1.37.41,2.05.08.35.16.7.28,1.05s.31.53.58.75c.07.05.18-.05.19-.11.07-.36.15-.72.09-1.09s-.14-.72-.22-1.07c-.16-.68-.33-1.37-.49-2.05s-.3-1.33-.48-1.99-.34-1.36-.64-1.99c-.06-.13-.24.06-.24.15h0Z"/>
    <path class="cls-3" d="m45.74,42.53c0,.82.15,1.65.25,2.46s.21,1.64.37,2.45.36,1.6.58,2.39c.11.4.21.8.35,1.18.07.19.13.36.26.52.1.12.28.28.43.31.08.02.16-.05.2-.12.38-.8,0-1.72-.22-2.51s-.46-1.59-.66-2.39-.35-1.53-.53-2.3-.35-1.55-.81-2.16c-.07-.09-.22.09-.22.16h0Z"/>
    <path class="cls-3" d="m46.62,41.83c.04.81.17,1.63.3,2.44s.24,1.62.39,2.42.36,1.54.58,2.29c.21.72.39,1.51,1,1.99.1.08.25-.07.27-.16.08-.42.1-.84,0-1.26-.09-.36-.2-.72-.32-1.08-.25-.75-.51-1.51-.68-2.28s-.34-1.53-.53-2.3-.38-1.54-.76-2.22c-.07-.12-.26.06-.25.15h0Z"/>
    <path class="cls-3" d="m47.49,41.13c0,.46.12.9.18,1.36.06.41.11.83.17,1.24.12.86.24,1.71.38,2.57s.37,1.68.61,2.51c.11.4.22.8.37,1.2.07.19.17.37.27.54.11.18.29.29.41.47.08.11.26-.11.26-.19,0-.26.08-.51.06-.78-.02-.24-.04-.47-.09-.7-.09-.41-.23-.81-.35-1.21-.25-.82-.49-1.63-.69-2.46s-.37-1.64-.58-2.45c-.1-.39-.22-.76-.34-1.14s-.23-.77-.47-1.1c-.06-.09-.2.08-.2.14h0Z"/>
    <path class="cls-3" d="m48.72,41.07c-.05.33.04.72.07,1.05.03.4.07.79.13,1.19.12.88.28,1.76.43,2.63s.37,1.7.58,2.55c.1.4.2.8.33,1.19s.37.72.68.99c.09.08.24-.07.26-.16.08-.47.13-.94.03-1.41-.08-.41-.2-.81-.31-1.21-.23-.84-.51-1.68-.69-2.54s-.39-1.69-.61-2.52c-.1-.37-.19-.75-.3-1.12-.08-.24-.17-.65-.42-.77-.06-.03-.16.07-.17.13h0Z"/>
    <path class="cls-3" d="m49.75,40.38c-.18.83-.07,1.74.02,2.57s.25,1.69.41,2.54.34,1.59.56,2.38c.11.41.22.81.34,1.22.05.17.11.34.19.5s.19.27.3.41c.08.11.24-.09.27-.16.14-.43.22-.83.16-1.28-.05-.39-.15-.77-.26-1.15-.23-.79-.44-1.58-.65-2.38s-.39-1.59-.58-2.38c-.09-.39-.17-.79-.26-1.19s-.12-.8-.25-1.17c-.05-.12-.22.05-.23.11h0Z"/>
    <path class="cls-3" d="m50.69,40.83c-.07.74.15,1.53.27,2.26s.26,1.47.4,2.2.26,1.46.43,2.19c.08.33.17.67.28.99.05.16.13.32.23.46s.25.22.37.33c.09.07.23-.06.24-.15.07-.4.15-.75.09-1.16-.05-.37-.13-.74-.2-1.1-.15-.74-.33-1.47-.5-2.2s-.33-1.42-.54-2.11c-.1-.34-.22-.68-.35-1.01s-.26-.64-.51-.88c-.09-.09-.22.09-.23.17h0Z"/>
    <path class="cls-3" d="m51.78,41.2c-.13.28-.1.59-.08.89.02.35.05.69.09,1.04.08.68.15,1.36.25,2.03s.19,1.33.32,1.99c.06.32.12.68.25.99s.29.48.57.61c.11.05.23-.1.25-.19.24-.7.1-1.34-.04-2.05-.13-.66-.28-1.32-.41-1.98s-.26-1.26-.42-1.88c-.07-.3-.16-.6-.26-.88-.08-.22-.17-.56-.41-.65-.05-.02-.11.04-.13.08h0Z"/>
    <path class="cls-3" d="m52.5,41.99s0,.12.01.17c0,.09.03.18.04.27.03.21.05.43.08.64.05.38.05.77.12,1.14.13.7.27,1.41.5,2.08.11.31.25.6.4.89s.28.6.46.86c.07.1.22-.1.22-.16.03-.4-.03-.8-.03-1.2s-.04-.78-.12-1.17c-.14-.69-.39-1.36-.54-2.05-.08-.37-.14-.75-.29-1.1-.13-.31-.3-.63-.68-.61-.1,0-.24.14-.17.24h0Z"/>
  </g>
  <g>
    <path class="cls-1" d="m37.57,80.42c.05-1.3.35-2.54.92-3.7.28-.57.66-1.06,1.1-1.51.34-.34.71-.48.92-.92.07-.15-.02-.28-.17-.3-1.13-.14-2.08,1.48-2.54,2.32-.67,1.24-.93,2.71-.93,4.11,0,.46.69.46.71,0Z"/>
    <path class="cls-1" d="m38.74,78.7c-.19.38.36.71.57.33.4-.73.9-1.37,1.57-1.87.35-.26.75-.42,1.19-.44.32-.02.58.07.89-.02.11-.03.16-.16.1-.26-.42-.81-1.55-.51-2.21-.2-.98.46-1.66,1.52-2.12,2.45Z"/>
    <path class="cls-1" d="m39.72,81.5c.75-.57,1.56-.95,2.48-1.16,1.06-.24,1.83.25,2.7.77.14.08.34-.05.28-.22-.84-2.63-4.49-1.1-5.88.06-.3.25.11.78.42.54Z"/>
    <path class="cls-1" d="m42.92,83.28c.62.35,1.08.9,1.69,1.26.18.11.47-.07.38-.3-.56-1.45-2.4-2.07-3.8-2.32-.4-.07-.58.52-.17.62.67.17,1.3.39,1.9.73Z"/>
    <path class="cls-1" d="m39.25,83.31c-.3-.29-.74.15-.45.45.42.44.84.88,1.21,1.36.3.38.53,1.1,1.03,1.23.13.03.24-.04.28-.16.18-.49-.34-1.02-.63-1.38-.43-.55-.95-1.03-1.45-1.51Z"/>
    <path class="cls-1" d="m37.12,91.5c1.84-1.43,1.74-3.83.91-5.8-.15-.36-.78-.1-.64.27.73,1.91.46,3.55-.65,5.24-.17.25.18.45.38.29Z"/>
    <path class="cls-1" d="m33.87,87.53c.58-.24,1.02-.67,1.31-1.22.21-.4-.39-.76-.61-.36-.27.48-.63.77-1.15.95-.4.13-.89.1-1.24.35-.13.09-.13.27,0,.36.47.32,1.21.13,1.7-.08Z"/>
    <path class="cls-1" d="m32.96,83.82c.38-.19.05-.72-.33-.56-.44.19-.88.29-1.36.27-.46-.02-.84-.34-1.28-.42-.13-.02-.24.08-.21.21.34,1.36,2.31.93,3.18.49Z"/>
    <path class="cls-1" d="m31.67,81.51c.4.13.55-.47.17-.62-1.56-.61-1.85-1.91-2.18-3.39-.05-.24-.44-.24-.49,0-.34,1.82.79,3.44,2.49,4.01Z"/>
    <path class="cls-1" d="m33.85,79.74c-.54-.9-.85-1.85-1.04-2.88-.17-.92.05-1.82-.09-2.72-.03-.18-.26-.16-.34-.05-1.19,1.62-.04,4.51.93,5.97.23.34.76.04.55-.32Z"/>
    <path class="cls-1" d="m34.92,77.48c-.13-.57-.17-1.14-.17-1.72,0-.54.11-1.07.02-1.62-.02-.16-.24-.15-.31-.04-.66.95-.41,2.49-.16,3.55.1.4.71.23.62-.17Z"/>
    <path class="cls-1" d="m33.6,82.95c.18,1.09,1.22,1.73,2.23,1.95.41.09.59-.52.18-.64-.65-.18-1.31-.54-1.58-1.21-.25-.61.18-1.08.73-1.3.63-.25,1.72-.38,2.16.28.41.61-.44,1.02-.81,1.32-.19.16-.02.43.18.44.98.07,1.7-.97,1.43-1.87-.36-1.21-1.88-1.22-2.86-1.01-.96.2-1.84.98-1.66,2.03Z"/>
  </g>
  <path class="cls-1" d="m57.74,7.25c-.75.14-1.49.29-2.23.45.1-.66.25-1.33.43-1.99.11-.4-.44-.77-.73-.43-.81.95-1.54,1.95-2.23,2.98-.44.1-.87.18-1.31.27-1.14-.88-2.45-1.54-4.09-1.79-.53-.08-.76.73-.22.82,1.21.19,2.24.62,3.14,1.21-.66.12-1.32.24-1.99.32-.49.06-.52.84,0,.8.99-.08,1.97-.23,2.95-.41.17.14.33.28.48.43-.72,1.22-1.39,2.48-2,3.78-.17.36.2.88.6.6,1.09-.76,2.19-1.52,3.26-2.31.62.78,1.22,1.6,1.85,2.41h0s.05.06.07.09c.31.4.91-.11.68-.53-.56-1.05-.87-2.13-.99-3.24.99-.83,1.92-1.72,2.74-2.72.28-.35.02-.81-.43-.73Zm-5.93,5.08c-.11.08-.22.16-.33.23.3-.58.61-1.15.94-1.72.01.06.05.11.09.14-.24.44-.48.88-.7,1.34Zm2.13-1.56c-.06-.06-.11-.12-.17-.19.25-.23.44-.54.56-.87,0,0,0,0,0-.01,0,0,0,0,0,0,.01-.04.04-.07.05-.1.15-.5-.51-.7-.79-.33-.03.04-.06.09-.09.14-.09-.02-.19,0-.27.05.09-.13.18-.27.27-.4.34-.08.67-.15,1.01-.23-.03.49-.02.99.01,1.48-.2.16-.39.32-.59.47Zm1.43-1.19c0-.32.01-.64.04-.96.42-.09.84-.19,1.26-.27-.41.43-.85.84-1.3,1.24Z"/>
  <g>
    <path class="cls-1" d="m28.77,73.73c.15.25.32.5.46.75.23.4.95.13.77-.32-.01-.03-.03-.07-.05-.1,0,0,0,0,0,0,0,0,0-.01-.01-.02-.61-1.47-1.4-2.78-2.37-4.04-.08-.1-.16-.21-.24-.3.64-.5,1.26-1.03,1.84-1.61.33-.17.68-.32,1.05-.44.49-.16.29-.93-.22-.78,0,0-.01,0-.02,0-.05-.17-.17-.3-.39-.3-.83,0-1.65-.05-2.47-.1-.03-.64-.1-1.26-.28-1.91-.02-.07-.06-.12-.1-.16-.05-.21-.08-.41-.13-.63-.09-.36-.71-.4-.77,0-.11.75-.28,1.67-.37,2.57-.96-.08-1.92-.18-2.88-.28-.4-.04-.47.45-.29.69.77.99,1.53,2.01,2.34,2.99-.12.53-.36,1.01-.7,1.45-.48.38-.95.77-1.4,1.2-.36.34.1.92.52.67.6-.35,1.08-.77,1.47-1.25.38-.3.76-.59,1.14-.88.93,1.03,1.94,1.99,3.09,2.77Zm-1.63-6.41c.5.03,1.01.06,1.51.08-.03.03-.05.06-.08.09-.51.28-.98.6-1.44.97,0-.33-.02-.67-.03-1,.02-.04.03-.09.04-.14Zm-3.65-.33c.35.04.69.08,1.04.11-.03.08-.04.17-.01.27.13.41.19.81.22,1.19-.42-.52-.84-1.05-1.25-1.58Z"/>
    <path class="cls-1" d="m30.89,69.28c-.36-.04-.42.53-.08.62,15.49,4.12,24.6,6.62,23.68,24.72-.03.51.75.5.79,0,1.21-17-8.39-23.5-24.38-25.34Z"/>
  </g>
  <g>
    <path class="cls-1" d="m38.18,64.61c4.13,2.39,7.88,4.74,11.29,8.14,3.03,3.03,5.58,6.5,8.37,9.74.24.28.61-.12.39-.39-5.34-6.88-11.24-15.07-19.86-17.96-.28-.09-.44.32-.2.47Z"/>
    <path class="cls-1" d="m35.92,66.68c.34-.43.59-.93.79-1.47.27.39.53.78.77,1.19.23.39.83.04.61-.36-.34-.59-.72-1.15-1.13-1.69.09-.38.15-.76.2-1.15.25-.07.49-.15.74-.2.46-.08.36-.7,0-.83-.22-.08-.44-.15-.66-.22,0-.5-.02-.99-.06-1.44-.05-.49-.67-.58-.84-.11-.15.39-.3.79-.46,1.18-.71-.16-1.42-.29-2.14-.42-.44-.08-.7.47-.31.73.55.36,1.05.8,1.53,1.27-.86.52-1.61,1.21-2.22,2.06-.29.4.24.75.6.6,1.02-.43,1.74-1.13,2.3-1.97.13.14.24.3.36.45-.2.73-.5,1.43-.59,2.18-.03.25.35.4.5.21Z"/>
  </g>
  <g>
    <path class="cls-2" d="m93.87,73.06c2.16-2.07.9-3.77-1.08-4.94.16-.3-.22-.67-.47-.38-.02.03-.05.05-.07.08-.66-.34-1.36-.62-2.03-.84-.09-.1-.24-.16-.37-.12-.26-.08-.51-.15-.75-.21.83-1.65,3.46-9.27.2-8.58-2.36.51-3.54,3.03-4.5,4.99-1.37,2.8-2.65,5.7-3.57,8.68-.09.28.11.47.34.51,1.55,1.19,4.42,1.5,6.23,1.74,1.98.26,4.49.59,6.07-.93Zm-4.16-10.46c.07-.29-.29-.59-.51-.31-.7.84-1.41,1.69-2.1,2.54,1.1-1.67,2.07-3.47,2.98-5.09.03.87-.09,1.73-.3,2.57-.02.1-.05.19-.08.29Zm-1.41,3.86c-.07.13-.06.26,0,.36-.02.04-.02.08-.03.13-.47,1-1.02,1.95-1.64,2.86-.54.8-1.26,1.58-1.55,2.51-.01.03,0,.07,0,.1-.97-.26-1.94-.54-2.93-.8,1.2-3.79,2.74-8.1,5.14-11.26.37-.49,2.07-2.01,2.62-1.24-.08,0-.17.04-.22.14-1.01,1.65-2.05,3.29-3.17,4.87-.99,1.4-2.2,2.74-3.01,4.24-.13.25.17.46.37.29.23-.2.45-.42.68-.64-.8,1.01-1.59,2.06-2.08,3.21-.1.23.16.48.36.28.15-.15.28-.32.43-.48-.05.17.13.34.3.24.13-.09.25-.19.38-.29-.15.17-.3.33-.44.51-.16.21.13.43.33.33,1.86-.98,3.14-3.32,4.31-4.98.21-.3-.19-.57-.45-.42.21-.29.42-.57.64-.83.24-.29-.17-.71-.42-.42-.83.97-1.59,1.98-2.38,2.98-.2.26-.42.51-.64.77.39-.55.77-1.11,1.18-1.64,1.17-1.53,2.37-3.03,3.58-4.53.03-.04.05-.07.06-.11-.34,1.32-.75,2.64-1.41,3.84Zm.99,1.13c-.58.95-1.16,1.9-1.72,2.86-.44.74-1.02,1.47-1.34,2.28-.27-.07-.55-.15-.82-.22.78-.59,1.3-1.52,1.82-2.34.57-.9,1.1-1.82,1.54-2.79.17.07.34.15.52.21Zm.99.37s-.07.06-.09.1c-.41.87-.87,1.71-1.42,2.5-.36.51-.83.98-1.22,1.49.25-.4.47-.82.7-1.21.58-1,1.13-2.01,1.72-3,.11.04.21.08.32.12Zm1.37.55c-.58.67-1.16,1.34-1.75,2-.17.2-.37.39-.58.59.03-.05.07-.11.1-.16.52-.85.96-1.72,1.34-2.64.02-.06.02-.11,0-.16.3.11.59.23.88.37Zm1.26.69s-.07.04-.11.07c-.73.7-1.46,1.4-2.2,2.08-.55.5-1.35.99-1.69,1.66-.04.08-.03.17,0,.24-.18-.02-.35-.06-.53-.08.83-.47,1.51-1.41,2.07-2.1.61-.74,1.2-1.5,1.8-2.26.03.01.06.02.08.04.16.09.36.21.58.35Zm.73.54c-.56.56-1.11,1.13-1.63,1.72-.42.47-1.12.99-1.26,1.63-.02.08,0,.16.05.21-.43.03-.86.02-1.28,0,.63-.29,1.19-.91,1.66-1.38.72-.71,1.43-1.43,2.13-2.15.07-.07.09-.15.1-.22.08.06.16.12.24.19Zm.56,1.43c-.39,1.05-1.46,1.91-2.56,2.06-.09.01-.18.01-.27.02.55-.3.99-.98,1.37-1.41.45-.51.9-1.03,1.36-1.54.14.27.21.55.09.86Z"/>
    <path class="cls-2" d="m87.85,61.1c-1.04,1.81-2.12,3.86-3.49,5.43-.12.14-.36,0-.31-.18.69-1.98,2.25-3.74,3.3-5.55.19-.32.68-.03.5.29Z"/>
  </g>
  <path class="cls-2" d="m21.54,33.94c-.04-.14-.09-.28-.14-.42.02-.06.02-.13-.03-.19-.02-.02-.04-.04-.06-.07-.71-2.1-1.77-4.56-3.79-5.6-1.97-1.01-3.43-.4-4.53,1.44-1.07,1.77.1,4.17.94,6.01-2.46-1.17-8.8-2.06-8.93,1.36-.09,2.28,3.11,3.46,4.74,4.18,3.94,1.74,8.37,2.16,12.57,2.85.26.04.44-.12.51-.31.05.1.08.2.13.3.13.27.55.13.55-.15,0-2.96-1.07-6.58-1.97-9.39Zm-13.78,1.59c.44.31.89.64,1.34.98-.22.09-.36.4-.15.58,1.25,1,2.49,2.01,3.79,2.95.57.42,1.16.87,1.76,1.28-1.31-.29-2.6-.66-3.82-1.13,0-.04-.02-.08-.05-.11-.93-1.06-2.19-1.72-3.32-2.54-.31-.23-.61.1-.57.41-.59-.61-.68-1.18-.45-1.66.84.68,1.72,1.33,2.56,2.01.77.61,1.44,1.39,2.25,1.94.29.19.56-.17.43-.43-.46-.97-1.51-1.68-2.34-2.32-.79-.61-1.6-1.19-2.37-1.81.22-.17.49-.31.8-.43-.02.1.02.21.12.28Zm13.57,1.65c-.9-.8-1.94-1.49-2.86-2.22-1.32-1.06-2.6-2.14-3.82-3.32-.35-.33-.87.19-.53.53,1.33,1.33,2.75,2.55,4.22,3.72.06.05.12.1.18.15-1.26-.6-2.57-1.06-3.81-1.23-.01,0-.02,0-.03,0-.21-.52-.42-1.03-.61-1.56-.45-1.28-1.77-5.73,1.66-5.32,2.04.24,3.38,2.12,4.2,3.99-.51-.41-1.05-.79-1.53-1.17-1.06-.83-2.15-1.58-3.34-2.22-.34-.19-.64.32-.3.52.12.07.23.15.34.22-.01.09,0,.19.09.28.86.87,1.77,1.68,2.68,2.5.78.7,1.48,1.58,2.37,2.13.22.13.41-.12.32-.32-.11-.23-.25-.45-.4-.66.11.08.23.16.35.23,0,0,0,0,0,.01.2.63.36,1.29.49,1.97-.67-.56-1.38-1.07-2.04-1.6-1.14-.93-2.26-1.89-3.32-2.91-.29-.28-.73.16-.44.44,1.15,1.16,2.36,2.26,3.61,3.31.76.63,1.54,1.33,2.39,1.87.04.22.07.44.11.65Zm.32,1.84c.23,1.27.51,2.52.96,3.65-.02,0-.04-.02-.06-.02-1.91-.31-3.95-.57-5.99-.92-.5-.44-1.05-.83-1.62-1.2.56.28,1.13.53,1.72.71.29.09.39-.29.19-.44-1.47-1.13-3.16-2.02-4.69-3.06-.01,0-.03-.02-.04-.03,2.71,1.58,5.49,3.07,8.32,4.4.43.2.8-.41.37-.64-.74-.39-1.48-.77-2.23-1.15-.21-.11-.41-.22-.62-.33,1.06.38,2.11.74,3.08,1.12.45.17.63-.54.2-.71-3.22-1.26-6.53-3.23-9.93-3.92-.03,0-.06,0-.09.02-.65-.29-1.31-.56-1.99-.79-.05-.02-.08,0-.11.03-.33-.21-.66-.43-1-.64.44-.12.93-.18,1.44-.19,1.32-.02,2.54.19,3.69.71-.11-.03-.23-.06-.34-.09-.31-.06-.52.36-.22.53,2.6,1.44,5.42,2.44,8.01,3.95.39.23.74-.37.35-.61-1.92-1.16-4.02-2.47-6.21-3.29.14-.07.23-.2.17-.4-.03-.09-.07-.17-.1-.26.61.38,1.27.68,1.95.95.01.1.06.2.19.26,1.53.79,3.04,1.63,4.6,2.36Z"/>
  <path class="cls-1" d="m45.26,64.43c.93.89,1.85,1.8,2.73,2.73.23.24.55-.11.36-.36-.8-1.02-1.63-2-2.54-2.93-.79-.81-1.67-1.82-2.7-2.3-.21-.1-.49.11-.34.34.63.96,1.67,1.71,2.49,2.51Z"/>
  <g>
    <path class="cls-1" d="m75.76,85.16c-1.73-.26-3.89.95-5.32,1.82-1.63,1-2.96,2.45-3.42,4.32-.11.46.57.65.71.2.55-1.82,1.92-3.06,3.51-4.01,1.44-.87,3.17-1.01,4.59-1.81.2-.11.18-.48-.07-.52Z"/>
    <path class="cls-1" d="m77.47,82.24s.03-.04.04-.05c.15-.2.15-.57,0-.77-.01-.02-.02-.03-.04-.05-.48-.67-1.62-.48-1.62.44s1.14,1.11,1.62.44Z"/>
    <path class="cls-1" d="m77.5,85.51c-.91,0-.91,1.4,0,1.4s.9-1.4,0-1.4Z"/>
    <path class="cls-1" d="m79.84,83.19c-.89,0-.89,1.38,0,1.38s.89-1.38,0-1.38Z"/>
    <path class="cls-1" d="m84.51,85.59c-.8,0-.8,1.25,0,1.25s.81-1.25,0-1.25Z"/>
  </g>
  <path class="cls-1" d="m65.35,48.77c.02-.39-.49-.57-.71-.25-1.64,2.38-5.18,3.43-5.45-.66-.2-3.1,3.62-4.14,6.02-4.1.55.01,1.46.3,1.98-.08,2.36-1.74,2.38-6.79,2.02-9.35-.07-.51-.84-.35-.78.15.31,2.43-.09,4.72-.8,7.04-.67,2.18-2.02,1.3-3.36,1.44-2.34.24-4.24,1-5.45,3.1-1.06,1.84-.02,5.96,2.64,5.75.91-.07,3.01-.77,3.05-1.76-.1,2.24-1.53,8.99-5.37,7.53-.56-.21-1.29-.11-1.88-.15-4.25-.27-1.21,9.32-.34,10.72.2.32.74.08.54-.26-.24-.43-3.21-10.71.08-9.57.82.28,2.03.35,2.93.42,3.85.3,4.79-7.75,4.89-9.98Z"/>
  <path class="cls-2" d="m65.98,24.3c-.05.07-.11.13-.16.2-.22.31.15.71.45.58.58,1.48,1.27,2.98,2.06,4.39-.03.15-.09.29-.11.44-.04.25.3.31.43.15,0,0,0,0,0,0,.09.15.18.29.27.44-.11.29-.23.57-.32.86-.05.15.15.32.28.19.14-.15.26-.32.4-.48.22.34.45.67.68.99-.04.03-.09.06-.13.09-.35.24.03.75.39.6.07-.03.14-.07.2-.1.23.17.57-.02.59-.28,3.56-1.7,6.95-4.49,9.74-7.16,1.52-1.47,4.68-4.83,3.62-7.26-1.81-4.16-8.82.22-10.35,2.89-.04-.25-.09-.51-.15-.77.11-.19.01-.38-.14-.47-1.22-3.84-5.42-8.07-8.51-4.18-1.66,2.08-.41,5.52.33,7.69.14.4.28.8.43,1.21Zm3.44,5.03c-.03-.06-.07-.12-.1-.18.61-.94,1.1-2.01,1.7-2.94.14-.22.31-.44.46-.66-.77,1.23-1.47,2.5-2.06,3.77Zm5.09-7.94c1.08-1.79,2.68-2.91,4.6-3.67.67-.27,1.38-.42,2.1-.47-.88.52-1.67,1.18-2.6,1.63-.09.04-.13.11-.16.18-1.87,2.61-3.81,5.19-5.7,7.79,1.1-1.95,2.01-4.04,2.95-5.97.13-.26-.32-.49-.46-.23-.24.45-.49.89-.74,1.33-.03-.18-.23-.3-.41-.23,0-.02,0-.04-.01-.05,0-.06,0-.13,0-.2.15.06.33.05.42-.11Zm-3.87,9.11c.45-.32.87-.68,1.28-1.06.08.03.16.04.25-.03,2.54-2.22,4.25-5.42,6.45-7.97.3-.34-.28-.73-.58-.39-.11.12-.21.25-.32.37.41-.67.83-1.32,1.25-1.94,1.03-.52,2.23-1.18,2.82-2.2,0,0,0-.02,0-.03.11,0,.22,0,.33,0,2.41.15,1.38,2.78.7,4.07-1.52,2.86-4.1,4.99-6.87,6.86.64-.72,1.25-1.46,1.83-2.23.07.03.15.03.22-.02,1.38-1.04,2.56-2.38,3.78-3.6.27-.27-.11-.72-.39-.45-.69.67-1.42,1.32-2.12,2,1.24-1.78,2.41-3.61,3.59-5.37.22-.33-.28-.67-.51-.35-3.08,4.31-6.05,8.51-9.82,12.2-.65.41-1.28.81-1.89,1.21-.18-.32-.36-.65-.54-.98.06-.07.12-.15.18-.22.02.13.2.22.34.12Zm2.63-9.57c.04.26.07.51.08.76-1.49,1.82-3.56,4.08-4.57,6.43-.13-.26-.28-.51-.41-.77.78-.61,1.43-1.73,1.96-2.39,1.03-1.3,2-2.65,2.94-4.02Zm-.69-2.25c-1.34,1.66-2.74,3.27-4.06,4.95-.26.33-.85.95-.75,1.43.09.44.55.24.71-.01.02-.04.02-.07.03-.1,0,0,.02,0,.03-.02.15-.14.27-.32.39-.49.46-.63.93-1.25,1.41-1.87.84-1.08,1.67-2.18,2.49-3.28.09.23.16.46.23.7-1,1.39-2.04,2.75-3.1,4.1-.54.68-1.46,1.49-2.06,2.32-.33-.68-.64-1.37-.93-2.06.7-.78,1.34-1.6,1.95-2.44,0,0,0,0,.02-.02,0,0,0,0,0,0,.58-.8,1.15-1.6,1.76-2.37.23-.29-.24-.6-.47-.32-1.01,1.22-1.96,2.49-2.97,3.7-.22.2-.43.42-.63.64h0c1.85-1.97,2.86-5.04,3.91-7.45.03-.07.01-.12,0-.17.85.73,1.55,1.72,2.04,2.79Zm-4.76-3.63c-.91,1.36-1.95,3.09-2.31,4.79,0,0,0-.01,0-.02-.58-2.72.83-6.49,4.16-4.56.23.13.44.29.65.45-.13-.02-.27.02-.33.16-.64,1.38-1.3,2.74-2,4.08-.5.97-1.12,1.88-1.6,2.85-.23-.65-.44-1.3-.62-1.97.42-.63.65-1.34.92-2.05.45-1.18.95-2.34,1.59-3.43.18-.3-.26-.61-.46-.31Z"/>
  <path class="cls-2" d="m66.89,21.52c.64-.64.96-1.54,1.34-2.35.46-.95.84-1.94,1.17-2.94.13-.4-.47-.61-.62-.21-.33.87-.7,1.71-1.1,2.54-.43.89-1.04,1.79-1.17,2.78-.03.19.24.32.37.19Z"/>
  <path class="cls-1" d="m64.74,39.31c.76-.49,1.27-1.3,1.82-2.01.65-.83,1.24-1.72,1.78-2.62.22-.36-.33-.69-.56-.34-.5.78-1.05,1.51-1.62,2.24-.61.78-1.4,1.53-1.74,2.46-.07.18.16.37.33.26Z"/>
</svg>