<?xml version="1.0" encoding="UTF-8"?>
<svg id="ICONS" xmlns="http://www.w3.org/2000/svg" viewBox="0 0 100 100">
  <defs>
    <style>
      .cls-1 {
        fill: #273a7c;
      }

      .cls-1, .cls-2 {
        fill-rule: evenodd;
        stroke-width: 0px;
      }

      .cls-2 {
        fill: #e32d73;
      }
    </style>
  </defs>
  <g>
    <path class="cls-1" d="m94.51,61.18c.31.06.54-.17.48-.46-.43-2.34-2.15-4.92-4.57-5.81.35-.32.65-.66.88-.95,1-1.25,1.68-2.7,1.61-4.3,0-.22-.25-.45-.5-.36-.47.17-.92.44-1.34.75,1.31-2.4,2.01-5.36,1.08-7.85-.05-.14-.18-.25-.34-.25-1.36.04-2.35,2.72-2.75,3.72-.11.27-.19.54-.27.81-.14-.12-.3-.23-.45-.33.41-1.1,0-2.04-.73-2.77.1,0,.19-.04.22-.14.39-1.88-.36-3.75-2.28-4.5-1.94-.76-8.22-1.42-6.25-4.53.03-.06.05-.11.05-.16.97.2,1.95.39,2.89.7,1.87.6,2.43,1.63,2.79,3.38.05.26.46.24.53,0,.25-.85.19-1.52-.07-2.06,1.45.7,3.09,1.08,4.47,1.02.22-.01.46-.23.37-.46-.82-1.96-2.51-4.71-4.67-5.67,1.52-.72,2.91-1.63,3.91-2.98.09-.11.06-.33-.06-.42-1.22-.92-2.66-.62-3.97.19.1-.97-.02-1.98-.27-2.7-.45-1.3-1.39-2.01-2.51-2.16.91-2.43-.61-5.4-1.34-7.89-.1-.32-.53-.28-.64,0-1.05,2.61-1.79,5.58.05,8.04.03.04.06.07.1.09-.15.06-.3.1-.45.18-.36.17-.04.66.31.51.24-.11.47-.18.7-.23-.18.32-.37.64-.6.98,0,0,0,0,0,0-.04.01-.07.01-.11.03-.18.06-.24.22-.22.36-.1-.09-.21-.18-.33-.26.22-.48.1-1.16-.05-1.63-.1-.32-.29-.58-.52-.81-.92-1.77-4.09-2.69-5.84-1.84.54-2.26.57-4.86-.06-6.97-.06-.21-.4-.34-.57-.14-1.73,2.13-1.56,4.99-.28,7.3.03.06.08.09.12.12,0,.11,0,.22-.01.33-.11.15-.21.32-.27.51-.02,0-.04-.01-.05-.02-.05-3.02-3.17-4.64-5.91-5.7-.25-.1-.49.14-.5.36-.09,2.86,2.82,5.05,5.59,5.84.03.23.06.47.09.71.04.3.54.27.6,0,.03-.14.05-.27.07-.4,0,.11-.01.2,0,.32.04.41.7.42.67,0-.01-.15,0-.28.02-.41.19-.09.27-.34.12-.48.4-.97,1.66-1.17,2.85-.92.71.15,1.24.44,1.69.81-.39.04-.78.16-1.12.32-.73.34-1.44,1-1.54,1.81-.11.98.8,1.54,1.65,1.81-.02.32.02.66.07.95.08.45.79.26.71-.19-.15-.92.12-1.79,1.25-1.47.1.03.28.1.46.19,0,0,0,0,0,0-.46.37-1.86,1.73-.56,2.06.2.05.41.05.63.01,0,.33-.01.64.06.97.1.47.85.27.74-.2-.07-.33,0-.71-.02-1.06.27-.16.5-.37.63-.59.22-.38.14-.74-.1-1.05.04,0,.09,0,.14-.01,1.24-.34,2.06.21,1.98,1.46-.03.51-.28.99-.58,1.41-.37.52-1,.7-1.42,1.14-.1.11-.08.32.1.35,1.62.28,2.69-1.95,2.69-3.19,0-1.27-.9-1.95-2-1.95.29-.29.52-.59.71-.9,1.08.12,1.88.93,2.24,2.19.22.78.17,1.64-.01,2.42-.03.12-.08.22-.12.33-.87.75-1.61,1.68-2.06,2.52-.2.1-.41.2-.62.34-.03.02-.05.04-.07.07-.61-.44-1.37-.68-2.21-.81.03-.03.05-.07.05-.11.12-2.11-1.34-3.14-3.4-3.36-2.88-.31-6.38,1.09-8.49-1.26.03,0,.05,0,.08,0,3.23-.44,5.63-1.13,8.48.81.2.13.42-.12.32-.3-.91-1.56-2.63-1.89-4.36-1.85,0-.04.02-.08,0-.12-.99-2.6-2.73-2.83-4.71-2.33,0,0,0-.01,0-.02-.72-.86-1.98-1.13-3.14-1.1-.71-.53-1.76-.74-2.6-.92-1.22-.27-2.44-.22-3.63.14-.22.07-.27.28-.19.43-.31.09-.62.21-.93.36.02-.06.02-.13-.05-.19-1.08-.86-2.98-.78-4.32-.41-3.85.1-5.47,5.52-9.49,5.79.11-.12.22-.24.32-.37.75-.91,1.45-1.84,2.27-2.7,1.25-1.32,2.7-1.78,4.37-2.43.22-.08.19-.38-.06-.39-1.36-.1-2.49.3-3.49.98.07-.15-.02-.35-.24-.37-1.84-.23-3.79,1.13-5.1,2.22-.71.59-1.35,1.29-1.87,2.06.11-1.07.11-2.18.08-3.35,0-.28-.35-.41-.56-.22-1.28,1.14-3.04,3.43-3.49,5.58-.51-1.87-1.28-3.74-2.79-4.92-.2-.16-.51-.11-.58.15-.73,2.51.16,5.04,1.86,6.96-.03-.01-.06-.03-.09-.04-1.35-.46-2.78-.18-3.89.5,1.21-1.25,1.63-3.3,1.66-4.88,0-.18-.17-.37-.37-.35-2.57.14-3.37,3.36-2.9,5.35.04.18.18.24.32.24-.14.23.17.48.4.35.03-.01.04-.03.07-.05-.31.3-.57.63-.76,1-.03-2.16-.64-4.43-.71-6.54-.01-.29-.4-.48-.62-.25-1.97,2.09-1.78,5.35.49,7.17,0,0,0,0,0,0,.02.21.05.41.09.62-1.41-1.79-3.16-3.33-5.67-3.23-.25.01-.45.23-.38.48.03.11.09.2.13.31-.15.14-.2.37-.02.52.13.1.27.22.4.33.34.6.77,1.13,1.28,1.59-.22-.08-.45-.15-.68-.17-.72-.08-1.58.18-2.11.7.71-3.35.07-6.67-1.33-9.8-.05-.1-.2-.17-.31-.17-.08,0-.16,0-.23,0-.16,0-.3.1-.34.25-.73,2.73-.92,5.43.13,7.9-.55-.52-1.14-1.01-1.71-1.49-.99-.84-2.08-1.56-3.34-1.96-.29-.09-.48.19-.44.42.35,2.29,2.86,3.54,4.92,4.24.02,0,.03,0,.04,0-.4.02-.8.1-1.15.23-1.1.39-2.12,1.19-2.63,2.22-.13.26-.22.58-.25.91-1.19-1.77-3.27-2.56-4.97-3.93-.25-.2-.63-.07-.64.25-.12,2.71,2.57,4.23,4.87,5.22-1.09-.12-2.15.4-2.8,1.7-.63,1.27-.32,2.4.51,3.12-.46.41-.73,1.11-.7,1.96.04,1.29.82,2.39,1.89,2.9-2.1-.74-4.85-.81-6.77-.1-.31.11-.41.51-.09.69,2.23,1.3,5.34,1.42,7.74.36.04,0,.08,0,.13,0-2.3,2.12-3.75,5.18-3.63,8.23.01.33.42.49.67.27,2.59-2.34,4.4-4.9,4.68-8.18.09-.13.18-.25.27-.38.32.89,1.01,1.63,1.93,2.07.33.16.72.25,1.12.27-2.04,1.36-3.36,3.44-3.99,5.86-.05.19.06.42.28.46,2.8.62,4.73-1.86,5.78-4.32,0,0,0,0,0,0,0,.32.05.65.13.98-.1,0-.2.04-.25.15-1,2.12-1.46,4.3-1.28,6.62.03.4.66.53.77.1.23-.91.58-1.86.87-2.83.29.69.77,1.31,1.36,1.83-.09.06-.15.17-.12.31.22,1.02.58,1.97,1.01,2.89-.02.02-.03.05-.04.08-.79,2.46-.48,4.89.32,7.23-.1-.02-.22.02-.27.14-.83,2-.69,3.68.1,5.58-.06.02-.11.06-.15.13-.88,1.94-.84,3.66.09,5.56-.77,2.01-.67,3.81.3,5.79,0,0,0,0,0,.01-.16,2.15-.88,4.8,0,6.83-2.61.2-5.22.4-7.74-.01-.36-.06-.51.43-.15.53,6.09,1.68,12.41-.76,18.64.89.31.08.52-.37.22-.5-2.33-1.01-4.79-1.2-7.3-1.13.02-.29.02-.57-.01-.86.52-1.37.53-2.96.16-4.42.09-.45.08-.89,0-1.33.25-.98.29-2.01.16-3.01.05-.04.09-.09.1-.17.05-.75-.05-1.46-.23-2.14.59-1.53.33-3.27-.07-4.9.03-.04.04-.09.03-.15-.3-1.35-.8-2.57-1.34-3.75.08,0,.15-.03.18-.1.9-2.04.68-3.94.03-5.78.83-1.83.54-4.14.05-6.01-.01-.05-.04-.09-.06-.12,1.22.07,2.45-.24,3.48-1.06,0,.12.01.25.02.37-1.43,1.69-2.2,3.8-2.01,6.01.03.31.4.5.65.26,1-.92,1.52-2.04,1.77-3.24.38,1.51,1.17,2.88,2.66,3.75.19.11.4.03.52-.13,1.13-1.5.99-3.18.22-4.67.79.38,1.7.54,2.58.38.21-.04.33-.28.27-.46-.4-1.31-1.63-2.46-3.04-2.75,1.93-.54,3.03-2.45,2.46-4.35-.09-.29-.51-.22-.53.07-.12,1.76-.47,3.45-2.62,3.72-.29.03-.57.03-.84,0-.05-.18-.27-.18-.39-.07-.19-.04-.37-.1-.54-.17,0,0,0,0,0,0,.16-.25-.2-.49-.41-.3-.03.02-.05.04-.08.07-.47-.27-.9-.62-1.25-1.03,1.14-.34,1.82-1.36,1.95-2.42,1.36-.36,2.33-1.36,1.92-2.92-.06-.24-.16-.45-.29-.63-.03-.35-.11-.67-.24-.96.25-.23.42-.53.55-.86.79.47,1.44,1.18,1.93,1.93.29.44.5.92.5,1.45,0,.31-.18.51-.42.67-.1-.38-.25-.75-.39-1.07-.14-.3-.66-.08-.55.22.16.44.24.84.28,1.25-.05.03-.1.06-.14.1-.11.09-.05.3.09.33.03,0,.05,0,.07,0,0,.42-.05.85-.18,1.32-.03.12.12.27.25.18.56-.4.73-.96.7-1.55,1.29-.17,1.85-1.45,1.67-2.61-.21-1.41-1.47-2.76-2.79-3.34-.32-.14-.6.3-.28.46,1.03.51,1.77,1.42,2.2,2.44.2.48.23.87.15,1.2-.02-.2-.05-.4-.11-.58-.44-1.23-1.6-2.37-2.85-2.93.04-.3.06-.61.01-.93-.15-1.02-.79-2.09-1.64-2.9.14.07.26.16.41.22.98.39,2.06.19,2.86-.44.22-.17.42-.41.6-.68.07,2.83.84,6.14,3.43,7.37.27.13.56-.03.58-.32.23-2.95.42-6.4-1.76-8.71.44.08.94.07,1.48-.08.87-.24,1.65-.84,2.01-1.64.36-.79.26-1.98-.43-2.6.67-.54,1.02-1.38,1.1-2.26.38.3.67.68.69,1.19.02.67-.84,1.09-1.3,1.46-.19.15.02.39.22.36.94-.16,1.73-.88,1.77-1.82.04-.79-.69-1.37-1.37-1.74-.01-.28-.05-.57-.12-.84-.38-1.49-1.54-2.71-2.97-3.3,1.64-.7,3.15-1.62,4.52-2.75.24-.2.05-.62-.26-.6-.27.01-.55.06-.82.09.36-.31.71-.64,1.04-.99,0,0,0,0,.01,0,.23.03.44.04.66.04-.02.05-.03.1,0,.17,2.87,10.18,7.44,20.15,14.32,28.44,4.98,6,13.27,12.42,21.77,12.68.23,1.32,1.34,2.43,2.67,2.82-4.83,6.06-9.81,12.63-11.47,20.16-.07.32.4.44.51.13,2.64-7.01,6.4-12.75,10.7-18.69-1.54,3.87-3.01,7.95-3.79,11.86-.07.36.48.51.58.15,1.31-4.71,4.19-9.49,4.91-14.34.07-.1.14-.2.22-.3.05-.06.06-.12.05-.18.22-.07.43-.16.6-.31-.38.97-.54,1.96.04,2.95.18.3.38.57.58.83.71,1.93-.53,3.83.32,5.68-1.31,2.03-3.02,4.34-1.08,6.44-.43.71-.62,1.46.4,1.86.09.04.18.06.27.09-.56,1.64-1.23,4.9.23,6.29-5.07-.54-10.06-1.7-15.22-1.42-7.15.39-14.18,3.86-21.27.98-.38-.16-.73.37-.33.55,5.72,2.52,12.32.8,18.21-.28,8.56-1.56,16.71,2.35,25.14.97.35-.06.27-.62-.08-.6-1.83.12-3.64.06-5.44-.1-.59-.99-1.02-1.72-1.08-2.92-.06-1.1.18-2.22.48-3.28.61.16,1.09.3,1.65,1.06,1.18,1.59.11,3.05-.51,4.59-.09.22.26.41.42.23,1.4-1.51,1.87-3.42.75-5.19-.35-.56-.85-1.1-1.52-1.3-1.01-.3-1.81-.3-1.56-1.15.57.22,1.33.16,1.86.14.55-.02,1.09-.06,1.64.02.99.14.89,1.07.79,1.85-.07-.22-.14-.44-.22-.64-.13-.33-.68-.2-.57.15.29.89.42,1.78.38,2.71-.05.99-.56,1.79-.79,2.73-.05.22.21.37.39.21,1.19-1.06,1.32-2.84,1-4.39.08,0,.17-.02.21-.11.74-1.38.54-3.17-1.36-3.3-.95-.07-2.11.21-3.02-.12.05-.23-.26-.39-.45-.22-1.6-1.06.15-3.73,1.17-5.32.15.1.3.19.44.26,1.9,1.07,1.37,2.75.89,4.49-.08.29.33.44.49.2.77-1.16,1.33-3.17.35-4.4.02-.01.04-.01.05-.03.5-.55.61-1.31.56-2.05.2-.54.18-1.07.02-1.59,1.44-1.56,2.07-3.79.61-5.53-.2-.24-.72-.51-.98-.65-1.91-1.08-1.74-2.59-1.43-4.32.17-.95.13-1.72-.13-2.47,1.66,1.6,1.54,3.44,2.1,5.58.07.26.47.2.48-.06.06-1.62-.02-2.73-.36-3.67.07.08.14.16.21.24.56,2.93,1.76,6.03,4.36,7.77.18.12.45.03.54-.14,1.76-3.01-.92-6.69-3.82-8.45.33-.21.64-.52.88-.72.58-.47,1.16-.96,1.7-1.47.23-.22.07-.64-.27-.63-.84.02-1.79.2-2.59.47.47-1.37.5-2.75.17-4.15.99,1.53,2.53,2.71,4.41,3.08Zm-23.61-41.45c-.08-.11-.16-.22-.24-.33-.23-.31-.76-.03-.54.3.26.4.53.79.8,1.19-1.86-.86-3.58-2.23-3.83-4.12,1.21.47,2.42.99,3.4,1.84.42.36.7.77.89,1.19-.12-.17-.33-.17-.47-.07Zm2.22-.22c-.65-1.65-.77-3.57.11-5.12.27,1.72.06,3.41-.11,5.12Zm5.84,4.63c-.56-.12-1.14-.02-1.56.37-.15.14-.25.3-.32.48-.49-.22-1.11-.59-1.02-1.14.09-.55.63-.95,1.11-1.2.46-.24,1.06-.35,1.56-.17.26.34.51.71.77,1.1.03.25.04.52.07.76-.22-.09-.43-.16-.6-.2Zm2.86-1.24c-.14.02-.27.05-.41.08.03-.07.02-.15-.04-.24-1.27-1.87-1.25-4.57-.38-6.68.26.99.63,1.96.95,2.93.48,1.5.39,2.7-.12,3.9Zm-54.86,3.07c.05.99.17,1.98.29,2.98.07.6.12,1.21.17,1.82-1.12-1.38-1.32-3.26-.46-4.8Zm-13.07,2.68c1.46.69,2.52,1.86,3.7,2.88-1.47-.62-3.06-1.47-3.7-2.88Zm-4.79,4.17c.83.57,1.73,1.07,2.54,1.66-.08.08-.12.2-.08.33.14.41.33.83.59,1.22-1.41-.75-2.74-1.76-3.04-3.21Zm-2.65,14.48c1.2-.26,2.39-.18,3.66.05.42.08.84.2,1.27.31-1.62.36-3.42.25-4.92-.36Zm21.47,17.67c.02-.38.07-.75.15-1.12.1-.02.2-.06.27-.16.25-.36.46-.73.64-1.12-.18.86-.51,1.68-1.05,2.4Zm6.98-3.35c-.86.02-1.68-.33-2.36-.84-.38-.29-.65-.61-.84-.97,1.37-.08,2.64.62,3.2,1.81Zm-4.71-1.73s.04-.08.04-.12c1.81,1.58,3.44,3.87,2.09,6.1-1.76-1.23-2.31-3.4-2.42-5.47.1-.17.19-.34.29-.5Zm2.43-36.77c.71.73,1.21,1.63,1.59,2.61-.22-.1-.53,0-.51.29,0,.03.01.06.02.09h0s0,.01,0,.02c.07.72.34,1.37.72,1.96.18.44.38.87.59,1.3-1.67-1.66-2.84-3.98-2.41-6.27Zm-3.59,6.56c-.29-1.41.15-3.92,1.83-4.35-.06.91-.24,1.78-.62,2.63-.29.66-.77,1.18-1.21,1.73Zm4.83.36c1.08.45,1.95,1.33,2.54,2.29.58.94.5,1.64.1,2.32-.62-.18-1.29-.24-1.88-.16-.08.01-.15.03-.23.05-.04-.87-.29-1.89-1.04-2.43-.5-.36-1.17-.37-1.7-.06-.53.32-.82.93-.71,1.52.16.88,1.08,1.38,1.87,1.67.03.01.06.01.09.01-.07.07-.12.17-.19.25-.02-.05-.06-.11-.12-.14-1.03-.62-2.21-1.01-3.39-.87-1.72-2.75,1.72-5.67,4.67-4.44Zm1.38,6.53c-.4.1-.77.41-1.03.8-.04.02-.07.04-.11.06-.12-.17-.3-.32-.38-.57-.07-.22-.33-.29-.52-.22-.07-.52.14-1,.87-1.28.6-.23,1.32-.25,1.99-.1-.1.13-.21.25-.33.38-.18.19-.01.52.27.45.37-.1.67-.28.9-.51.16.09.31.18.44.3.49.42.61,1.03.5,1.64-.1.6-.55.91-1.09,1.04,0-.02.02-.03.01-.05-.07-.83-.31-2.25-1.52-1.95Zm-2.07-1.53c.03-.14-.02-.31-.2-.38-.55-.22-1.19-.57-1.36-1.16-.1-.34.08-.7.37-.89.32-.22.72-.21,1.02.03.61.49.65,1.4.71,2.09,0,0,0,0,0,.01-.2.08-.38.18-.54.3Zm-5.13-.24c-.82.37-1.49.99-1.89,1.77.01-.82-.25-1.69-.82-2.51-.11-.15-.23-.31-.36-.45.95.53,2.01.92,3.06,1.19Zm-10.99,5.33c.23,1.91,2.7,3.73,4.45,1.99,1.67-1.67-1.13-3.59-2.83-3.51-.2,0-.38.16-.37.36.02.43.06.88.46,1.14.29.18.57-.22.36-.44-.05-.05-.07-.19-.07-.33.86.08,1.64.57,2.09,1.28.58.89-.76,1.38-1.44,1.43-.73.05-1.27-.51-1.6-1.05-.62-1.03-.38-2.27.37-3.14.27-.32.61-.51.97-.62.08.01.15.04.23.05.06.1.2.13.3.06.69.18,1.36.46,1.92.78.54.31,1.03.73,1.4,1.23.01.04.02.09.03.13-.08.12-.03.29.07.39.1.83-.13,1.68-.8,2.29-.95.88-2.57.78-3.75.53-1.16-.25-2.39-.83-3.13-1.75-.99-1.23-.05-2.46,1.05-3.23.42-.3.9-.45,1.4-.52-.81.7-1.25,1.77-1.11,2.94Zm6.43,2.3c.94-.7,1.18-1.8.76-2.81.72-.4,1.22-.94,1.54-1.55,0,.23.04.45.1.67-.06,0-.12,0-.18.02-.44.16-.28.62-.22.94.02.09.15.17.24.13.16-.06.32-.15.36-.32,0-.03,0-.04,0-.07,0,.01,0,.01,0,.03.08.19.13.39.18.58.24.97.1,2.03-.14,2.98-.08.32-.19.63-.33.93-.77.38-1.42.97-1.9,1.68-.59-.1-1.15-.64-1.52-1.08-.04-.05-.09-.07-.14-.08,0-.05,0-.09,0-.14.6-.54,1.06-1.21,1.23-1.91Zm-.84-12.15c-.04-.08-.07-.18-.11-.27,1.65.13,2.91,1.08,3.95,2.27-1.28-.67-2.61-1.25-3.84-2Zm-2.32,3.77s.07,0,.1-.03c.73-.45,1.1-1.1,2.07-1.07.93.03,1.73.78,2.23,1.46,1.24,1.67.9,3.6-.76,4.67-.47-1.35-1.73-2.46-3.25-2.64-.16-.02-.3,0-.45,0,.18-.79.27-1.63.05-2.38Zm-1.45-10.01c.13-.55-.02.11.2.68.33.86.55,1.75.75,2.65.37,1.63.35,3.29.07,4.92-1.65-2.53-1.7-5.31-1.02-8.25Zm-4.74,13.04s.03-.01.05-.02c.15.23.36.43.65.55.23.1.45-.1.34-.33-.39-.8-.79-1.31-.34-2.2.4-.79,1.19-1.38,2.01-1.75.72-.33,1.71-.48,2.35.07.79.68.7,2.03.55,3.07-.11.02-.23.03-.34.06-.46-.05-.92-.07-1.38-.02-1.05.12-2.22.79-2.9,1.7-.38-.35-.79-.6-1.22-.77.16-.07.26-.24.22-.38Zm-3.88,18.13c.16-2.28,1.18-4.52,2.79-6.23-.76,1.34-1.49,2.69-2.15,4.08-.2.42.42.8.66.37.73-1.29,1.45-2.5,2.22-3.7-.6,2.08-1.86,3.85-3.53,5.48Zm4.74.62c.47-1.56,1.25-2.96,2.37-4.07-.15.3.32.67.67.41.63-.47,1.24-.98,1.85-1.48-.72,2.3-2.35,5.36-4.88,5.14Zm5.39-6.71c.05-.09.11-.18.14-.28.06-.19-.17-.34-.34-.25-.48.27-.84.65-1.39.82-.56.17-1.15.02-1.65-.22-1.03-.49-1.67-1.56-1.64-2.64.01-.4-.62-.4-.65,0-.01.2,0,.4.02.59,0,0-.01,0-.02.01-.01-.05-.03-.09-.06-.13,0-.08,0-.16,0-.25-.01-.25-.26-.34-.44-.27-1.62.06-2.87-.22-3.35-1.92-.25-.9-.04-1.79.54-2.04.36.17.78.27,1.23.32.06.54.34,1.03.94,1.25.17.07.37-.13.31-.29-.12-.33-.37-.57-.5-.89-.16-.38-.09-.76.08-1.12.16-.36-.37-.68-.56-.31-.08.15-.14.31-.18.48-.45-.23-.88-.3-1.25-.24-1.93-1.4.43-5.51,3.17-2.93-.1.22-.18.45-.21.69-.17,1.38.91,2.43,2.05,3.1,1.56.91,3.9,1.27,5.57.57-.54.68-1.1,1.26-2.15,1.53-1.67.43-3.11-.83-3.89-2.09-.2-.33-.73-.03-.53.3.89,1.53,2.31,2.68,4.23,2.53.64-.05,1.29-.31,1.87-.7,0,1.53-1.21,2.29-2.89,2.21-.72-.04-1.44-.26-2.04-.62-.61-.37-.56-.74-.62-1.34-.02-.24-.29-.35-.48-.19-.61.52-.16,1.4.31,1.84.69.65,1.73.9,2.66,1,1.94.21,3.36-.74,3.6-2.3.37.41.8.77,1.3.93-.39.77-.6,1.63-.57,2.48-.83.17-1.6.63-2.12,1.31.02-.09.05-.19.07-.28.05-.24-.1-.4-.3-.43-.03-.11-.11-.2-.23-.22Zm5.63.39c.72-.44,1.64-.67,2.4-.72,1.14-.07,2.04.28,2.62.93-.15.1-.32.18-.51.26-.87-.25-1.86-.27-2.62-.16-.47.07-.89.22-1.26.43-.18-.29-.39-.54-.63-.74Zm.55,2.61c-.24.19-.43.44-.53.8-.04.15-.05.3-.04.45-.19-.12-.36-.25-.51-.4.02-.09.04-.18.06-.26.16-.53.43-.96.77-1.31.03.18.08.37.17.59.02.05.05.09.08.12Zm-.46-1.5c-.51.43-.88.99-1.13,1.61-.09-.2-.15-.42-.17-.67-.06-.66.2-1.2.64-1.62.24.18.47.4.66.68Zm-1.76.17c-.32-.43-.52-.91-.62-1.4.43,0,.87.09,1.28.29-.31.33-.53.71-.66,1.12Zm-.3.66c.06.06.12.09.18.1,0,.36.06.74.2,1.11.07.19.18.35.29.51-.16.97-.02,1.98.43,2.74-.92.49-1.66.62-2.6-.21-.56-.5-.95-1.16-1.22-1.86.16-.29.36-.57.61-.83.26-.29-.17-.7-.44-.42-.15.16-.29.32-.42.48-.03-.1-.06-.21-.08-.31-.37-1.74.72-2.97,2.07-3.29.14.7.45,1.38.98,1.98Zm-1.69,8.04c.86.59,1.9.97,2.96,1.1-.1.06-.18.16-.16.31.17,1.05.26,2.1.26,3.17,0,.58-.08,1.14-.13,1.71-.9-2.1-2.22-4.15-2.94-6.29Zm.68,3.52c.33.65.67,1.29,1.03,1.94,1.35,2.47,1.49,4.52,1.17,7.19-1.38-2.88-2.9-5.53-2.2-9.13Zm.52,30.53c.02-1.07-.16-2.14-.11-3.23.04-.83.12-1.65.17-2.48.36.58.76,1.15,1.11,1.73.76,1.23,1.03,2.47,1.3,3.82-.82.04-1.65.09-2.47.16Zm2.61-2.82c-.29-.69-.67-1.36-1.07-2-1.5-2.42-2.51-4.31-1.96-6.98.52.86,1.15,1.66,1.71,2.49.34.5.58,1.01.79,1.52-.16.04-.3.22-.21.41.74,1.55.76,3.02.74,4.55Zm.11-5.51c-.32-.63-.71-1.23-1.08-1.79-1.66-2.47-3.14-4.5-2.13-7.47.93,1.97,2.03,3.68,2.84,5.62,0,.02-.01.03,0,.05.37,1.22.43,2.39.38,3.58Zm-.18-9.24c.11.83.22,1.67.3,2.51.05.57.03,1.13.02,1.69-1.45-3.34-4.6-6.13-3.34-10.24.77,2.1,1.92,4.12,3.03,6.04Zm3.2-17.48c-1.84,1.44-3.91,1.99-6.2.76-1.83-.98-2.6-2.75-2.16-4.44.37.65.85,1.23,1.41,1.67.98.76,2.38.8,3.24-.03.54.53,1.31.82,2.32.7.37.53.86.99,1.4,1.34Zm-1.18-2.14s-.06-.09-.09-.14c-.17-.3-.59-.09-.54.2-.24,0-.5-.03-.78-.11-.33-.09-.59-.26-.78-.47-.02-.06-.06-.1-.11-.13-.38-.51-.48-1.23-.44-1.9.27.19.59.35.92.47.19.32.46.6.76.8.83.55,1.68.29,2.32-.32.02,0,.05,0,.07,0,.07,0,.14-.02.22-.02-.17.74-.68,1.41-1.54,1.62Zm-.57-3.89c1.02-.24,1.68.18,1.99.83-.15.3-.37.59-.64.82-.68,0-1.38-.1-2.01-.32-.24-.55-.03-1.17.66-1.33Zm.93-.71c-.43-.06-.88-.04-1.28.06,0,0,0,0,0,0-.43-1.08.24-1.41,1.25-1,.7.29,1.17.83,1.27,1.46-.32-.26-.73-.44-1.24-.51Zm2.08,2.11c-.03-.27-.1-.53-.21-.78.18-.71.12-1.44-.3-1.96-.24-.3-.58-.55-.94-.73.71.03,1.42.21,2.01.57.33.2.54.45.66.72,0,.07.02.14.01.22,0,.06.03.1.08.13.1.75-.46,1.54-1.31,1.84Zm1.13-6.67c.4.94.29,1.65-.22,2.18-1.27-1.34-3.91-1.4-5.73-.31-.05.03-.09.07-.14.1-.59-.37-1.27-.53-1.94-.51-.01-.81.22-1.62.64-2.34.16-.02.33-.05.5-.12.76-.3,1.26-1,1.61-1.74.71-.28,1.51-.36,2.36-.14,1.36.35,2.42,1.67,2.92,2.86Zm-4.41-4.13c.12-.09.24-.17.36-.26.33-.13.57-.37.81-.61.22-.18.44-.37.65-.57-.05.89.23,1.76.84,2.44-.23-.13-.47-.24-.71-.33-.88-.3-1.72-.32-2.48-.14.02-.06.04-.12.06-.18.04-.12.06-.24.09-.36.11.07.24.09.37,0Zm-.24-2.95c.32.18.69.27,1.07.32-.41.26-.74.62-.97,1.05.01-.46,0-.92-.09-1.37Zm8.02.52c-.3.56-.25,1.23-.39,1.84-.13.53-.35,1.03-.73,1.44-.56.63-1.41.73-2.2.49-1.85-.56-2.33-2.49-1.69-4.02.3-.05.59-.13.85-.24.5.5,1.15.96,1.78,1.02.16.02.27-.19.19-.31-.33-.46-.88-.77-1.34-1.15.06-.15-.06-.33-.25-.35-.04,0-.08,0-.12,0-.6-.65-.86-1.53-.62-2.37.07-.25-.3-.34-.4-.1-.37.91-.34,1.73.19,2.56-.12-.12-.35-.16-.48.02-.03.04-.05.09-.08.13-.25.06-.51.12-.76.14-.56.04-1.15-.01-1.65-.27-.79-.4-.95-1.29-.76-2.06.23-.92.95-1.65,1.82-2.04.21-.09.42-.15.63-.19.09.03.2.01.27-.04,1.01-.1,2.08.27,2.94.72.07.04.15.04.21.03-.32.9.23,1.87.79,2.57.12.16.37.2.54.12.06.44.56.65,1.12.74,0,.44.06.86.19,1.23-.03.02-.06.04-.08.07Zm-.21-2.8c.14-.22.36-.46.62-.56.05-.02.1-.02.15,0,.12.61-.04.96.4,1.39-.22,0-.43,0-.62-.03-.79-.1-.99-.1-.55-.79Zm3.31,12.54c-2.29-1.57-2.7-5.39-2.64-7.99.07-.34.11-.68.08-1,.09.12.21.2.32.3-.05.06-.08.14-.04.24.21.6.37,1.21.5,1.83.14.67.18,1.4.54,1.99.08.14.33.12.37-.05.15-.72,0-1.57-.25-2.37,1.39,2,1.29,4.66,1.12,7.05Zm2.03-16.57c.38.71.5,1.55.33,2.34-.22,1.04-1.12,1.39-1.93,1.93-.19.13-.15.49.13.47.36-.03.66-.13.94-.26.19.71.57,1.28.23,2.04-.27.6-.87,1-1.5,1.2-1.68.55-2.75-.64-2.84-2.12.36.02.69,0,.88-.01,1.34-.12,2.18-1.01,2.22-2.28.03-.98-.54-1.69-1.34-2.13.31-.66.33-1.47.12-2.17-.13-.44-.36-.88-.65-1.29.05,0,.11,0,.18-.01.12-.03.22-.08.34-.12,1.26.36,2.27,1.25,2.89,2.42Zm-3.36-4.03c-.22.27.02.63.28.63-.03.04-.06.08-.08.12-.03.05-.04.1-.04.15-.27-.04-.55-.05-.82-.04-.04,0-.07.01-.1.02-.09-.09-.19-.17-.29-.25.06-.08.08-.18.04-.27.06-.02.1-.06.15-.11.06.08.11.16.17.23.3.33.78-.15.5-.48-1.59-1.87.55-5.43,2.2-7.22-.06,2.64-.18,4.97-2.02,7.2Zm2.81-.27c-.06-.04-.12-.07-.21-.07-.14,0-.29,0-.44-.01.65-.45,1.42-.76,2.22-.92-.51.36-1.02.7-1.56,1Zm-1.21-.84c.05-.11.12-.21.17-.31.11-.02.21-.09.24-.23.47-1.66,1.41-3.01,2.66-4.22,1.46-1.42,3.07-1.87,4.93-2.51-2.8,2.04-4.65,6.15-8.01,7.28Zm53.71,21.62c-.09,1.1-.59,2.1-1.27,3.02-.28.38-.6.67-.95.92.47-.5.88-1.08.85-1.66-.01-.29-.34-.39-.56-.22-.1.07-.18.16-.27.24.54-.95,1.26-1.79,2.19-2.3Zm-.55-7.47c.26-.32.21.79.25,1.1.11.93-.08,1.87-.28,2.77-.19.81-.49,1.57-.84,2.33.13-.86-.03-1.87-.17-2.56-.09-.42-.73-.23-.66.17.1.6.13,1.21.1,1.82-.03.56-.27,1.1-.24,1.65-.06-.12-.12-.24-.17-.36.6-.96.41-1.88-.16-2.63.32-1.59,1.24-3.19,2.17-4.3Zm-2.42,9.49c-.43.75-.73,1.55-.88,2.32-.72-.82-1.52-1.6-2.09-2.43-.05-.07-.09-.15-.14-.22,0-.01-.02-.02-.03-.03-.58-.96-.81-2-.23-3.28.12.1.25.2.38.3.82.59,1.7,1.1,2.43,1.8.53.51.63,1.02.54,1.54Zm-.5-4.96c-.13.92-.06,1.85.31,2.69-1.56-1.48-4.22-2.24-3.91-4.6.15.08.31.17.47.24.84.39,1.72.7,2.52,1.17.26.15.45.32.6.49Zm-.85-1.5c-.86-.43-1.85-.77-2.65-1.25-.05-.07-.13-.12-.22-.14-.78-.52-1.34-1.2-1.34-2.31.88.35,1.78.64,2.63,1.08,1.2.63,1.41,1.48,1.59,2.61Zm-6.72-7.66c1.29.48,2.66.72,3.96,1.17,1.93.67,1.97,2.19,2.38,3.85-.45-.4-1-.72-1.54-.96-2.17-.97-4.9-1.4-4.91-4.1.04.01.07.03.11.04Zm4.26-9.36c.68-.51,1.43-.9,2.19-1.09.64-.16,1.42,0,.77.67-.52.53-1.16.94-1.8,1.32-.17.1-.36.19-.54.29.43-.34.85-.68,1.25-1.06.3-.28-.1-.8-.45-.56-.55.37-1.05.79-1.6,1.17-.1.07-.14.16-.14.24-.14.1-.27.2-.4.3.33-.35.57-.79.73-1.27Zm-2.72,3.35c.7-.25,1.4-.5,2.09-.78,2.12.46,3.79,3.01,4.69,4.96-2.46-.08-4.81-1.42-6.38-3.21,0-.02.01-.03,0-.05-.02-.07-.05-.11-.08-.17.31.37.65.7,1.08.97.44.27,1.13.57,1.63.35.13-.06.13-.23.04-.32-.31-.34-.91-.39-1.32-.61-.47-.25-.84-.63-1.17-1.02-.15-.18-.41-.08-.51.09-.04-.07-.09-.12-.14-.18.02,0,.04,0,.06,0Zm-.61.61s0,.05.02.07c.23.51.56.99.96,1.42-3.03-1.03-7.46-1.04-7.43-3.23,2.37.19,4.68.12,6.45,1.73Zm-10.37-4.77c3.2.05,6.28-1.07,7.68,2.51,0,.01.02.02.03.03-1.19-.15-2.5-.13-3.74-.2-.1-.21-.44-.26-.59-.04-.13-.01-.25-.03-.37-.04,0,0,0,0,0,0-.01-.31-.44-.33-.52-.07-1.39-.25-2.53-.81-3.02-2.19.18.01.36.02.54.02Zm-4.23-5.28c2.06-.6,3.15.37,4.32,1.78-3.13.19-6.02,1.37-9.03,0,.33-.1.66-.21.98-.34,1.25-.48,2.44-1.07,3.73-1.44Zm-2.8-1.12c.26.02.51.03.77.08.53.1.97.35,1.42.57-2.67.86-5.64,2.58-7.75,1.44,1.71-.9,3.02-1.88,5.29-1.87.16,0,.25-.1.27-.22Zm-5.08-.7c.19-.06.23-.23.16-.37.79-.04,1.57.04,2.38.22.35.08.67.21,1,.34-.99.06-1.95.47-2.83.94-2.07,1.12-3.61,2.4-6,1.79,1.69-1.09,3.2-2.31,5.3-2.93Zm-9.6,1.55c1.12-1.03,2.32-1.28,3.78-1.57.09-.02.14-.08.17-.16.32,0,.64,0,.96.04.66.05,1.3.31,1.97.29-2.87,1.57-5.36,5.07-8.56,3.12.55-.58,1.09-1.17,1.69-1.72Zm32.95,47.46c-.11.14-.22.28-.33.42-1.05-.55-2.06-1.03-2.43-2.23.05,0,.11,0,.16,0,.3.51.71.96,1.24,1.26.15.11.32.2.5.26.28.1.59.15.91.17-.02.04-.03.08-.05.12Zm.32-2.06s0,0,0,0c0,0,0,0-.02-.01-.15-.07-.29-.13-.44-.2-.01,0-.02-.02-.03-.02-.45-.25-.7-.46-1.23-.26-.03.01-.03.03-.06.04-.09,0-.18,0-.27,0-.05-.01-.11-.02-.16-.04-.1-.03-.18,0-.26.03-21.29-.8-30.82-24.39-36.84-40.57,0-.02-.02-.03-.03-.05.99-.1,1.85-.47,2.66-1.04.09.55.35,1.01.75,1.45.07.08.18-.02.14-.11-.26-.53-.53-1.01-.59-1.58.15-.11.3-.22.44-.35.39,1.64.95,3.27,1.76,4.75.11.21.43.06.38-.15-.42-1.7-1.14-3.34-1.71-5,.03-.03.06-.06.09-.09,0,0,0,.01.02.02,1.45,1.1,2.9,1.02,4.52.25.41-.19.8-.41,1.17-.63.38.16.74.28,1.11.36-.07.05-.12.13-.13.24-.43,7.46,4.88,15.9,9.2,21.76.18.24.59.02.42-.23-4.38-6.42-8.43-13.75-8.97-21.52,0-.07-.03-.12-.06-.17.94.12,1.86-.05,2.85-.47.12-.05.23-.1.34-.16.01,1.51.29,3.33,1.32,4.48.13.14.33-.01.29-.16-.27-1.37-.8-2.63-.99-4,.27.15.55.25.83.32-.05.06-.08.14-.06.23.19.96.36,1.98.76,2.88.09.21.48.21.46-.06-.09-1-.35-2.01-.65-2.97.56.07,1.14.02,1.71-.1.01.09.06.17.16.23,1.55.89,3.17,1.11,4.91.98.74,1.26,1.98,1.79,3.38,1.99.3,1.88,1.88,2.65,3.75,2.96.06,1.63.39,3.25.98,4.78.09.25.44.15.4-.11-.22-1.54-.62-3.05-.78-4.59.04,0,.09.01.13.02-.07.66.15,1.17.54,1.57-.05.04-.09.09-.08.16.2,1.68.46,3.46,1.25,4.99.07.13.32.08.3-.08-.14-1.6-.71-3.15-1.05-4.72.66.44,1.55.71,2.4.91.17.04.33.07.5.11-1.35,1.84-.07,3.15,1.63,3.95-.23,1.96.81,3.16,2.52,3.97,0,.01,0,.02,0,.03-.2,1.45.5,2.45,1.57,3.19-.31,1.22.03,2.23.82,3.1,0,0,0,0,0,0-.78,1.42-1.1,2.86.04,4.23.16.19.33.38.5.56.82,2.74-2.04,4.95-1.36,7.91.11.47.46.91.86,1.29.87,1.3.84,2.28.7,3.45-.03.04-.04.08-.05.13-.08.55-.3,1.1-.56,1.66-2.73-7.57-2.33-14.96-3.09-22.85-.02-.26-.43-.27-.43,0-.01,7.46-.4,15.47,2.61,22.5-.34-.17-.66-.37-.98-.55-4.59-4.41-6.6-10.36-8.83-16.14-2.78-7.21-4.59-14.71-6.57-22.15-.07-.28-.51-.16-.45.12,1.97,8.26,4.12,16.36,7.13,24.33,1.53,4.05,3.14,8.6,5.98,12.11-8.89-6.45-13.39-17.56-18.36-26.75-.07-.13-.3-.04-.25.1,2.72,6.61,5.87,12.83,10.13,18.66,2.69,3.68,6.2,8.69,10.85,10.4.23.19.48.37.73.55-.21.04-.42.11-.62.17Zm1.23.96c-.04-.05-.1-.1-.18-.12-.2-.06-.41-.12-.62-.18.27-.09.53-.21.72-.38.04-.03.05-.07.06-.11.23-.03.41-.35.2-.53-.02-.02-.04-.04-.07-.06.02-.02.04-.05.06-.08.12.27.24.53.37.79-.13.26-.26.51-.37.77-.04-.06-.1-.09-.17-.1Zm3.35,10.04c-.04.25-.08.5-.13.76-.04-.03-.06-.07-.1-.09-.29-.21-.57-.37-.89-.53-.17-.08-.3-.18-.42-.29.02-.04.05-.08.07-.12.16-.3-.17-.57-.42-.49-.24-.74,0-1.68.14-2.4.1-.52.11-.97.04-1.4.67.66,1.29,1.28,1.57,2.1-.07.11-.15.23-.22.34-.16.24.16.43.37.3.05.44,0,.95-.16,1.54-.03.11.04.22.14.27Zm-.4-8.32c2.19,1.22,1.78,3.13.85,4.88-.22-.35-.5-.69-.82-1.01-1.36-1.38-2.87-2.24-2.36-4.48.15-.67.44-1.25.73-1.84.01.5.08,1.02.35,1.38.36.49.71.77,1.25,1.07Zm1.84-9.52c-.04.7-.14,1.38-.29,2.07-.06.28-.14.56-.22.84-.14.06-.2.26-.08.38,0,.05-.02.09-.03.14-.51-.91-1.35-1.71-2.65-2.77-2.48-2.04.11-4.68.83-6.65.11-.29.14-.58.13-.87.38.41.75.82,1.08,1.27.03.05.06.09.09.14-.09.17.04.39.25.39,0,0,0,0,.01,0,1.02,1.61,1.21,3.16,1.06,4.84-.1.03-.19.1-.2.24Zm4.34,11.22c-1.78-1.36-2.78-3.5-3.4-5.64.11.13.23.27.34.4.58.69,1,1.6,1.67,2.19.12.11.34.04.34-.13-.02-.8-.62-1.52-1.12-2.13-.4-.48-.82-.94-1.25-1.4,2.17,1.77,4.59,4.08,3.42,6.71Zm-3.49-9.33c.43-.06.85-.16,1.27-.25-.22.19-.44.38-.66.57-.33.27-.87.55-1.18.91-.02-.02-.02-.04-.04-.05.15-.4.24-.84.29-1.28.08.07.19.12.33.1Zm-.32-7.47s.02-.01.04-.02c.89.48,1.75.93,2.51,1.64.92.87,1.48,2,1.8,3.18-2.19-.71-3.81-2.66-4.34-4.81Z"/>
    <path class="cls-1" d="m77.09,50.51c-1.12-5.1-3.04-10.02-3.94-15.18-.04-.22-.43-.17-.4.05.71,5.23,2.57,10.15,3.99,15.22.06.22.41.13.36-.09Z"/>
    <path class="cls-1" d="m68.64,54.28c-4.51-6.01-9.36-11.5-13.03-18.08-.1-.17-.35-.02-.27.15,3.16,6.58,7.56,13.08,13.08,18.09.11.1.31-.03.22-.16Z"/>
    <path class="cls-1" d="m59.64,47.09c-.17-.25-.58-.02-.42.23,2.84,4.46,6.97,8.64,11.77,11.18.17.09.37-.14.21-.26-4.26-3.49-8.52-6.54-11.56-11.15Z"/>
    <path class="cls-1" d="m80.33,54.35c-.18-1.85-1.04-3.58-1.35-5.41-.04-.22-.44-.17-.41.05.23,1.84.69,3.73,1.47,5.43.06.14.31.07.29-.08Z"/>
    <path class="cls-1" d="m81.26,87.41c.55-3.03,1.11-6.11,1.26-9.19.02-.32-.48-.31-.51,0-.37,3.04-1.11,6.08-1.08,9.15,0,.18.3.22.33.04Z"/>
    <path class="cls-1" d="m77.01,80.6c-.85,1.16-1.37,2.43-1.39,3.87,0,.14.2.15.24.03.46-1.25.82-2.55,1.41-3.75.08-.17-.15-.3-.26-.15Z"/>
    <path class="cls-1" d="m76.75,82.86c-.27.92-.52,1.98-.42,2.94.01.1.16.16.21.06.48-.89.33-1.95.52-2.91.04-.19-.26-.28-.31-.08Z"/>
    <path class="cls-1" d="m48.58,25.61c.55,2.31,1.39,4.64,2.54,6.75.1.18.4.06.34-.14-.67-2.28-1.71-4.48-2.6-6.68-.07-.17-.33-.11-.29.08Z"/>
    <path class="cls-1" d="m79.61,42.3c0-.6-.35-1.17-.37-1.78,0-.29-.47-.29-.47,0,.02.63.19,1.37.6,1.88.08.09.23.01.23-.09Z"/>
    <path class="cls-1" d="m27.91,46.46c-.71-.04-1.27.31-1.76.77-.27.26.14.64.42.4.4-.35.85-.63,1.41-.54.42.07.73.38,1.12.52.18.07.29-.15.22-.28-.23-.49-.86-.85-1.41-.87Z"/>
  </g>
  <g>
    <path class="cls-2" d="m26.95,25.97c.05.99.17,1.98.29,2.98.07.6.12,1.21.17,1.82-1.12-1.38-1.32-3.26-.46-4.8Zm-13.07,2.68c1.46.69,2.52,1.86,3.7,2.88-1.47-.62-3.06-1.47-3.7-2.88Zm-4.79,4.17c.83.57,1.73,1.07,2.54,1.66-.08.08-.12.2-.08.33.14.41.33.83.59,1.22-1.41-.75-2.74-1.76-3.04-3.21Zm-2.65,14.48c1.2-.26,2.39-.18,3.66.05.42.08.84.2,1.27.31-1.62.36-3.42.25-4.92-.36Zm21.47,17.67c.02-.38.07-.75.15-1.12.1-.02.2-.06.27-.16.25-.36.46-.73.64-1.12-.18.86-.51,1.68-1.05,2.4Zm6.98-3.35c-.86.02-1.68-.33-2.36-.84-.38-.29-.65-.61-.84-.97,1.37-.08,2.64.62,3.2,1.81Zm-4.71-1.73s.04-.08.04-.12c1.81,1.58,3.44,3.87,2.09,6.1-1.76-1.23-2.31-3.4-2.42-5.47.1-.17.19-.34.29-.5Zm2.43-36.77c.71.73,1.21,1.63,1.59,2.61-.22-.1-.53,0-.51.29,0,.03.01.06.02.09h0s0,.01,0,.02c.07.72.34,1.37.72,1.96.18.44.38.87.59,1.3-1.67-1.66-2.84-3.98-2.41-6.27Zm-3.59,6.56c-.29-1.41.15-3.92,1.83-4.35-.06.91-.24,1.78-.62,2.63-.29.66-.77,1.18-1.21,1.73Zm4.83.36c1.08.45,1.95,1.33,2.54,2.29.58.94.5,1.64.1,2.32-.62-.18-1.29-.24-1.88-.16-.08.01-.15.03-.23.05-.04-.87-.29-1.89-1.04-2.43-.5-.36-1.17-.37-1.7-.06-.53.32-.82.93-.71,1.52.16.88,1.08,1.38,1.87,1.67.03.01.06.01.09.01-.07.07-.12.17-.19.25-.02-.05-.06-.11-.12-.14-1.03-.62-2.21-1.01-3.39-.87-1.72-2.75,1.72-5.67,4.67-4.44Zm1.38,6.53c-.4.1-.77.41-1.03.8-.04.02-.07.04-.11.06-.12-.17-.3-.32-.38-.57-.07-.22-.33-.29-.52-.22-.07-.52.14-1,.87-1.28.6-.23,1.32-.25,1.99-.1-.1.13-.21.25-.33.38-.18.19-.01.52.27.45.37-.1.67-.28.9-.51.16.09.31.18.44.3.49.42.61,1.03.5,1.64-.1.6-.55.91-1.09,1.04,0-.02.02-.03.01-.05-.07-.83-.31-2.25-1.52-1.95Zm-2.07-1.53c.03-.14-.02-.31-.2-.38-.55-.22-1.19-.57-1.36-1.16-.1-.34.08-.7.37-.89.32-.22.72-.21,1.02.03.61.49.65,1.4.71,2.09,0,0,0,0,0,.01-.2.08-.38.18-.54.3Zm-5.13-.24c-.82.37-1.49.99-1.89,1.77.01-.82-.25-1.69-.82-2.51-.11-.15-.23-.31-.36-.45.95.53,2.01.92,3.06,1.19Zm-10.99,5.33c.23,1.91,2.7,3.73,4.45,1.99,1.67-1.67-1.13-3.59-2.83-3.51-.2,0-.38.16-.37.36.02.43.06.88.46,1.14.29.18.57-.22.36-.44-.05-.05-.07-.19-.07-.33.86.08,1.64.57,2.09,1.28.58.89-.76,1.38-1.44,1.43-.73.05-1.27-.51-1.6-1.05-.62-1.03-.38-2.27.37-3.14.27-.32.61-.51.97-.62.08.01.15.04.23.05.06.1.2.13.3.06.69.18,1.36.46,1.92.78.54.31,1.03.73,1.4,1.23.01.04.02.09.03.13-.08.12-.03.29.07.39.1.83-.13,1.68-.8,2.29-.95.88-2.57.78-3.75.53-1.16-.25-2.39-.83-3.13-1.75-.99-1.23-.05-2.46,1.05-3.23.42-.3.9-.45,1.4-.52-.81.7-1.25,1.77-1.11,2.94Zm6.43,2.3c.94-.7,1.18-1.8.76-2.81.72-.4,1.22-.94,1.54-1.55,0,.23.04.45.1.67-.06,0-.12,0-.18.02-.44.16-.28.62-.22.94.02.09.15.17.24.13.16-.06.32-.15.36-.32,0-.03,0-.04,0-.07,0,.01,0,.01,0,.03.08.19.13.39.18.58.24.97.1,2.03-.14,2.98-.08.32-.19.63-.33.93-.77.38-1.42.97-1.9,1.68-.59-.1-1.15-.64-1.52-1.08-.04-.05-.09-.07-.14-.08,0-.05,0-.09,0-.14.6-.54,1.06-1.21,1.23-1.91Zm-.84-12.15c-.04-.08-.07-.18-.11-.27,1.65.13,2.91,1.08,3.95,2.27-1.28-.67-2.61-1.25-3.84-2Zm-2.32,3.77s.07,0,.1-.03c.73-.45,1.1-1.1,2.07-1.07.93.03,1.73.78,2.23,1.46,1.24,1.67.9,3.6-.76,4.67-.47-1.35-1.73-2.46-3.25-2.64-.16-.02-.3,0-.45,0,.18-.79.27-1.63.05-2.38Zm-1.45-10.01c.13-.55-.02.11.2.68.33.86.55,1.75.75,2.65.37,1.63.35,3.29.07,4.92-1.65-2.53-1.7-5.31-1.02-8.25Zm-4.74,13.04s.03-.01.05-.02c.15.23.36.43.65.55.23.1.45-.1.34-.33-.39-.8-.79-1.31-.34-2.2.4-.79,1.19-1.38,2.01-1.75.72-.33,1.71-.48,2.35.07.79.68.7,2.03.55,3.07-.11.02-.23.03-.34.06-.46-.05-.92-.07-1.38-.02-1.05.12-2.22.79-2.9,1.7-.38-.35-.79-.6-1.22-.77.16-.07.26-.24.22-.38Zm-3.88,18.13c.16-2.28,1.18-4.52,2.79-6.23-.76,1.34-1.49,2.69-2.15,4.08-.2.42.42.8.66.37.73-1.29,1.45-2.5,2.22-3.7-.6,2.08-1.86,3.85-3.53,5.48Zm4.74.62c.47-1.56,1.25-2.96,2.37-4.07-.15.3.32.67.67.41.63-.47,1.24-.98,1.85-1.48-.72,2.3-2.35,5.36-4.88,5.14Zm5.39-6.71c.05-.09.11-.18.14-.28.06-.19-.17-.34-.34-.25-.48.27-.84.65-1.39.82-.56.17-1.15.02-1.65-.22-1.03-.49-1.67-1.56-1.64-2.64.01-.4-.62-.4-.65,0-.01.2,0,.4.02.59,0,0-.01,0-.02.01-.01-.05-.03-.09-.06-.13,0-.08,0-.16,0-.25-.01-.25-.26-.34-.44-.27-1.62.06-2.87-.22-3.35-1.92-.25-.9-.04-1.79.54-2.04.36.17.78.27,1.23.32.06.54.34,1.03.94,1.25.17.07.37-.13.31-.29-.12-.33-.37-.57-.5-.89-.16-.38-.09-.76.08-1.12.16-.36-.37-.68-.56-.31-.08.15-.14.31-.18.48-.45-.23-.88-.3-1.25-.24-1.93-1.4.43-5.51,3.17-2.93-.1.22-.18.45-.21.69-.17,1.38.91,2.43,2.05,3.1,1.56.91,3.9,1.27,5.57.57-.54.68-1.1,1.26-2.15,1.53-1.67.43-3.11-.83-3.89-2.09-.2-.33-.73-.03-.53.3.89,1.53,2.31,2.68,4.23,2.53.64-.05,1.29-.31,1.87-.7,0,1.53-1.21,2.29-2.89,2.21-.72-.04-1.44-.26-2.04-.62-.61-.37-.56-.74-.62-1.34-.02-.24-.29-.35-.48-.19-.61.52-.16,1.4.31,1.84.69.65,1.73.9,2.66,1,1.94.21,3.36-.74,3.6-2.3.37.41.8.77,1.3.93-.39.77-.6,1.63-.57,2.48-.83.17-1.6.63-2.12,1.31.02-.09.05-.19.07-.28.05-.24-.1-.4-.3-.43-.03-.11-.11-.2-.23-.22Zm5.63.39c.72-.44,1.64-.67,2.4-.72,1.14-.07,2.04.28,2.62.93-.15.1-.32.18-.51.26-.87-.25-1.86-.27-2.62-.16-.47.07-.89.22-1.26.43-.18-.29-.39-.54-.63-.74Zm.55,2.61c-.24.19-.43.44-.53.8-.04.15-.05.3-.04.45-.19-.12-.36-.25-.51-.4.02-.09.04-.18.06-.26.16-.53.43-.96.77-1.31.03.18.08.37.17.59.02.05.05.09.08.12Zm-.46-1.5c-.51.43-.88.99-1.13,1.61-.09-.2-.15-.42-.17-.67-.06-.66.2-1.2.64-1.62.24.18.47.4.66.68Zm-1.76.17c-.32-.43-.52-.91-.62-1.4.43,0,.87.09,1.28.29-.31.33-.53.71-.66,1.12Zm-.3.66c.06.06.12.09.18.1,0,.36.06.74.2,1.11.07.19.18.35.29.51-.16.97-.02,1.98.43,2.74-.92.49-1.66.62-2.6-.21-.56-.5-.95-1.16-1.22-1.86.16-.29.36-.57.61-.83.26-.29-.17-.7-.44-.42-.15.16-.29.32-.42.48-.03-.1-.06-.21-.08-.31-.37-1.74.72-2.97,2.07-3.29.14.7.45,1.38.98,1.98Zm5.25,7.04c-1.84,1.44-3.91,1.99-6.2.76-1.83-.98-2.6-2.75-2.16-4.44.37.65.85,1.23,1.41,1.67.98.76,2.38.8,3.24-.03.54.53,1.31.82,2.32.7.37.53.86.99,1.4,1.34Zm-1.18-2.14s-.06-.09-.09-.14c-.17-.3-.59-.09-.54.2-.24,0-.5-.03-.78-.11-.33-.09-.59-.26-.78-.47-.02-.06-.06-.1-.11-.13-.38-.51-.48-1.23-.44-1.9.27.19.59.35.92.47.19.32.46.6.76.8.83.55,1.68.29,2.32-.32.02,0,.05,0,.07,0,.07,0,.14-.02.22-.02-.17.74-.68,1.41-1.54,1.62Zm-.57-3.89c1.02-.24,1.68.18,1.99.83-.15.3-.37.59-.64.82-.68,0-1.38-.1-2.01-.32-.24-.55-.03-1.17.66-1.33Zm.93-.71c-.43-.06-.88-.04-1.28.06,0,0,0,0,0,0-.43-1.08.24-1.41,1.25-1,.7.29,1.17.83,1.27,1.46-.32-.26-.73-.44-1.24-.51Zm2.08,2.11c-.03-.27-.1-.53-.21-.78.18-.71.12-1.44-.3-1.96-.24-.3-.58-.55-.94-.73.71.03,1.42.21,2.01.57.33.2.54.45.66.72,0,.07.02.14.01.22,0,.06.03.1.08.13.1.75-.46,1.54-1.31,1.84Zm1.13-6.67c.4.94.29,1.65-.22,2.18-1.27-1.34-3.91-1.4-5.73-.31-.05.03-.09.07-.14.1-.59-.37-1.27-.53-1.94-.51-.01-.81.22-1.62.64-2.34.16-.02.33-.05.5-.12.76-.3,1.26-1,1.61-1.74.71-.28,1.51-.36,2.36-.14,1.36.35,2.42,1.67,2.92,2.86Zm-4.41-4.13c.12-.09.24-.17.36-.26.33-.13.57-.37.81-.61.22-.18.44-.37.65-.57-.05.89.23,1.76.84,2.44-.23-.13-.47-.24-.71-.33-.88-.3-1.72-.32-2.48-.14.02-.06.04-.12.06-.18.04-.12.06-.24.09-.36.11.07.24.09.37,0Zm-.24-2.95c.32.18.69.27,1.07.32-.41.26-.74.62-.97,1.05.01-.46,0-.92-.09-1.37Zm8.02.52c-.3.56-.25,1.23-.39,1.84-.13.53-.35,1.03-.73,1.44-.56.63-1.41.73-2.2.49-1.85-.56-2.33-2.49-1.69-4.02.3-.05.59-.13.85-.24.5.5,1.15.96,1.78,1.02.16.02.27-.19.19-.31-.33-.46-.88-.77-1.34-1.15.06-.15-.06-.33-.25-.35-.04,0-.08,0-.12,0-.6-.65-.86-1.53-.62-2.37.07-.25-.3-.34-.4-.1-.37.91-.34,1.73.19,2.56-.12-.12-.35-.16-.48.02-.03.04-.05.09-.08.13-.25.06-.51.12-.76.14-.56.04-1.15-.01-1.65-.27-.79-.4-.95-1.29-.76-2.06.23-.92.95-1.65,1.82-2.04.21-.09.42-.15.63-.19.09.03.2.01.27-.04,1.01-.1,2.08.27,2.94.72.07.04.15.04.21.03-.32.9.23,1.87.79,2.57.12.16.37.2.54.12.06.44.56.65,1.12.74,0,.44.06.86.19,1.23-.03.02-.06.04-.08.07Zm-.21-2.8c.14-.22.36-.46.62-.56.05-.02.1-.02.15,0,.12.61-.04.96.4,1.39-.22,0-.43,0-.62-.03-.79-.1-.99-.1-.55-.79Zm3.31,12.54c-2.29-1.57-2.7-5.39-2.64-7.99.07-.34.11-.68.08-1,.09.12.21.2.32.3-.05.06-.08.14-.04.24.21.6.37,1.21.5,1.83.14.67.18,1.4.54,1.99.08.14.33.12.37-.05.15-.72,0-1.57-.25-2.37,1.39,2,1.29,4.66,1.12,7.05Zm2.03-16.57c.38.71.5,1.55.33,2.34-.22,1.04-1.12,1.39-1.93,1.93-.19.13-.15.49.13.47.36-.03.66-.13.94-.26.19.71.57,1.28.23,2.04-.27.6-.87,1-1.5,1.2-1.68.55-2.75-.64-2.84-2.12.36.02.69,0,.88-.01,1.34-.12,2.18-1.01,2.22-2.28.03-.98-.54-1.69-1.34-2.13.31-.66.33-1.47.12-2.17-.13-.44-.36-.88-.65-1.29.05,0,.11,0,.18-.01.12-.03.22-.08.34-.12,1.26.36,2.27,1.25,2.89,2.42Zm-3.36-4.03c-.22.27.02.63.28.63-.03.04-.06.08-.08.12-.03.05-.04.1-.04.15-.27-.04-.55-.05-.82-.04-.04,0-.07.01-.1.02-.09-.09-.19-.17-.29-.25.06-.08.08-.18.04-.27.06-.02.1-.06.15-.11.06.08.11.16.17.23.3.33.78-.15.5-.48-1.59-1.87.55-5.43,2.2-7.22-.06,2.64-.18,4.97-2.02,7.2Zm2.81-.27c-.06-.04-.12-.07-.21-.07-.14,0-.29,0-.44-.01.65-.45,1.42-.76,2.22-.92-.51.36-1.02.7-1.56,1Zm-1.21-.84c.05-.11.12-.21.17-.31.11-.02.21-.09.24-.23l.6-2.99c.11-1.07.11-2.18.08-3.35,0-.28-.35-.41-.56-.22-1.28,1.14-3.04,3.43-3.49,5.58-.51-1.87-1.28-3.74-2.79-4.92-.2-.16-.51-.11-.58.15-.73,2.51.16,5.04,1.86,6.96-.03-.01-.06-.03-.09-.04-1.35-.46-2.78-.18-3.89.5,1.21-1.25,1.63-3.3,1.66-4.88,0-.18-.17-.37-.37-.35-2.57.14-3.37,3.36-2.9,5.35.04.18.18.24.32.24-.14.23.17.48.4.35.03-.01.04-.03.07-.05-.31.3-.57.63-.76,1-.03-2.16-.64-4.43-.71-6.54-.01-.29-.4-.48-.62-.25-1.97,2.09-1.78,5.35.49,7.17,0,0,0,0,0,0,.02.21.05.41.09.62-1.41-1.79-3.16-3.33-5.67-3.23-.25.01-.45.23-.38.48.03.11.09.2.13.31-.15.14-.2.37-.02.52.13.1.27.22.4.33.34.6.77,1.13,1.28,1.59-.22-.08-.45-.15-.68-.17-.72-.08-1.58.18-2.11.7.71-3.35.07-6.67-1.33-9.8-.05-.1-.2-.17-.31-.17-.08,0-.16,0-.23,0-.16,0-.3.1-.34.25-.73,2.73-.92,5.43.13,7.9-.55-.52-1.14-1.01-1.71-1.49-.99-.84-2.08-1.56-3.34-1.96-.29-.09-.48.19-.44.42.35,2.29,2.86,3.54,4.92,4.24.02,0,.03,0,.04,0-.4.02-.8.1-1.15.23-1.1.39-2.12,1.19-2.63,2.22-.13.26-.22.58-.25.91-1.19-1.77-3.27-2.56-4.97-3.93-.25-.2-.63-.07-.64.25-.12,2.71,2.57,4.23,4.87,5.22-1.09-.12-2.15.4-2.8,1.7-.63,1.27-.32,2.4.51,3.12-.46.41-.73,1.11-.7,1.96.04,1.29.82,2.39,1.89,2.9-2.1-.74-4.85-.81-6.77-.1-.31.11-.41.51-.09.69,2.23,1.3,5.34,1.42,7.74.36.04,0,.08,0,.13,0-2.3,2.12-3.75,5.18-3.63,8.23.01.33.42.49.67.27,2.59-2.34,4.4-4.9,4.68-8.18.09-.13.18-.25.27-.38.32.89,1.01,1.63,1.93,2.07.33.16.72.25,1.12.27-2.04,1.36-3.36,3.44-3.99,5.86-.05.19.06.42.28.46,2.8.62,4.73-1.86,5.78-4.32,0,0,0,0,0,0,0,.32.05.65.13.98-.1,0-.2.04-.25.15-1,2.12-1.46,4.3-1.28,6.62.03.4.66.53.77.1.23-.91.58-1.86.87-2.83.29.69.77,1.31,1.36,1.83l.59.46c.86.59,1.9.97,2.96,1.1l.35.04c1.22.07,2.45-.24,3.48-1.06,0,.12.01.25.02.37-1.43,1.69-2.2,3.8-2.01,6.01.03.31.4.5.65.26,1-.92,1.52-2.04,1.77-3.24.38,1.51,1.17,2.88,2.66,3.75.19.11.4.03.52-.13,1.13-1.5.99-3.18.22-4.67.79.38,1.7.54,2.58.38.21-.04.33-.28.27-.46-.4-1.31-1.63-2.46-3.04-2.75,1.93-.54,3.03-2.45,2.46-4.35-.09-.29-.51-.22-.53.07-.12,1.76-.47,3.45-2.62,3.72-.29.03-.57.03-.84,0-.05-.18-.27-.18-.39-.07-.19-.04-.37-.1-.54-.17,0,0,0,0,0,0,.16-.25-.2-.49-.41-.3-.03.02-.05.04-.08.07-.47-.27-.9-.62-1.25-1.03,1.14-.34,1.82-1.36,1.95-2.42,1.36-.36,2.33-1.36,1.92-2.92-.06-.24-.16-.45-.29-.63-.03-.35-.11-.67-.24-.96.25-.23.42-.53.55-.86.79.47,1.44,1.18,1.93,1.93.29.44.5.92.5,1.45,0,.31-.18.51-.42.67-.1-.38-.25-.75-.39-1.07-.14-.3-.66-.08-.55.22.16.44.24.84.28,1.25-.05.03-.1.06-.14.1-.11.09-.05.3.09.33.03,0,.05,0,.07,0,0,.42-.05.85-.18,1.32-.03.12.12.27.25.18.56-.4.73-.96.7-1.55,1.29-.17,1.85-1.45,1.67-2.61-.21-1.41-1.47-2.76-2.79-3.34-.32-.14-.6.3-.28.46,1.03.51,1.77,1.42,2.2,2.44.2.48.23.87.15,1.2-.02-.2-.05-.4-.11-.58-.44-1.23-1.6-2.37-2.85-2.93.04-.3.06-.61.01-.93-.15-1.02-.79-2.09-1.64-2.9.14.07.26.16.41.22.98.39,2.06.19,2.86-.44.22-.17.42-.41.6-.68.07,2.83.84,6.14,3.43,7.37.27.13.56-.03.58-.32.23-2.95.42-6.4-1.76-8.71.44.08.94.07,1.48-.08.87-.24,1.65-.84,2.01-1.64.36-.79.26-1.98-.43-2.6.67-.54,1.02-1.38,1.1-2.26.38.3.67.68.69,1.19.02.67-.84,1.09-1.3,1.46-.19.15.02.39.22.36.94-.16,1.73-.88,1.77-1.82.04-.79-.69-1.37-1.37-1.74-.01-.28-.05-.57-.12-.84-.38-1.49-1.54-2.71-2.97-3.3,1.64-.7,3.15-1.62,4.52-2.75.24-.2.05-.62-.26-.6-.27.01-.55.06-.82.09l-3.21.89Z"/>
    <path class="cls-2" d="m27.91,46.46c-.71-.04-1.27.31-1.76.77-.27.26.14.64.42.4.4-.35.85-.63,1.41-.54.42.07.73.38,1.12.52.18.07.29-.15.22-.28-.23-.49-.86-.85-1.41-.87Z"/>
  </g>
</svg>