<?xml version="1.0" encoding="UTF-8"?>
<svg id="ICONS" xmlns="http://www.w3.org/2000/svg" viewBox="0 0 100 100">
  <defs>
    <style>
      .cls-1 {
        fill: #273a7c;
      }

      .cls-1, .cls-2 {
        stroke-width: 0px;
      }

      .cls-2 {
        fill: #e32d73;
      }
    </style>
  </defs>
  <path class="cls-1" d="m59.49,10.19c.02,2.16-.08,4.34-.26,6.5-.09,1.11-.2,2.22-.36,3.32s-.39,2.24-.61,3.36c-.42,2.25-.98,4.46-1.57,6.67-.28,1.04-.55,2.08-.87,3.1-.16.53-.34,1.05-.52,1.57-.04.12-.08.23-.12.35-.02.06-.15.41-.07.19-.09.25-.19.51-.29.76-.66,1.7-1.39,3.39-2.22,5.01-.21.41-.42.81-.64,1.2-.1.18-.2.36-.31.54-.01.02-.12.2-.03.04s-.01.02-.03.04c-.06.11-.13.21-.19.32-.46.74-.97,1.46-1.52,2.14-.06.08-.13.15-.19.23.24-.3.01-.01-.04.05-.14.16-.29.32-.44.48-.13.14-.27.28-.41.41-.08.07-.15.14-.23.21-.04.03-.07.06-.11.1-.03.03-.23.2-.06.05s-.11.09-.15.12c-.07.06-.15.12-.22.17-.16.12-.33.24-.5.35-.08.05-.15.1-.23.15-.17.11.19-.11.07-.04-.04.02-.08.05-.12.07-.17.1-.35.19-.53.28s-.35.15-.52.22c-.12.05.23-.08.05-.02-.05.02-.1.04-.15.05-.09.03-.19.06-.28.09-.18.05-.37.1-.56.13-.09.02-.18.03-.27.05-.05,0-.09.01-.14.02-.06,0-.04,0,.08,0-.04,0-.07,0-.11.01-.4.04-.79.04-1.19.01-.21-.01-.41-.04-.62-.07-.04,0-.17-.03-.02,0-.06-.01-.12-.02-.18-.04-.12-.03-.25-.05-.37-.08-.42-.11-.83-.24-1.22-.42-.18-.08-.36-.17-.54-.26-.09-.05-.17-.1-.26-.15-.05-.03-.1-.06-.15-.09-.14-.08.07.05-.05-.03-.71-.48-1.37-1.04-1.97-1.65-1.24-1.26-2.02-2.84-2.53-4.54-.27-.88-.43-1.77-.48-2.69-.05-1,0-1.98.1-2.98.21-2.16.59-4.3,1.07-6.41,1.05-4.53,2.62-8.93,4.51-13.16.99-2.21,2.06-4.37,3.22-6.5.58-1.06,1.17-2.12,1.78-3.16.04-.07.09-.14.13-.22-.04.09,0,.02,0,.02,0,0,.02-.03.03-.04-.12.11-.1.11-.06.08.07-.08,0-.01-.04.03.03-.03.13-.06.03-.03-.14.06.26-.07.03-.02.07-.02.15-.04.22-.06.04,0,.07-.01.11-.02.03,0,.17-.02.04,0,.1,0,.19-.02.29-.02.22,0,.44,0,.66.01.24.02.49.04.73.07.26.03.53.08.75.12,1.27.24,2.53.58,3.76.98s2.45.87,3.65,1.35c.51.21,1.02.44,1.53.64.21.08.42.17.62.27.04.02.09.04.13.06.03.01.19.08.08.03.09.05.18.11.27.16.19.11.44.27.54.45.01.03.04.05.07.05h.01s-.04-.03-.07-.04c.01.04.01.04.01.07,0,.17.28,0,.27-.13,0-.04-.01-.09-.02-.13l-.03.13c.14-.23-.18-.57-.33-.73-.28-.3-.59-.54-.93-.78-.96-.69-2.12-1.17-3.23-1.59-1.29-.49-2.61-.91-3.95-1.26-1.14-.3-2.32-.56-3.51-.62-.8-.04-1.79,0-2.3.72-.33.46-.59.99-.87,1.48-.3.53-.6,1.06-.9,1.6-.6,1.09-1.18,2.2-1.74,3.32-2.18,4.35-4.05,8.88-5.42,13.55-.65,2.22-1.19,4.47-1.57,6.75-.19,1.11-.34,2.23-.45,3.35-.11,1.02-.18,2.04-.13,3.06.09,1.94.4,3.92,1.15,5.72.38.9.85,1.71,1.38,2.47s1.12,1.32,1.85,1.8c1.52,1,3.37,1.54,5.2,1.38s3.48-.93,4.89-2.06c2.95-2.37,4.86-5.82,6.37-9.22.86-1.95,1.65-3.92,2.29-5.95.34-1.07.64-2.15.92-3.23s.46-2.2.64-3.31.33-2.29.45-3.44.16-2.19.22-3.29c.12-2.2.21-4.39.16-6.59-.02-1.03-.09-2.06-.16-3.09,0-.1-.16,0-.16.08Z"/>
  <path class="cls-1" d="m36.08,44.47c.09.16.17.31.18.5,0,.05,0,.09,0,.14,0,0,0,.06,0,.06l.03-.12c-.03.06-.04.12-.05.18,0,.11.07.23.1.33.04.12,0,0,.04.14.02.09,0-.07.01.03,0,.02,0,.04,0,.06,0,.05.01.1.02.15,0,.03,0,.06,0,.09,0,.02.03.2.01.09.04.22.07.45.09.67.09,1.05.15,2.11.15,3.17,0,1.28-.11,2.55-.24,3.82-.02.16-.03.32-.05.48,0,.08-.02.16-.03.24,0,.05-.05.37-.02.16-.05.36-.1.72-.15,1.08-.11.74-.24,1.47-.35,2.2-.5,3.13-1.25,6.22-2.13,9.27s-1.86,5.86-3.12,8.74c-.54,1.24-1.13,2.47-1.79,3.66-.15.27-.3.53-.45.79-.04.06-.07.12-.11.18.07-.12-.04.06-.06.09-.08.13-.16.27-.25.4-.29.45-.59.9-.91,1.33-.14.19-.29.38-.44.57-.12.15-.22.49.02.58.25.1.53-.16.67-.33,1.49-1.8,2.6-3.93,3.59-6.03,1.28-2.71,2.35-5.52,3.34-8.36,1.05-3.01,1.91-6.07,2.65-9.17.66-2.78,1.15-5.61,1.27-8.47.03-.59.04-1.19.02-1.78,0-.27-.02-.54-.04-.82,0-.13-.02-.26-.03-.38,0-.06-.01-.12-.02-.19,0-.05-.07-.44-.03-.22-.09-.49-.17-.98-.32-1.45-.06-.2-.14-.4-.22-.59-.04-.09-.08-.18-.12-.26-.02-.04-.04-.07-.06-.11.06.08,0,0-.01,0-.04-.06-.08-.13-.12-.19-.06-.08-.05-.09-.1-.17-.04-.08-.1-.16-.14-.24-.03-.07-.1-.12-.18-.11h-.02s.09.03.13.05c-.06-.04-.13-.08-.19-.12-.07-.04-.1-.07-.12-.08-.09-.09-.17-.18-.26-.27s-.3.11-.25.21h0Z"/>
  <path class="cls-1" d="m48.64,47.82c-.12.05-.24.12-.36.15-.14.03-.26.03-.39.09-.12.06-.23.13-.35.19-.05.03-.12.05-.16.08l-.04.02c.09-.03.07-.02-.07.03-.07.03-.13.08-.2.12-.5.31-.98.64-1.43,1.03-.16.13-.31.27-.47.4-.02.02-.05.04-.07.06.23-.23-.02.02-.11.1-.06.05-.11.11-.17.17-.23.23-.45.46-.67.7-.49.54-.96,1.1-1.4,1.68-1.78,2.33-3.17,4.94-4.3,7.64-1.19,2.87-2.19,5.81-2.97,8.81-.72,2.79-1.34,5.61-1.76,8.46-.35,2.32-.62,4.66-.61,7.01,0,.23,0,.45.01.68,0,.27.29.28.48.19.22-.11.48-.37.47-.64-.03-1,0-2,.07-3,.08-1.19.21-2.37.37-3.5.39-2.8.97-5.57,1.73-8.29.41-1.47.86-2.93,1.36-4.37.13-.36.26-.72.39-1.09.03-.08.06-.17.09-.25.02-.05.03-.09.05-.14.04-.11-.06.15.01-.03s.14-.37.21-.55c.27-.71.55-1.42.85-2.11.6-1.37,1.26-2.7,1.96-4.03.33-.63.69-1.25,1.04-1.87-.15.26.01-.02.05-.07.05-.08.09-.15.14-.23.09-.15.19-.3.28-.45.18-.29.37-.57.56-.86.37-.55.76-1.09,1.17-1.61.1-.12.2-.25.3-.37.05-.06.09-.11.14-.17.03-.03.05-.06.08-.09.12-.14-.15.17-.03.03.21-.24.41-.47.63-.7.05-.05.1-.1.15-.16.03-.03.07-.07.1-.1l.07-.09c.1-.12.1-.12-.01.02.12-.1.22-.23.32-.34.21-.22.43-.44.65-.65.21-.2.41-.39.62-.58.12-.11-.14.14.04-.03.03-.03.27-.26.12-.12.05-.05.1-.09.14-.14.06-.06-.1.08.02-.02.02-.02.05-.04.07-.06.07-.05.14-.11.21-.16.13-.1.21-.24.31-.34s.22-.17.34-.25c.1-.07.15-.29-.04-.22h0Z"/>
  <path class="cls-1" d="m28.88,80.48c-1.79-.83-3.9-1.02-5.85-.67-1.48.27-3.07.99-3.68,2.47-.29.7-.3,1.47-.07,2.19.26.8.95,1.46,1.57,2,1.1.94,2.4,1.67,3.71,2.29,2.88,1.36,6.1,2.3,9.31,2.33,1.37.01,2.85-.18,4.1-.79.12-.06.23-.12.35-.19-.06.03.43-.27.1-.06.07-.04.14-.08.21-.12.06-.04.13-.08.19-.12.27-.18.52-.4.75-.63.45-.47.86-1.06,1.01-1.7.32-1.4-.87-2.58-1.86-3.38-.65-.53-1.37-.98-2.1-1.39-.34-.19-.69-.38-1.06-.51s-.73-.23-1.13-.3c-.16-.03-.34-.08-.51-.07-.09,0-.17.02-.26.04-.04,0-.09.01-.13.02-.01,0-.13,0-.06.02-.13-.03-.33.23-.19.27h.04s-.03-.04-.04-.06c0,.11.12.21.19.29.11.12.28.18.41.27.12.08.23.16.35.24.16.1.34.17.5.27.65.39,1.34.7,1.98,1.11s1.24.86,1.76,1.39c.44.44.77.88.94,1.47,0,.03.04.22.03.1,0,.06.02.12.02.19s0,.12,0,.18c0,.09,0-.02,0-.03,0,.05-.02.1-.03.14,0,.02-.02.05-.02.07-.03.12.05-.1.01-.03-.03.05-.05.1-.07.15-.03.06-.06.11-.09.16-.07.12.1-.15.02-.03-.02.03-.04.06-.06.09-.03.05-.07.1-.11.15-.01.02-.03.04-.04.06-.05.07-.12.08.04-.05-.09.07-.16.18-.25.25-.03.02-.06.05-.08.07.15-.17.13-.11.08-.07-.05.04-.09.07-.14.11s-.1.07-.15.1c-.03.02-.05.03-.08.05-.14.1.16-.08.03-.02-.1.05-.21.11-.32.16-.05.02-.1.04-.16.07-.15.06.01-.03.04-.01,0,0-.1.04-.11.04-.26.09-.53.16-.79.22-.13.03-.26.05-.4.07-.06,0-.28.07-.07.01-.08.02-.18.02-.26.03-.3.03-.61.04-.92.04-.68,0-1.37-.04-2.05-.12-.18-.02-.35-.05-.52-.07-.08-.01-.16-.02-.24-.04-.04,0-.09-.01-.13-.02-.16-.03.12.02-.03,0-.38-.07-.76-.15-1.13-.23-1.49-.32-2.95-.78-4.36-1.36-.69-.28-1.36-.59-2.02-.94-.3-.16-.61-.33-.9-.5-.14-.08-.28-.17-.42-.26.17.1-.06-.04-.1-.06-.07-.05-.15-.1-.22-.15-.55-.37-1.08-.78-1.55-1.24-.15-.15-.29-.3-.43-.46-.06-.07-.12-.15-.18-.23-.02-.03-.04-.06-.06-.09-.02-.03-.04-.06-.06-.09.05.07.05.08,0,.01-.06-.1-.13-.19-.19-.29-.02-.03-.04-.07-.07-.1.09.13.02.04,0,0-.07-.13-.14-.27-.19-.41-.02-.06-.04-.12-.06-.19,0-.02-.01-.05-.02-.07-.03-.12,0,.13,0,0,0-.1-.05-.28,0-.37-.06.1-.02.11,0,.02,0-.02,0-.05.02-.07.01-.05.08-.26,0-.04l.06-.17c-.04.11-.05.13-.02.06.01-.02.02-.05.03-.07.01-.02.08-.13,0-.02-.07.12.02-.03.04-.05.02-.03.09-.16.12-.16,0,0-.14.15-.05.06.02-.03.05-.05.07-.08.05-.05.11-.1.15-.15.07-.07-.14.12-.02.02.04-.03.07-.06.11-.09.12-.1.26-.19.39-.28.03-.02.06-.04.08-.05-.11.06.04-.02.05-.02.09-.04.17-.08.26-.12.69-.3,1.5-.48,2.28-.56,1-.1,1.98-.02,2.98.06.54.04,1.09.1,1.63.17.05,0,.15-.11.08-.14h0Z"/>
  <path class="cls-1" d="m20.82,80.97c-.49.46-.65,1.17-.62,1.82.01.33.06.71.21,1.01s.4.61.64.86c.84.9,1.93,1.52,3.02,2.07,2.34,1.16,4.92,1.86,7.5,2.27.68.11,1.37.19,2.06.24.36.03.71.02,1.07-.04.39-.06.69-.23,1.01-.45.06-.04.16-.16.12-.24-.12-.2-.21-.36-.44-.43-.26-.08-.53-.12-.8-.15-.57-.06-1.14-.1-1.7-.18-1.19-.16-2.36-.41-3.53-.73s-2.37-.74-3.51-1.23c-1.07-.46-2.06-1.03-3.03-1.62-.58-.36-1.1-.84-1.6-1.33-.22-.21-.46-.43-.53-.74-.09-.41.07-.74.23-1.11.03-.08-.05-.07-.09-.03h0Z"/>
  <path class="cls-1" d="m37.28,88.38c.08-.01.16.03.24.02s.16-.02.25-.05c.19-.06.38-.14.55-.24.4-.23.75-.52,1.04-.88.27-.34.45-.77.55-1.18.06-.25.03-.5-.04-.75-.03-.11-.07-.23-.15-.32-.11-.13-.26-.15-.42-.14-.22.02-.45.18-.53.39.16-.21.19-.26.1-.15-.04.04-.08.09-.1.15-.01.02-.07.19-.05.14-.06.18-.09.33-.03.52.03.08.07.16.09.25.01.04.02.09.03.13-.02-.09.02.11.02.13-.02-.13.04.2.02.12,0,.04.02.07.03.11-.01-.06,0,0,0,.02,0,.01,0,.12,0,.08,0-.05-.01.05-.02.06,0,.03-.04.12-.01.04-.03.08-.07.15-.11.22-.04.09.04-.05-.02.04-.02.03-.04.06-.06.09-.03.04-.05.07-.08.1-.03.04.03-.03-.02.03-.13.14-.24.24-.36.34-.14.11-.28.21-.43.31-.08.05-.16.11-.24.16-.07.05-.14.13-.22.17-.02.01-.1.12-.03.11h0Z"/>
  <path class="cls-1" d="m32.64,78.29c-.06.32-.14.64-.18.97s-.1.64-.15.96c-.1.64-.21,1.29-.3,1.93s-.16,1.27-.21,1.9c-.02.31-.05.63-.05.94,0,.22-.07.66.21.74.07.02.14-.04.18-.09.18-.27.15-.55.13-.86s-.04-.63-.03-.95c0-.62.07-1.25.14-1.87s.15-1.24.22-1.86c.04-.31.07-.63.1-.94s.01-.6,0-.9c0-.04-.05,0-.06.02h0Z"/>
  <path class="cls-1" d="m33.14,75.69c-.07.12-.12.24-.16.38-.03.11-.06.23-.09.35-.03.11-.05.22-.06.34,0,.1,0,.19.01.28,0,.07.09,0,.1-.03.12-.21.22-.43.26-.67.02-.11.03-.22.05-.33,0-.06.02-.11.02-.17s0-.11,0-.17c0-.03-.03-.04-.05-.03-.03,0-.06.04-.08.07h0Z"/>
  <path class="cls-1" d="m39.04,56.97c.3-.68.54-1.38.84-2.06s.62-1.33.99-1.97.77-1.23,1.23-1.8.98-1.01,1.37-1.6c.04-.07.02-.15-.07-.11-.7.3-1.19.92-1.66,1.51s-.87,1.21-1.24,1.87-.67,1.34-.93,2.04-.5,1.4-.6,2.14c0,.06.07.02.09-.01h0Z"/>
  <path class="cls-1" d="m40.86,51.11c.11-.13.22-.26.33-.39.02-.03.03-.03.01-.01.01-.01.03-.03.04-.04.03-.04.06-.08.09-.11.05-.07.1-.13.15-.2.1-.12.19-.25.28-.37.05-.06.1-.13.14-.2.05-.08.14-.24.09-.34v.11s.01-.03.02-.05c0-.02,0-.03,0-.05,0-.03.01-.06.02-.09.01-.07-.04-.09-.09-.06-.03.01-.06.03-.1.04-.01,0-.03.01-.04.02-.01,0-.11.06-.06.04l.12-.03c-.24,0-.44.26-.57.43-.11.15-.21.3-.3.47-.08.15-.15.29-.19.45-.04.13-.04.27-.04.4,0,.05.07,0,.08,0h0Z"/>
  <path class="cls-1" d="m40.16,52.01c-.06.06-.11.13-.16.2s-.08.14-.12.22c-.02.04-.03.09-.05.13-.01.04-.03.08-.03.12,0,.05-.02.15.02.19l-.02-.04s0,.06,0,.09c0,.07.1.02.12-.01.01-.02.02-.03.03-.05,0,0,0-.01.01-.02,0,0,.02-.03,0,0l-.06.04c.09-.04.14-.15.18-.24.04-.06.05-.14.08-.21.04-.12.07-.25.08-.37.01-.08-.08-.06-.12-.02h0Z"/>
  <path class="cls-1" d="m40.26,16.61c.1-.08.17-.11.26-.14.04-.02.12-.05.16-.09.06-.06-.1,0-.04,0,.02,0,.04,0,.05,0l-.14-.05h0c.09.09.24.07.34.01.06-.03.11-.06.17-.08.03-.01.23-.09.09-.04.06-.02.12-.04.18-.07-.13.05-.02,0,0,0,.11-.03.21-.07.32-.11.02,0,.04-.02.07-.03.12-.05-.12.04,0,0,.07-.02.14-.05.21-.07.15-.05.31-.09.47-.13.14-.03.28-.06.42-.08.08-.01.16-.03.24-.04.04,0,.08-.01.12-.02.02,0,.2-.03.07-.01.34-.04.68-.06,1.02-.07,1.53-.04,3.05.17,4.5.51,1.57.36,3.11.87,4.58,1.53,1.31.58,2.5,1.23,3.58,2.14.24.21.48.43.69.66.09.1.19.21.27.32.04.06.09.12.13.17.02.02.03.05.05.07.07.1-.01-.03.02.03.06.11.12.21.18.32.01.02.03.05.04.07.02.04.04.07.07.11-.05-.07-.04-.06.03.04.03.04.08.08.11.12-.05-.08.01.05.02.08.03.07.07.12.12.17.06.06.12.12.17.19.09.13.3-.09.33-.16.06-.13.09-.23.13-.32.06-.17.09-.31.07-.49-.03-.29-.04-.53-.19-.79-.29-.51-.68-.96-1.12-1.36-1.12-1.02-2.5-1.78-3.87-2.41-1.6-.73-3.29-1.29-5.01-1.66-1.63-.35-3.31-.57-4.97-.43-.74.06-1.47.19-2.17.45-.09.03-.18.07-.27.1-.03.01-.07.03-.1.04-.04.02-.06.03-.1.05-.2.11.05-.03-.02,0-.17.09-.35.2-.5.31-.19.13-.42.28-.51.49,0,0-.07.16-.03.07.04-.08,0-.01,0-.01-.09.07.07-.05.04-.05-.02,0-.16.18-.18.2-.07.1-.12.21-.2.33-.04.06,0,.12.07.07h0Z"/>
  <path class="cls-1" d="m38.95,24.22c-1.02,2.74-1.96,5.49-2.67,8.33-.39,1.58-.72,3.19-.93,4.8s-.32,3.1-.14,4.65c.09.78.23,1.55.47,2.3.11.36.24.71.41,1.05.08.18.21.28.35.4s.25.24.43.32c.11.05.27-.12.26-.23-.02-.17-.05-.32-.09-.48s-.03-.35-.08-.52c-.1-.31-.27-.6-.37-.91-.22-.63-.37-1.29-.47-1.95-.21-1.45-.22-2.92-.12-4.38.22-3.11.98-6.18,1.83-9.17.4-1.41.8-2.82,1.2-4.23.01-.05-.06-.02-.07,0h0Z"/>
  <path class="cls-1" d="m40.7,19.24c-.13.34-.27.68-.39,1.03-.06.17-.11.34-.16.51-.04.16-.06.32-.08.48,0,.05.08,0,.08-.02.08-.17.16-.34.23-.52.06-.16.12-.33.18-.49s.11-.32.15-.49.07-.34.11-.51c.02-.09-.1-.03-.12.02h0Z"/>
  <path class="cls-1" d="m56.03,26.39c-1.27,4.38-2.26,8.89-4.2,13.05-.27.58-.57,1.15-.87,1.72-.15.28-.31.56-.46.84-.14.25-.25.48-.25.76,0,.05.06.04.09.02.45-.35.7-.86.95-1.36s.51-1.03.73-1.56c.45-1.05.87-2.1,1.25-3.18.77-2.15,1.38-4.35,1.94-6.56.31-1.25.61-2.5.9-3.75.01-.06-.07-.01-.08.02h0Z"/>
  <path class="cls-1" d="m49.25,44.17s-.07.08-.11.12c-.05.05-.09.09-.14.14-.09.1-.16.19-.25.28-.02.02-.04.04-.06.07-.02.02-.03.04-.05.05.02-.02,0,.01-.01.01-.05.05-.09.11-.14.17-.04.05-.06.09-.1.14s-.08.09-.12.14c-.03.04-.01.11.05.08.06-.03.11-.07.16-.1s.1-.07.15-.11c.12-.09.22-.2.31-.32.08-.1.15-.21.22-.32.04-.06.07-.12.09-.19.01-.05.03-.1.06-.15.03-.06-.04-.04-.06-.01h0Z"/>
  <path class="cls-1" d="m56.39,24.11c-.02.05-.04.1-.06.16-.02.05-.03.09-.04.14s-.02.09-.04.14-.01.1-.01.14c0,.01.01.02.03.02.02,0,.03-.02.04-.03.03-.05.06-.1.07-.16.02-.05.03-.1.05-.14s.03-.09.04-.14.02-.1.03-.15c0-.03-.01-.05-.04-.04-.03,0-.06.04-.07.07h0Z"/>
  <path class="cls-1" d="m37.09,38.31c-.15.75-.26,1.51-.26,2.27,0,.38.02.75.07,1.13.04.32.07.76.33.99.05.04.12-.03.13-.08.09-.38,0-.77-.04-1.15-.04-.36-.07-.72-.09-1.08-.03-.7-.05-1.4-.07-2.1,0-.04-.06,0-.07.02h0Z"/>
  <path class="cls-1" d="m37.57,43.45s0,.08,0,.12c0,.05,0,.09,0,.14,0,.08.01.17.04.25.01.04.02.08.04.11s.03.07.05.1c.04.07.08.14.1.21.02.05.09-.02.09-.06,0-.09,0-.18,0-.27s-.02-.17-.04-.25c-.02-.08-.05-.14-.09-.21-.02-.03-.03-.07-.05-.1-.02-.03-.04-.06-.06-.09-.01-.04-.08.02-.08.05h0Z"/>
  <path class="cls-1" d="m37.49,35.12c-.12.25-.21.51-.25.79-.02.13-.05.28-.04.41,0,.06.02.11.03.17s.02.11.05.16c.02.04.09-.03.09-.05.03-.06.04-.13.05-.2.02-.07.04-.14.06-.21.02-.13.03-.26.04-.39.03-.24.05-.47.07-.71,0-.07-.09,0-.1.03h0Z"/>
  <path class="cls-1" d="m47.24,46.3c-.34.22-.71.39-1.08.53-.08.03-.16.06-.23.08-.1.03-.22.08-.29.1-.11.04-.22.08-.33.12s-.24.08-.34.14c-.15.09-.3.22-.32.41-.01.16.09.23.24.2.13-.02.27-.09.39-.15.1-.04.21-.09.31-.14.22-.11.44-.23.64-.36.39-.24.74-.55,1.05-.88.04-.04.02-.1-.04-.06h0Z"/>
  <path class="cls-1" d="m56.9,21.64c-.07.04-.12.1-.16.17,0,.01-.01.02-.02.04.01-.03,0-.02,0,0-.02.03-.03.05-.04.08-.04.1-.07.2-.1.3,0,.04-.01.07-.02.11,0,.06,0-.05,0,.01,0,.05-.01.11-.01.16,0,.02,0,.03,0,.05,0,.03.01.06.03.08,0-.01,0-.01,0,0,0,.01,0,.03.01.04.01.03.03.04.05.06l-.03-.03s0,.01,0,.02c.03.07.13,0,.16-.04.01-.02.02-.02.01-.01l-.06.05c.09-.04.13-.13.18-.2l-.15.12c.2-.08.27-.34.3-.53.01-.07.02-.15.02-.22,0-.03,0-.05,0-.08,0-.05,0-.09-.04-.13l.03.07s0-.1-.04-.13c-.04-.04-.09-.03-.14,0h0Z"/>
  <path class="cls-1" d="m41.38,17.47s-.03.1-.05.14-.04.1-.06.15c-.03.09-.07.18-.11.27,0,.01,0,.02,0,.03.01,0,.03-.01.04-.02.07-.09.12-.18.17-.28.04-.09.06-.2.08-.3,0-.02,0-.03-.03-.03-.02,0-.04.02-.04.04h0Z"/>
  <path class="cls-1" d="m38.75,30.06c-.1.27-.19.52-.26.8-.08.29-.16.59-.24.88s-.15.56-.23.84c-.04.14-.08.29-.13.43s-.13.27-.16.42c-.04.22.25.08.29-.04.09-.24.09-.52.16-.77.07-.29.14-.58.21-.86.14-.57.29-1.13.4-1.71,0-.04-.05-.02-.06,0h0Z"/>
  <path class="cls-1" d="m39.52,27.74s-.04.05-.06.09c-.02.03-.04.06-.06.09-.04.07-.07.15-.1.23-.02.04-.03.09-.04.13-.01.05-.03.11-.01.16,0,.02.01.03.02.04h0s0,.03,0,.04c0,0,.02.03.02.02,0,.01,0,.02.01.04.02.05.08,0,.09-.02,0,0,.03-.03.03-.04-.02.02-.02.02.01,0,0,0,.01-.02.02-.02.02-.03.05-.06.07-.09l-.11.1c.08-.04.14-.1.18-.18.02-.04.03-.08.04-.12.02-.06.03-.11.04-.17s.02-.12.02-.18c0-.02,0-.05,0-.07,0-.03-.01-.05-.02-.07,0-.03-.04-.03-.07-.03-.04,0-.07.04-.09.06h0Z"/>
  <path class="cls-1" d="m23.98,81.09c.02-.12-.04-.14-.11-.18h-.02s.03,0-.03-.03c-.03-.01-.06-.02-.09-.03-.1-.02-.19-.02-.29-.02-.21.02-.43.08-.62.19-.43.24-.79.59-1.01,1.03-.1.19-.27.57-.09.76.16.17.41,0,.54-.12.14-.14.21-.32.27-.51,0-.02.01-.04.02-.06.02-.08-.04.11-.01.03.01-.03.03-.07.05-.1,0-.02.02-.04.03-.06.04-.08-.07.11-.02.04.02-.04.05-.07.08-.11v-.02s.03-.02-.03.06c.02-.02.03-.03.04-.05.03-.03.05-.05.08-.08.03-.03.1-.07-.04.03.02-.01.03-.03.05-.04.04-.03.07-.05.11-.08.07-.05-.11.06-.03.02.02-.01.05-.03.07-.04.04-.02.09-.05.13-.07.03-.02.18-.07.04-.02.05-.02.1-.03.14-.05.07-.02-.1.03.01,0,.12-.04.24-.08.35-.11-.07.02-.02,0,0,0,.07-.02.13-.04.19-.08.11-.08.17-.18.19-.3h0Z"/>
  <path class="cls-1" d="m23.12,82.55q-.07.02,0,0s0,0,0,0l-.1.02s.12-.01.16-.03c0,0,.02,0,.02-.01.05-.02.09-.05.13-.08.05-.03.09-.07.13-.11,0,0,.02-.02.03-.03.04-.04.08-.1.11-.15.01-.02.02-.06.03-.08l-.03.07h0s-.07.09-.1.13c.02-.02.04-.04.06-.06.03-.03.05-.07.07-.11.02-.04.04-.1.03-.14l-.04.11s.04-.05.05-.08c0-.02.02-.07,0-.08,0,0-.01,0-.02-.01-.02-.01-.04-.01-.06-.01l.05.02-.02-.02s-.04-.03-.07-.03c-.04,0-.05-.01-.09,0-.01,0-.02,0-.03.01h.07s0,0,0,0h.06s-.03,0-.07,0c-.05,0-.11.02-.15.04-.01,0-.02.01-.03.02-.07.04-.12.07-.18.13,0,.01-.02.02-.03.03-.06.06-.11.12-.15.2,0,0,0,.02-.01.03-.03.08-.06.19.02.25l-.02-.03h0c.03.08.13.07.19.04h0Z"/>
  <path class="cls-2" d="m46.49,41.99s-.02-.03-.03-.04c0,0,.01.05,0,0,0,0,0-.02,0-.03-.02-.04-.08-.07-.12-.09-.09-.04-.18-.04-.28-.02-.24.05-.44.24-.59.43-.17.21-.29.5-.25.78.03.22.14.42.31.56s.39.22.62.23c.58.03,1.17-.46,1.19-1.06,0-.14-.03-.3-.1-.43-.04-.07-.09-.14-.15-.19-.05-.04-.1-.07-.16-.06-.05.01-.12.04-.15.08-.03.03-.05.08-.06.12-.02.07,0,.12.04.17.05.06.09.1.12.17.03.08.04.11.03.18,0,0,0,.02,0,.03,0,0,0-.03,0,0,0,.02,0,.04-.01.06,0,.02-.01.04-.02.07,0,0,0,.02,0,.03,0,.03.02-.03,0,0-.01.03-.03.06-.04.09,0,.01-.01.03-.02.04,0,0,0,.01-.01.02-.02.04.01-.03.02-.03-.02.02-.03.04-.05.07-.04.05.02-.02.02-.02,0,0-.02.03-.03.03,0,0-.02.02-.03.03-.04.04.05-.04.03-.02,0,0-.06.04-.06.04,0,0,.08-.04.03-.02-.01,0-.02.01-.03.02,0,0-.02,0-.03.01,0,0,.08-.02.02,0-.02,0-.04.01-.06.02-.01,0-.02,0-.03,0-.04,0,.07,0,.02,0-.04,0-.09,0-.13,0-.01,0-.02,0-.03,0-.04,0,0,0,.02,0-.02,0-.05,0-.07-.02-.05-.01-.09-.03-.13-.05s-.08-.04-.12-.07l.05.03s-.07-.05-.11-.07l.05.03c-.1-.07-.19-.15-.26-.26l.03.05s-.05-.09-.07-.13c0-.02-.01-.04-.02-.06,0-.01-.01-.06,0,0s0,0,0,0c0-.02,0-.05,0-.07,0-.01,0-.03,0-.04,0-.03.02-.04,0,.03,0-.03,0-.05.02-.08,0-.01,0-.02.01-.03.01-.05-.04.09,0,.03.01-.03.02-.05.03-.08,0-.01.01-.02.02-.04-.06.11-.03.05,0,.02.02-.03.04-.05.05-.07-.07.11-.02.01,0,0l-.04.04s.02-.02.03-.02c.02-.01.03-.02.05-.03.07-.05-.04.02,0,0,.02,0,.07-.03,0,0-.05.02.1-.04.1-.04-.03.01-.03.01,0,0,0,0,.02,0,.03,0,.02,0,.05,0,.07-.02.04-.01.08-.05.12-.06-.08.02.02,0,.04,0,.07-.01.18-.13.12-.2h0Z"/>
  <path class="cls-2" d="m47.39,40.71s-.01,0-.02,0h.03s-.05-.02-.09-.01c-.01,0-.03.01-.04.01-.01,0,.03-.01.02,0-.03.01-.06.02-.08.05-.03.03-.06.06-.09.1-.05.08-.08.17-.08.27-.01.13,0,.27.03.4.02.08.07.17.14.22s.16.08.24.08c.22,0,.41-.12.57-.25s.28-.33.29-.54c0-.09-.03-.18-.08-.25-.02-.03-.05-.05-.08-.08s-.06-.04-.09-.05c-.04,0-.07-.01-.11,0-.04.01-.08.03-.11.06,0,0-.02.01-.02.02,0,0-.01,0-.01,0,0,0,.04-.02.02-.01,0,0,0,0-.01,0-.03,0-.05.03-.07.05-.01.02-.03.05-.02.07,0,0,0,.01,0,.01,0,0,0,0,0-.01,0-.01,0-.02,0-.01,0,0,0,0,0,.01,0,.01,0,.02,0,.03-.01.05,0,.1.03.14.02.02.04.03.06.05l-.03-.02s.08.06.11.1l-.02-.03s.03.06.04.09v-.04s0,.06,0,.09v-.05s0,.05-.01.08l.02-.05s-.01.04-.02.05c0,0,0,.02-.01.03.05-.08.03-.05.02-.04,0,0,0,.01-.01.02-.01.02-.02.03-.04.05.07-.09.02-.02,0,0,0,0-.01.01-.02.02,0,0,0,0-.01.01-.02.02.06-.05.03-.03-.02.01-.03.03-.05.04,0,0-.02.01-.03.02-.03.02.06-.03.03-.02,0,0-.01,0-.02,0-.02.01-.04.02-.06.03,0,0-.01,0-.02,0-.03.01.05-.02.03-.01-.01,0-.02,0-.03.01-.02,0-.05.01-.07.01h.05s-.07,0-.1,0h.04s-.07-.01-.1-.03l.03.02s-.03-.02-.04-.03l.03.02s-.07-.06-.09-.1l.02.03c-.04-.06-.06-.14-.07-.21v.04c0-.08-.02-.16-.02-.24,0-.02,0-.03,0-.05,0,0,0-.02,0-.02,0-.02,0,.04,0,0,0,0,.01-.03,0,0s0,0,0,0c0-.02-.03.04,0,.01.02-.03.04-.07.04-.11l-.02.06s.02-.05.03-.08l-.02.04s.01-.01.02-.02c.02-.02.03-.07-.01-.06h0Z"/>
  <path class="cls-2" d="m43.15,22.47c-.35,0-.66.33-.78.64-.14.37,0,.75.32.97.61.41,1.34-.11,1.54-.72.05-.15.06-.32.01-.47-.02-.06-.05-.13-.08-.19-.02-.05-.05-.08-.09-.11-.07-.05-.13-.06-.21-.05-.11.02-.24.16-.24.28,0,.09.06.14.12.19.02.01.04.04.06.05.02,0,0-.02,0,0,0,.01.02.03.02.04,0,.02.02.04.02.07,0,.01,0,.02,0,.03,0,.02,0-.03,0,.02,0,.02,0,.05,0,.07,0,.01,0,.02,0,.04,0,0,0,.05,0,.02,0-.03,0,.02,0,.02,0,.01,0,.02,0,.04s0,.02-.01.04c0,0-.02.05,0,.02s0,0,0,.02c0,.01-.01.03-.02.04,0,.01-.01.02-.02.03,0,0,0,.01,0,.02-.01.03.03-.04.01-.02-.02.02-.03.04-.05.07,0,.01-.03.03-.03.04,0,0,.04-.04.02-.02,0,0-.01.01-.02.02-.02.02-.04.04-.06.06-.03.03.02-.02,0,0-.01.01-.03.02-.04.03-.01,0-.02.02-.03.02,0,0-.05.03-.01.01s0,0-.02,0c-.01,0-.03.01-.04.02s-.03.01-.04.02c0,0,.04-.01,0,0-.03,0-.06.02-.08.02,0,0-.05,0-.03,0s-.02,0-.03,0c-.03,0-.06,0-.09,0-.01,0-.03,0-.04,0-.02,0,0,0-.02,0s-.06-.02-.09-.03c-.25-.09-.49-.34-.48-.62,0-.13.05-.25.14-.36.03-.04.1-.1.15-.14.07-.05.15-.1.23-.14.02-.01.09-.1.02-.1h0Z"/>
  <path class="cls-1" d="m56.39,11.24c.22-1.01.34-2.07.62-3.07.07-.24-.3-.12-.38-.06.07-.04.08-.07.02-.07-.15-.04-.36.07-.41.22v.03c0-.09-.02-.17-.03-.25-.02-.08-.1-.07-.16-.05,0,0,0,0,0,0-.06.02-.11.06-.13.1,0,0,0,0,0,0-.23.48-.31,1.01-.42,1.53-.26,1.24-.53,2.47-.81,3.7-.55,2.42-1.15,4.83-1.8,7.22-.99,3.62-2.06,7.22-3.37,10.73-.26.67-.52,1.34-.78,2.01-.22.56-.45,1.11-.69,1.66-.01.02.02.02.03,0,.03-.07.07-.15.1-.22-.03.09-.07.17-.1.26-.03.07.11.03.13-.01,2.19-4.18,3.72-8.72,5.16-13.2.75-2.33,1.44-4.68,2.12-7.03.33-1.16.63-2.33.89-3.51Zm-2.05,5.87c-.25.84-.5,1.68-.76,2.51.13-.47.25-.94.37-1.42.13-.37.26-.73.39-1.1Z"/>
  <path class="cls-1" d="m76.59,9.66c.6,2.13,1.08,4.29,1.48,6.46.21,1.14.39,2.27.53,3.42s.2,2.34.28,3.51c.17,2.33.18,4.65.21,6.98.03,2.21-.06,4.42-.31,6.61-.01.12-.03.25-.04.37.02-.16,0,0,0,.04,0,.06-.02.12-.02.18-.04.27-.08.53-.12.8-.06.39-.1.79-.16,1.18-.12.8-.26,1.6-.43,2.39s-.37,1.59-.6,2.37c-.12.39-.24.78-.38,1.16,0,.02-.07.2-.02.05s0,.02-.02.04c-.03.09-.07.18-.1.26-.08.2-.16.4-.25.59-.16.36-.33.72-.51,1.07-.08.16-.17.32-.26.47-.04.06-.15.23.03-.05-.02.03-.04.06-.06.09-.06.09-.11.18-.17.27-.21.32-.43.63-.67.93-.02.03-.04.05-.07.08-.13.16.19-.22.06-.06-.06.06-.11.13-.17.19-.13.14-.26.27-.39.4-.07.06-.13.13-.2.19-.03.03-.06.05-.09.08.27-.25.13-.11.07-.06-.14.12-.29.23-.44.33-.14.1-.28.18-.42.27.3-.2.05-.03-.03.01-.09.05-.18.1-.27.14-.16.08-.32.15-.49.22-.04.02-.08.03-.12.05.25-.12.1-.04.03-.01-.1.03-.2.07-.3.1-.17.05-.34.09-.51.13s-.41.12-.59.1c.2.02.06,0,0,0-.04,0-.07,0-.11.01-.1,0-.21.02-.31.02-.23.01-.46.01-.69,0-.21,0-.41-.02-.62-.05-.1-.01-.2-.03-.3-.04-.2-.03.15.03-.05,0-.06-.01-.12-.02-.18-.04-.85-.18-1.67-.52-2.45-.91-.18-.09-.37-.19-.55-.29-.24-.13-.39-.23-.57-.35-.11-.07-.33-.24-.49-.37-.18-.15-.36-.3-.53-.46-.68-.63-1.3-1.33-1.83-2.09s-1.02-1.6-1.35-2.48c-.35-.93-.6-1.89-.79-2.87-.42-2.2-.65-4.43-.76-6.67-.24-4.79.1-9.59.82-14.33.38-2.47.86-4.93,1.42-7.36.14-.61.29-1.22.45-1.83.08-.3.15-.6.23-.89.04-.14.07-.28.11-.42.03-.13.11-.3.12-.44,0-.04-.06.13,0,.03s-.08.12-.02.04c.06-.09.01,0-.03.03.02-.01.06-.05.07-.07-.05.06-.11.08-.02.02.03-.02.06-.03.08-.05.05-.04-.06.04-.06.04.02,0,.04-.02.06-.03.04-.02.08-.04.12-.06.07-.03.15-.06.22-.09-.14.06,0,0,.04-.01.05-.02.11-.03.16-.05.22-.06.44-.11.66-.16.56-.11.94-.15,1.52-.19,1.29-.1,2.59-.09,3.88-.04s2.57.18,3.85.34c.54.07,1.07.15,1.6.21.4.05.8.12,1.19.24.13.04.27.09.39.15.08.04.18.17.28.15l-.08-.02s.02.05.03.07c.05.14.3-.06.26-.19-.01-.04-.04-.08-.06-.11v.12c.1-.24-.35-.49-.51-.59-.34-.21-.71-.36-1.08-.49-.51-.18-1.08-.3-1.58-.39-.65-.12-1.29-.2-1.95-.26-1.36-.12-2.73-.18-4.1-.16-1.19.02-2.39.08-3.55.32-.78.16-1.78.46-2.15,1.25-.08.17-.11.36-.16.53-.08.31-.16.62-.25.93-.16.62-.32,1.25-.46,1.87-.3,1.25-.57,2.5-.82,3.76-.97,4.93-1.58,9.95-1.62,14.97-.02,2.38.09,4.76.36,7.13.25,2.13.55,4.32,1.31,6.34.35.93.72,1.85,1.21,2.72s1.03,1.66,1.69,2.39c.31.34.64.66.98.97.16.14.32.28.49.42.04.03.08.06.12.09s.27.2.15.11c.1.07.2.14.3.2.79.51,1.64.85,2.56,1.03,1.78.35,3.66.17,5.31-.62,1.56-.74,2.85-1.97,3.83-3.38,1.95-2.84,2.82-6.32,3.35-9.68.06-.4.12-.79.17-1.19,0-.04,0-.07.01-.11-.02.14.08-.5.02-.18.02-.12.04-.24.05-.36.05-.34.09-.68.13-1.02.13-1.1.22-2.2.27-3.31.11-2.3.07-4.58-.19-6.86-.13-1.15-.3-2.3-.49-3.44-.1-.58-.19-1.17-.33-1.74s-.26-1.1-.38-1.66c-.49-2.21-1.01-4.42-1.66-6.59-.3-1.01-.66-2.01-1.02-3-.03-.08-.18.04-.16.11Z"/>
  <path class="cls-1" d="m63.17,48.94c.08.08.17.17.23.27.06.11.09.25.11.38v-.15c-.03.18.04.25.13.39,0-.01.02.03.04.07.01.02.02.04.03.06.12.2,0-.02.04.07.02.04.04.09.05.13.01.03.06.15.05.11-.03-.09.07.17.07.16-.04-.08-.01-.01,0,0,.02.05.04.1.07.15.18.42.33.85.48,1.28.35,1.02.65,2.06.9,3.11.14.6.27,1.21.38,1.82,0,.05.02.09.02.14-.03-.15-.01-.06,0-.03.01.08.03.17.04.25.03.16.05.33.08.49.06.33.11.67.16,1,.21,1.42.36,2.85.5,4.27.31,3.07.38,6.17.34,9.25s-.26,5.97-.69,8.87c-.19,1.29-.43,2.58-.73,3.85-.13.56-.28,1.12-.45,1.67-.08.26-.16.51-.24.76-.04.12-.08.24-.13.36-.03.07.04-.11,0,0-.01.03-.02.06-.03.08-.02.06-.05.12-.07.18-.09.22-.18.44-.27.65-.09.19-.08.47.19.48s.54-.24.64-.47c1-2.23,1.52-4.67,1.92-7.07.52-3.1.81-6.23,1-9.36.2-3.29.19-6.58.04-9.88-.13-2.86-.51-5.73-1.26-8.49-.29-1.06-.64-2.09-1.18-3.05-.04-.07-.08-.15-.13-.22.09.12-.05-.08-.09-.13-.02-.02-.1-.16-.07-.11.05.08-.05-.07-.07-.1-.02-.03-.05-.06-.07-.1-.12-.17-.25-.35-.4-.5-.04-.04-.02-.01-.1-.08.08.06,0,0,0-.02-.03-.03-.07-.06-.1-.09-.08-.07-.15-.14-.22-.21-.07-.07-.15-.17-.24-.21-.08-.04-.05,0-.13-.03-.05-.02-.11-.03-.16-.05-.16-.05-.3-.16-.45-.24-.1-.05-.29.16-.21.25h0Z"/>
  <path class="cls-1" d="m76.19,48.85c-.1.08-.2.18-.3.25-.14.09-.29.14-.42.26-.1.09-.2.2-.3.3-.05.05-.1.09-.15.13,0,0-.11.11-.04.04.1-.09-.13.12-.15.15-.23.24-.46.49-.66.75-.03.04-.13.13-.15.18l.07-.08c-.05.05-.1.11-.14.17-.02.03-.05.06-.07.09-.09.13-.19.26-.27.38-.77,1.11-1.37,2.35-1.88,3.6-1.11,2.76-1.76,5.65-2.12,8.59s-.54,6.09-.48,9.15c.05,2.88.22,5.77.57,8.62.28,2.32.65,4.65,1.28,6.91.06.22.13.44.19.65.15.47,1.04-.22.91-.65-.65-2.1-1.02-4.24-1.3-6.39-.37-2.8-.55-5.63-.54-8.45,0-1.52.06-3.05.16-4.57.05-.77.11-1.54.18-2.31.04-.38.07-.76.12-1.15.02-.18.04-.35.06-.53,0-.05.01-.1.02-.15,0-.03.02-.16,0-.04.01-.1.03-.19.04-.29.42-2.87,1.02-5.74,1.94-8.49.05-.16.1-.31.16-.47.03-.07.05-.15.08-.22.02-.06.08-.15-.01.03.02-.04.04-.1.05-.14.11-.3.23-.6.35-.9.25-.59.51-1.17.81-1.73.14-.28.28-.55.43-.83.06-.12.13-.24.2-.36.02-.03.14-.21.07-.11-.1.13.06-.1.09-.16.02-.04.04-.08.07-.11.01-.03.03-.05.04-.08-.16.25.11-.19.07-.11.03-.06.09-.16.02-.04.08-.13.16-.26.25-.39.05-.08.1-.17.15-.25.02-.03.03-.06.05-.09.04-.07-.07.1,0-.01s.17-.23.25-.35.12-.23.18-.36c.06-.11.15-.21.23-.3.09-.11.05-.29-.11-.17h0Z"/>
  <path class="cls-1" d="m65.86,85.59c-1.95-.3-4.03.09-5.8.96-1.32.64-2.72,1.72-2.98,3.26-.12.71.04,1.4.42,2.01.06.09.11.18.18.26-.14-.18.11.13.16.18.15.14.32.28.49.4.39.28.81.52,1.24.72,1.27.61,2.67.95,4.06,1.2,3.22.57,6.63.64,9.82-.2,1.43-.38,2.85-.99,3.97-1.98.49-.43.91-.94,1.21-1.52.26-.5.47-1.15.43-1.72-.11-1.4-1.62-2.19-2.76-2.68-.77-.33-1.57-.57-2.38-.76-.4-.09-.8-.18-1.21-.21s-.78-.03-1.16,0c-.32.03-.74.07-.99.3l.14-.07h-.04c-.12,0-.3.28-.13.28h.04s-.05-.05-.07-.07c.04.23.45.31.63.35.14.03.25.09.4.13.17.05.34.07.51.11.75.18,1.5.32,2.23.55s1.43.5,2.09.87c.25.14.51.32.75.53.11.1.21.2.31.3.04.05.09.1.13.15.02.03.04.05.06.08.01.02.08.13.03.04.06.1.12.21.16.32.02.06.03.11.05.17,0,.03.02.14,0,.01,0,.03,0,.07.01.1,0,.07,0,.13,0,.19,0,.04-.02.13,0-.02,0,.04-.01.07-.02.11-.02.13-.06.25-.09.38,0,.02-.01.04-.02.07-.04.14.02-.02.01-.03,0,0-.06.15-.07.16-.02.05-.05.1-.07.16-.04.08-.17.23-.02.05-.08.09-.13.21-.2.3-.04.05-.09.1-.12.15,0,0,.16-.17.07-.08-.03.03-.06.07-.1.1-.04.04-.09.08-.13.13-.08.09.09-.07.09-.07.03-.02-.43.33-.08.07-.11.08-.21.17-.32.25-.1.07-.21.14-.32.21-.03.02-.07.04-.1.06.18-.15.14-.08.07-.04s-.14.08-.21.11c-.26.14-.53.26-.81.37-.03.01-.07.03-.1.04-.13.05.04.02.06-.02-.02.03-.17.06-.21.07-.15.05-.31.1-.47.15-.66.19-1.33.34-2.01.44-.08.01-.17.03-.25.04-.05,0-.1.01-.15.02-.17.02.15-.02.03,0-.2.02-.39.05-.59.06-.37.03-.74.06-1.1.08-1.55.09-3.11.04-4.65-.15-.37-.04-.73-.1-1.1-.16-.04,0-.22-.04-.02,0-.04,0-.09-.02-.13-.02-.09-.02-.19-.03-.28-.05-.18-.04-.37-.07-.55-.11-.67-.15-1.33-.33-1.98-.55s-1.27-.48-1.86-.82c-.04-.03-.09-.05-.13-.08-.17-.1.11.08-.05-.03-.08-.05-.15-.1-.23-.16-.15-.11-.28-.24-.43-.36l-.15-.09c.07.05.09.05.05.02-.01-.03-.07-.06-.09-.07-.06-.05-.11-.1-.16-.15-.11-.11-.2-.22-.29-.34-.02-.03-.08-.14,0,0-.01-.03-.03-.05-.05-.08-.03-.06-.06-.12-.08-.18-.02-.05-.04-.11-.05-.17,0-.02,0-.05-.02-.07-.03-.09,0,.13,0-.02,0-.06-.01-.11-.01-.17,0-.02,0-.07,0-.08v-.02c-.02.14-.02.11,0-.07-.02.2,0,0,.01-.05.02-.07.04-.14.06-.21.03-.13-.06.14,0,.02.01-.03.02-.06.04-.09.03-.06.06-.13.09-.19,0-.02.03-.06.04-.07-.11.11-.05.07,0,.01.04-.06.29-.4.14-.2.04-.06.09-.11.13-.17.09-.12-.08.08-.01.01.03-.03.05-.06.08-.09.05-.06.11-.11.16-.17.03-.03.07-.06.11-.1-.11.09.02-.02.03-.03,1.37-1.1,3.13-1.54,4.87-1.86.55-.1,1.11-.19,1.67-.26.05,0,.17-.13.07-.14h0Z"/>
  <path class="cls-1" d="m58.22,88.21c-.31.5-.33,1.1-.21,1.67.06.28.14.56.29.8.16.27.35.46.59.65.99.76,2.2,1.11,3.4,1.37,2.66.57,5.43.62,8.13.32.75-.08,1.49-.19,2.23-.33.38-.07.74-.17,1.1-.32s.66-.37.92-.67c.05-.06.12-.16.06-.23-.15-.17-.29-.24-.53-.25-.3,0-.6.05-.9.1-.59.11-1.17.22-1.76.29-.02,0-.07,0-.15.02-.07,0-.14.02-.21.02-.16.02-.32.03-.49.05-.33.03-.66.05-.99.07-.65.04-1.3.05-1.94.05-1.3-.01-2.61-.12-3.9-.32-1.11-.18-2.29-.47-3.36-.88-.3-.11-.59-.25-.87-.4-.26-.14-.54-.29-.79-.45s-.41-.35-.51-.62c-.11-.31-.04-.63,0-.96,0-.07-.09-.01-.11.01h0Z"/>
  <path class="cls-1" d="m76.08,90.94c.06-.03.14-.02.2-.05.05-.02.11-.05.16-.07.14-.08.28-.18.41-.28.26-.21.49-.48.67-.75s.34-.58.42-.91c.03-.14.05-.32.07-.41.02-.18.05-.38.03-.56-.02-.16-.07-.3-.15-.44-.09-.17-.21-.38-.4-.45-.11-.04-.27,0-.38.02-.12.03-.25.09-.34.18-.18.18-.28.53-.18.76.04.08.1.15.15.23s.06.07.1.15c.03.05.06.11.08.16.04.09.09.15.1.19.11.23.08.42.01.67s-.22.52-.4.75c-.09.12-.19.24-.29.35-.11.12-.19.28-.31.38-.04.03-.03.11.03.08h0Z"/>
  <path class="cls-1" d="m68.9,82.46c.03.34.03.67.07,1.01.04.3.07.61.1.91.07.65.14,1.31.22,1.96s.18,1.24.3,1.86c.06.32.12.64.2.95.06.25.11.62.42.66.07,0,.15-.07.17-.12.13-.3.02-.56-.09-.85s-.2-.59-.29-.89c-.17-.62-.28-1.27-.38-1.9s-.19-1.25-.29-1.88c-.04-.28-.09-.56-.14-.83-.06-.31-.16-.6-.25-.91,0-.03-.06.01-.06.03h0Z"/>
  <path class="cls-1" d="m68.68,79.83c-.03.13-.06.25-.06.39,0,.12,0,.25,0,.37,0,.12.01.23.04.34.03.09.06.18.1.26.02.06.1-.02.1-.05.03-.12.06-.23.08-.35s.02-.24,0-.36-.03-.23-.04-.35c0-.06-.01-.12-.03-.17-.02-.05-.03-.1-.05-.15-.02-.07-.13.03-.14.07h0Z"/>
  <path class="cls-1" d="m69.38,60.21c.12-.73.17-1.47.28-2.21s.25-1.48.44-2.2.41-1.4.71-2.07.68-1.22.87-1.89c.03-.11-.1-.06-.14-.03-.58.5-.9,1.18-1.2,1.87s-.53,1.42-.71,2.16-.28,1.45-.34,2.18-.11,1.48.01,2.21c0,.06.09,0,.09-.03h0Z"/>
  <path class="cls-1" d="m69.57,54.08c.07-.16.16-.31.24-.47s.13-.31.2-.46.12-.3.19-.45c.05-.13.18-.39.05-.51l.03.09c0-.07-.01-.14-.03-.21s-.12,0-.14.02c-.09.08-.17.16-.24.25l.17-.14c-.21.12-.34.32-.42.54-.06.17-.13.34-.17.51-.03.16-.06.32-.06.48,0,.14.05.27.09.4.02.04.08-.01.09-.03h0Z"/>
  <path class="cls-1" d="m69.11,55.15c-.09.17-.15.34-.16.53,0,.04,0,.07,0,.11,0,.04.01.08.02.11,0,.03.02.06.04.09,0,.01.01.02.02.04,0,.01.01.03.02.04.03.07.12-.03.13-.06.01-.04.03-.09.04-.13l-.05.08c.07-.06.08-.16.11-.25.02-.07.02-.15.02-.22,0-.14,0-.26-.04-.39,0-.03-.05-.03-.07-.02-.03.01-.06.04-.08.07h0Z"/>
  <path class="cls-1" d="m59.8,20.97c.1-.13.11-.14.23-.23.05-.04.14-.11.17-.17.03-.04-.14.08-.05.04.04-.02-.12.03-.12.03.05.02.15-.03.19-.05.08-.04.15-.1.22-.16.01-.01.11-.1.05-.04s.02-.01.03-.03c.03-.02.06-.05.09-.07.11-.09.23-.17.34-.24.13-.09.25-.18.38-.27.03-.02.06-.04.09-.06.02-.01.13-.08.04-.02s.02-.01.04-.02c.04-.02.08-.05.13-.07.29-.16.59-.3.9-.42.07-.03.15-.06.22-.09.04-.02.09-.03.13-.05-.11.04-.02,0,.03-.01.17-.06.34-.12.51-.17.36-.11.73-.2,1.09-.28s.77-.15,1.16-.21c.1-.01.2-.03.3-.04.03,0,.14-.02.05,0,.06,0,.12-.02.19-.02.2-.02.41-.04.62-.06,1.67-.14,3.36-.11,5.02.09.82.1,1.49.21,2.29.4.69.16,1.37.36,2.03.63.29.12.57.24.85.39.13.07.25.14.38.21.03.02.1.06.03.02.03.02.05.03.08.05.06.04.12.08.18.12.2.15.39.31.56.49.1.1.19.19.31.27-.1-.07.1.06.12.08-.06-.06.03.07.05.09.08.08.21.17.33.17l-.14-.09c.05.08.12.12.19.18.13.11.32-.09.35-.21s.06-.26.03-.38l-.03.21c.07-.15.09-.36.05-.51-.01-.05-.03-.09-.05-.14,0,0-.03-.05,0,0,.03.07-.01-.07-.02-.07,0-.03-.01-.06-.02-.09-.07-.25-.27-.45-.45-.62-.42-.38-.92-.68-1.43-.93-1.29-.63-2.71-.97-4.12-1.2-1.63-.27-3.28-.37-4.93-.31s-3.23.25-4.77.72c-1.35.41-2.77,1.01-3.65,2.16-.13.17-.3.37-.24.59v-.15s-.03.09-.02.12c0-.02.06-.13,0-.05-.04.05-.07.13-.08.19-.03.11-.04.21-.07.32-.03.09.09.04.12,0h0Z"/>
  <path class="cls-1" d="m60.54,28.68c-.27,2.91-.45,5.82-.38,8.75.04,1.62.15,3.24.37,4.84s.51,3.07,1.09,4.5c.29.72.64,1.42,1.06,2.07.2.31.41.6.64.88.13.15.28.24.46.32.19.08.34.18.54.22.12.03.3-.13.26-.26-.05-.16-.13-.28-.2-.44-.07-.16-.11-.34-.22-.48-.19-.26-.41-.49-.59-.76-.38-.55-.69-1.15-.96-1.76-.59-1.35-1-2.78-1.3-4.22-.62-3.06-.72-6.22-.7-9.33,0-1.46.01-2.92,0-4.38,0-.05-.08,0-.08.04h0Z"/>
  <path class="cls-1" d="m60.91,23.43c-.02.19-.05.38-.07.56-.02.18-.03.36-.04.54s-.02.35-.01.52c0,.16.03.31.06.47,0,.05.08-.02.09-.04.03-.18.07-.36.09-.55s.03-.36.04-.54.02-.35.01-.52-.02-.34-.04-.51c0-.09-.13.01-.13.06h0Z"/>
  <path class="cls-1" d="m77.59,26.21c-.07,4.56.19,9.16-.58,13.68-.11.64-.25,1.29-.39,1.92-.07.32-.15.63-.22.95-.06.27-.1.5,0,.76.02.06.1,0,.12-.03.36-.48.47-1.05.58-1.64.1-.54.2-1.09.27-1.64.14-1.11.26-2.23.35-3.35.17-2.28.17-4.57.11-6.85-.03-1.28-.08-2.57-.15-3.85,0-.05-.08,0-.08.04h0Z"/>
  <path class="cls-1" d="m75.8,45.15c-.05.12-.13.23-.19.34s-.11.23-.17.35c-.05.11-.11.22-.15.33-.02.05-.03.11-.06.16s-.05.11-.07.16c-.03.08.05.08.09.03.09-.09.18-.2.26-.31.08-.11.15-.24.2-.36s.09-.24.13-.37c.02-.06.03-.12.03-.18,0-.05,0-.12,0-.17s-.06-.02-.07,0h0Z"/>
  <path class="cls-1" d="m77.32,23.92c0,.05,0,.11-.01.16s0,.1,0,.15,0,.1,0,.15c0,.05.02.09.03.13,0,.03.06-.02.06-.03.01-.05.03-.11.03-.16,0-.05,0-.1,0-.16s0-.1,0-.16,0-.1-.01-.15c0-.03-.03-.03-.06-.02-.03.01-.05.04-.06.08h0Z"/>
  <path class="cls-1" d="m62.51,42.75c.05.76.13,1.51.33,2.25.1.36.22.72.36,1.07.13.31.28.72.6.87.05.03.12-.06.12-.1.02-.38-.19-.75-.33-1.1s-.26-.67-.37-1.01c-.22-.67-.44-1.34-.65-2.01-.01-.03-.07.02-.07.04h0Z"/>
  <path class="cls-1" d="m64.35,47.57s0,.04,0,.06,0,.04.01.06c0,.04.02.08.04.12.03.08.06.16.11.23.02.03.04.07.07.1s.05.06.08.08c.05.06.11.11.15.17.03.04.1-.04.09-.07-.02-.08-.04-.16-.07-.24-.01-.04-.03-.08-.04-.12s-.04-.07-.06-.11c-.04-.07-.09-.13-.15-.19-.03-.03-.05-.06-.08-.08-.03-.02-.06-.05-.08-.08-.02-.03-.08.03-.07.06h0Z"/>
  <path class="cls-1" d="m62.05,39.57c-.06.27-.07.54-.05.81.01.13.02.27.06.4.02.06.05.1.08.15s.05.12.1.15c.04.03.09-.03.1-.06.01-.07,0-.14,0-.21,0-.07,0-.13,0-.2-.01-.13-.04-.26-.06-.38-.04-.24-.08-.47-.13-.71-.01-.06-.1.02-.11.05h0Z"/>
  <path class="cls-1" d="m74.43,47.75c-.56.63-1.25,1.08-1.93,1.57-.13.09-.3.3-.23.48s.31.09.41.01c.38-.28.75-.59,1.07-.94.3-.33.55-.69.75-1.09.03-.06-.04-.06-.07-.03h0Z"/>
  <path class="cls-1" d="m77.16,21.41c-.05.05-.08.1-.11.16l-.02.05s0,.03,0,.01c0,.03-.02.05-.03.08-.02.09-.03.18-.03.28,0,.08,0,.14.02.22,0,.05.02.09.04.14.03.07.06.09.13.1l-.08-.03s.02.03.03.05c.02.02.03.03.05.04.02.01.02.02.05.03.02,0,.04,0,.05-.01.05-.03.07-.08.09-.12.04-.06.06-.14.08-.21l-.05.1c.08-.09.1-.23.09-.35,0-.04,0-.08,0-.12,0-.05-.02-.1-.03-.16-.02-.08-.04-.15-.08-.21,0,0,0,0,0-.01,0-.01-.01-.02-.02-.04-.01-.01-.02-.03-.04-.04-.05-.03-.12-.02-.16.03h0Z"/>
  <path class="cls-1" d="m61.09,21.52c0,.05,0,.1-.01.15s-.01.1-.02.16c0,.1-.01.19-.04.29,0,.04.04.01.05,0,.05-.1.07-.21.09-.32.01-.1,0-.21,0-.31,0-.02-.02-.02-.04-.01-.02,0-.03.03-.04.05h0Z"/>
  <path class="cls-1" d="m61.92,34.36c-.03.31-.04.61-.04.93,0,.28,0,.57,0,.85s0,.56,0,.84c0,.16,0,.32-.02.48-.02.14-.06.27-.05.41.02.21.3-.03.32-.15.01-.13-.02-.24-.04-.37-.02-.15-.02-.31-.02-.46,0-.28-.02-.55-.02-.83s-.02-.56-.02-.84c0-.15,0-.3,0-.45s-.03-.29-.04-.43c0-.04-.06,0-.06.03h0Z"/>
  <path class="cls-1" d="m62.03,31.92c-.03.08-.06.16-.09.25-.02.07-.02.14-.03.21,0,.05,0,.09,0,.13s0,.1.04.14c.01,0,.03.02.04.03,0,0,0,0,0,0,0,0,.02.03.03.04,0,0,.02.01.03.02.01,0,.02.02.03.04.03.03.08-.02.09-.05.03-.07.07-.13.1-.21l-.1.12c.06-.04.11-.1.13-.16.02-.05.02-.1.03-.15,0-.03,0-.07,0-.1,0-.03,0-.05-.01-.08,0-.06-.01-.12-.04-.18,0-.02-.02-.05-.03-.07-.01-.03-.03-.04-.05-.07s-.06-.01-.08,0c-.03.02-.07.05-.08.08h0Z"/>
  <path class="cls-1" d="m61.19,87.37s-.03,0-.04,0c.04,0,.04,0,0,0-.03,0-.06,0-.09,0-.07,0-.14.01-.21.03-.12.03-.24.08-.34.14-.29.17-.53.38-.72.65-.16.23-.29.49-.36.77s-.14.75.25.79c.15.02.33-.13.41-.25.11-.16.17-.33.17-.52,0-.04,0-.09,0-.13v-.03s0-.04,0,0c0,.03,0,.03,0,0v-.03s.02-.09.04-.14c0-.02.02-.04.02-.06-.02.07-.03.08-.02.05,0-.01,0-.02.01-.04.02-.04.04-.08.06-.12s.07-.09-.01.02c.01-.02.02-.04.04-.05.02-.04.05-.07.08-.11.06-.07-.01.03-.03.04.01,0,.04-.05.05-.06.03-.03.06-.06.09-.09,0,0,.06-.04.06-.05,0,.02-.11.09-.03.03s.15-.1.23-.16c-.03.02-.07.04-.01,0,.04-.02.08-.05.13-.07-.1.06,0,0,0,0,.07-.04.12-.08.18-.13l-.15.11s.05-.03.07-.04c.12-.06.24-.18.27-.32.03-.11-.02-.2-.14-.21h0Z"/>
  <path class="cls-1" d="m60.92,89.04c-.04.05-.03.03-.02.02l-.09.06s.09-.06.13-.1l-.17.1c.16-.04.26-.18.36-.3l-.06.08s0,0,.01-.01l.07-.08.05-.08s.01-.02.02-.04c.01-.02.02-.04.03-.07.01-.03.02-.07.02-.11,0-.01,0-.05-.01-.07v.13s0,0,0,0l-.03.07c.04-.08.08-.19,0-.27v.12s.03-.06.02-.1c0-.03-.02-.05-.05-.05-.03,0-.07,0-.1.02h.1c-.07-.05-.17-.02-.23.02-.02.01-.05.03-.07.05l.21-.08c-.08,0-.16.03-.23.08-.04.03-.07.06-.1.09-.06.06-.11.13-.15.21,0,.01-.01.02-.02.04,0,.02-.01.03-.02.05-.01.04-.02.07-.02.11,0,0,0,.02,0,.03,0,.02,0,.05.01.06.01.04.05.06.09.08l-.04-.02s.01.01.02.02c0,0,.01,0,.02.01.05,0,.05,0,.02,0,.08.03.16-.05.21-.1h0Z"/>
  <path class="cls-2" d="m72.59,43.81s-.02-.02-.03-.02c-.02-.02,0,.01,0,0-.01-.03-.03-.04-.06-.06-.56-.12-.98.56-.99,1.06,0,.32.18.58.46.74s.64.13.93.02c.36-.13.65-.47.73-.84.03-.13.03-.25,0-.38-.03-.12-.09-.22-.15-.3-.07-.1-.17-.17-.27-.22-.15-.08-.33.03-.36.19,0,.03,0,.08.02.11.07.06.15.1.21.17.05.06.08.11.1.2,0-.02,0,.03,0,.04,0,.02,0,.04,0,.07,0,.02,0,.05,0,.07,0,.01,0,.02,0,.03,0,.04,0-.01,0,0,0,.03-.01.07-.02.1,0,.04-.03.07-.03.11,0-.03.02-.05,0-.02,0,.01-.01.03-.02.04,0,.01-.02.03-.02.04.03-.08.03-.04,0-.02,0,.01-.02.02-.03.03-.04.05.06-.06.02-.03,0,0-.02.02-.03.03-.04.04.07-.06.02-.02-.02.01-.09.06-.03.03.06-.03.01,0,0,0-.01,0-.03.01-.04.02s-.06.02,0,0,0,0,0,0c-.03,0-.05.01-.08.02-.01,0-.03,0-.04,0,.02,0,.07,0,.02,0-.03,0-.05,0-.08,0-.03,0-.05,0-.08,0-.01,0-.02,0-.03,0-.04,0,.03,0,.03,0,0,0-.02,0-.03,0-.1-.02-.21-.05-.3-.1-.01,0-.02-.01-.03-.02-.05-.02.04.03.01,0-.02-.02-.04-.03-.07-.05-.04-.03-.08-.07-.11-.11,0,0-.01-.02-.02-.03,0,0,.03.06,0,.01-.01-.02-.03-.05-.04-.07,0-.02-.02-.05-.02-.07,0-.01,0-.03,0-.04,0,0,0,.06,0,.04,0,0,0-.02,0-.03,0-.03,0-.06,0-.1,0-.02,0-.03,0-.05,0-.07,0,.05,0,.01s.01-.07.03-.11c0,0,0-.02,0-.03.01-.04-.01.03-.01.04,0-.02.02-.04.02-.06,0,0,.02-.04.02-.04,0,0-.04.07-.01.02,0-.01.02-.02.02-.03.03-.04-.02.02-.02.03.02-.03.05-.06.07-.09-.01.02-.06.06-.02.03.03-.02-.04.03-.03.03.01,0,.02-.02.04-.03.02-.01.04-.03.06-.04.02-.02-.02.01-.02.01,0-.01.03-.02.04-.02.05-.02.1-.05.13-.09.01-.02-.03.02-.03.02.01,0,.05-.03.06-.03.04-.02.17-.15.09-.19h0Z"/>
  <path class="cls-2" d="m73.09,42.32s-.01,0-.02,0h.03s-.07,0-.1.01c0,0-.02.01-.03.02-.03.02-.06.05-.08.08-.03.04-.05.09-.06.14-.02.09,0,.18.01.27.01.06.03.12.05.18.02.05.05.11.08.16.05.07.12.13.2.16.08.03.18.03.26,0,.1-.03.19-.08.27-.14.09-.07.17-.15.23-.25s.11-.19.14-.29c.03-.09.03-.19,0-.28,0-.04-.03-.07-.04-.1s-.04-.06-.07-.08c-.04-.03-.08-.06-.13-.07-.03-.01-.07-.02-.1-.02-.03,0-.05,0-.08,0-.06.02-.11.05-.16.1-.01.01-.02.02-.03.04l.04-.03s-.02,0-.02.01c-.03.02-.1.08-.06.12,0,0,0,0,0,0v-.03s-.02.08,0,.12c.01.02.03.03.05.04,0,0,.01,0,.02.01.01,0,.03.01.04.02.03,0,.05.02.08.04l-.03-.02s.06.05.09.09l-.02-.03s.03.07.04.11v-.04s0,.07,0,.11v-.05s0,.08-.02.12l.02-.05s-.03.08-.05.11l.03-.05s-.04.07-.07.1l.04-.05s-.05.05-.08.08l.05-.04s-.05.04-.08.06l.05-.03s-.05.03-.08.04l.05-.02s-.05.02-.08.02h.05s-.06,0-.09,0h.04s-.08-.01-.11-.04l.03.02c-.06-.04-.1-.09-.13-.14l.02.03c-.03-.05-.06-.11-.08-.17-.03-.07-.07-.14-.08-.22v.03s0-.02,0-.04c0,0,0,0,0,0,0-.01,0,.02,0,.02,0,0,0-.01,0-.02,0-.02,0-.04,0-.06,0,0,0,0,0,0,0,0,0,0,0,0,0,.01,0,.01,0,0,0,0,0-.03,0-.02,0-.02,0-.03-.01-.05v.03s0-.01,0-.02c.02-.03,0-.05-.04-.04h0Z"/>
  <path class="cls-2" d="m64.13,25.87c-.34.11-.56.49-.6.83-.04.38.2.7.56.82.68.24,1.31-.43,1.34-1.08,0-.15-.02-.3-.1-.42-.1-.16-.25-.34-.46-.27-.12.04-.28.18-.23.32.02.05.05.08.09.1.01,0,.02.01.03.02.01,0,.05.03.02,0,.03.02.07.03.1.05-.02-.01-.01,0,0,0,.01.01.02.02.03.03,0,0,.02.02.02.03.02.03,0-.02,0,0s.02.05.03.07.02.05.02.07c0,.01,0,.02,0,.03,0,.02,0-.03,0,.01,0,.05,0,.11,0,.16,0,0,0,.02,0,.02,0,0,0-.04,0-.02,0,.01,0,.03,0,.04,0,.03-.01.06-.02.08,0,.01,0,.03-.01.04,0,.03.02-.04,0-.02,0,0,0,.01,0,.02-.01.03-.02.06-.04.08,0,.01-.01.02-.02.03-.01.03.03-.04.01-.02,0,0,0,.01-.01.02-.02.03-.03.05-.05.08,0,0-.03.04,0,0s0,0-.01.01c-.01.01-.02.02-.03.03,0,0,0,0-.01.01-.03.03.04-.03.01-.01-.02.02-.04.03-.07.05-.03.02.04-.02,0,0-.01,0-.03.02-.04.02-.01,0-.03.01-.04.02.03-.01.02,0,0,0-.03,0-.06.02-.09.02-.02,0,0,0,.01,0,0,0-.02,0-.03,0-.01,0-.03,0-.04,0-.03,0-.07,0-.1,0-.02,0-.03,0-.07-.01-.04-.01-.08-.03-.12-.04-.07-.03-.14-.07-.2-.12-.11-.09-.18-.19-.21-.33-.07-.3.13-.55.34-.76.02-.02.04-.1-.01-.08h0Z"/>
  <path class="cls-1" d="m73.89,11.51c-.05-1.03-.23-2.09-.22-3.12,0-.25-.32-.03-.38.04.06-.06.06-.09,0-.07-.16,0-.33.16-.33.33v.03c-.03-.08-.05-.16-.09-.23-.04-.07-.12-.04-.17,0,0,0,0,0,0,0-.06.03-.09.09-.09.13,0,0,0,0,0,0-.09.52-.03,1.06,0,1.58.08,1.26.15,2.52.21,3.79.12,2.48.18,4.96.19,7.44.01,3.75-.06,7.5-.38,11.24-.07.72-.14,1.43-.21,2.14-.07.59-.14,1.19-.22,1.78,0,.02.03,0,.03,0,.02-.08.02-.16.04-.24,0,.09-.02.18-.03.28,0,.08.12,0,.13-.05,1-4.62,1.26-9.4,1.45-14.1.1-2.45.14-4.89.17-7.34.01-1.21-.01-2.41-.08-3.62Zm-.4,6.2c-.02.88-.04,1.75-.06,2.63,0-.49,0-.98-.02-1.47.03-.39.05-.77.08-1.16Z"/>
</svg>