<?xml version="1.0" encoding="UTF-8"?>
<svg id="ICONS" xmlns="http://www.w3.org/2000/svg" viewBox="0 0 100 100">
  <defs>
    <style>
      .cls-1 {
        fill: #273a7c;
      }

      .cls-1, .cls-2 {
        stroke-width: 0px;
      }

      .cls-2 {
        fill: #e32d73;
      }
    </style>
  </defs>
  <path class="cls-1" d="m27.43,60.3c-.59.14-1,.55-1.46.91-.18.14-.32.23-.48.42.04-.05-.04.04-.03.04-.05.06-.1.12-.15.18-.06.08-.12.15-.19.23.08-.11-.12.16-.15.2-.05.07-.1.14-.14.2-.05.08-.1.15-.15.23-.03.05-.23.39-.14.23-.1.17-.21.33-.29.51-.06.14.02,0,.03-.02-.07.14-.14.23-.18.38-.02.07-.04.14-.05.21-.05.27-.07.56-.08.83-.01.46.04.92.13,1.37.35,1.63,1.61,2.79,3.06,3.49,1.69.81,3.63,1.11,5.49,1.26,1.97.16,3.95.13,5.91,0,1.48-.09,2.95-.24,4.42-.37,3.1-.28,6.21-.78,9.28-1.44,3.32-.72,6.62-1.51,9.84-2.59s6.18-2.35,9.04-4.01c1.33-.78,2.68-1.61,3.87-2.59.87-.71,1.57-1.65,2.09-2.64s.84-2.11.54-3.19c-.14-.52-.46-.99-.92-1.28-.56-.36-1.16-.52-1.82-.55-.8-.03-1.58.24-2.37.29-.1,0-.24.23-.11.22.7-.04,1.35.27,2.02.39.56.1,1.13.24,1.6.57.41.29.74.6.89,1.09.14.44.07.93-.04,1.37-.27.99-.87,1.95-1.54,2.68-.38.42-.69.66-1.15,1-.61.45-1.23.87-1.87,1.28-2.66,1.7-5.54,3.04-8.5,4.13s-6.16,1.98-9.34,2.57-6.21.86-9.33,1.09c-1.51.11-3.01.27-4.52.39-1.83.14-3.66.23-5.49.18-.97-.03-1.94-.09-2.9-.21-.23-.03-.45-.06-.68-.1-.06-.01-.13-.02-.19-.03-.12-.02.09.02-.03,0-.12-.02-.25-.05-.37-.07-.43-.09-.86-.19-1.28-.31s-.8-.26-1.19-.43c-.18-.08-.37-.17-.54-.26-.08-.04-.17-.09-.25-.14-.04-.02-.08-.05-.12-.07-.02-.01-.16-.1-.09-.05s-.05-.03-.07-.05c-.04-.03-.08-.05-.11-.08-.08-.06-.16-.11-.23-.17-.14-.11-.28-.23-.42-.36-.26-.24-.48-.52-.67-.81.09.14.01.02,0-.02-.02-.04-.04-.07-.06-.11-.04-.08-.09-.16-.13-.25-.08-.17-.14-.34-.2-.51-.03-.09-.05-.17-.07-.26-.01-.04-.02-.09-.03-.14,0-.03-.03-.19-.02-.1s0-.05-.01-.08c0-.05-.01-.1-.02-.14-.01-.11-.02-.21-.02-.32,0-.22,0-.43,0-.65,0-.05,0-.11.01-.16,0-.02,0-.05,0-.07.01-.09-.04.11,0,.03.02-.05.04-.13.05-.19,0,.01.04-.28.02-.14-.02.1.01-.05.02-.07.01-.06.03-.13.05-.19,0-.03.02-.06.03-.08,0,.03-.05.11,0-.01.06-.15.13-.3.21-.45.03-.06,0-.02,0,0,.04-.07.08-.14.11-.2.04-.07.01-.03.06-.1.11-.18.25-.39.32-.54.12-.25.29-.44.49-.63s.39-.39.62-.54c.06-.04.14-.23,0-.19h0Z"/>
  <path class="cls-1" d="m29.72,89.92c.01.36.05.69.19,1.02s.18.69.35.95c.2.3.34.47.59.74s.47.53.79.71c1.34.77,2.89,1.13,4.4,1.36,3.19.47,6.45.3,9.65.03,1.34-.12,2.68-.24,4.01-.37,2.57-.25,5.14-.73,7.66-1.3,5.01-1.13,10-2.41,14.7-4.52,2.25-1.01,4.43-2.2,6.47-3.6.91-.62,1.77-1.27,2.5-2.09s1.51-1.87,1.57-3c.02-.43-.05-.9-.19-1.3-.04-.12-.22.05-.22.13.03.56-.15,1.06-.4,1.56s-.43.98-.71,1.44c-.26.41-.49.84-.81,1.21s-.68.64-1.07.93c-1.93,1.41-4,2.61-6.15,3.64s-4.51,1.94-6.86,2.67-4.79,1.39-7.24,1.77c-3.9.6-7.84.89-11.76,1.25-3.03.28-6.09.47-9.13.19-.41-.04-.82-.09-1.23-.14-.18-.03-.36-.06-.54-.09s.12.02-.06,0c-.04,0-.09-.02-.13-.02-.11-.02-.23-.04-.34-.07-.72-.15-1.43-.35-2.11-.62-.32-.13-.64-.28-.94-.44-.06-.04-.13-.09-.2-.11l-.15-.03c.07,0,.08,0,.04,0-.04-.01-.07-.03-.11-.04-.15-.06-.3-.13-.45-.21-.24-.13-.44-.29-.71-.52-.25-.21-.51-.3-.71-.58-.16-.23-.33-.45-.49-.69-.06-.09-.21.09-.21.15h0Z"/>
  <path class="cls-1" d="m25.33,62.07c-.24.48-.51.94-.7,1.44s-.32,1-.43,1.52c-.22,1.03-.25,2.12-.18,3.17s.22,2.11.37,3.15c.16,1.11.37,2.21.6,3.31.45,2.13.92,4.28,1.63,6.34.15.43.32.86.46,1.29.11.33.22.66.32.99.25.77.45,1.57.67,2.35.26.9.53,1.8.83,2.69.14.41.26.83.44,1.22.15.33.4.61.58.92.06.11.22-.06.2-.14-.07-.35-.07-.71-.12-1.06-.06-.39-.18-.77-.28-1.15-.22-.81-.42-1.62-.64-2.43-.4-1.52-.8-3.03-1.07-4.57-.09-.53-.18-1.07-.28-1.6s-.24-1.08-.38-1.62c-.26-1.07-.52-2.13-.77-3.2-.47-2.06-.85-4.18-1.17-6.24-.17-1.08-.31-2.18-.32-3.27,0-.51-.01-1.02.04-1.53s.08-1.08.28-1.58c.03-.08-.07-.05-.09,0h0Z"/>
  <path class="cls-1" d="m76.63,53.28c.01.21,0,.45.06.65.07.23.1.47.18.7.13.4.24.79.35,1.2.22.81.49,1.61.7,2.43s.38,1.6.54,2.41c.08.4.19.78.3,1.17s.24.75.33,1.13c.2.84.35,1.68.52,2.52s.35,1.75.53,2.62c.35,1.73.7,3.46,1.02,5.19.09.48.18.95.28,1.43.05.24.1.48.15.72.05.2.17.39.24.58.18.44.23.89.28,1.36.02.14.04.28.02.43-.02.12-.03.21-.03.33.01.23.07.45.14.67.03.09.18-.04.18-.1-.02-.21-.04-.42-.08-.62-.02-.09-.04-.17-.08-.26-.06-.13-.08-.25-.1-.39-.04-.42-.07-.82-.07-1.24,0-.21,0-.41,0-.62,0-.11.03-.22.03-.33,0-.12-.02-.26-.04-.38-.04-.44-.12-.88-.18-1.31-.26-1.75-.65-3.49-1-5.23s-.73-3.45-1-5.19c-.07-.44-.09-.87-.12-1.31s-.09-.84-.12-1.26-.15-.85-.23-1.27-.18-.83-.28-1.24c-.21-.89-.47-1.77-.78-2.64-.16-.44-.38-.86-.59-1.27-.06-.11-.11-.22-.18-.32-.06-.09-.15-.17-.21-.27s-.1-.17-.19-.25c-.1-.08-.19-.16-.29-.24-.12-.09-.31.09-.3.22h0Z"/>
  <path class="cls-1" d="m27.92,36.34c-.29,0-.55.03-.83.13s-.56.21-.84.32l.23-.06c-.36.04-.69.32-.97.54-.15.12-.3.24-.45.37-.03.02-.11.1.02-.02,0,0-.24.21-.12.1s-.09.08-.15.13c-.04.03-.07.06-.11.1-.05.04-.11.09-.15.14-.09.11.28-.23-.01.02-.09.08-.17.16-.25.26-.09.11-.17.23-.25.35-.17.25-.33.51-.46.78-.38.8-.36,1.76-.15,2.61.35,1.41,1.49,2.38,2.78,2.95,1.51.67,3.21.9,4.84,1.01s3.36.06,5.04-.05c1.25-.08,2.5-.2,3.74-.33,1.45-.16,2.9-.37,4.34-.62s2.88-.58,4.31-.89c2.85-.62,5.67-1.39,8.41-2.41s5.22-2.2,7.58-3.75c.96-.63,1.93-1.27,2.67-2.16.63-.76,1.19-1.68,1.39-2.66s-.03-1.86-.82-2.46c-.19-.14-.37-.25-.57-.36-.06-.04-.12-.07-.18-.1.06.03-.09-.04-.12-.06-.05-.02-.1-.03-.14-.05-.52-.16-1.06-.26-1.6-.29-.36-.02-.73.06-1.08.13-.4.08-.81.18-1.21.27-.07.02-.22.22-.08.22.37,0,.71.03,1.07.12.31.07.61.15.92.2.46.07.93.15,1.38.3.2.06.27.07.48.14s.41.14.6.25c.36.21.6.56.69.97.18.82-.23,1.73-.64,2.37-.25.4-.52.75-.8,1.04-.07.07-.13.14-.2.2-.03.03-.07.06-.1.09,0,0-.07.06-.03.02s-.04.03-.04.03c-.23.18-.46.35-.7.52-2.18,1.57-4.59,2.82-7.07,3.83s-5.24,1.88-7.94,2.44-5.37.86-8.06,1.05c-.88.06-1.76.1-2.64.19-.59.06-1.17.11-1.76.16-1.55.13-3.1.21-4.65.19-.84-.01-1.67-.06-2.5-.15-.2-.02-.41-.05-.61-.08-.09-.01-.19-.03-.28-.04-.05,0-.09-.02-.14-.02-.08-.01.12.02.04,0-.03,0-.07-.01-.1-.02-.38-.07-.75-.15-1.12-.26-.68-.19-1.35-.44-1.96-.81-.02-.01-.14-.08-.05-.03.08.05-.03-.02-.05-.03-.07-.05-.13-.09-.2-.14-.13-.1-.25-.2-.37-.3-.23-.21-.42-.44-.6-.69-.08-.12.04.07,0,0-.02-.03-.04-.06-.05-.09-.04-.07-.07-.14-.11-.21-.07-.14-.13-.29-.18-.44-.04-.13-.13-.34-.12-.48,0,.08.02.11,0,0,0-.04-.01-.08-.02-.12,0-.09-.02-.18-.02-.27,0-.19,0-.37,0-.56,0-.05,0-.09.01-.14,0-.02.01-.06,0-.08,0,0-.03.14,0,.09.02-.03.02-.08.03-.11.05-.18-.05.12,0,.02s.08-.19.13-.28c.02-.05.06-.09.08-.14,0,.01-.12.19-.04.07.02-.03.04-.06.05-.08.07-.1.14-.2.21-.3.08-.11.14-.21.21-.32,0,0-.1.15-.05.07.02-.04.05-.08.07-.12.07-.11.15-.22.23-.32s0,0-.01.01c.02-.02.04-.05.06-.07.05-.05.09-.11.14-.16.3-.32.53-.44.74-.79l-.17.23c.18-.2.36-.36.6-.49.25-.14.5-.29.77-.4.06-.02.19-.21.05-.21h0Z"/>
  <path class="cls-1" d="m28.26,61.8c0,.31.02.59.13.88.05.13.08.22.11.35.02.07.04.15.05.22,0,.05.06.18.08.2.06.1.2.29.23.34.05.07.19.24.29.35.09.1.18.2.27.3.02.03.18.17.06.05l.08.12c.05.03.1.07.16.1.03.02.07.04.1.06,1.13.65,2.44.96,3.72,1.15,2.67.39,5.41.25,8.09.02,1.12-.1,2.25-.2,3.37-.31,2.17-.21,4.34-.63,6.46-1.13,4.21-.98,8.4-2.04,12.35-3.82,1.9-.85,3.73-1.85,5.44-3.03.77-.53,1.49-1.07,2.12-1.76.37-.4.63-.73.91-1.24.23-.41.43-.86.43-1.34,0-.35-.08-.75-.2-1.08-.04-.12-.22.06-.22.13.01.48-.15.88-.38,1.3-.21.38-.39.86-.6,1.19-.22.35-.39.7-.66,1-.28.33-.53.51-.89.77-1.61,1.18-3.35,2.19-5.15,3.05s-3.78,1.62-5.74,2.24-4.02,1.17-6.07,1.47c-3.26.48-6.55.69-9.83,1-2.54.24-5.11.4-7.66.16-.34-.03-.69-.07-1.03-.12-.15-.02-.3-.05-.46-.07s.13.03-.02,0c-.04,0-.07-.01-.11-.02-.1-.02-.19-.04-.29-.06-.6-.13-1.2-.29-1.77-.52-.27-.11-.53-.23-.79-.37-.05-.03-.11-.07-.17-.1l-.15-.03c.08.02.1.02.05,0-.02-.02-.07-.02-.09-.03-.13-.05-.26-.1-.38-.16-.06-.03-.12-.07-.17-.1-.02-.01-.09-.06-.01,0-.05-.03-.1-.07-.15-.1.08.05-.06-.05-.09-.06-.06-.04-.11-.09-.17-.13-.05-.04-.07-.08-.13-.1,0,0-.16-.06-.07-.02-.05-.02-.1-.05-.15-.08-.13-.07-.18-.14-.27-.25-.07-.09-.13-.19-.2-.27-.08-.09-.16-.18-.23-.28-.07-.09-.21.09-.21.15h0Z"/>
  <path class="cls-1" d="m24.58,38.43c-.21.4-.45.79-.62,1.21s-.29.84-.39,1.28c-.2.86-.24,1.77-.18,2.64s.18,1.79.3,2.68c.13.94.31,1.87.5,2.8.37,1.78.76,3.6,1.37,5.32.23.63.47,1.25.68,1.89s.38,1.3.56,1.95c.22.77.46,1.54.72,2.3.12.34.22.7.38,1.02.14.28.36.49.52.75.06.09.22-.04.2-.12-.05-.29-.03-.59-.07-.88-.04-.33-.14-.65-.22-.97-.17-.68-.35-1.37-.52-2.05-.33-1.27-.66-2.55-.88-3.85-.08-.46-.14-.92-.22-1.38s-.2-.91-.31-1.36c-.21-.88-.43-1.76-.64-2.65-.39-1.73-.72-3.52-.99-5.25-.14-.89-.27-1.81-.29-2.71-.01-.43-.03-.86,0-1.29s.03-.9.19-1.31c.03-.08-.07-.05-.09,0h0Z"/>
  <path class="cls-1" d="m67.61,31.06c0,.18-.02.38.02.55.02.09.05.16.06.25.02.13.03.23.07.35.11.34.2.69.29,1.03.17.68.4,1.35.58,2.03s.32,1.36.46,2.04c.07.33.16.64.26.96s.22.64.3.96c.17.69.29,1.39.43,2.09s.29,1.45.44,2.17c.3,1.45.59,2.91.86,4.37.07.4.16.8.24,1.2.04.19.08.38.13.57s.16.34.24.51c.17.36.21.72.25,1.12.01.12.03.24.01.36-.01.09-.04.16-.04.25,0,.21.05.4.12.59.03.09.18-.04.18-.1-.01-.16-.02-.32-.05-.48-.03-.18-.14-.32-.17-.5-.05-.35-.07-.71-.06-1.06.02-.37.08-.75.05-1.12s-.09-.75-.15-1.13c-.21-1.48-.54-2.94-.84-4.41s-.63-2.93-.84-4.41c-.05-.37-.07-.73-.08-1.1s-.06-.71-.09-1.06-.13-.74-.2-1.1-.15-.69-.23-1.04c-.18-.76-.39-1.51-.67-2.24-.14-.37-.34-.72-.53-1.07-.05-.09-.09-.18-.15-.26-.06-.07-.13-.12-.18-.2-.12-.17-.27-.27-.44-.37-.11-.07-.27.14-.27.23h0Z"/>
  <path class="cls-1" d="m48.26,12.73c.8-.06,1.59-.1,2.39-.12.38,0,.75.02,1.13.05s.76.04,1.15.05c.73.02,1.47.1,2.19.04.36-.03.74-.09,1.1-.08.17,0,.33.02.5.02.19,0,.38.09.56.14.29.08.61.04.9.14.24.08.41.2.52.43.07.14.07.19.13.3.03.05.08.18.1.27,0,.02.01.05.02.07,0,0-.01-.07,0-.02s.01.1.01.15,0,.1,0,.15c0,.04-.03.22,0,.08-.02.1-.04.2-.06.3-.04.16.05-.11-.01.04-.03.06-.05.12-.08.18-.04.09-.14.18,0,0-.07.08-.11.19-.15.29-.05.11-.1.23-.16.33-.03.05-.05.1-.08.15-.01.03-.03.05-.04.08,0,.01.11-.17.06-.1-.07.1-.13.21-.2.31-.07.09-.13.18-.2.27-.03.04-.06.07-.09.11-.07.08.15-.17.08-.09-.02.02-.04.05-.07.07-.07.07-.14.15-.21.22-.03.03-.06.06-.09.08-.17.15.14-.11.04-.04-.23.18-.46.35-.7.52-.26.18-.53.36-.8.54-.14.09-.27.17-.41.26-.07.04-.14.08-.21.13-.04.02-.14.08.04-.02-.04.02-.07.04-.1.06-1.14.67-2.33,1.26-3.55,1.77-.31.13-.62.25-.93.37-.15.06-.29.11-.44.17-.14.05-.01,0,.01,0-.04.02-.08.03-.12.04-.09.03-.18.06-.27.1-.65.23-1.3.44-1.96.63-1.3.38-2.63.71-3.96.98s-2.65.48-3.99.66c-.03,0-.27.03-.13.02-.08.01-.16.02-.25.03-.16.02-.33.04-.49.06-.33.04-.65.07-.98.1-.41.04-.82.07-1.23.11-.56.05-1.12.12-1.68.18-.04,0-.08,0-.13.01-.06,0-.37.06-.2.02.12-.03,0,0-.04,0-.06,0-.11.01-.17.02-.18.02-.36.04-.55.05-.39.03-.77.06-1.16.09-.82.05-1.63.07-2.45.04-.41-.01-.81-.04-1.21-.08-.2-.02-.39-.04-.59-.07-.1-.01-.19-.03-.29-.04-.02,0-.05,0-.07-.01.02,0,.09.02,0,0-.05,0-.09-.02-.14-.03-.69-.14-1.39-.33-2.02-.66-.17-.09-.2-.11-.35-.22-.12-.09-.24-.19-.35-.3s-.21-.22-.3-.35c-.1-.13-.12-.17-.21-.33-.07-.14-.12-.28-.17-.42-.02-.07-.04-.14-.06-.21-.03-.11-.03-.11-.04-.2-.02-.17-.03-.35-.02-.52,0-.2.02-.35.08-.5.19-.5.54-.93.91-1.29.18-.18.29-.28.52-.42.1-.06-.03.02.03-.02.04-.02.07-.04.11-.06.08-.04.15-.08.23-.12.85-.44,1.76-.78,2.66-1.1,1.29-.45,2.59-.84,3.9-1.2.75-.2,1.49-.4,2.25-.58.2-.05.39-.24.43-.43.04-.18-.08-.3-.26-.26-2.69.66-5.4,1.39-7.95,2.46-.86.36-1.69.75-2.35,1.42-.44.45-.87.98-1.12,1.57-.18.42-.22.86-.19,1.31.05.69.27,1.33.72,1.87s1.03.9,1.63,1.18c1.45.67,3.14.84,4.72.91,1.47.06,2.95,0,4.42-.1,2.14-.16,4.28-.4,6.39-.76,2.82-.48,5.61-1.17,8.3-2.16s5.11-2.2,7.34-3.87c.88-.66,1.61-1.53,2.07-2.54.08-.18.21-.41.19-.6.01.12-.02.13,0,.06,0-.03,0-.05.01-.08.02-.1.03-.21.04-.31,0-.05,0-.1,0-.15,0,.19,0-.08,0-.15,0-.1,0-.21-.02-.31-.03-.23-.08-.44-.19-.64-.06-.1-.12-.21-.2-.29-.08-.1-.21-.15-.32-.2-.11-.05-.22-.08-.33-.12-.13-.04-.25-.11-.38-.15-.3-.11-.65-.1-.97-.09-.19,0-.37.06-.56.08-.23.03-.41-.02-.63-.08-.3-.09-.59-.23-.89-.33-.7-.24-1.46-.25-2.19-.27-.39-.01-.78-.02-1.18.01s-.82.08-1.23.1c-.81.04-1.63.08-2.44.15-.21.02-.4.17-.49.35-.06.13-.07.38.14.36h0Z"/>
  <path class="cls-1" d="m27.97,37.17c-.02.25-.02.46.06.7.04.11.06.16.07.28,0,.05.01.11.02.16v-.03c.02-.06.02-.03,0,.09,0,.03.11.25.05.16.07.11.13.22.21.33-.08-.12.07.1.09.13.04.05.07.1.11.14.02.02.08.08,0-.02-.02-.03.07.1.09.13.03.04.06.09.1.13.02.03.14.19.04.03.08.13.17.19.3.26.9.52,1.95.76,2.97.91,2.1.31,4.26.2,6.37.01.88-.08,1.76-.16,2.64-.24,1.74-.17,3.47-.53,5.17-.95,3.32-.82,6.64-1.64,9.78-3.05,1.5-.67,2.95-1.47,4.3-2.4.6-.42,1.17-.85,1.68-1.38.12-.13.25-.26.37-.4.16-.19.29-.41.41-.62.19-.33.37-.71.34-1.1-.02-.28-.11-.58-.21-.84-.05-.12-.22.06-.22.13,0,.35-.15.66-.3.93-.1.17-.18.34-.27.52-.04.08-.08.17-.12.25-.02.03-.04.07-.05.1,0,0-.09.15-.04.07-.2.33-.3.57-.54.86.02-.03-.08.09-.1.11-.05.05-.1.1-.15.14-.07.06-.02.02,0,0-.03.02-.05.04-.08.06-.08.07-.17.13-.25.19-1.22.9-2.52,1.67-3.88,2.33s-2.86,1.26-4.35,1.74-3.08.91-4.66,1.19c-1.48.26-3,.37-4.49.47-1.11.07-2.21.18-3.32.29-1.88.18-3.77.32-5.65.22-.53-.03-1.05-.07-1.57-.15-.12-.02-.24-.04-.36-.06-.17-.03.09.02-.06-.01-.07-.01-.14-.03-.21-.04-.24-.05-.48-.11-.71-.17-.43-.12-.86-.28-1.25-.49-.04-.02-.09-.05-.13-.07-.02-.01-.04-.02-.06-.03l-.03-.02c-.18-.03-.21-.04-.07-.01-.08.01-.24-.07-.31-.1-.09-.04-.17-.08-.26-.13-.02-.01-.09-.05,0,0-.04-.02-.08-.05-.12-.07.09.06-.04-.03-.07-.05-.04-.03-.08-.06-.13-.09-.03-.03-.06-.06-.1-.08l-.1-.02s.05.01.02,0c-.09-.03-.18-.07-.26-.11l.09.09c-.14-.23-.35-.4-.53-.6-.08-.08-.21.08-.21.15h0Z"/>
  <path class="cls-1" d="m25.08,18.73c-.17.32-.39.62-.54.95s-.26.69-.35,1.04c-.18.68-.22,1.42-.18,2.13.08,1.46.33,2.93.63,4.36s.6,2.89,1.13,4.26c.1.27.23.53.33.8.08.22.16.43.24.65.17.51.3,1.04.45,1.55.18.61.37,1.21.59,1.81.09.26.18.55.33.79.12.19.29.32.41.5.05.08.2-.08.19-.14-.03-.22,0-.43,0-.66-.01-.26-.09-.51-.15-.76-.13-.55-.26-1.1-.41-1.65s-.27-1.08-.4-1.62c-.11-.46-.18-.89-.25-1.36-.06-.37-.09-.74-.15-1.11-.07-.4-.16-.79-.25-1.18-.17-.7-.34-1.4-.5-2.11-.31-1.36-.57-2.77-.79-4.12-.12-.71-.23-1.44-.27-2.16-.01-.33-.05-.65-.03-.98s-.02-.68.09-1c.03-.07-.08-.02-.1.01h0Z"/>
  <path class="cls-1" d="m59,12.93c-.04.32-.02.64.06.96.07.29.15.58.22.87.13.53.31,1.06.45,1.59s.25,1.06.36,1.59c.05.25.13.48.21.72s.2.5.27.75c.15.54.24,1.1.35,1.65s.23,1.13.35,1.69c.24,1.16.47,2.32.68,3.48.06.32.13.63.19.94.03.14.06.29.1.42.05.15.15.26.22.4.15.27.18.55.21.85,0,.06.02.12.02.18,0,.12-.06.21-.06.33,0,.16.04.3.1.45.03.09.18-.04.18-.1,0-.14-.01-.27-.04-.4-.03-.16-.13-.27-.15-.43-.04-.29-.05-.58-.02-.87s.09-.58.07-.87-.07-.61-.11-.91c-.17-1.17-.43-2.32-.66-3.48-.11-.57-.23-1.13-.34-1.7s-.24-1.16-.31-1.74-.03-1.17-.08-1.75c-.02-.27-.1-.55-.16-.82s-.12-.56-.19-.83c-.14-.6-.31-1.19-.53-1.77-.11-.28-.27-.55-.42-.81-.17-.29-.38-.51-.69-.64-.13-.05-.26.13-.27.23h0Z"/>
  <path class="cls-1" d="m25.06,68.42c-.05.76-.12,1.51-.17,2.27-.03.45,0,.86.12,1.38.14.62.38,1.18.73,1.72.62.97,1.54,1.85,2.68,2.14,1.33.34,2.77-.19,3.71-1.18,1.05-1.11,1.45-2.57,1.88-3.99l-.94.45c.19.57.39,1.1.71,1.62s.64.97,1.05,1.4c.82.86,1.83,1.55,2.89,2.07,2.33,1.12,4.97.08,6.42-1.94.8-1.11,1.37-2.49,1.22-3.88l-.66.39c.22.65.51,1.28.88,1.85.35.53.79.99,1.22,1.46.81.88,1.98,1.52,3.16,1.75,1.27.25,2.67.08,3.9-.33,1.37-.47,2.63-1.24,3.61-2.31.61-.66,1.16-1.41,1.45-2.27.16-.47.27-.97.38-1.45.14-.63.28-1.26.42-1.89l-.87.52c.32.48.69.92,1.11,1.31.4.36.84.63,1.27.95s.83.54,1.31.75c.46.2,1.04.23,1.54.22,2.33-.05,4.5-1.41,5.72-3.39.22-.36.45-.74.58-1.14.11-.34.17-.68.22-1.03.15-.97.38-1.92.4-2.91l-.95.56c.24.57.63,1.08,1.08,1.5.48.45,1,.86,1.61,1.14,1.2.56,2.52.57,3.65-.17,1-.66,1.68-1.77,2.13-2.86s.75-2.33.86-3.55c.05-.63.04-1.24-.07-1.86-.08-.46-.2-.92-.32-1.37-.06-.22-.08-.45-.23-.63-.13-.15-.26-.3-.37-.46-.05-.07-.17.05-.19.09-.14.37-.35.81-.33,1.21s.13.83.23,1.22c.13.56.22,1.12.21,1.7-.02,1.03-.22,2.05-.54,3.05-.15.47-.35.94-.6,1.4-.1.18-.19.33-.35.55-.04.05-.07.1-.11.15-.01.02-.14.17-.04.05-.09.1-.18.2-.28.29,0,0-.14.12-.06.05s-.06.05-.06.05c-.04.03-.09.07-.13.1-.02.01-.17.1-.04.03-.23.13-.41.2-.65.25-.53.11-1.1.03-1.61-.14-1.21-.4-2.37-1.24-2.85-2.45-.09-.22-.38-.15-.53-.05-.21.13-.41.36-.41.62-.02.79-.12,1.64-.42,2.38-.24.59-.53,1.16-.84,1.72-.03.05-.05.1-.08.14-.11.19.1-.15-.02.03-.07.11-.14.21-.21.32s-.15.2-.23.3l-.04.05c-.07.08-.05.06.04-.04,0,.03-.14.16-.17.18-.07.07-.14.14-.21.21-.04.04-.09.08-.13.12-.16.15.17-.13,0,0-.2.16-.41.31-.62.44-.14.09.04-.02.04-.03-.01.03-.12.07-.15.08-.1.05-.2.11-.31.15s-.21.09-.32.13c-.18.07.16-.05-.02,0-.07.02-.14.05-.22.07-.2.06-.4.11-.61.15-.06.01-.11.02-.17.03-.03,0-.21.02-.05,0-.13.01-.26.02-.4.03-.21,0-.42,0-.63,0-.12,0-.23-.01-.35-.02-.06,0-.12-.01-.17-.02-.02,0-.24-.03-.13-.02-.52-.08-.94-.11-1.45-.27-1.08-.33-1.93-1.29-2.52-2.21-.09-.15-.38-.03-.48.03-.18.11-.35.29-.4.5-.22,1.01-.5,2.05-1,2.97-.02.03-.14.25-.09.16s-.08.12-.09.15c-.07.11-.13.21-.19.32-.03.06-.19.33-.06.12-.16.26-.34.52-.53.76-.02.02-.06.06-.07.09,0-.01.15-.17.05-.05-.05.06-.1.11-.15.17-.1.11-.21.22-.32.32-.05.05-.11.1-.17.15-.12.11.04-.04.06-.05-.03.02-.06.05-.09.07-.12.1-.25.19-.38.29-.11.08-.23.16-.35.23,0,0-.09.05-.09.06,0-.04.16-.09.05-.03-.08.04-.16.09-.24.13-.26.14-.53.25-.8.36-.04.02-.14.05.04-.01-.03.01-.07.02-.1.04-.07.02-.14.05-.21.07-.14.04-.28.08-.42.12-.29.07-.59.13-.88.17-.1.01.12-.01.02,0-.04,0-.07,0-.11.01-.06,0-.13.01-.19.02-.15.01-.31.02-.46.02-.3,0-.6,0-.89-.04s-.58-.05-.87-.1c.13.02-.11-.02-.11-.02-.04,0-.07,0-.11-.01s-.2-.03-.13-.02c-.16-.03-.31-.06-.46-.1-.56-.14-1.16-.33-1.66-.63-.27-.16-.58-.28-.81-.51s-.46-.48-.65-.75c-.44-.59-.75-1.26-.94-1.97-.09-.35-.67.16-.66.39.03.6-.07,1.13-.34,1.67-.12.23-.25.46-.4.67-.07.1-.14.2-.22.3-.09.12-.16.2-.21.26-.17.19-.35.38-.55.55-.08.08-.17.15-.25.23-.11.1.16-.12-.03.02-.06.05-.12.09-.18.14-.1.07-.2.14-.3.21-.04.03-.08.05-.12.08.15-.09-.06.03-.07.04-.1.05-.19.1-.29.15-.05.02-.11.05-.17.07-.2.09.12-.03-.09.04-.94.3-1.91.22-2.87-.15s-1.92-.91-2.72-1.61c-.87-.76-1.63-1.76-1.87-2.92-.04-.18-.3-.16-.41-.11-.19.07-.41.25-.48.44-.21.54-.38,1.08-.59,1.62-.11.27-.23.54-.36.8-.11.21-.26.44-.37.56-.29.32-.78.67-1.2.81s-.9.16-1.36.03c-1.01-.28-1.82-1.06-2.37-1.92-.28-.44-.53-.94-.71-1.44-.08-.22-.15-.45-.19-.68,0,0-.02-.11,0-.04.02.11-.05-.26-.02-.13-.02-.08-.05-.16-.07-.24-.15-.68-.24-1.37-.3-2.07-.03-.33-.48.04-.49.24h0Z"/>
  <path class="cls-1" d="m24.89,43.7c-.3.37-.44.89-.51,1.35-.07.49-.09,1-.04,1.5.1,1.03.45,1.99,1.03,2.85.49.74,1.31,1.41,2.16,1.69.41.14.86.19,1.3.14.58-.07,1.08-.28,1.55-.63.56-.41.99-.96,1.37-1.53.23-.35.43-.72.55-1.13.08-.26.19-.69-.02-.91-.03-.03-.09.02-.1.05-.14.3-.24.61-.39.9s-.34.58-.55.84c-.09.11-.17.21-.24.29-.05.06-.18.19-.27.27-.03.03-.17.14-.06.06-.05.04-.09.07-.14.11-.09.07-.18.13-.28.19-.09.06.02-.01.03-.02-.02.01-.05.03-.07.04-.04.02-.09.05-.14.07-.04.02-.1.06-.14.06,0,0,.14-.05.04-.02-.03,0-.06.02-.08.03-.19.06-.37.11-.57.15-.09.02.12,0-.03,0-.04,0-.08,0-.12,0-.1,0-.2,0-.29,0-.05,0-.09,0-.14-.02-.02,0-.05,0-.07-.01.01,0,.11.02.02,0-.1-.02-.19-.04-.29-.07-.18-.06-.36-.12-.53-.21-.09-.04-.17-.09-.26-.14-.02,0-.13-.08-.09-.06.05.03,0,0-.01,0-.03-.02-.06-.04-.09-.06-.35-.24-.66-.54-.94-.86-.58-.68-1.05-1.34-1.35-2.19-.16-.44-.28-.9-.28-1.37,0-.22.01-.45.05-.67s.11-.45.14-.68c.01-.11-.11-.05-.15,0h0Z"/>
  <path class="cls-1" d="m31.86,45.81c-.19.96-.05,1.97.45,2.81.24.42.54.76.94,1.08s.81.55,1.26.73c1.85.76,4.18.68,5.76-.64.6-.5,1-1.12,1.28-1.85.32-.84.56-1.7.66-2.59l-.74.36c.18,1.13.61,2.25,1.44,3.05.71.68,1.65,1.09,2.62,1.22,1.04.14,2.11-.08,3.07-.47.24-.1.47-.21.69-.33.05-.03.11-.06.16-.09.07-.04.29-.16.09-.06.06-.03.11-.07.17-.1.12-.07.23-.15.34-.23.5-.36.95-.79,1.34-1.26s.75-1.03,1-1.62c.35-.81.42-1.68.42-2.55l-.66.39c.24.99.78,1.91,1.61,2.51.79.57,1.74.85,2.71.86,2.36.03,4.53-1.42,5.55-3.52.32-.65.56-1.37.61-2.1s0-1.41-.12-2.1l-.46.33c.14.29.2.64.29.95s.2.64.35.94c.28.57.74,1.12,1.33,1.38.93.41,1.92.3,2.78-.24s1.48-1.42,1.93-2.31.77-1.83.96-2.8c.12-.58.18-1.15.13-1.74-.03-.48-.1-.95-.19-1.42-.04-.23-.06-.5-.14-.72-.07-.19-.26-.37-.38-.53s-.41.13-.42.26c-.03.21-.06.42-.08.63-.03.22.03.43.07.64.07.39.13.79.18,1.18.04.35.08.73.05,1.08,0,.08-.02.16-.03.24.01-.1,0,.03,0,.06,0,.05-.02.11-.02.16-.07.42-.16.83-.28,1.24-.06.22-.13.43-.2.64,0,.02-.07.18-.03.08-.02.05-.04.11-.06.16-.04.11-.09.21-.13.32-.09.21-.19.41-.29.62-.05.1-.11.2-.16.29.07-.12-.02.04-.04.06-.03.05-.07.1-.1.16-.06.08-.11.17-.18.25-.03.04-.06.09-.1.13-.02.02-.03.04-.05.06-.07.08.06-.06,0,0-.07.08-.14.15-.21.23-.03.03-.06.06-.1.09-.02.02-.04.03-.06.05-.09.09.1-.08,0,0-.07.06-.14.11-.22.17-.04.03-.08.05-.12.08-.05.03.04-.02.04-.02-.03.02-.06.04-.09.05-.08.04-.16.08-.24.11-.06.03.08-.03.02,0-.02,0-.04.01-.07.02-.05.02-.1.03-.15.04-.05.01-.09.02-.14.03-.02,0-.05,0-.07.01.02,0,.08,0,0,0-.1,0-.19.01-.29,0-.22,0-.34-.03-.56-.1-.28-.09-.52-.2-.75-.38-.28-.21-.51-.47-.71-.76-.19-.27-.37-.53-.53-.81s-.36-.58-.48-.89c-.09-.24-.49.11-.47.28.07.61.07,1.21-.05,1.82-.11.57-.24,1.15-.46,1.68-.42,1.03-1.07,1.87-2,2.43.06-.04-.06.04-.08.04-.05.03-.11.06-.16.09-.11.06-.22.11-.33.16-.23.1-.37.15-.6.22-.43.13-.86.2-1.3.23-.88.04-1.76-.14-2.52-.59-.91-.54-1.5-1.45-1.74-2.46-.04-.17-.28-.09-.37-.04-.15.09-.29.25-.29.43,0,.41-.08.81-.21,1.2-.11.3-.26.58-.39.87-.1.24-.21.47-.34.69-.01.02-.02.05-.04.07.1-.15.02-.04,0,0-.03.05-.06.1-.09.14-.07.11-.15.22-.23.32-.03.04-.07.09-.11.13-.01.02-.06.05-.06.07,0-.05.1-.11.04-.05-.09.1-.18.2-.28.3-.08.08-.16.16-.25.23-.03.03-.06.05-.08.07-.05.05-.04,0,.05-.04-.05.02-.12.1-.16.13-.2.15-.4.29-.61.43-.05.03-.09.06-.14.09.18-.09-.01,0-.05.03-.11.06-.22.12-.33.17s-.22.1-.34.15c-.06.02-.11.05-.17.07-.02,0-.05.02-.07.03-.11.04.1-.03,0,0-.23.07-.46.15-.7.2-.12.03-.23.05-.35.07-.05,0-.11.02-.16.02-.03,0-.11.01,0,0-.04,0-.07,0-.11.01-.06,0-.12,0-.18.01-.01,0-.21.02-.07,0-.03,0-.06,0-.09,0-.12,0-.25.01-.37.01-.87,0-1.74-.22-2.45-.77-.93-.72-1.43-1.8-1.6-2.95-.07-.45-.7,0-.73.27-.09.7-.25,1.43-.55,2.08-.15.33-.3.62-.49.9-.03.05-.13.2-.04.07-.03.04-.08.09-.11.13-.08.08-.15.16-.24.24-.02.02-.05.04-.07.06-.06.05.02.02.04-.03-.01.03-.09.07-.11.09-.09.07-.18.13-.27.19-.02.01-.04.03-.06.04.13-.08.05-.03.02-.01-.04.02-.09.05-.13.07-.1.05-.21.1-.32.15-.05.02-.09.04-.14.05.13-.06,0,0-.05.01-.11.04-.23.07-.34.1-.1.03-.21.05-.31.07-.05,0-.1.02-.15.03-.03,0-.22.03-.1.02-.45.05-.9.05-1.35,0-.11-.01-.22-.03-.33-.05-.07-.01.09.02-.03,0-.03,0-.05,0-.08-.02-.06-.01-.13-.03-.19-.04-.21-.05-.43-.11-.64-.19-.88-.31-1.54-.75-2.2-1.37-.71-.66-1.05-1.57-1-2.53,0-.1-.1-.11-.17-.09-.09.03-.19.13-.21.23h0Z"/>
  <path class="cls-1" d="m25,23.31c-.12,2.04.36,4.5,2.33,5.54,1.63.86,3.62.24,4.79-1.09.11-.13.22-.25.32-.39.05-.07.28-.37.27-.43v-.02s0,.03-.02.05c.04-.07.08-.13.11-.2s.06-.15.09-.22c.06-.16.13-.33.17-.5.13-.58.15-1.2.03-1.78l-.53.38c.67,1.78,1.73,3.75,3.68,4.34.23.07.45.24.69.27.25.03.51.06.76.04.49-.03.95-.2,1.37-.45.97-.56,1.8-1.37,2.4-2.32.33-.53.61-1.1.75-1.72.06-.27.11-.56.09-.84-.01-.23-.08-.45-.13-.68l-.93.67c.6,1.69,1.91,3.37,3.77,3.67,1,.16,1.91-.23,2.74-.77s1.55-1.29,2.06-2.16c.54-.93.76-1.97.69-3.03l-.88.53c.54,1.34,1.63,2.69,3.23,2.51.9-.1,1.77-.56,2.44-1.16s1.06-1.36,1.25-2.19c.2-.9.18-1.84.14-2.76l-.74.44c.18.73.5,1.45.94,2.05.37.51.88.97,1.52,1.06.76.11,1.42-.41,1.86-.98.69-.88,1.01-2.03.95-3.14-.03-.6-.16-1.19-.34-1.76-.09-.29-.19-.57-.29-.85-.11-.3-.31-.5-.52-.73-.12-.13-.37.13-.36.26.02.25.02.55.09.79s.18.47.26.71c.15.45.29.92.36,1.39.14.96.04,1.95-.47,2.79-.05.08-.1.17-.16.25-.02.03-.04.06-.06.09,0,0-.1.12-.05.07-.05.06-.11.11-.17.17-.1.1.04-.03-.03.02-.04.03-.08.06-.12.08-.11.07.04-.02-.02.01-.03.01-.06.03-.09.04-.1.05.04,0-.03.01-.03,0-.06.02-.09.03-.1.03-.18.03-.32.02-.49-.04-.96-.48-1.27-.88-.47-.59-.74-1.29-.88-2.03-.04-.19-.32-.1-.41-.04-.16.1-.32.28-.32.48,0,.72.02,1.46-.08,2.18-.05.34-.13.7-.26,1-.03.07-.06.14-.1.21-.02.04-.04.08-.06.11-.04.08-.03.05-.02.03-.08.14-.23.34-.3.41-.83.89-2.32,1.42-3.41.59-.63-.48-.98-1.19-1.22-1.92-.07-.22-.36-.13-.49-.05-.19.12-.39.34-.39.57,0,.43-.04.84-.15,1.26-.05.18-.1.35-.16.53-.05.17.04-.09-.03.08-.02.04-.03.08-.05.12-.04.11-.09.21-.15.32-.04.08-.08.16-.13.24.06-.11-.03.05-.03.05-.02.03-.04.06-.06.09-.06.09-.12.18-.19.26-.02.03-.04.06-.07.09-.02.03-.05.06-.07.08q.05-.05,0,0c-.13.15-.27.3-.42.43-.03.02-.06.05-.08.07-.14.12.1-.07-.05.04-.09.07-.18.14-.27.21-.66.47-1.28.81-2.12.73-.75-.07-1.43-.52-1.95-1.04-.67-.66-1.15-1.49-1.46-2.37-.09-.25-.44-.13-.59-.02-.21.16-.4.41-.34.68.01.05,0,.03,0,0,0,.04,0,.08.01.12,0,.11.01.21,0,.32,0,.1,0,.2-.01.3,0,.03,0,.06,0,.09,0,0,0-.07,0,0,0,.06-.02.12-.03.19-.02.1-.05.2-.07.3-.01.05-.03.09-.04.14-.01.03-.02.06-.03.09.02-.05.01-.04,0,0-.09.21-.18.42-.29.62-.02.03-.1.17-.04.07-.03.04-.06.09-.08.13-.07.1-.14.2-.21.3s-.15.2-.23.29.06-.07-.03.03c-.05.05-.09.1-.14.15-.08.08-.16.16-.24.24-.04.04-.09.08-.13.12-.02.02-.04.03-.06.05-.01.01-.1.08-.03.03.06-.05-.07.05-.09.07-.04.03-.08.06-.12.09-.09.07-.19.13-.28.2-.03.02-.05.03-.08.05,0,0,.09-.05.03-.02-.05.03-.1.05-.14.08-.09.05-.19.1-.29.14-.04.02-.08.03-.12.05.14-.06-.09.04-.14.06-.02,0-.04.02-.06.02,0,0,.08-.03.03-.01-.05.02-.11.03-.16.05-.22.06-.45.08-.67.09-.25,0-.52.08-.78.04-.21-.03-.43-.13-.61-.22-.2-.09-.38-.2-.56-.33-.37-.26-.69-.58-.97-.93-.65-.8-1.11-1.75-1.45-2.73-.05-.15-.25-.07-.34,0-.13.09-.22.23-.19.39.1.53-.1,1.02-.34,1.48-.06.11-.11.21-.17.32-.03.06-.07.13-.11.19.04-.07-.11.18.02,0,.11-.16-.25.29-.13.15.07-.09-.04.04-.05.05-.08.08-.15.16-.23.24-.05.05-.17.12-.2.19l.08-.07s-.05.04-.08.06c-.03.02-.05.04-.08.06-.08.06-.16.11-.24.16-.14.09.13-.06.03-.02-.05.02-.09.05-.14.08-.07.04-.15.08-.23.11-.06.03-.18.05-.23.1.1-.09.1-.03,0,0-.03,0-.06.02-.09.03-.1.03-.2.05-.3.07-.03,0-.06,0-.09.01-.15.03.14,0-.01,0-.08,0-.16.01-.24.01-.17,0-.34,0-.5-.03-.03,0-.17-.03-.03,0-.04,0-.09-.02-.13-.03-.07-.02-.14-.04-.21-.06-.17-.05-.34-.12-.5-.2-.07-.03-.14-.07-.2-.11-.01,0-.14-.09-.04-.02-.04-.03-.08-.05-.12-.08-.15-.1-.28-.22-.41-.34-.27-.26-.55-.58-.73-.88-.29-.48-.57-.96-.86-1.44s-.5-1-.57-1.56c-.04-.28-.41.03-.42.2h0Z"/>
  <path class="cls-1" d="m26.77,56.04c.13.52.24,1.04.4,1.55.08.26.19.52.26.78s.15.52.27.77c.24.49.55.98,1.03,1.27s1.1.39,1.66.37c.63-.03,1.22-.23,1.75-.6.28-.19.54-.43.75-.69.06-.08.12-.16.18-.25.04-.07.08-.13.13-.2.1-.18.03-.03,0,0,.02-.03.05-.07.07-.1.13-.19.27-.39.41-.58.07-.09.14-.18.21-.27-.06.07.06-.06.07-.08.06-.06.11-.12.17-.18.39-.43.91-.65,1.49-.65,1.24,0,2.42.68,3.43,1.31.54.34,1.07.7,1.62,1.04.31.19.6.4.9.59s.6.35.89.54c.56.35,1.15.65,1.77.87.67.23,1.36.28,2.06.21,1.35-.13,2.69-.64,3.74-1.51,1.37-1.13,2.3-2.67,3.22-4.17.45-.73.91-1.46,1.42-2.16.12-.17.25-.33.37-.5.06-.08.12-.16.18-.24.03-.03.05-.07.08-.1.02-.03.16-.19.05-.06s.01-.01.04-.04.06-.06.08-.09c.07-.08.14-.15.22-.23.06-.06.13-.12.19-.18.1-.09-.16.13-.02.02.04-.03.08-.07.13-.1.15-.11.3-.21.45-.32.07-.04-.09.05-.08.05.02,0,.05-.03.07-.04.03-.02.07-.04.1-.06.09-.05.17-.09.26-.13.04-.02.07-.03.11-.04.11-.04.08-.06,0,0,.07-.05.2-.06.28-.09s.16-.04.25-.06c.05,0,.09-.02.14-.02.13-.02-.07,0,.03,0,.19-.01.38-.02.58-.01.1,0,.2.01.3.03.04,0,.09.01.13.02.1.01.03,0,0,0,.03,0,.06.01.09.02.41.09.8.24,1.19.4,1.28.53,2.6.99,3.96,1.25.77.15,1.55.24,2.33.21s1.58-.21,2.3-.51c.8-.33,1.5-.87,2.05-1.53.29-.35.54-.73.75-1.14.23-.44.45-.94.54-1.43.04-.25.07-.5.1-.76s-.03-.48-.1-.74c-.04-.14-.25.04-.28.1-.14.3-.28.6-.39.92-.08.24-.17.48-.27.72-.05.14-.1.28-.15.41.02-.07-.03.08-.04.1-.02.06-.04.11-.07.17-.09.21-.19.42-.3.62-.02.04-.07.12-.02.03-.03.05-.06.09-.08.14-.06.09-.12.17-.18.26-.06.08-.11.15-.17.22-.07.09.09-.1-.02.02-.03.04-.07.07-.1.11-.07.07-.13.14-.2.2-.03.03-.06.05-.09.08.1-.1.04-.03-.03.02-.14.11-.29.2-.43.3-.05.04.05-.03.05-.03-.02.01-.04.03-.07.04-.03.02-.07.04-.1.06-.08.04-.16.08-.24.12s-.16.07-.25.1c-.1.04.09-.03,0,0-.05.02-.1.03-.14.05-.16.05-.33.09-.5.13-.08.02-.16.04-.25.05.12-.02-.01,0-.04,0-.05,0-.1,0-.15,0-.72.04-1.44.03-2.16-.08-.05,0-.09-.01-.14-.02-.02,0-.13-.02-.08-.01s-.08-.01-.1-.02c-.05-.01-.11-.02-.16-.03-.18-.04-.36-.08-.53-.12-.35-.09-.71-.19-1.05-.29-.64-.2-1.26-.43-1.88-.68-.73-.3-1.42-.61-2.21-.71s-1.62.04-2.35.38c-.37.17-.73.39-1.05.64-.07.05-.14.11-.2.16-.08.07-.16.14-.24.2-.02.01-.03.03-.05.04l.1-.09-.16.14c-.15.13-.29.26-.43.4-.63.62-1.15,1.32-1.64,2.06-.93,1.39-1.73,2.87-2.79,4.17-.1.12.16-.18.04-.04-.03.03-.05.06-.08.09-.07.08-.14.15-.21.23-.12.13-.25.25-.39.37-.06.05-.2.15.05-.04-.03.02-.06.05-.09.07-.07.06-.14.11-.21.16-.1.07-.2.13-.3.2.11-.07-.06.03-.09.05-.09.05-.19.1-.29.15-.15.07-.31.14-.47.2-.08.03,0,0,0,0-.05.02-.1.03-.15.05-.08.03-.17.05-.25.07-.16.04-.31.08-.47.11-.22.04-.26.04-.44.06-.33.03-.66.02-.99,0s-.68-.02-1.02-.05c-1.4-.12-2.81-.53-4-1.27-1.05-.65-2.05-1.4-3.2-1.88-.54-.22-1.11-.39-1.7-.41s-1.13.13-1.65.41-.94.64-1.35,1.02c-.04.04-.48.5-.49.49,0,0,.21-.17,0,0-.04.04-.09.08-.13.11-.02.02-.04.03-.06.05,0,0,.13-.11.07-.06-.13.1-.26.21-.39.33-.04.04-.09.07-.12.11,0,0,.15-.12.08-.07-.02.01-.04.03-.06.04-.04.03-.09.07-.14.1-.14.1.13-.06-.03.02-.04.02-.09.04-.13.06-.16.08.09-.02-.04.02s-.24.07-.37.08c.12-.02-.06,0-.1,0-.06,0-.13,0-.19,0-.08,0-.16,0-.23-.01-.04,0-.07,0-.11-.01-.01,0-.14-.02-.07,0-.25-.05-.48-.14-.71-.25-.45-.23-.78-.42-1.17-.79-.18-.17-.37-.33-.53-.51s-.29-.41-.41-.62c-.25-.41-.5-.82-.75-1.22-.04-.06-.13.03-.11.08h0Z"/>
  <path class="cls-1" d="m27.62,81.41c.09,1.08.29,2.17.67,3.19.36.96,1.09,1.88,1.96,2.44,2.08,1.33,4.7.87,6.68-.4.99-.64,1.85-1.44,2.98-1.85,1.19-.43,2.53-.48,3.77-.35s2.54.51,3.76.97,2.55.95,3.81,1.46c1.15.46,2.31.93,3.57.88,1.16-.05,2.31-.49,3.31-1.08,2.03-1.19,3.58-2.99,4.9-4.91.29-.42.57-.84.87-1.26.15-.21.3-.41.46-.61.07-.1.15-.19.23-.28.04-.05.08-.09.12-.14-.15.18,0,0,.03-.03.17-.19.34-.37.52-.54.09-.08.18-.16.26-.24.04-.04.17-.14,0,0,.06-.05.11-.09.17-.14.09-.07.19-.14.29-.21.06-.04.12-.08.18-.12.19-.13-.09.05.04-.02.23-.13.46-.24.71-.34-.11.04.13-.05.12-.04.06-.02.12-.04.18-.06.17-.05.34-.1.51-.14.31-.07.63-.13.96-.14.67-.03,1.34.06,2,.17,1.27.23,2.5.61,3.75.91.95.22,2.02.31,2.97.06,1.04-.28,1.89-.98,2.5-1.86,1.34-1.94,1.38-4.36.97-6.61-.12-.64-.27-1.26-.47-1.88-.04-.12-.24.05-.23.14.13,1.22.43,2.41.47,3.64.04,1.14-.07,2.33-.51,3.39-.39.95-1.06,1.87-2.02,2.3-.82.37-1.79.32-2.64.08-2.31-.66-4.7-1.68-7.15-1.46-1.16.1-2.26.55-3.19,1.25-.88.66-1.59,1.53-2.23,2.41-.57.8-1.09,1.64-1.69,2.42-.14.19-.29.38-.44.56-.04.05-.09.1-.13.16-.16.2.08-.09-.02.03-.1.11-.19.22-.29.33-.18.2-.37.39-.56.58-.1.09-.19.19-.29.28-.04.04-.08.07-.12.11-.03.02-.29.24-.12.11-.19.16-.39.32-.6.47-.1.07-.19.14-.29.2-.07.04-.13.09-.2.13-.03.02-.23.14-.08.05-.23.13-.46.25-.7.36-.12.05-.24.11-.36.15-.05.02-.1.04-.15.06.12-.04-.12.04-.14.05-1.09.35-2.2.42-3.33.32-.7-.06-1.39-.18-2.07-.35-.64-.15-1.25-.41-1.87-.64-1.21-.46-2.4-.95-3.66-1.25-2.38-.57-4.9-.52-7.16.5-.94.43-1.85.9-2.79,1.31-.41.18-.79.31-1.34.39-.14.02-.45.04-.68.03-.26,0-.52-.03-.77-.08-1.02-.19-1.95-.65-2.72-1.34-.38-.34-.7-.74-1.04-1.11s-.66-.77-.91-1.2-.44-.84-.6-1.29c-.02-.07-.13.03-.13.08h0Z"/>
  <path class="cls-1" d="m26.48,31.9c.11.69.34,1.33.7,1.94.18.3.38.6.61.86s.49.49.76.72c.25.22.52.41.82.55s.62.2.95.24c.17.02.35.02.53-.02.1-.02.04-.01.01,0l.13-.02c.16-.06.19-.07.1-.04.14-.05.27-.1.4-.16.42-.19.81-.42,1.18-.7.34-.27.67-.54,1.03-.77.04-.03.1-.08.15-.1-.15.05-.1.06-.04.03.11-.06.22-.12.33-.18.22-.12.44-.22.67-.32.11-.05.22-.09.33-.14-.03.01-.15.05,0,0,.06-.02.12-.04.18-.06.22-.07.45-.13.67-.18.1-.02.21-.04.31-.06.04,0,.08-.01.12-.02.2-.03-.14,0,.07,0,.23-.02.46-.04.69-.04.21,0,.43,0,.64.03.11,0,.22.02.33.04.07,0,.13.02.2.03,0,0,.18.03.11.02.45.08.89.2,1.34.29.84.18,1.68.35,2.53.45.37.04.75.04,1.12.02.21-.01.43-.02.64-.08.22-.06.31-.11.5-.13.41-.05.79-.16,1.19-.29.33-.11.73-.24,1.09-.39.78-.33,1.51-.79,2.17-1.31s1.27-1.13,1.92-1.68c.54-.46,1.25-.98,1.99-1.1.89-.14,1.81.13,2.66.35,1.33.35,2.83.67,4.13.04.98-.47,1.58-1.42,1.85-2.45.07-.27.12-.54.15-.82.02-.14.04-.27.02-.41s-.03-.27-.04-.41c-.04-.56-.03-1.13-.08-1.7-.02-.28-.05-.55-.08-.83,0-.06-.09,0-.09.04.06.56.08,1.13.09,1.7,0,.29,0,.57-.05.86s-.12.55-.16.82c-.14.93-.43,1.97-1.21,2.56-1.02.76-2.46.6-3.62.32-.84-.21-1.67-.49-2.54-.57-.42-.04-.82-.01-1.23.06-.37.06-.73.11-1.06.3-.75.42-1.36,1.02-1.99,1.6-.3.28-.49.44-.81.69s-.68.5-1.03.71c-.6.36-1.3.7-1.97.78-.27.03-.63.04-.94.07-.13.01.02.02-.05,0-.03,0-.07-.02-.1-.03-.07-.02-.13-.05-.2-.07-.2-.05-.42-.05-.63-.07-.34-.04-.68-.09-1.02-.14-.18-.02-.36-.05-.54-.08-.09-.01-.18-.03-.28-.05.13.02-.05,0-.07-.01-.06-.01-.11-.02-.17-.03-.88-.17-1.76-.4-2.64-.55s-1.85-.15-2.76.02-1.82.55-2.63,1.02c-.42.24-.8.5-1.18.8-.16.13-.32.26-.48.39-.13.1-.25.21-.37.31-.03.03-.06.05-.09.08.1-.08.11-.09.03-.03-.07.05-.13.11-.19.17-.04.03-.07.07-.11.1.16-.1.04-.04,0,0-.08.06-.16.12-.24.17-.03.02-.14.09-.03.02-.03.02-.28.16-.18.1.07-.05-.09.05-.08.05,0,0-.15.07-.08.04-.28.11-.64.17-1,.13-1.43-.17-2.34-1.55-2.87-2.76-.12-.28-.24-.55-.32-.84-.02-.08-.17.03-.16.09h0Z"/>
  <path class="cls-1" d="m46.3,84.88c.46.33.96.61,1.42.93s.89.71,1.32,1.08c.88.77,1.85,1.45,2.89,1.99.88.46,1.83.83,2.83.86.8.03,1.61-.15,2.33-.5s1.4-.88,1.96-1.49c.07-.07.13-.15.2-.23.05-.05.09-.11.14-.16.04-.04,0,0-.01.01.02-.03.05-.05.07-.08.15-.17.29-.34.43-.52.26-.33.5-.67.74-1.02.48-.71.91-1.45,1.34-2.19.4-.69.76-1.33,1.16-1.96.53-.84,1.14-1.62,1.89-2.28.38-.33.8-.63,1.24-.87.47-.26.96-.42,1.47-.58.29-.09.53-.26.82-.35.07-.02.23-.2.08-.22-.1-.02-.19-.02-.28-.06-.14-.06-.24-.06-.4-.04-.27.03-.52.13-.77.22-.53.19-1.03.45-1.5.76-.93.6-1.73,1.4-2.41,2.28-.51.67-.93,1.4-1.36,2.12s-.81,1.4-1.22,2.07c-.43.7-.9,1.39-1.43,2.02-.03.04-.07.08-.1.12.05-.06-.03.04-.05.06-.07.08-.13.15-.21.23-.14.14-.28.27-.42.4-.04.03-.07.07-.11.1-.05.04.02-.02.03-.02-.02.01-.03.03-.05.04-.08.07-.16.13-.24.19-.15.11-.29.22-.45.33-.07.05-.15.1-.22.14-.08.05.08-.05-.04.02-.04.02-.08.05-.12.07-.16.09-.33.17-.51.23-.04.01-.11.04-.03.01-.04.02-.09.03-.13.04-.09.03-.18.05-.27.08-.08.02-.17.04-.26.06-.05,0-.09.02-.14.02-.02,0-.04,0-.06,0,.05,0,.02,0-.01,0-.88.09-1.7-.09-2.52-.41-.54-.21-1.06-.47-1.57-.75s-1-.6-1.51-.88-1.03-.55-1.54-.83-1.02-.56-1.54-.82c-.26-.13-.52-.25-.8-.34-.04-.01-.15.08-.1.11h0Z"/>
  <path class="cls-1" d="m50.71,58.96c.62-.21,1.14-.73,1.57-1.21.48-.53.9-1.1,1.32-1.67.77-1.03,1.58-1.98,2.97-2.05,1.04-.05,2.02.17,2.99.5s1.99.73,3.03.92c2,.36,4.14.07,5.82-1.11.9-.63,1.64-1.51,2.19-2.45.28-.48.51-.98.69-1.5.09-.25.17-.51.23-.76.03-.13.07-.28.07-.42,0-.12-.06-.17-.13-.26-.04-.05-.13.02-.15.06-.08.11-.17.2-.23.33-.05.12-.08.25-.11.37-.06.24-.13.48-.21.71-.15.44-.34.86-.56,1.26-.43.78-1.01,1.5-1.71,2.06-1.54,1.24-3.67,1.49-5.58,1.15-2-.36-3.84-1.53-5.91-1.5-1.47.02-2.63.9-3.48,2.04-.45.6-.84,1.25-1.28,1.87-.21.3-.43.58-.68.84-.27.28-.58.51-.88.75-.03.02-.07.13,0,.1h0Z"/>
  <path class="cls-1" d="m31.46,60.48c.19-.14.4-.26.59-.39.21-.15.43-.29.66-.43.44-.26.91-.48,1.41-.58.41-.08.95-.14,1.34.02s.72.42,1.02.69c.66.59,1.34,1.23,2.25,1.38s1.65-.52,2.53-.57c.54-.04,1.06.09,1.57.25.26.08.52.17.78.25.14.04.29.1.44.09.17,0,.35-.06.52-.08.07,0,.21-.13.11-.19-.06-.03-.12-.06-.17-.11-.04-.04-.06-.09-.1-.13-.09-.08-.22-.11-.33-.14-.26-.08-.51-.17-.77-.26-.46-.16-.94-.3-1.43-.33-.54-.04-1.04.1-1.54.27-.34.11-.68.23-1.02.16-.89-.16-1.52-.84-2.2-1.37-.36-.28-.73-.49-1.18-.57-.52-.09-1.09,0-1.58.17-.55.2-1.08.45-1.57.75-.26.16-.51.33-.75.51-.23.17-.41.36-.61.55-.04.04-.02.1.04.06h0Z"/>
  <path class="cls-1" d="m46.34,33.46c.67.29,1.49-.27,2.04-.62.64-.41,1.34-.9,2.14-.68.34.09.63.28.95.41.3.12.6.1.89-.03.48-.22.87-.63,1.24-.99s.75-.72,1.18-1.01c.22-.15.48-.31.74-.36.29-.05.58-.09.88-.11s.61-.02.92,0,.57.08.86-.05c.08-.03.19-.15.15-.25-.09-.23-.33-.24-.55-.26-.28-.03-.56-.03-.84-.02-.51.02-1.11.04-1.58.24-1.01.42-1.74,1.27-2.54,1.98-.23.21-.52.46-.86.39-.32-.07-.6-.26-.92-.34-.41-.1-.83-.13-1.23-.01-.38.11-.73.3-1.06.52-.37.24-.72.53-1.11.75s-.82.32-1.28.38c-.02,0-.07.05-.03.07h0Z"/>
  <path class="cls-1" d="m32.97,34.75c.37-.13.74-.22,1.12-.31s.77-.12,1.16-.05c.73.12,1.38.6,2.05.9.38.17.77.27,1.19.26.37-.01.74-.09,1.1-.21.73-.24,1.4-.62,2.14-.82.45-.12.91-.15,1.38-.16.23,0,.47,0,.7-.02.28-.03.56-.15.81-.29.05-.03.16-.13.09-.19-.32-.29-.7-.26-1.1-.25-.44,0-.87.03-1.3.1-.79.13-1.54.47-2.28.76-.32.13-.66.23-1.01.26-.41.03-.76-.07-1.14-.22s-.7-.34-1.06-.5-.75-.27-1.16-.29c-.48-.03-.97.05-1.43.2s-.88.44-1.27.72c-.05.04-.08.15.02.11h0Z"/>
  <path class="cls-2" d="m40.78,17.72c-.35-.29-.68-.62-1.05-.89s-.68-.53-1-.82c-.16-.15-.31-.32-.48-.47s-.34-.28-.5-.42c-.3-.27-.61-.54-.9-.82-.97-.96-1.74-1.99-2.14-3.29-.04-.15-.08-.3-.11-.45.02.11,0,.02,0,0,0-.05-.01-.1-.02-.15,0-.08-.01-.17-.02-.25s0-.16,0-.25c0-.03,0-.07,0-.1.01-.15-.03.09,0,0,.02-.07.03-.15.04-.22,0-.04.02-.08.03-.12.05-.18-.05.1,0-.03s.13-.27.2-.4c.03-.06.07-.12.1-.17,0,0-.11.17-.04.07.02-.03.04-.07.07-.1.04-.05.08-.11.12-.16.02-.02.03-.04.05-.06.09-.12-.13.15-.03.03.09-.1.18-.19.28-.28.04-.04.11-.07-.06.05.03-.02.05-.04.08-.06.05-.04.1-.07.15-.11.03-.02.15-.08.17-.11-.02.04-.12.07-.04.03.04-.02.07-.04.11-.06.12-.06.24-.12.37-.17.02-.01.05-.02.08-.03.13-.05-.1.03-.01,0,.07-.02.14-.05.21-.07.12-.03.24-.06.36-.09.07-.01.13-.02.2-.03.09-.02,0,0-.01,0,.05,0,.09-.01.14-.01.27-.02.53-.02.8.01.03,0,.05,0,.08.01.02,0,.15.02.1.02-.06-.01.07.01.06.01.04,0,.08.02.12.03.15.04.3.08.44.14s.29.12.43.19c.16.08.24.13.35.21.27.19.51.45.78.63.07.04.13.09.2.14.08.05.12.12.18.2.11.15.2.32.29.48.21.4.77-.19.78-.46.01-.64.13-1.3.4-1.88s.63-.97,1.21-1.26c.53-.26,1.1-.37,1.67-.25s1.11.33,1.57.63c.53.34.95.79,1.31,1.29.35.47.65.98.78,1.56.27,1.27-.27,2.64-.97,3.69-.48.71-1.03,1.36-1.62,1.99s-1.18,1.28-1.71,1.98c-.06.08.01.16.09.09.64-.54,1.27-1.09,1.85-1.7s1.16-1.28,1.67-1.97c.9-1.23,1.68-2.7,1.51-4.28-.07-.67-.26-1.34-.57-1.94s-.81-1.1-1.36-1.49-1.22-.69-1.92-.73-1.45.1-2.09.37c-.86.36-1.56,1-2,1.83-.4.76-.55,1.62-.61,2.47l.78-.46c-.07-.16-.15-.32-.24-.47-.05-.08-.1-.16-.15-.24s-.07-.16-.11-.24c-.14-.32-.37-.58-.64-.8-.48-.39-1.05-.67-1.66-.8-1.27-.28-2.53,0-3.62.67-.11.07-.22.14-.33.22-.05.04-.1.08-.16.12-.08.06-.31.26-.09.08-.07.06-.14.12-.21.18-.25.23-.48.49-.67.77-.48.69-.76,1.47-.69,2.32.11,1.51,1.02,2.92,2.03,4,.27.29.58.56.88.81.4.33.85.69,1.32.91s.99.43,1.48.65c.55.25,1.11.4,1.69.56.09.02.3-.15.2-.23h0Z"/>
  <path class="cls-2" d="m37.22,18.67c.16.06.36.05.53.06.2,0,.4,0,.6-.04.43-.06.84-.14,1.26-.24.84-.2,1.67-.44,2.49-.72.41-.13.81-.27,1.23-.36s.86-.09,1.28-.06c.84.05,1.66.26,2.5.27.38,0,.78-.04,1.14-.17.38-.13.89-.34.97-.79,0-.03,0-.06-.03-.08-.02,0-.04,0-.05-.01.07.04,0,0-.02-.01-.07-.02-.14-.02-.21,0-.18.04-.34.15-.51.21-.3.1-.61.13-.92.14-.82.01-1.62-.16-2.44-.22-.45-.03-.9-.03-1.34.03-.4.06-.79.19-1.17.31-.8.26-1.6.52-2.42.74-.47.13-.95.25-1.42.37s-1,.23-1.44.44c-.03.01-.1.09-.04.12h0Z"/>
  <path class="cls-1" d="m25.39,22.13c-.1-.49.14-1.1.47-1.47.25-.28.67-.42,1.09-.33.52.12.99.43,1.4.76.21.17.4.35.6.53.12.1.23.17.39.13.13-.03.25-.11.36-.19.14-.1.33-.33.25-.52-.04-.1.1-.37.16-.47.09-.14.21-.25.36-.33.4-.22.88-.25,1.3-.1.83.29,1.32,1.12,1.84,1.77.14.18.45-.15.47-.29.1-.47.43-.74.91-.82.24-.04.49-.02.73.04.12.03.24.09.36.13.14.05.29.05.44.07.07,0,.16-.09.13-.16-.06-.16-.11-.3-.26-.39-.14-.08-.3-.13-.45-.17-.32-.07-.65-.07-.97,0-.69.17-1.23.72-1.39,1.41l.47-.29c-.62-.79-1.22-1.76-2.29-1.93-.55-.09-1.12.04-1.59.36-.23.15-.43.36-.58.59-.08.12-.15.26-.21.4-.05.13-.06.29-.12.41l.57-.35c-.07-.03-.13-.05-.21-.05l.16.06c-.12-.17-.3-.31-.46-.45-.18-.16-.38-.3-.58-.44-.4-.27-.84-.47-1.32-.54-1-.15-1.89.49-2.21,1.41-.14.4-.25.92-.05,1.32.05.11.22-.06.2-.14h0Z"/>
  <path class="cls-1" d="m46.31,19.95c.05-.14.1-.32.23-.41.11-.07.26-.09.38-.08.35,0,.7.16,1,.34.16.09.34-.18.35-.3.02-.24.09-.5.26-.68.15-.16.36-.23.56-.28.51-.11,1.06-.04,1.56.04.17.03.33-.2.34-.34.02-.31.09-.62.24-.9.03-.07.04-.07.08-.13.02-.03.05-.06.07-.09.02-.03.03-.04,0,0,.02-.02.14-.14.07-.08.03-.02.06-.04.08-.06,0,0,.09-.06.04-.03s.05-.03.05-.02c.03-.01.05-.03.08-.04.01,0,.09-.03.03-.01.03,0,.06-.02.09-.03.13-.04.21-.05.34-.05.33-.02.66,0,.98.06.28.05.57-.33.58-.58.01-.27.04-.56.15-.81.05-.13.11-.22.18-.32.04-.06.14-.16.18-.19.15-.11.35-.17.57-.14.33.04.64.22.96.28.15.03.34-.15.3-.3-.16-.54-.4-1.59.4-1.73.32-.05.6.06.89.16.17.06.35.12.53.17.22.06.41.07.63.03.05,0,.11-.07.09-.12-.06-.18-.16-.26-.32-.36-.15-.09-.32-.13-.49-.17-.32-.08-.65-.07-.98-.05-.57.04-1.06.36-1.19.94-.11.46-.02.94.09,1.39l.35-.25c-.3-.85-1.41-.78-2.02-.34-.68.49-1.08,1.38-1.11,2.2l.58-.58c-.74-.12-1.54-.08-2.16.4s-.79,1.22-.84,2l.34-.34c-.63-.1-1.31-.16-1.92.06-.67.24-1.05.82-1.11,1.52l.35-.3c-.41-.22-.9-.4-1.36-.31-.44.09-.78.5-.77.95,0,.16.21-.02.23-.09h0Z"/>
  <path class="cls-1" d="m25.25,18.47c.15-.51.24-1.02.61-1.42.34-.37.81-.47,1.3-.41.21.03.41-.24.42-.42s.03-.37.08-.55c.02-.07.04-.13.07-.2.04-.09.03-.07.08-.14,0-.01.08-.09.02-.03.02-.02.04-.04.07-.07-.06.06.04-.03.07-.05-.06.04.08-.04.11-.05-.06.02.04-.01.04-.01.08-.03.1-.04.07-.03-.02,0,0,0,.02,0,.26-.08.52-.16.79-.22s.55-.05.83-.08c.11-.01.23-.03.34-.05.12-.03.24-.03.35-.07.14-.05.24-.13.33-.25s.14-.26.24-.35c.28-.27.77.13,1.08.19s.59-.1.84-.25c.26-.16.56-.4.87-.43.15-.02.29.04.4.15.07.07.13.14.19.21.09.11.18.15.3.23.05.03.12-.06.12-.1.02-.26,0-.47-.19-.67-.11-.12-.25-.2-.41-.23-.32-.06-.64.09-.91.25s-.55.4-.86.48c-.18.04-.4-.07-.56-.13-.19-.07-.41-.16-.61-.1-.19.05-.35.16-.47.3-.1.12-.16.26-.25.39-.19.27-.5.33-.8.35-.28.02-.55,0-.81-.08s-.5-.12-.76-.06c-.88.21-1.2,1.12-1.22,1.92l.42-.42c-.69-.06-1.35.22-1.81.75-.36.42-.68,1.15-.49,1.71.02.06.11-.03.12-.06h0Z"/>
  <path class="cls-1" d="m49.21,11.39c.15-.32.36-.76.79-.58.35.15.65.4.93.65.32.29.76-.2.9-.44.02-.03.1-.14,0-.01,0-.01.07-.08.07-.1,0,.06-.11.1,0,.02-.04.03-.11.1-.03.03.1-.08-.03.01-.03.01,0-.01.08-.04.1-.05.1-.06-.11.02,0,0,.04,0,.07-.02.11-.03.03,0,.06-.01.1-.02.01,0,.14-.02.08-.01-.07,0,.05,0,.06,0,.04,0,.09,0,.13,0,.18-.01.4-.04.55-.04.67,0,1.3.17,1.89.46.12.06.29-.09.35-.17.3-.43.74-.97,1.31-.96.25,0,.49.11.68.27.13.1.24.22.34.35.14.17.26.29.45.42.08.06.23-.06.22-.16-.03-.25-.09-.44-.25-.64-.12-.15-.26-.3-.42-.42-.25-.19-.56-.31-.88-.29-.78.05-1.39.7-1.82,1.29l.35-.17c-.32-.16-.64-.32-.95-.48-.17-.09-.34-.17-.52-.24-.16-.07-.33-.16-.5-.21-.97-.26-2.05.34-2.36,1.3l.87-.63c-.55-.25-1.12-.32-1.71-.17-.49.12-.96.52-.91,1.07,0,.06.08,0,.09-.02h0Z"/>
  <path class="cls-1" d="m23.86,41.25c.12-.22.11-.54.08-.78-.05-.35-.13-.69-.19-1.03s-.12-.72-.13-1.08c0-.28.02-.62.12-.84.02-.05.05-.09.07-.12-.03.04.08-.07.04-.03s.08-.05.05-.03c.03-.02.09-.04.16-.06.09-.02.18-.03.27-.03.19,0,.49-.26.4-.47-.09-.2-.15-.41-.12-.63,0-.07.03-.13.05-.19.02-.05.06-.1.08-.12.09-.08.24-.13.39-.14.26-.02.48.03.72-.11.05-.03.12-.09.11-.16-.01-.35-.43-.34-.69-.31-.31.04-.59.18-.82.4-.45.44-.53,1.08-.27,1.64l.4-.47c-.41,0-.8.14-1.08.44-.26.28-.38.64-.42,1.02s0,.77.07,1.14c.07.4.14.8.25,1.19.05.17.09.36.18.52.05.1.1.24.19.31.03.02.07-.01.08-.04h0Z"/>
  <path class="cls-1" d="m24.94,41.85c0-.09-.02-.18-.01-.27,0-.03.01-.06.02-.08.01-.03.02-.02.02-.03,0,0,0,0,.02-.01.04-.02.07-.04.11-.05.05-.02.15-.04.23-.05.46-.04.94.18,1.17.59.15.26.48-.05.57-.21.04-.08,0-.02.04-.06,0-.01.06-.08.03-.04,0,0,.07-.08.04-.05s.05-.03,0,0c.08-.04.11-.05.23-.04.23.02.47.15.66.28.42.29.78.67,1.1,1.07.16.2.5-.14.56-.27.01-.03.05-.12.06-.12.04-.06-.02,0,.04-.04-.06.04-.04.01,0,0,.01,0,.03-.01.07-.02.14-.02.3,0,.45.04.37.09.71.27,1.08.38.17.05.35.08.53.06.2-.02.38-.1.58-.16.22-.06.39,0,.58.1.26.13.54.18.83.25.09.02.23-.11.17-.2-.09-.13-.14-.28-.22-.4-.1-.14-.25-.22-.4-.29-.24-.11-.48-.15-.74-.09-.22.05-.41.16-.64.16-.14,0-.31-.07-.47-.13-.41-.16-.83-.36-1.28-.38-.54-.02-.99.33-1.2.82l.56-.27c-.39-.49-.86-.96-1.41-1.25-.28-.15-.59-.23-.9-.15-.4.1-.7.43-.87.79l.53-.26c-.37-.58-1.1-.79-1.74-.58-.27.09-.54.26-.67.52-.11.22-.05.45.18.52.04.01.1-.04.1-.09h0Z"/>
  <path class="cls-1" d="m44.79,43.67c.05-.15.14-.22.28-.36.15-.16.31-.32.48-.45s.35-.25.55-.32c.26-.09.49-.02.75.06.28.08.57.15.84.01.25-.13.46-.33.67-.52.16-.15.31-.29.52-.39.27-.12.54-.21.83-.25.68-.11,1.4-.01,2.05.23.22.08.46-.17.55-.33.08-.15.17-.29.27-.42.05-.07.06-.08.12-.14.03-.03.06-.06.08-.08.01-.01.08-.07.03-.03.2-.17.4-.27.66-.34.62-.16,1.28-.06,1.9.04.2.03.48-.25.51-.44.02-.15.06-.28.12-.41,0-.02.03-.06,0-.02.02-.03.04-.06.06-.09.03-.04.06-.06.01-.02.02-.02.05-.05.07-.07.05-.05-.09.06,0,0,.02-.01.04-.03.06-.05.1-.07-.07.03.03-.02.02-.01.05-.02.07-.03.08-.04.18-.07.32-.09.48-.08,1.06.04,1.54.24.2.08.47-.13.57-.28.09-.14.19-.28.29-.41.05-.07.11-.14.16-.21.01-.01.1-.12.04-.05.03-.04.07-.08.1-.11.13-.14.27-.28.41-.41.04-.04-.04.03.03-.03.04-.03.08-.06.12-.09.08-.06.16-.11.24-.16-.07.04.04-.02.06-.03.03-.02.07-.03.1-.05.06-.03.06-.03.16-.06.12-.03.26-.05.4-.02.15.03.3.1.42.2.09.07.18.14.28.2.12.07.23.06.36.05.12,0,.26-.12.28-.24.04-.16.07-.3,0-.46-.06-.13-.14-.22-.25-.3-.17-.12-.35-.22-.56-.26-.44-.09-.88.03-1.26.24-.82.44-1.46,1.2-1.96,1.97l.57-.28c-.64-.25-1.39-.37-2.06-.18-.8.22-1.36.86-1.48,1.68l.51-.44c-.73-.12-1.52-.21-2.23.03-.82.27-1.39.9-1.78,1.65l.55-.33c-1.21-.45-2.84-.46-3.89.41-.22.18-.44.42-.65.57-.02.01-.06.02-.01.01-.07,0-.13,0-.19-.02-.16-.03-.31-.09-.47-.12-.65-.14-1.26.19-1.74.61-.39.34-.7.78-.72,1.31,0,.15.21-.02.23-.08h0Z"/>
  <path class="cls-1" d="m63.81,36.78c.13-.21.17-.48.22-.73.05-.3.09-.6.16-.9s.15-.56.29-.83c.04-.08.02-.05.07-.12.02-.03.04-.05.05-.08.05-.07-.01,0,.03-.03.02-.02.04-.04.06-.06-.04.04-.01,0,.02-.01.02-.02.07-.04.02-.01.01,0,.08-.04.06-.03.02,0,.09-.02.12-.02.06,0,.12,0,.18.02.18.04.34.14.48.24.24.17.57-.21.52-.44-.05-.28-.02-.56.1-.78.02-.03,0,0,0,0,0-.01.02-.03.03-.04.02-.03.04-.05.05-.08.01-.01-.03.02.02-.02.03-.03.05-.05.08-.08.04-.04-.03.02.03-.03.03-.02.05-.04.07-.05.05-.03.02-.01.03-.02.03-.02.06-.03.09-.05.18-.09.4-.14.64-.12.19.01.4.09.54.24.08.09.13.18.17.3.04.14.03.31.13.43.09.1.28-.05.33-.12.21-.33.17-.74-.07-1.05-.18-.23-.47-.34-.76-.37-.69-.08-1.43.32-1.8.9-.26.4-.32.86-.23,1.32l.52-.44c-.3-.22-.64-.38-1.02-.32-.35.05-.64.29-.84.56-.44.57-.58,1.33-.65,2.04-.02.22-.06.7.17.83.03.01.07-.02.08-.04h0Z"/>
  <path class="cls-1" d="m63.04,30.49c.08-.18.11-.38.17-.57.06-.2.13-.4.19-.6.04-.13.1-.27.17-.39.03-.05.03-.05.08-.09-.03.02.03,0,0,0,.16-.05.36.03.52.09.27.12.53.27.79.41.16.09.36-.17.4-.29.03-.08.06-.17.11-.24.04-.05.03-.05.07-.06.09-.03.22,0,.31.04.31.11.57.35.8.58.11.11.22.22.31.34.15.2.24.47.32.7s.14.48.17.73c.02.11.03.22.06.34s.08.2.11.31c.03.09.16-.04.17-.08.1-.32.13-.59.08-.93-.05-.31-.14-.62-.26-.91-.18-.43-.44-.78-.78-1.1-.26-.25-.61-.52-.99-.52-.51,0-.81.49-.95.93l.4-.29c-.48-.25-1.12-.72-1.68-.43-.32.17-.49.49-.6.81-.14.4-.27.87-.14,1.3.02.08.14-.02.16-.06h0Z"/>
  <path class="cls-1" d="m24.63,65c-.38-.59-.47-1.36-.48-2.04,0-.4,0-.8.07-1.19.02-.08.03-.16.06-.24.01-.04.02-.08.03-.11.02-.08,0,0,.03-.08.03-.07.06-.13.09-.2.02-.04-.04.06,0,.02,0-.01.02-.03.03-.04.07-.09-.03.03.02-.03.08-.09-.04.03.02-.02s-.05.05.02,0c.03-.03,0,0-.02,0,.02,0,.04-.01.06-.02.05,0,0,0-.01,0,.02,0,.04,0,.06,0,.01,0,.03,0,.04,0,.07,0-.05-.01.03,0,.04,0,.08.03.12.04.09.02.2.03.28.08.22.14.59-.23.44-.44-.13-.2-.28-.45-.22-.69,0,0,.02-.03.02-.04-.04.05.01-.01.02-.02-.04.02,0,0,.02,0,.03-.02.15-.06.23-.08.23-.05.47-.03.69.02.27.07.54.1.79.23.08.04.19-.11.15-.17-.2-.29-.43-.47-.78-.54-.32-.06-.65-.06-.95.05s-.58.35-.68.67c-.11.36.06.71.26,1.01l.44-.44c-.08-.06-.14-.14-.22-.19-.09-.06-.2-.09-.31-.1-.18-.02-.35.02-.51.1-.39.2-.62.61-.74,1.02-.24.86-.16,1.83.11,2.67.11.36.27.8.62.98.1.05.23-.13.18-.21h0Z"/>
  <path class="cls-1" d="m25.43,66.48c-.06-.25-.16-.53-.07-.79.01-.03.03-.07.04-.09.01-.02.05-.06.03-.05.05-.04.05-.04.08-.05,0,0,.06-.02.1-.03.54-.07.89.58,1.02,1.02.08.26.46-.07.51-.19.05-.11.12-.26.18-.32,0-.01.01-.02.03-.02,0,0,.05-.01.08-.01.21,0,.41.14.56.26.35.29.65.68.86,1.09.08.16.31.05.39-.05.09-.11.12-.16.26-.1s.25.2.33.33c.1.15.16.34.27.48.04.05.1.09.14.14s.07.11.1.17c.05.1.19-.05.19-.11,0-.21.03-.44-.03-.65-.07-.22-.19-.44-.34-.62-.35-.43-.85-.3-1.19.09l.39-.05c-.25-.51-.64-1.05-1.12-1.36-.24-.15-.51-.23-.79-.14-.4.13-.65.5-.8.87l.51-.19c-.22-.67-.81-1.4-1.59-1.05-.59.27-.87,1.1-.32,1.56.07.06.18-.07.17-.14h0Z"/>
  <path class="cls-1" d="m36.88,70.08c.18-.5.36-1.15.84-1.45.56-.36,1.01.37,1.21.8.1.21.4-.07.42-.2.07-.35.18-.73.45-.98.21-.2.5-.3.79-.34.74-.1,1.52.14,2.21.39.17.06.36-.14.4-.29.11-.44.35-.86.86-.85.54.02.99.44,1.25.88.11.18.33.01.42-.1.25-.33.61-.63,1.01-.75.48-.13.9.06,1.21.43.14.17.42-.15.45-.27.08-.27.32-.34.6-.31.31.03.61.2.78.46.09.14.35-.07.4-.15.25-.42.81-.66,1.29-.76.52-.1,1.12-.04,1.43.43.1.15.35-.08.4-.15.23-.28.53-.6.92-.64.43-.04.8.26,1.18.4.11.04.33-.15.27-.27-.15-.28-.36-.45-.66-.56-.23-.08-.47-.11-.71-.06-.57.11-1.01.56-1.37.99l.4-.15c-.39-.57-1.17-.61-1.79-.47-.65.14-1.38.51-1.73,1.1l.4-.15c-.24-.37-.73-.56-1.16-.53-.55.04-.98.41-1.13.93l.45-.27c-.9-1.1-2.32-.31-3.01.61l.42-.1c-.35-.56-.93-1.09-1.64-1.02-.76.07-1.24.75-1.41,1.44l.4-.29c-.81-.28-1.73-.54-2.59-.35-.91.2-1.46.96-1.61,1.85l.42-.2c-.18-.36-.42-.76-.81-.92-.3-.12-.61-.05-.87.12-.56.36-1.02,1.17-1.01,1.84,0,.16.21-.02.23-.08h0Z"/>
  <path class="cls-1" d="m61.24,66.29c.07-.33.22-.67.36-.98.15-.32.35-.63.6-.89.19-.19.43-.38.72-.39.35,0,.64.29.78.59l.27-.38h-.08c.06.03.11.05.17.08-.05-.23-.07-.47.06-.63-.02.03.09-.09.07-.07.03-.03.08-.06.11-.08.11-.07.23-.12.36-.15.48-.14,1.07-.16,1.53.06.17.08.4-.17.43-.31.25-1.04,1.26-1.84,2.34-1.45.21.08.43-.2.44-.38.09-.99,1.42-1.04,2.1-.6.23.15.49-.16.52-.37.04-.39.36-.78.66-1,.36-.27.77-.31,1.09.05.14.16.43-.11.48-.24.13-.32.37-.61.7-.74.41-.16.7.08,1.02.31.17.12.49-.16.41-.35-.23-.58-.9-.67-1.42-.46s-.98.7-1.2,1.23l.48-.24c-.48-.54-1.2-.36-1.72.02s-1,1-1.07,1.67l.47-.4c-1.16-.73-2.93-.09-3.05,1.36l.44-.38c-1.45-.53-2.87.72-3.21,2.08l.43-.31c-.61-.29-1.4-.21-2,.04-.65.26-1.23.93-.93,1.66.03.07.1.08.17.07l.08-.02c.15-.04.37-.26.25-.42-.25-.34-.53-.67-.99-.67-.41,0-.78.26-1.07.54-.33.32-.59.72-.78,1.13-.16.35-.26.71-.18,1.09.02.08.14-.03.14-.07h0Z"/>
  <path class="cls-1" d="m72.65,52.87c0-.14.02-.31.04-.45.01-.13.04-.27.08-.39.07-.2.19-.4.36-.52.45-.32.89.11,1.08.51.12.25.51-.13.46-.33s-.08-.46.02-.63c.01-.02.04-.05.09-.07.05-.02.14-.04.22-.05.43-.02.85.25,1.06.61.1.18.33,0,.41-.1s.19-.2.27-.31l-.39.14c.59.46.92,1.13,1.04,1.85.06.37.07.74.06,1.11s.03.71-.02,1.06c-.01.11.13.04.15-.02.15-.39.3-.78.34-1.19s.02-.81-.05-1.22c-.14-.77-.49-1.52-1.11-2.01-.13-.1-.31.04-.39.14-.08.11-.19.2-.28.31l.41-.1c-.3-.52-.91-.86-1.51-.73-.31.07-.58.27-.73.54-.17.31-.16.66-.07,1l.46-.33c-.16-.32-.4-.64-.76-.74-.32-.08-.63.03-.89.21-.29.21-.51.52-.63.85-.06.16-.09.32-.1.49,0,.09,0,.18.02.26.02.09.08.15.13.24.05.1.21-.05.2-.12h0Z"/>
  <path class="cls-1" d="m28.9,79.34c-.02.42.11.88.19,1.3.09.44.18.89.27,1.33.19.92.39,1.83.61,2.74.2.85.41,1.7.64,2.54s.47,1.68.67,2.53c.11.47.2.94.27,1.42.03.23.04.47.07.7.03.2.13.36.19.55.03.1.17-.04.18-.09.06-.21.13-.4.16-.62s0-.43-.03-.64c-.05-.42-.13-.85-.21-1.26-.18-.84-.42-1.67-.66-2.49-.51-1.71-.96-3.44-1.42-5.16-.13-.5-.27-1-.39-1.5-.06-.24-.12-.48-.19-.73-.06-.23-.1-.48-.21-.68-.03-.06-.11.03-.11.07h0Z"/>
  <path class="cls-1" d="m31.82,82.01c.03.73.21,1.47.35,2.19s.3,1.46.46,2.18c.32,1.43.65,2.86.97,4.28.09.4.18.81.27,1.21s.23.73.45,1.06c.04.06.13-.06.13-.1.04-.4.03-.77-.04-1.16-.06-.35-.15-.7-.23-1.05-.16-.72-.33-1.44-.5-2.15-.34-1.41-.7-2.81-1.08-4.21-.1-.38-.2-.76-.3-1.15s-.2-.81-.36-1.19c-.03-.06-.12.03-.12.07h0Z"/>
  <path class="cls-1" d="m35.32,89.09c.13.9.32,1.79.51,2.68.1.45.2.89.3,1.33.05.23.1.46.15.7.05.2.13.45.26.6.04.04.11-.04.12-.07.08-.45-.07-.92-.17-1.36s-.21-.91-.33-1.35c-.23-.87-.46-1.74-.71-2.61-.02-.07-.14.03-.13.08h0Z"/>
  <path class="cls-1" d="m37.4,90.24c.2.59.31,1.21.41,1.82.05.31.08.62.13.93.03.21.06.63.29.73.04.02.1-.03.11-.07.12-.28.05-.62,0-.9-.06-.32-.11-.64-.18-.96-.12-.58-.28-1.17-.68-1.62-.03-.03-.09.04-.08.07h0Z"/>
  <path class="cls-1" d="m38.95,91.51c0,.48.12.96.23,1.43s.23.94.6,1.24c.04.04.12-.04.12-.08-.03-.49-.21-.93-.35-1.39-.13-.44-.2-.9-.39-1.31-.05-.11-.21.05-.21.13h0Z"/>
  <path class="cls-1" d="m41,91.86c-.01.12-.03.23-.02.35.01.09.02.19.03.28.02.18.07.36.11.54s.07.37.14.54.19.31.3.45c.03.04.11-.04.11-.08,0-.21,0-.42-.05-.63-.04-.18-.11-.35-.15-.53s-.08-.35-.14-.53c-.03-.08-.05-.17-.08-.25-.02-.05-.04-.09-.07-.13-.02-.04-.05-.06-.08-.1-.03-.05-.1.04-.1.07h0Z"/>
  <path class="cls-1" d="m38.36,88.45c0,.12,0,.23.01.35s.03.23.05.35c.04.21.13.41.22.6.02.05.09-.02.09-.06,0-.24,0-.48-.05-.71-.02-.11-.05-.21-.08-.32-.02-.05-.03-.1-.05-.15s-.05-.1-.08-.15c-.03-.06-.12.03-.12.07h0Z"/>
  <path class="cls-1" d="m31.21,78.64c.03.27.06.54.11.81.02.12.05.25.09.37.02.06.05.12.07.17s.04.12.08.17c.03.03.09-.03.09-.06.02-.13,0-.28,0-.41s-.03-.27-.06-.4c-.06-.25-.13-.5-.21-.75-.03-.09-.17.04-.16.1h0Z"/>
  <path class="cls-1" d="m78.94,67.59c.4,1.9.71,3.81.94,5.74s.42,3.83.68,5.74c.07.52.15,1.03.23,1.54.04.26.08.51.12.77.04.24.03.51.3.6.06.02.13-.04.15-.09.11-.23.11-.4.05-.65s-.1-.48-.15-.72c-.09-.47-.16-.95-.23-1.42-.14-.95-.26-1.91-.38-2.87-.23-1.88-.46-3.76-.82-5.62-.2-1.05-.45-2.09-.81-3.09-.02-.04-.09.02-.08.06h0Z"/>
  <path class="cls-1" d="m78.04,71.51c.3,1.58.44,3.18.56,4.78.06.76.11,1.54.25,2.3.15.8.34,1.59.48,2.39.15.88.26,1.78.28,2.68,0,.18.2.19.33.13.16-.07.33-.26.32-.45-.05-1.59-.51-3.16-.86-4.7-.17-.76-.26-1.53-.36-2.31s-.2-1.57-.32-2.35c-.14-.87-.3-1.72-.57-2.56-.02-.06-.12.03-.11.08h0Z"/>
  <path class="cls-1" d="m77.21,68.17c.02.14.03.28.05.43s.05.28.07.42c.05.27.14.52.25.77.02.05.09-.02.09-.05,0-.29-.03-.58-.09-.86-.03-.13-.05-.27-.09-.4s-.08-.26-.13-.39c-.03-.08-.16.04-.15.09h0Z"/>
  <path class="cls-1" d="m76.51,74.54c.11.78.25,1.56.34,2.34s.14,1.54.22,2.3c.07.64.15,1.28.27,1.92s.26,1.28.37,1.92c.06.33.1.66.13,1,.02.3,0,.6.01.9,0,.1.09.11.17.09.1-.03.18-.13.21-.23.16-.54.05-1.16-.04-1.71-.1-.64-.24-1.28-.38-1.92-.3-1.38-.42-2.78-.61-4.18-.12-.84-.24-1.73-.56-2.52-.03-.07-.14.03-.13.08h0Z"/>
  <path class="cls-1" d="m75.67,80.14c.17.43.3.88.42,1.33.14.5.25,1.01.33,1.52s.13,1,.16,1.5c.01.22.02.45.01.67,0,.2-.05.4.05.58.05.09.17-.02.2-.07.05-.1.1-.19.11-.31,0-.11,0-.22,0-.32,0-.24-.01-.47-.03-.71-.04-.51-.11-1.01-.21-1.51-.18-.95-.43-1.92-.97-2.74-.02-.03-.09.03-.08.06h0Z"/>
  <path class="cls-1" d="m74.94,82.67c.14.64.27,1.27.4,1.91.06.31.12.63.18.94.03.16.06.32.09.48.03.15.04.31.18.39.06.03.15-.06.16-.1.11-.29-.03-.65-.1-.94-.08-.31-.15-.63-.23-.94-.16-.62-.34-1.22-.58-1.82-.02-.06-.11.03-.1.07h0Z"/>
  <path class="cls-1" d="m74.29,84.94c.02.29.04.59.09.88.03.14.05.27.08.41.01.07.03.14.06.21.02.06.04.12.1.16.05.03.1-.03.11-.07.05-.14.02-.31-.01-.45-.03-.13-.06-.27-.09-.4-.06-.27-.15-.53-.25-.79-.02-.05-.1.02-.09.06h0Z"/>
  <path class="cls-1" d="m73.26,82.34c0,.22.02.43.07.64.02.09.03.2.07.28.04.09.09.18.14.27.03.05.1-.02.1-.06,0-.11,0-.23,0-.34,0-.1-.03-.21-.05-.31-.02-.09-.04-.19-.07-.28-.03-.1-.07-.19-.11-.29-.04-.08-.15.04-.15.09h0Z"/>
  <path class="cls-1" d="m72.77,85.94c0,.15,0,.3.03.45.02.13.04.26.07.39s.07.25.11.37c.02.07.05.13.09.19.02.04.04.04.07.07.03.02.04.04.07.06.04.02.11-.04.11-.08.04-.28-.1-.54-.17-.8-.03-.12-.07-.24-.11-.36-.04-.13-.09-.24-.15-.36-.03-.07-.14.03-.13.08h0Z"/>
  <path class="cls-1" d="m71.33,87.15c.02.2.03.4.08.59.03.09.06.18.1.27.02.04.04.08.08.12s.07.06.1.1c.04.04.11-.04.1-.08-.02-.09-.04-.19-.06-.28s-.06-.19-.08-.28c-.05-.17-.11-.34-.17-.51-.03-.07-.14.03-.14.08h0Z"/>
  <path class="cls-1" d="m27.8,53.33c.43,2.69,1,5.36,1.63,8.01.09.38.17.76.28,1.13s.27.69.41,1.03c.03.06.12-.03.12-.07-.03-.35-.05-.7-.1-1.05-.05-.33-.13-.65-.21-.97-.16-.66-.32-1.32-.49-1.98-.33-1.31-.65-2.63-.98-3.94-.18-.74-.38-1.48-.57-2.22-.01-.05-.11.02-.11.06h0Z"/>
  <path class="cls-1" d="m29.79,54.84c.26,1.48.54,2.96.82,4.43.14.73.28,1.46.43,2.19s.28,1.47.58,2.17c.03.07.14-.03.13-.08-.03-.77-.18-1.51-.35-2.27s-.31-1.44-.47-2.16c-.33-1.46-.66-2.91-1.01-4.36-.02-.06-.14.03-.13.08h0Z"/>
  <path class="cls-1" d="m31.63,56.05c.26,1.43.54,2.87.81,4.3.13.7.25,1.4.39,2.1s.2,1.45.56,2.06c.03.06.11-.03.11-.07.05-.74-.15-1.47-.28-2.19s-.28-1.4-.43-2.11c-.29-1.4-.6-2.81-1.04-4.17-.02-.06-.12.03-.11.08h0Z"/>
  <path class="cls-1" d="m33.68,60.92c0,.61.16,1.23.28,1.83.06.3.12.6.18.9s.12.6.27.87c.03.05.1-.03.11-.06.03-.61-.16-1.23-.29-1.82-.06-.3-.13-.59-.2-.88s-.14-.6-.27-.88c-.02-.04-.08.02-.08.05h0Z"/>
  <path class="cls-1" d="m35.02,62.69c.05.34.1.68.17,1.01.03.17.06.34.1.51.04.19.12.35.2.52.02.05.09-.02.09-.05,0-.21,0-.41-.04-.62-.03-.17-.07-.33-.11-.5-.07-.33-.16-.65-.24-.98-.02-.09-.18.04-.17.1h0Z"/>
  <path class="cls-1" d="m36.42,62.97c0,.31.05.62.14.92.05.16.08.34.16.49.04.07.09.13.12.2s.07.15.12.22c.03.05.11-.05.11-.08,0-.09,0-.18,0-.27,0-.1,0-.19,0-.29-.02-.18-.08-.35-.13-.52-.04-.15-.1-.29-.16-.43-.05-.12-.11-.23-.17-.35-.05-.1-.19.05-.19.12h0Z"/>
  <path class="cls-1" d="m31.13,52.97c.02.14,0,.29,0,.43.01.13.04.26.05.39s.05.25.09.37.1.23.16.34c.03.05.09-.02.09-.06,0-.14.02-.29,0-.43-.02-.13-.03-.26-.07-.38-.03-.12-.06-.24-.1-.36s-.12-.23-.15-.35c-.01-.04-.09.02-.08.05h0Z"/>
  <path class="cls-1" d="m69.54,44.22c.35,1.62.56,3.25.78,4.89.1.7.18,1.41.32,2.11s.31,1.33.45,1.99c.08.37.14.73.18,1.1.02.18.03.36.03.53,0,.15-.01.3.04.44.04.1.18-.03.21-.08.13-.28.1-.59.08-.89-.03-.32-.08-.63-.13-.95-.13-.68-.31-1.36-.46-2.03-.34-1.48-.47-3-.73-4.5-.16-.92-.35-1.83-.63-2.72-.02-.07-.14.03-.13.09h0Z"/>
  <path class="cls-1" d="m68.72,47.88c.09.75.26,1.49.42,2.23s.33,1.52.48,2.28.29,1.55.4,2.33c.05.37.09.74.13,1.11.02.2.04.4.05.6,0,.08,0,.18.03.26s.09.09.14.15c.03.04.1-.03.11-.06.03-.09.09-.17.11-.27.02-.09,0-.18,0-.27-.02-.2-.04-.39-.06-.59-.04-.37-.09-.74-.15-1.1-.12-.76-.27-1.51-.43-2.27s-.34-1.5-.52-2.25-.34-1.5-.57-2.23c-.02-.06-.13.03-.12.07h0Z"/>
  <path class="cls-1" d="m67.53,49.14c.22,1.39.49,2.77.77,4.15.14.69.28,1.38.42,2.08s.25,1.4.43,2.09c.04.14.28-.06.27-.16-.1-.67-.27-1.34-.41-2.01-.15-.7-.3-1.4-.45-2.1-.29-1.37-.59-2.74-.94-4.1-.01-.05-.11.02-.1.06h0Z"/>
  <path class="cls-1" d="m67.69,56.03c.07.16.11.33.16.5s.09.34.12.51.05.33.07.5c.01.08.03.16.05.24s.07.13.12.19c.03.04.11-.04.12-.07.01-.09.03-.18.03-.28,0-.09-.02-.18-.04-.26-.03-.17-.06-.33-.1-.5s-.08-.33-.14-.49-.17-.31-.26-.44c-.04-.05-.14.05-.12.1h0Z"/>
  <path class="cls-1" d="m66.62,56.92c.01.3.08.58.13.87.03.15.06.31.08.46.01.07.03.15.05.22.02.09.06.13.12.19.04.04.1-.03.11-.07.02-.08.04-.16.03-.25-.01-.07-.03-.15-.04-.22-.04-.16-.07-.31-.11-.46-.07-.28-.12-.57-.23-.84-.03-.08-.15.04-.15.09h0Z"/>
  <path class="cls-1" d="m65.81,57.99c.02.16.03.32.07.48.01.08.03.15.04.23,0,.04.02.07.03.11.01.05.02.07.06.1l-.03-.03s.04.08.07.1c.04.03.1-.03.11-.07.02-.05.01-.1.02-.14s0-.1,0-.14c-.01-.08-.03-.17-.05-.25-.04-.16-.09-.32-.14-.48-.03-.09-.18.04-.18.1h0Z"/>
  <path class="cls-1" d="m67.93,44.66c-.03.26-.02.51.02.77.02.13.04.26.07.39s.08.26.14.38c.02.05.1-.02.1-.06,0-.28-.04-.55-.09-.83-.04-.24-.08-.48-.1-.72,0-.04-.04-.04-.07-.03-.04.02-.07.06-.07.1h0Z"/>
  <path class="cls-1" d="m68.89,41.51c0,.18,0,.37.05.54.02.09.04.18.07.27.04.09.06.2.11.28.02.04.07-.02.08-.05,0-.11,0-.23-.02-.34,0-.09-.03-.19-.04-.28-.03-.17-.09-.32-.16-.47-.02-.05-.09.02-.09.05h0Z"/>
  <path class="cls-1" d="m28.04,31.12c.21,1.38.5,2.75.84,4.1.17.67.34,1.35.51,2.02.09.34.16.69.27,1.02s.24.63.39.93c.03.06.13-.03.12-.07-.02-.37-.06-.73-.12-1.09-.06-.34-.17-.66-.26-.99-.18-.67-.36-1.33-.54-2-.36-1.33-.74-2.66-1.1-3.99-.02-.06-.12.02-.12.07h0Z"/>
  <path class="cls-1" d="m29.75,32.23c.17,1.21.43,2.41.69,3.59.13.59.26,1.17.39,1.76s.28,1.13.48,1.69c.02.06.12-.03.12-.07-.05-.59-.13-1.16-.26-1.73s-.28-1.18-.42-1.78c-.28-1.18-.57-2.36-.9-3.52-.02-.05-.11.02-.11.06h0Z"/>
  <path class="cls-1" d="m31.4,33.13c.17,1.01.35,2.01.54,3.01.1.5.2,1.01.3,1.51s.19.99.39,1.46c.03.07.14-.03.13-.08-.02-.52-.12-1.01-.22-1.52s-.21-1-.32-1.49c-.22-.99-.45-1.98-.71-2.96-.01-.06-.12.02-.12.07h0Z"/>
  <path class="cls-1" d="m33.26,36.14c.06.5.14,1,.24,1.49s.13,1.02.38,1.44c.03.05.1-.03.11-.06.03-.51-.12-1.01-.23-1.5s-.23-.97-.37-1.45c-.02-.06-.12.03-.12.07h0Z"/>
  <path class="cls-1" d="m34.63,36.76c.05.46.12.9.2,1.35.04.23.09.46.14.69.02.12.04.23.08.35s.1.22.16.33c.03.05.1-.02.1-.06,0-.26,0-.48-.05-.73-.05-.24-.1-.47-.15-.7-.1-.44-.21-.86-.35-1.29-.02-.06-.13.03-.12.07h0Z"/>
  <path class="cls-1" d="m35.78,37.55c.02.34.09.68.16,1.01.03.16.05.33.1.49s.11.31.18.45c.03.06.12-.03.12-.07,0-.18-.01-.35-.02-.53s-.07-.34-.1-.5c-.07-.32-.13-.65-.25-.96-.04-.1-.19.05-.19.11h0Z"/>
  <path class="cls-1" d="m36.96,37.75c0,.12.01.24.03.36.02.11.04.21.05.32.03.21.03.44.11.64.02.06.1-.03.11-.05.08-.23.06-.48.03-.72-.02-.11-.04-.22-.06-.33s-.07-.21-.1-.32c-.03-.09-.17.04-.17.1h0Z"/>
  <path class="cls-1" d="m35.53,35.67c0,.06,0,.13.02.19,0,.05.01.11.03.16s.04.1.06.14.04.1.07.15c0,.01.03,0,.04,0,.02-.01.03-.03.03-.05,0-.06,0-.12,0-.18s0-.12,0-.18c0-.06-.02-.11-.04-.17s-.04-.1-.06-.15c-.01-.04-.06-.02-.08,0-.03.02-.07.06-.06.1h0Z"/>
  <path class="cls-1" d="m30.74,31.01c.05.17.09.34.15.5.02.08.05.15.08.23s.06.15.09.22c.02.04.08-.02.08-.05,0-.09,0-.18-.01-.27s-.02-.18-.05-.27c-.04-.17-.13-.31-.25-.44-.03-.04-.1.04-.09.07h0Z"/>
  <path class="cls-1" d="m60.24,22.72c.03.62.15,1.25.24,1.87s.18,1.24.27,1.86c.17,1.22.35,2.43.59,3.64.07.34.14.68.22,1.02.04.16.08.32.12.49s.07.34.21.45c.06.05.16-.04.17-.1.06-.28-.06-.57-.13-.85-.07-.3-.14-.6-.21-.91-.13-.62-.25-1.25-.35-1.88-.2-1.22-.39-2.44-.59-3.66-.11-.65-.21-1.35-.46-1.96-.02-.04-.07.02-.07.04h0Z"/>
  <path class="cls-1" d="m59.36,26.77c.22,1.2.55,2.38.83,3.57.14.6.27,1.2.35,1.8.07.54.09,1.07.08,1.61,0,.15.23,0,.24-.09.07-.53,0-1.08-.07-1.61-.09-.6-.22-1.19-.36-1.78-.3-1.2-.68-2.38-.96-3.58-.01-.06-.12.03-.11.08h0Z"/>
  <path class="cls-1" d="m58.4,26.95c.15,1.23.43,2.44.69,3.66.13.6.26,1.2.39,1.8.07.3.13.6.2.89s.11.59.3.84c.05.07.15-.07.16-.11.07-.59-.15-1.22-.28-1.8-.14-.6-.29-1.2-.44-1.8-.3-1.18-.57-2.36-.92-3.52-.01-.04-.09.02-.08.05h0Z"/>
  <path class="cls-1" d="m58.37,31.71c.02.45.14.89.26,1.32s.18.88.39,1.27c.03.05.1-.02.1-.06.01-.46-.14-.88-.26-1.32s-.22-.86-.39-1.27c-.02-.05-.1.02-.09.06h0Z"/>
  <path class="cls-1" d="m57.77,32.75c.01.16.03.32.06.49s.06.31.09.46.05.31.09.46.09.29.16.43c.03.05.1-.03.11-.06,0-.17,0-.33-.03-.5-.03-.15-.07-.3-.1-.46s-.07-.3-.1-.45-.08-.3-.14-.45c-.02-.07-.13.03-.13.08h0Z"/>
  <path class="cls-1" d="m56.9,33.94c0,.22.03.43.08.64.02.1.04.19.06.29,0,.05.03.09.05.14s.04.1.07.14c.03.03.08-.02.09-.05.01-.06,0-.12,0-.18s0-.12,0-.17c-.02-.1-.04-.19-.06-.29-.04-.2-.1-.39-.18-.58-.02-.06-.11.03-.11.06h0Z"/>
  <path class="cls-1" d="m56.17,34.2c0,.13,0,.25.03.37.02.11.03.22.05.33s.04.22.07.32c.02.1.04.24.12.3.04.03.1-.03.11-.07.03-.12,0-.24-.01-.36-.02-.11-.04-.22-.07-.32s-.06-.21-.08-.31c-.03-.11-.07-.21-.12-.32-.02-.05-.09.02-.09.06h0Z"/>
  <path class="cls-1" d="m56.55,31.87c0,.09,0,.18.03.27.02.08.02.16.05.23.01.04.02.07.03.11.01.03.03.06.04.09.02.05.05.11.07.17.02.05.1-.02.09-.06,0-.07,0-.13,0-.2,0-.04,0-.07,0-.11,0-.04,0-.08-.01-.12,0-.08-.03-.16-.05-.24s-.05-.15-.08-.23c-.03-.08-.16.04-.16.09h0Z"/>
  <path class="cls-2" d="m41.58,17.32c-.95-1.11-2.06-2.06-3.09-3.09-.39-.39-.77-.79-1.07-1.25-.21-.34-.4-.7-.56-1.06-.33-.74-.6-1.56-.55-2.38.02-.33.11-.66.28-.9.09-.12.18-.21.32-.3.15-.1.34-.17.52-.21.68-.18,1.36-.09,1.99.22s1.18.83,1.67,1.34c.13.14.39-.09.44-.21.24-.61.61-1.18,1.11-1.61.41-.36.94-.65,1.5-.59.68.07,1.12.68,1.38,1.26.39.86.43,1.82.1,2.71-.18.47-.44.91-.72,1.33s-.62.82-.81,1.31c-.03.08.04.11.1.07.22-.16.42-.33.59-.53s.32-.41.46-.62c.3-.43.58-.88.78-1.36.42-.97.5-2.01.14-3.02-.26-.73-.78-1.49-1.59-1.64-.69-.13-1.38.17-1.92.58-.71.53-1.27,1.29-1.59,2.11l.44-.21c-.94-.99-2.11-1.89-3.56-1.69-.93.13-1.76.65-2.05,1.58-.25.82-.05,1.74.23,2.53s.72,1.65,1.3,2.29c1.19,1.32,2.67,2.33,3.98,3.52.06.06.2-.08.15-.15h0Z"/>
  <path class="cls-2" d="m43.55,15.07c-.18.16-.37.32-.54.49s-.35.36-.52.53-.33.34-.49.52c-.08.09-.17.16-.25.24-.09.1-.22.23-.24.37s.08.2.2.13c.23-.13.34-.38.5-.58.15-.18.31-.36.47-.53s.33-.36.49-.54.3-.39.43-.6c.03-.05-.02-.07-.06-.03h0Z"/>
  <path class="cls-2" d="m47.23,9.35c.08.61.09,1.25-.03,1.85-.12.56-.35,1.08-.64,1.57-.61,1.01-1.44,1.86-2.21,2.74-.22.25-.43.5-.66.74-.2.22-.54.53-.53.85,0,.16.19.1.27.05.26-.16.42-.46.57-.71s.34-.48.54-.71c.4-.47.82-.92,1.22-1.4.76-.9,1.48-1.9,1.73-3.08.14-.67.1-1.34-.15-1.98-.02-.06-.12.03-.11.07h0Z"/>
</svg>