<svg width="21" height="19" viewBox="0 0 21 19" fill="none" xmlns="http://www.w3.org/2000/svg">
<path d="M17.6843 10.575L16.8305 11.5375L12.9429 15.9026C11.6377 17.3658 9.3632 17.3658 8.05799 15.9026L3.30958 10.575C1.56347 8.61104 1.56347 5.43421 3.30958 3.47029C4.18788 2.49362 5.33212 2.00353 6.47635 2.00353C6.57433 2.00353 6.66881 2.00353 6.76679 2.0141C8.33793 2.12693 9.61164 3.34336 9.94406 4.89123L10.3675 6.8622C10.399 7.00676 10.6019 7.00676 10.6334 6.8622L11.0568 4.8877C11.3892 3.33631 12.6664 2.12341 14.2341 2.01058C14.3321 2.00353 14.4265 2 14.5245 2C15.6688 2 16.8165 2.4901 17.6878 3.47029C19.4374 5.43421 19.4374 8.61104 17.6878 10.575H17.6843Z" fill="#E32D73" stroke="#E32D73" stroke-width="2.83" stroke-miterlimit="10"/>
</svg>
