<svg width="78" height="88" viewBox="0 0 78 88" fill="none" xmlns="http://www.w3.org/2000/svg">
<path d="M29.5312 25.8364C25.1414 27.3479 20.664 29.5385 16.099 32.4082C5.82003 38.7206 0.5 45.4596 0.5 52.6653C0.5 55.8474 2.01076 58.7246 4.92595 61.2952L4.93864 61.306C8.07462 63.8905 12.586 65.4681 18.4197 66.084C18.3767 66.6993 18.3559 67.4826 18.3559 68.4218C18.3559 73.9974 20.4562 78.5357 24.6598 81.9921C28.3596 85.1533 32.9802 86.7214 38.4754 86.7214C40.6801 86.7214 42.6329 85.9376 44.3145 84.3916C45.9953 82.8463 46.8642 81.0416 46.8642 78.9829C46.8642 78.0143 46.7658 77.2228 46.528 76.6561C46.4069 76.3675 46.2389 76.1108 46.0041 75.9251C45.7618 75.7334 45.4765 75.6401 45.1701 75.6401C44.7487 75.6401 44.2708 75.7154 43.987 76.0662C43.6743 76.4528 43.7721 76.9342 43.9311 77.3017C44.1897 77.9089 44.3054 78.4124 44.3054 78.8229C44.3054 80.166 43.7537 81.3766 42.5928 82.4792C41.4377 83.5717 40.0724 84.1117 38.4704 84.1117C33.6651 84.1117 29.7227 82.6965 26.6094 79.8958C23.5142 77.1114 21.9489 73.3088 21.9489 68.4218C21.9489 67.4981 21.9694 66.7741 22.0085 66.2426C33.1604 66.1685 42.1302 63.361 48.8669 57.7655L48.8674 57.7651C55.0138 52.6467 58.1852 47.3343 58.1852 41.8359C58.1852 39.5564 57.6833 37.7001 56.6277 36.3276C57.6443 36.0784 59.049 35.7726 60.846 35.4127C63.1656 34.9481 65.027 34.5338 66.4226 34.175C70.1564 33.3021 73.1213 31.7632 75.2808 29.5331C75.2888 29.5249 75.2965 29.5164 75.3038 29.5077C76.7054 27.8461 77.5 26.3311 77.5 25.0062C77.5 23.7833 77.2041 22.7131 76.5798 21.8244C76.5532 21.7866 76.5216 21.7527 76.4857 21.7236C76.0899 21.4025 75.6154 21.1764 75.1114 21.3079C74.8315 21.3801 74.5951 21.5642 74.49 21.8663C74.4 22.1248 74.4298 22.4066 74.4906 22.6577C74.588 23.0599 74.6315 23.4121 74.6315 23.7216C74.6315 24.7686 73.8767 25.9959 72.0713 27.4031C71.2268 28.0613 69.8039 28.7195 67.753 29.3579C65.7129 29.9929 63.0928 30.596 59.8875 31.164C59.4739 31.2361 57.9016 31.5041 55.1684 31.9685L55.1677 31.9686C52.43 32.4381 50.4868 32.7957 49.331 33.0459L49.3289 33.0463C48.1797 33.3003 46.0471 33.8018 42.935 34.5498L42.9344 34.5499C39.7613 35.3166 36.8012 36.6085 34.0564 38.4241C25.7449 43.7189 20.7122 51.6299 18.9616 62.1026C15.0623 61.7142 12.1909 60.6858 10.2832 59.0737C8.32087 57.4154 7.32041 55.0905 7.32041 52.0307C7.32041 46.5531 11.0338 40.8582 18.7476 34.9551C23.5964 31.3393 27.8237 28.9713 31.4302 27.8199C33.8869 29.6386 36.6413 30.552 39.6745 30.552C42.7077 30.552 44.8951 29.771 45.9437 27.9945C46.2864 27.6171 46.4545 27.1454 46.4545 26.6211C46.4545 26.1035 46.2993 25.6335 45.9842 25.2325C45.6749 24.8389 45.2325 24.538 44.6958 24.3105C43.6327 23.8599 42.0976 23.655 40.1391 23.655H40.1291C38.0765 23.655 35.7502 24.0309 33.156 24.7616C32.5521 23.8889 32.2207 22.6351 32.2207 20.9407C32.2207 19.1056 32.7137 17.3294 33.7114 15.6155C35.4604 12.6255 38.2341 9.89221 42.0639 7.42037C45.8417 4.98726 50.5827 3.74946 56.3263 3.74946C57.5051 3.74946 58.7586 3.98753 60.0953 4.47008C61.1052 4.87475 61.8235 5.38983 62.2896 5.9949C62.7521 6.59544 62.9907 7.31607 62.9907 8.18175C62.9907 9.25747 62.5756 10.3706 61.6907 11.519C60.8119 12.6596 60.006 13.1276 59.2762 13.145L57.5597 12.8336C57.5302 12.8283 57.5003 12.8256 57.4704 12.8256C56.9669 12.8256 56.4977 12.9246 56.147 13.2042C55.775 13.5009 55.6215 13.9308 55.6215 14.3987C55.6215 14.7297 55.6997 15.0427 55.8721 15.3197C56.0436 15.5952 56.2907 15.8072 56.5861 15.9655C57.1619 16.2739 57.9617 16.4001 58.9243 16.4001C60.9466 16.4001 62.7812 15.5626 64.4161 13.95C66.0578 12.3361 66.9586 10.4172 67.1071 8.2154C67.1072 8.21311 67.1074 8.21082 67.1075 8.20853C67.1077 8.2043 67.1079 8.20007 67.108 8.19583C67.1797 5.64977 66.2377 3.68111 64.2597 2.37792C62.3221 1.10129 59.4457 0.5 55.7068 0.5C50.0307 0.5 44.4212 1.77074 38.8922 4.28858C34.1924 6.31857 30.6473 9.04926 28.2996 12.5028C27.4008 13.8226 26.9691 15.4649 26.9691 17.3963C26.9691 20.7713 27.8126 23.5971 29.5312 25.8364ZM26.3792 61.9349L26.3792 61.9348L26.3662 61.9366C25.0677 62.1168 23.7737 62.221 22.4776 62.2458C24.7986 50.9756 32.3886 42.8279 45.3766 37.8196C47.9298 37.1767 49.5576 36.8773 50.3111 36.8773C51.5247 36.8773 52.3514 37.2358 52.8883 37.8777C53.4396 38.5367 53.758 39.5794 53.758 41.0929V41.0981C53.758 45.1992 51.6783 49.2548 47.3781 53.2738C42.2136 58.0445 35.2281 60.9429 26.3792 61.9349ZM40.0841 26.4762C40.9855 26.4762 41.6053 26.5566 41.983 26.6887C42.1697 26.754 42.2617 26.82 42.3025 26.8628C42.3322 26.8941 42.337 26.9128 42.337 26.941V26.9461C42.337 27.0824 42.3022 27.1813 42.2431 27.2632C42.1803 27.3503 42.069 27.4469 41.874 27.5371C41.4713 27.7232 40.8058 27.8392 39.8244 27.8392C38.3513 27.8392 36.9582 27.5158 35.6402 26.8648C37.2 26.606 38.6803 26.4762 40.0841 26.4762Z" fill="#E32D73" stroke="#E32D73" stroke-linejoin="round"/>
</svg>
